G04 #@! TF.GenerationSoftware,KiCad,Pcbnew,(6.0.11)*
G04 #@! TF.CreationDate,2023-06-26T12:51:04-05:00*
G04 #@! TF.ProjectId,future_badge,66757475-7265-45f6-9261-6467652e6b69,2*
G04 #@! TF.SameCoordinates,Original*
G04 #@! TF.FileFunction,Soldermask,Bot*
G04 #@! TF.FilePolarity,Negative*
%FSLAX46Y46*%
G04 Gerber Fmt 4.6, Leading zero omitted, Abs format (unit mm)*
G04 Created by KiCad (PCBNEW (6.0.11)) date 2023-06-26 12:51:04*
%MOMM*%
%LPD*%
G01*
G04 APERTURE LIST*
G04 Aperture macros list*
%AMHorizOval*
0 Thick line with rounded ends*
0 $1 width*
0 $2 $3 position (X,Y) of the first rounded end (center of the circle)*
0 $4 $5 position (X,Y) of the second rounded end (center of the circle)*
0 Add line between two ends*
20,1,$1,$2,$3,$4,$5,0*
0 Add two circle primitives to create the rounded ends*
1,1,$1,$2,$3*
1,1,$1,$4,$5*%
%AMRotRect*
0 Rectangle, with rotation*
0 The origin of the aperture is its center*
0 $1 length*
0 $2 width*
0 $3 Rotation angle, in degrees counterclockwise*
0 Add horizontal line*
21,1,$1,$2,0,0,$3*%
G04 Aperture macros list end*
%ADD10C,0.100000*%
%ADD11C,1.600000*%
%ADD12R,1.800000X1.800000*%
%ADD13C,1.800000*%
%ADD14O,1.600000X1.600000*%
%ADD15R,1.700000X1.700000*%
%ADD16O,1.700000X1.700000*%
%ADD17C,1.700000*%
%ADD18RotRect,1.727200X1.727200X258.500000*%
%ADD19C,1.727200*%
%ADD20HorizOval,1.727200X0.000000X0.000000X0.000000X0.000000X0*%
%ADD21R,1.200000X1.800000*%
%ADD22O,1.200000X1.800000*%
%ADD23R,2.000000X2.000000*%
%ADD24C,2.000000*%
%ADD25C,0.500000*%
G04 APERTURE END LIST*
G36*
X69824000Y-21714000D02*
G01*
X74454000Y-21744000D01*
X78374000Y-21754000D01*
X85124000Y-21784000D01*
X87924000Y-21794000D01*
X94644000Y-21814000D01*
X99844000Y-21854000D01*
X107054000Y-21884000D01*
X111594000Y-21894000D01*
X116034000Y-21934000D01*
X116734000Y-21934000D01*
X117744000Y-22364000D01*
X121484000Y-26074000D01*
X120114000Y-30154000D01*
X116414000Y-30214000D01*
X116914000Y-31144000D01*
X117594000Y-32704000D01*
X118304000Y-34764000D01*
X118574000Y-35794000D01*
X121664000Y-35744000D01*
X122404000Y-36604000D01*
X122574000Y-40274000D01*
X120364000Y-40294000D01*
X114274000Y-40304000D01*
X106204000Y-40364000D01*
X94364000Y-40404000D01*
X76384000Y-40494000D01*
X75894000Y-40404000D01*
X75704000Y-39474000D01*
X75334000Y-37624000D01*
X74794000Y-36024000D01*
X73934000Y-36004000D01*
X66494000Y-35914000D01*
X62524000Y-35854000D01*
X62414000Y-34894000D01*
X61834000Y-32344000D01*
X61404000Y-30924000D01*
X56264000Y-30804000D01*
X54654000Y-25964000D01*
X65374000Y-25984000D01*
X65384000Y-25644000D01*
X65174000Y-23914000D01*
X64514000Y-21684000D01*
X69824000Y-21714000D01*
G37*
D10*
X69824000Y-21714000D02*
X74454000Y-21744000D01*
X78374000Y-21754000D01*
X85124000Y-21784000D01*
X87924000Y-21794000D01*
X94644000Y-21814000D01*
X99844000Y-21854000D01*
X107054000Y-21884000D01*
X111594000Y-21894000D01*
X116034000Y-21934000D01*
X116734000Y-21934000D01*
X117744000Y-22364000D01*
X121484000Y-26074000D01*
X120114000Y-30154000D01*
X116414000Y-30214000D01*
X116914000Y-31144000D01*
X117594000Y-32704000D01*
X118304000Y-34764000D01*
X118574000Y-35794000D01*
X121664000Y-35744000D01*
X122404000Y-36604000D01*
X122574000Y-40274000D01*
X120364000Y-40294000D01*
X114274000Y-40304000D01*
X106204000Y-40364000D01*
X94364000Y-40404000D01*
X76384000Y-40494000D01*
X75894000Y-40404000D01*
X75704000Y-39474000D01*
X75334000Y-37624000D01*
X74794000Y-36024000D01*
X73934000Y-36004000D01*
X66494000Y-35914000D01*
X62524000Y-35854000D01*
X62414000Y-34894000D01*
X61834000Y-32344000D01*
X61404000Y-30924000D01*
X56264000Y-30804000D01*
X54654000Y-25964000D01*
X65374000Y-25984000D01*
X65384000Y-25644000D01*
X65174000Y-23914000D01*
X64514000Y-21684000D01*
X69824000Y-21714000D01*
G36*
X117434000Y-46830000D02*
G01*
X117654000Y-47840000D01*
X117674000Y-49970000D01*
X118004000Y-50520000D01*
X119004000Y-50350000D01*
X119814000Y-50340000D01*
X120524000Y-50960000D01*
X120624000Y-52090000D01*
X120584000Y-53180000D01*
X120794000Y-54070000D01*
X121524000Y-54330000D01*
X122224000Y-53650000D01*
X122514000Y-52950000D01*
X123214000Y-52770000D01*
X123884000Y-53140000D01*
X124494000Y-53890000D01*
X124894000Y-54920000D01*
X125394000Y-55780000D01*
X126004000Y-56060000D01*
X126834000Y-55510000D01*
X126994000Y-54450000D01*
X127384000Y-53790000D01*
X128534000Y-53410000D01*
X129734000Y-53170000D01*
X131244000Y-53390000D01*
X132204000Y-53830000D01*
X133274000Y-54430000D01*
X134804000Y-54170000D01*
X136244000Y-53740000D01*
X137704000Y-53500000D01*
X138264000Y-53690000D01*
X138164000Y-54900000D01*
X137554000Y-55780000D01*
X136654000Y-56270000D01*
X135514000Y-56570000D01*
X135094000Y-57340000D01*
X135404000Y-58140000D01*
X136334000Y-58810000D01*
X137294000Y-58700000D01*
X139024000Y-57760000D01*
X140204000Y-56910000D01*
X141244000Y-56090000D01*
X142834000Y-56250000D01*
X145764000Y-57110000D01*
X146854000Y-57220000D01*
X148124000Y-57580000D01*
X148744000Y-58600000D01*
X148904000Y-59670000D01*
X148704000Y-61060000D01*
X148814000Y-62200000D01*
X149604000Y-64130000D01*
X149554000Y-65000000D01*
X149004000Y-65680000D01*
X147714000Y-66060000D01*
X146744000Y-66520000D01*
X146354000Y-67350000D01*
X146494000Y-68500000D01*
X146774000Y-69450000D01*
X146474000Y-70850000D01*
X146084000Y-72020000D01*
X143654000Y-73510000D01*
X141414000Y-74080000D01*
X138694000Y-74570000D01*
X135944000Y-74270000D01*
X134464000Y-74160000D01*
X133634000Y-74350000D01*
X133524000Y-75110000D01*
X134264000Y-75830000D01*
X135644000Y-76480000D01*
X136294000Y-77480000D01*
X136434000Y-78740000D01*
X135794000Y-79670000D01*
X134714000Y-79610000D01*
X133454000Y-79320000D01*
X132504000Y-79480000D01*
X132484000Y-81090000D01*
X134454000Y-83160000D01*
X138314000Y-84930000D01*
X138784000Y-85820000D01*
X138554000Y-86770000D01*
X137874000Y-87100000D01*
X136894000Y-86910000D01*
X135434000Y-86380000D01*
X133694000Y-86110000D01*
X132904000Y-86400000D01*
X132034000Y-90150000D01*
X131444000Y-90530000D01*
X130844000Y-90530000D01*
X130344000Y-90260000D01*
X130054000Y-89620000D01*
X129994000Y-88800000D01*
X129694000Y-86450000D01*
X129474000Y-85820000D01*
X129204000Y-85440000D01*
X128674000Y-85380000D01*
X128194000Y-85630000D01*
X127624000Y-86380000D01*
X127274000Y-86690000D01*
X126044000Y-86730000D01*
X125054000Y-86960000D01*
X122574000Y-87850000D01*
X121254000Y-87830000D01*
X120384000Y-87960000D01*
X119254000Y-88820000D01*
X117824000Y-89730000D01*
X116624000Y-90240000D01*
X115264000Y-90370000D01*
X114124000Y-90130000D01*
X113224000Y-89100000D01*
X112304000Y-88420000D01*
X110704000Y-87740000D01*
X107444000Y-87510000D01*
X105914000Y-87120000D01*
X105674000Y-86790000D01*
X105974000Y-85630000D01*
X107114000Y-85270000D01*
X108614000Y-85110000D01*
X109264000Y-84500000D01*
X110114000Y-83870000D01*
X110994000Y-83890000D01*
X111984000Y-84240000D01*
X112854000Y-84690000D01*
X113804000Y-84650000D01*
X114104000Y-84470000D01*
X114404000Y-82340000D01*
X114884000Y-81560000D01*
X115574000Y-80970000D01*
X115534000Y-80350000D01*
X115024000Y-79720000D01*
X114704000Y-78610000D01*
X114764000Y-77330000D01*
X115354000Y-76210000D01*
X115974000Y-75670000D01*
X118144000Y-75270000D01*
X119324000Y-75680000D01*
X120314000Y-75970000D01*
X121224000Y-76450000D01*
X122204000Y-76500000D01*
X123864000Y-76130000D01*
X125534000Y-75410000D01*
X125884000Y-74790000D01*
X126204000Y-73480000D01*
X126304000Y-71890000D01*
X126244000Y-70650000D01*
X126764000Y-70010000D01*
X128344000Y-69220000D01*
X129674000Y-68860000D01*
X130734000Y-68380000D01*
X131284000Y-67730000D01*
X131544000Y-66540000D01*
X131534000Y-65580000D01*
X131094000Y-65100000D01*
X130234000Y-64670000D01*
X129494000Y-63970000D01*
X129194000Y-63050000D01*
X128594000Y-61910000D01*
X126974000Y-61260000D01*
X124294000Y-60560000D01*
X119034000Y-59750000D01*
X117314000Y-59720000D01*
X114724000Y-59510000D01*
X113124000Y-59020000D01*
X112074000Y-57380000D01*
X111174000Y-52760000D01*
X111094000Y-50450000D01*
X111754000Y-48950000D01*
X113394000Y-48330000D01*
X114604000Y-47760000D01*
X115594000Y-46830000D01*
X116674000Y-46580000D01*
X117434000Y-46830000D01*
G37*
X117434000Y-46830000D02*
X117654000Y-47840000D01*
X117674000Y-49970000D01*
X118004000Y-50520000D01*
X119004000Y-50350000D01*
X119814000Y-50340000D01*
X120524000Y-50960000D01*
X120624000Y-52090000D01*
X120584000Y-53180000D01*
X120794000Y-54070000D01*
X121524000Y-54330000D01*
X122224000Y-53650000D01*
X122514000Y-52950000D01*
X123214000Y-52770000D01*
X123884000Y-53140000D01*
X124494000Y-53890000D01*
X124894000Y-54920000D01*
X125394000Y-55780000D01*
X126004000Y-56060000D01*
X126834000Y-55510000D01*
X126994000Y-54450000D01*
X127384000Y-53790000D01*
X128534000Y-53410000D01*
X129734000Y-53170000D01*
X131244000Y-53390000D01*
X132204000Y-53830000D01*
X133274000Y-54430000D01*
X134804000Y-54170000D01*
X136244000Y-53740000D01*
X137704000Y-53500000D01*
X138264000Y-53690000D01*
X138164000Y-54900000D01*
X137554000Y-55780000D01*
X136654000Y-56270000D01*
X135514000Y-56570000D01*
X135094000Y-57340000D01*
X135404000Y-58140000D01*
X136334000Y-58810000D01*
X137294000Y-58700000D01*
X139024000Y-57760000D01*
X140204000Y-56910000D01*
X141244000Y-56090000D01*
X142834000Y-56250000D01*
X145764000Y-57110000D01*
X146854000Y-57220000D01*
X148124000Y-57580000D01*
X148744000Y-58600000D01*
X148904000Y-59670000D01*
X148704000Y-61060000D01*
X148814000Y-62200000D01*
X149604000Y-64130000D01*
X149554000Y-65000000D01*
X149004000Y-65680000D01*
X147714000Y-66060000D01*
X146744000Y-66520000D01*
X146354000Y-67350000D01*
X146494000Y-68500000D01*
X146774000Y-69450000D01*
X146474000Y-70850000D01*
X146084000Y-72020000D01*
X143654000Y-73510000D01*
X141414000Y-74080000D01*
X138694000Y-74570000D01*
X135944000Y-74270000D01*
X134464000Y-74160000D01*
X133634000Y-74350000D01*
X133524000Y-75110000D01*
X134264000Y-75830000D01*
X135644000Y-76480000D01*
X136294000Y-77480000D01*
X136434000Y-78740000D01*
X135794000Y-79670000D01*
X134714000Y-79610000D01*
X133454000Y-79320000D01*
X132504000Y-79480000D01*
X132484000Y-81090000D01*
X134454000Y-83160000D01*
X138314000Y-84930000D01*
X138784000Y-85820000D01*
X138554000Y-86770000D01*
X137874000Y-87100000D01*
X136894000Y-86910000D01*
X135434000Y-86380000D01*
X133694000Y-86110000D01*
X132904000Y-86400000D01*
X132034000Y-90150000D01*
X131444000Y-90530000D01*
X130844000Y-90530000D01*
X130344000Y-90260000D01*
X130054000Y-89620000D01*
X129994000Y-88800000D01*
X129694000Y-86450000D01*
X129474000Y-85820000D01*
X129204000Y-85440000D01*
X128674000Y-85380000D01*
X128194000Y-85630000D01*
X127624000Y-86380000D01*
X127274000Y-86690000D01*
X126044000Y-86730000D01*
X125054000Y-86960000D01*
X122574000Y-87850000D01*
X121254000Y-87830000D01*
X120384000Y-87960000D01*
X119254000Y-88820000D01*
X117824000Y-89730000D01*
X116624000Y-90240000D01*
X115264000Y-90370000D01*
X114124000Y-90130000D01*
X113224000Y-89100000D01*
X112304000Y-88420000D01*
X110704000Y-87740000D01*
X107444000Y-87510000D01*
X105914000Y-87120000D01*
X105674000Y-86790000D01*
X105974000Y-85630000D01*
X107114000Y-85270000D01*
X108614000Y-85110000D01*
X109264000Y-84500000D01*
X110114000Y-83870000D01*
X110994000Y-83890000D01*
X111984000Y-84240000D01*
X112854000Y-84690000D01*
X113804000Y-84650000D01*
X114104000Y-84470000D01*
X114404000Y-82340000D01*
X114884000Y-81560000D01*
X115574000Y-80970000D01*
X115534000Y-80350000D01*
X115024000Y-79720000D01*
X114704000Y-78610000D01*
X114764000Y-77330000D01*
X115354000Y-76210000D01*
X115974000Y-75670000D01*
X118144000Y-75270000D01*
X119324000Y-75680000D01*
X120314000Y-75970000D01*
X121224000Y-76450000D01*
X122204000Y-76500000D01*
X123864000Y-76130000D01*
X125534000Y-75410000D01*
X125884000Y-74790000D01*
X126204000Y-73480000D01*
X126304000Y-71890000D01*
X126244000Y-70650000D01*
X126764000Y-70010000D01*
X128344000Y-69220000D01*
X129674000Y-68860000D01*
X130734000Y-68380000D01*
X131284000Y-67730000D01*
X131544000Y-66540000D01*
X131534000Y-65580000D01*
X131094000Y-65100000D01*
X130234000Y-64670000D01*
X129494000Y-63970000D01*
X129194000Y-63050000D01*
X128594000Y-61910000D01*
X126974000Y-61260000D01*
X124294000Y-60560000D01*
X119034000Y-59750000D01*
X117314000Y-59720000D01*
X114724000Y-59510000D01*
X113124000Y-59020000D01*
X112074000Y-57380000D01*
X111174000Y-52760000D01*
X111094000Y-50450000D01*
X111754000Y-48950000D01*
X113394000Y-48330000D01*
X114604000Y-47760000D01*
X115594000Y-46830000D01*
X116674000Y-46580000D01*
X117434000Y-46830000D01*
G36*
X29942000Y-77084000D02*
G01*
X30892000Y-79564000D01*
X38352000Y-79194000D01*
X44672000Y-79144000D01*
X46692000Y-79794000D01*
X49322000Y-79874000D01*
X51712000Y-79494000D01*
X52682000Y-79964000D01*
X53642000Y-81414000D01*
X52592000Y-82004000D01*
X51362000Y-82594000D01*
X51372000Y-83064000D01*
X52402000Y-83274000D01*
X53892000Y-84454000D01*
X55592000Y-85204000D01*
X57722000Y-85844000D01*
X60332000Y-86214000D01*
X60362000Y-85294000D01*
X59302000Y-83824000D01*
X57972000Y-82434000D01*
X58322000Y-80714000D01*
X59962000Y-81964000D01*
X62112000Y-83914000D01*
X63202000Y-84244000D01*
X64082000Y-82654000D01*
X66972000Y-82844000D01*
X68782000Y-82594000D01*
X69092000Y-81484000D01*
X70412000Y-80824000D01*
X71092000Y-79144000D01*
X72072000Y-78634000D01*
X73862000Y-78504000D01*
X75012000Y-78954000D01*
X76052000Y-79654000D01*
X77472000Y-80114000D01*
X78912000Y-80874000D01*
X81052000Y-81114000D01*
X83912000Y-80994000D01*
X92412000Y-79524000D01*
X93382000Y-78424000D01*
X94982000Y-77994000D01*
X95602000Y-78844000D01*
X97942000Y-79294000D01*
X99202000Y-77514000D01*
X102362000Y-77804000D01*
X105452000Y-77704000D01*
X107202000Y-77104000D01*
X108552000Y-77524000D01*
X110092000Y-77514000D01*
X111512000Y-77834000D01*
X112222000Y-78574000D01*
X112612000Y-79134000D01*
X112822000Y-79654000D01*
X112882000Y-80284000D01*
X112472000Y-80834000D01*
X110932000Y-81664000D01*
X109592000Y-82334000D01*
X107802000Y-83064000D01*
X105762000Y-83694000D01*
X103942000Y-84604000D01*
X102632000Y-85094000D01*
X100292000Y-85454000D01*
X97852000Y-86344000D01*
X96502000Y-86874000D01*
X94572000Y-87284000D01*
X92502000Y-88014000D01*
X90372000Y-89164000D01*
X87922000Y-89724000D01*
X84732000Y-90004000D01*
X82882000Y-90514000D01*
X81312000Y-91484000D01*
X79142000Y-92184000D01*
X76432000Y-92574000D01*
X73642000Y-92864000D01*
X68242000Y-94224000D01*
X64782000Y-94754000D01*
X55942000Y-95484000D01*
X52782000Y-95324000D01*
X48512000Y-94534000D01*
X45162000Y-92104000D01*
X43602000Y-91234000D01*
X42522000Y-90304000D01*
X42272000Y-88744000D01*
X41682000Y-87384000D01*
X40862000Y-86284000D01*
X39302000Y-86214000D01*
X35002000Y-87294000D01*
X32992000Y-87764000D01*
X30002000Y-88564000D01*
X27822000Y-89144000D01*
X26932000Y-89014000D01*
X26362000Y-88764000D01*
X25862000Y-88314000D01*
X25662000Y-86524000D01*
X26052000Y-84674000D01*
X27322000Y-83224000D01*
X27122000Y-80714000D01*
X28042000Y-80054000D01*
X29042000Y-79794000D01*
X28382000Y-77704000D01*
X27622000Y-75664000D01*
X29942000Y-77084000D01*
G37*
X29942000Y-77084000D02*
X30892000Y-79564000D01*
X38352000Y-79194000D01*
X44672000Y-79144000D01*
X46692000Y-79794000D01*
X49322000Y-79874000D01*
X51712000Y-79494000D01*
X52682000Y-79964000D01*
X53642000Y-81414000D01*
X52592000Y-82004000D01*
X51362000Y-82594000D01*
X51372000Y-83064000D01*
X52402000Y-83274000D01*
X53892000Y-84454000D01*
X55592000Y-85204000D01*
X57722000Y-85844000D01*
X60332000Y-86214000D01*
X60362000Y-85294000D01*
X59302000Y-83824000D01*
X57972000Y-82434000D01*
X58322000Y-80714000D01*
X59962000Y-81964000D01*
X62112000Y-83914000D01*
X63202000Y-84244000D01*
X64082000Y-82654000D01*
X66972000Y-82844000D01*
X68782000Y-82594000D01*
X69092000Y-81484000D01*
X70412000Y-80824000D01*
X71092000Y-79144000D01*
X72072000Y-78634000D01*
X73862000Y-78504000D01*
X75012000Y-78954000D01*
X76052000Y-79654000D01*
X77472000Y-80114000D01*
X78912000Y-80874000D01*
X81052000Y-81114000D01*
X83912000Y-80994000D01*
X92412000Y-79524000D01*
X93382000Y-78424000D01*
X94982000Y-77994000D01*
X95602000Y-78844000D01*
X97942000Y-79294000D01*
X99202000Y-77514000D01*
X102362000Y-77804000D01*
X105452000Y-77704000D01*
X107202000Y-77104000D01*
X108552000Y-77524000D01*
X110092000Y-77514000D01*
X111512000Y-77834000D01*
X112222000Y-78574000D01*
X112612000Y-79134000D01*
X112822000Y-79654000D01*
X112882000Y-80284000D01*
X112472000Y-80834000D01*
X110932000Y-81664000D01*
X109592000Y-82334000D01*
X107802000Y-83064000D01*
X105762000Y-83694000D01*
X103942000Y-84604000D01*
X102632000Y-85094000D01*
X100292000Y-85454000D01*
X97852000Y-86344000D01*
X96502000Y-86874000D01*
X94572000Y-87284000D01*
X92502000Y-88014000D01*
X90372000Y-89164000D01*
X87922000Y-89724000D01*
X84732000Y-90004000D01*
X82882000Y-90514000D01*
X81312000Y-91484000D01*
X79142000Y-92184000D01*
X76432000Y-92574000D01*
X73642000Y-92864000D01*
X68242000Y-94224000D01*
X64782000Y-94754000D01*
X55942000Y-95484000D01*
X52782000Y-95324000D01*
X48512000Y-94534000D01*
X45162000Y-92104000D01*
X43602000Y-91234000D01*
X42522000Y-90304000D01*
X42272000Y-88744000D01*
X41682000Y-87384000D01*
X40862000Y-86284000D01*
X39302000Y-86214000D01*
X35002000Y-87294000D01*
X32992000Y-87764000D01*
X30002000Y-88564000D01*
X27822000Y-89144000D01*
X26932000Y-89014000D01*
X26362000Y-88764000D01*
X25862000Y-88314000D01*
X25662000Y-86524000D01*
X26052000Y-84674000D01*
X27322000Y-83224000D01*
X27122000Y-80714000D01*
X28042000Y-80054000D01*
X29042000Y-79794000D01*
X28382000Y-77704000D01*
X27622000Y-75664000D01*
X29942000Y-77084000D01*
D11*
X43350000Y-173200000D03*
X45850000Y-173200000D03*
D12*
X129150000Y-155200000D03*
D13*
X131690000Y-155200000D03*
D11*
X38475000Y-162600000D03*
D14*
X46095000Y-162600000D03*
D11*
X77950000Y-118300000D03*
X80450000Y-118300000D03*
D15*
X52500000Y-106000000D03*
D16*
X49960000Y-106000000D03*
D17*
X23500000Y-50000000D03*
D16*
X23500000Y-52540000D03*
X23500000Y-55080000D03*
X23500000Y-57620000D03*
D12*
X74000000Y-172200000D03*
D13*
X71460000Y-172200000D03*
X68920000Y-172200000D03*
D11*
X136775000Y-168950000D03*
D14*
X129155000Y-168950000D03*
D12*
X121455000Y-163600000D03*
D13*
X123995000Y-163600000D03*
D11*
X128250000Y-146700000D03*
D14*
X120630000Y-146700000D03*
D18*
X138968997Y-21980662D03*
D19*
X138462602Y-24469670D03*
D20*
X141458005Y-22487056D03*
X140951611Y-24976065D03*
D19*
X143947014Y-22993451D03*
X143440620Y-25482459D03*
D11*
X95675000Y-171400000D03*
D14*
X103295000Y-171400000D03*
D11*
X128250000Y-150900000D03*
D14*
X120630000Y-150900000D03*
D11*
X39425000Y-171800000D03*
D14*
X31805000Y-171800000D03*
D11*
X140725000Y-139550000D03*
D14*
X133105000Y-139550000D03*
D11*
X52975000Y-169400000D03*
D14*
X60595000Y-169400000D03*
D11*
X67775000Y-167600000D03*
D14*
X75395000Y-167600000D03*
D21*
X83010000Y-168490000D03*
D22*
X84660000Y-168490000D03*
X86310000Y-168490000D03*
X87960000Y-168490000D03*
D11*
X75375000Y-122500000D03*
D14*
X82995000Y-122500000D03*
D11*
X122000000Y-112700000D03*
X122000000Y-117700000D03*
X52975000Y-165200000D03*
D14*
X60595000Y-165200000D03*
D21*
X42145000Y-167700000D03*
D22*
X43795000Y-167700000D03*
X45445000Y-167700000D03*
X47095000Y-167700000D03*
D12*
X35400000Y-167200000D03*
D13*
X32860000Y-167200000D03*
X30320000Y-167200000D03*
D23*
X28802500Y-118712500D03*
D24*
X28802500Y-121252500D03*
X28802500Y-123792500D03*
X28802500Y-126332500D03*
X28802500Y-128872500D03*
X28802500Y-131412500D03*
X28802500Y-133952500D03*
X28802500Y-136492500D03*
X28802500Y-139032500D03*
X28802500Y-141572500D03*
X28802500Y-144112500D03*
X28802500Y-146652500D03*
X28802500Y-149192500D03*
X28802500Y-151732500D03*
X28802500Y-154272500D03*
X54202500Y-154272500D03*
X54202500Y-151732500D03*
X54202500Y-149192500D03*
X54202500Y-146652500D03*
X54202500Y-144112500D03*
X54202500Y-141572500D03*
X54202500Y-139032500D03*
X54202500Y-136492500D03*
X54202500Y-133952500D03*
X54202500Y-131412500D03*
X54202500Y-128872500D03*
X54202500Y-126332500D03*
X54202500Y-123792500D03*
X54202500Y-121252500D03*
X54202500Y-118712500D03*
D11*
X78950000Y-172000000D03*
X81450000Y-172000000D03*
X101400000Y-122600000D03*
D14*
X109020000Y-122600000D03*
D12*
X138525000Y-146000000D03*
D13*
X141065000Y-146000000D03*
D25*
X86626000Y-100746000D03*
X134646000Y-97746000D03*
X87376000Y-100746000D03*
X40888000Y-97746000D03*
X136908000Y-100746000D03*
X89662000Y-100746000D03*
X104898000Y-97746000D03*
X56888000Y-100746000D03*
X136908000Y-97746000D03*
X119398000Y-97746000D03*
X121672000Y-97746000D03*
X105672000Y-97746000D03*
X89662000Y-97746000D03*
X39376000Y-100746000D03*
X57662000Y-100746000D03*
X121672000Y-100746000D03*
X70626000Y-100746000D03*
X39388000Y-97746000D03*
X136158000Y-100746000D03*
X72138000Y-100746000D03*
X72888000Y-100746000D03*
X86626000Y-97746000D03*
X103386000Y-100746000D03*
X104148000Y-97746000D03*
X40138000Y-100746000D03*
X134646000Y-100746000D03*
X38626000Y-100746000D03*
X55388000Y-97746000D03*
X119386000Y-100746000D03*
X41662000Y-100746000D03*
X72138000Y-97746000D03*
X38626000Y-97746000D03*
X40138000Y-97746000D03*
X120148000Y-97746000D03*
X88138000Y-100746000D03*
X118636000Y-97746000D03*
X73662000Y-100746000D03*
X104148000Y-100746000D03*
X88888000Y-100746000D03*
X56888000Y-97746000D03*
X120898000Y-97746000D03*
X137682000Y-100746000D03*
X88888000Y-97746000D03*
X56138000Y-97746000D03*
X71388000Y-97746000D03*
X54626000Y-97746000D03*
X135408000Y-97746000D03*
X57662000Y-97746000D03*
X73662000Y-97746000D03*
X70626000Y-97746000D03*
X104898000Y-100746000D03*
X54626000Y-100746000D03*
X103398000Y-97746000D03*
X136158000Y-97746000D03*
X41662000Y-97746000D03*
X120148000Y-100746000D03*
X56138000Y-100746000D03*
X118636000Y-100746000D03*
X102636000Y-100746000D03*
X120898000Y-100746000D03*
X55376000Y-100746000D03*
X88138000Y-97746000D03*
X87388000Y-97746000D03*
X105672000Y-100746000D03*
X71376000Y-100746000D03*
X137682000Y-97746000D03*
X72888000Y-97746000D03*
X40888000Y-100746000D03*
X135396000Y-100746000D03*
X102636000Y-97746000D03*
D12*
X59400000Y-174000000D03*
D13*
X56860000Y-174000000D03*
X54320000Y-174000000D03*
D12*
X129125000Y-164000000D03*
D13*
X131665000Y-164000000D03*
D12*
X119925000Y-140800000D03*
D13*
X122465000Y-140800000D03*
D11*
X142225000Y-158350000D03*
D14*
X134605000Y-158350000D03*
D12*
X102080000Y-166400000D03*
D13*
X99540000Y-166400000D03*
X97000000Y-166400000D03*
D11*
X68400000Y-105000000D03*
X70900000Y-105000000D03*
X73400000Y-105000000D03*
D17*
X152800000Y-50000000D03*
D16*
X152800000Y-52540000D03*
X152800000Y-55080000D03*
X152800000Y-57620000D03*
D11*
X103950000Y-118400000D03*
X106450000Y-118400000D03*
D17*
X84360000Y-93910000D03*
D16*
X86900000Y-93910000D03*
X89440000Y-93910000D03*
X91980000Y-93910000D03*
D11*
X146175000Y-150400000D03*
D14*
X138555000Y-150400000D03*
D21*
X76715000Y-112800000D03*
D22*
X78365000Y-112800000D03*
X80015000Y-112800000D03*
X81665000Y-112800000D03*
D12*
X130595000Y-144000000D03*
D13*
X133135000Y-144000000D03*
D21*
X102720000Y-112900000D03*
D22*
X104370000Y-112900000D03*
X106020000Y-112900000D03*
X107670000Y-112900000D03*
D17*
X152800000Y-133000000D03*
D16*
X152800000Y-135540000D03*
X152800000Y-138080000D03*
X152800000Y-140620000D03*
D17*
X23500000Y-133000000D03*
D16*
X23500000Y-135540000D03*
X23500000Y-138080000D03*
X23500000Y-140620000D03*
D17*
X84360000Y-176910000D03*
D16*
X86900000Y-176910000D03*
X89440000Y-176910000D03*
X91980000Y-176910000D03*
M02*
