  0
SECTION
  2
HEADER
  9
$ACADVER
  1
AC1032
  9
$ACADMAINTVER
 90
      228
  9
$DWGCODEPAGE
  3
ANSI_1252
  9
$REQUIREDVERSIONS
160
                 0
  9
$INSBASE
 10
0.0
 20
0.0
 30
0.0
  9
$EXTMIN
 10
1.000000000000000E+20
 20
1.000000000000000E+20
 30
1.000000000000000E+20
  9
$EXTMAX
 10
-1.000000000000000E+20
 20
-1.000000000000000E+20
 30
-1.000000000000000E+20
  9
$LIMMIN
 10
0.0
 20
0.0
  9
$LIMMAX
 10
12.0
 20
9.0
  9
$ORTHOMODE
 70
     0
  9
$REGENMODE
 70
     1
  9
$FILLMODE
 70
     1
  9
$QTEXTMODE
 70
     0
  9
$MIRRTEXT
 70
     0
  9
$LTSCALE
 40
1.0
  9
$ATTMODE
 70
     1
  9
$TEXTSIZE
 40
0.2
  9
$TRACEWID
 40
0.05
  9
$TEXTSTYLE
  7
Standard
  9
$CLAYER
  8
0
  9
$CELTYPE
  6
ByLayer
  9
$CECOLOR
 62
   256
  9
$CELTSCALE
 40
1.0
  9
$DISPSILH
 70
     0
  9
$DIMSCALE
 40
1.0
  9
$DIMASZ
 40
0.18
  9
$DIMEXO
 40
0.0625
  9
$DIMDLI
 40
0.38
  9
$DIMRND
 40
0.0
  9
$DIMDLE
 40
0.0
  9
$DIMEXE
 40
0.18
  9
$DIMTP
 40
0.0
  9
$DIMTM
 40
0.0
  9
$DIMTXT
 40
0.18
  9
$DIMCEN
 40
0.09
  9
$DIMTSZ
 40
0.0
  9
$DIMTOL
 70
     0
  9
$DIMLIM
 70
     0
  9
$DIMTIH
 70
     1
  9
$DIMTOH
 70
     1
  9
$DIMSE1
 70
     0
  9
$DIMSE2
 70
     0
  9
$DIMTAD
 70
     0
  9
$DIMZIN
 70
     0
  9
$DIMBLK
  1

  9
$DIMASO
 70
     1
  9
$DIMSHO
 70
     1
  9
$DIMPOST
  1

  9
$DIMAPOST
  1

  9
$DIMALT
 70
     0
  9
$DIMALTD
 70
     2
  9
$DIMALTF
 40
25.4
  9
$DIMLFAC
 40
1.0
  9
$DIMTOFL
 70
     0
  9
$DIMTVP
 40
0.0
  9
$DIMTIX
 70
     0
  9
$DIMSOXD
 70
     0
  9
$DIMSAH
 70
     0
  9
$DIMBLK1
  1

  9
$DIMBLK2
  1

  9
$DIMSTYLE
  2
Standard
  9
$DIMCLRD
 70
     0
  9
$DIMCLRE
 70
     0
  9
$DIMCLRT
 70
     0
  9
$DIMTFAC
 40
1.0
  9
$DIMGAP
 40
0.09
  9
$DIMJUST
 70
     0
  9
$DIMSD1
 70
     0
  9
$DIMSD2
 70
     0
  9
$DIMTOLJ
 70
     1
  9
$DIMTZIN
 70
     0
  9
$DIMALTZ
 70
     0
  9
$DIMALTTZ
 70
     0
  9
$DIMUPT
 70
     0
  9
$DIMDEC
 70
     4
  9
$DIMTDEC
 70
     4
  9
$DIMALTU
 70
     2
  9
$DIMALTTD
 70
     2
  9
$DIMTXSTY
  7
Standard
  9
$DIMAUNIT
 70
     0
  9
$DIMADEC
 70
     0
  9
$DIMALTRND
 40
0.0
  9
$DIMAZIN
 70
     0
  9
$DIMDSEP
 70
    46
  9
$DIMATFIT
 70
     3
  9
$DIMFRAC
 70
     0
  9
$DIMLDRBLK
  1

  9
$DIMLUNIT
 70
     2
  9
$DIMLWD
 70
    -2
  9
$DIMLWE
 70
    -2
  9
$DIMTMOVE
 70
     0
  9
$DIMFXL
 40
1.0
  9
$DIMFXLON
 70
     0
  9
$DIMJOGANG
 40
0.7853981633974483
  9
$DIMTFILL
 70
     0
  9
$DIMTFILLCLR
 70
     0
  9
$DIMARCSYM
 70
     0
  9
$DIMLTYPE
  6

  9
$DIMLTEX1
  6

  9
$DIMLTEX2
  6

  9
$DIMTXTDIRECTION
 70
     0
  9
$LUNITS
 70
     2
  9
$LUPREC
 70
     4
  9
$SKETCHINC
 40
0.1
  9
$FILLETRAD
 40
0.0
  9
$AUNITS
 70
     0
  9
$AUPREC
 70
     0
  9
$MENU
  1
.
  9
$ELEVATION
 40
0.0
  9
$PELEVATION
 40
0.0
  9
$THICKNESS
 40
0.0
  9
$LIMCHECK
 70
     0
  9
$CHAMFERA
 40
0.0
  9
$CHAMFERB
 40
0.0
  9
$CHAMFERC
 40
0.0
  9
$CHAMFERD
 40
0.0
  9
$SKPOLY
 70
     0
  9
$TDCREATE
 40
2460099.704513889
  9
$TDUCREATE
 40
2460099.912847223
  9
$TDUPDATE
 40
2460099.704513889
  9
$TDUUPDATE
 40
2460099.912847223
  9
$TDINDWG
 40
0.0000000000
  9
$TDUSRTIMER
 40
0.0000000000
  9
$USRTIMER
 70
     1
  9
$ANGBASE
 50
0.0
  9
$ANGDIR
 70
     0
  9
$PDMODE
 70
     0
  9
$PDSIZE
 40
0.0
  9
$PLINEWID
 40
0.0
  9
$SPLFRAME
 70
     0
  9
$SPLINETYPE
 70
     6
  9
$SPLINESEGS
 70
     8
  9
$HANDSEED
  5
9B
  9
$SURFTAB1
 70
     6
  9
$SURFTAB2
 70
     6
  9
$SURFTYPE
 70
     6
  9
$SURFU
 70
     6
  9
$SURFV
 70
     6
  9
$UCSBASE
  2

  9
$UCSNAME
  2

  9
$UCSORG
 10
0.0
 20
0.0
 30
0.0
  9
$UCSXDIR
 10
1.0
 20
0.0
 30
0.0
  9
$UCSYDIR
 10
0.0
 20
1.0
 30
0.0
  9
$UCSORTHOREF
  2

  9
$UCSORTHOVIEW
 70
     0
  9
$UCSORGTOP
 10
0.0
 20
0.0
 30
0.0
  9
$UCSORGBOTTOM
 10
0.0
 20
0.0
 30
0.0
  9
$UCSORGLEFT
 10
0.0
 20
0.0
 30
0.0
  9
$UCSORGRIGHT
 10
0.0
 20
0.0
 30
0.0
  9
$UCSORGFRONT
 10
0.0
 20
0.0
 30
0.0
  9
$UCSORGBACK
 10
0.0
 20
0.0
 30
0.0
  9
$PUCSBASE
  2

  9
$PUCSNAME
  2

  9
$PUCSORG
 10
0.0
 20
0.0
 30
0.0
  9
$PUCSXDIR
 10
1.0
 20
0.0
 30
0.0
  9
$PUCSYDIR
 10
0.0
 20
1.0
 30
0.0
  9
$PUCSORTHOREF
  2

  9
$PUCSORTHOVIEW
 70
     0
  9
$PUCSORGTOP
 10
0.0
 20
0.0
 30
0.0
  9
$PUCSORGBOTTOM
 10
0.0
 20
0.0
 30
0.0
  9
$PUCSORGLEFT
 10
0.0
 20
0.0
 30
0.0
  9
$PUCSORGRIGHT
 10
0.0
 20
0.0
 30
0.0
  9
$PUCSORGFRONT
 10
0.0
 20
0.0
 30
0.0
  9
$PUCSORGBACK
 10
0.0
 20
0.0
 30
0.0
  9
$USERI1
 70
     0
  9
$USERI2
 70
     0
  9
$USERI3
 70
     0
  9
$USERI4
 70
     0
  9
$USERI5
 70
     0
  9
$USERR1
 40
0.0
  9
$USERR2
 40
0.0
  9
$USERR3
 40
0.0
  9
$USERR4
 40
0.0
  9
$USERR5
 40
0.0
  9
$WORLDVIEW
 70
     1
  9
$SHADEDGE
 70
     3
  9
$SHADEDIF
 70
    70
  9
$TILEMODE
 70
     1
  9
$MAXACTVP
 70
    64
  9
$PINSBASE
 10
0.0
 20
0.0
 30
0.0
  9
$PLIMCHECK
 70
     0
  9
$PEXTMIN
 10
1.000000000000000E+20
 20
1.000000000000000E+20
 30
1.000000000000000E+20
  9
$PEXTMAX
 10
-1.000000000000000E+20
 20
-1.000000000000000E+20
 30
-1.000000000000000E+20
  9
$PLIMMIN
 10
0.0
 20
0.0
  9
$PLIMMAX
 10
12.0
 20
9.0
  9
$UNITMODE
 70
     0
  9
$VISRETAIN
 70
     1
  9
$PLINEGEN
 70
     0
  9
$PSLTSCALE
 70
     1
  9
$TREEDEPTH
 70
  3020
  9
$CMLSTYLE
  2
Standard
  9
$CMLJUST
 70
     0
  9
$CMLSCALE
 40
1.0
  9
$PROXYGRAPHICS
 70
     1
  9
$MEASUREMENT
 70
     0
  9
$CELWEIGHT
370
    -1
  9
$ENDCAPS
280
     0
  9
$JOINSTYLE
280
     0
  9
$LWDISPLAY
290
     1
  9
$INSUNITS
 70
     0
  9
$HYPERLINKBASE
  1

  9
$STYLESHEET
  1

  9
$XEDIT
290
     1
  9
$CEPSNTYPE
380
     0
  9
$PSTYLEMODE
290
     1
  9
$FINGERPRINTGUID
  2
{CB8BBDD6-C2D1-D042-8BBA-2580BF85E4E7}
  9
$VERSIONGUID
  2
{FDE9859E-8BBA-924F-8438-FB746E5AE0D8}
  9
$EXTNAMES
290
     1
  9
$PSVPSCALE
 40
0.0
  9
$OLESTARTUP
290
     0
  9
$SORTENTS
280
   127
  9
$INDEXCTL
280
     0
  9
$HIDETEXT
280
     1
  9
$XCLIPFRAME
280
     2
  9
$HALOGAP
280
     0
  9
$OBSCOLOR
 70
   257
  9
$OBSLTYPE
280
     0
  9
$INTERSECTIONDISPLAY
280
     0
  9
$INTERSECTIONCOLOR
 70
   257
  9
$DIMASSOC
280
     2
  9
$PROJECTNAME
  1

  9
$CAMERADISPLAY
290
     0
  9
$LENSLENGTH
 40
50.0
  9
$CAMERAHEIGHT
 40
0.0
  9
$STEPSPERSEC
 40
2.0
  9
$STEPSIZE
 40
6.0
  9
$3DDWFPREC
 40
2.0
  9
$PSOLWIDTH
 40
0.25
  9
$PSOLHEIGHT
 40
4.0
  9
$LOFTANG1
 40
1.570796326794896
  9
$LOFTANG2
 40
1.570796326794896
  9
$LOFTMAG1
 40
0.0
  9
$LOFTMAG2
 40
0.0
  9
$LOFTPARAM
 70
     7
  9
$LOFTNORMALS
280
     1
  9
$LATITUDE
 40
37.795
  9
$LONGITUDE
 40
-122.394
  9
$NORTHDIRECTION
 40
0.0
  9
$TIMEZONE
 70
 -8000
  9
$LIGHTGLYPHDISPLAY
280
     1
  9
$TILEMODELIGHTSYNCH
280
     1
  9
$CMATERIAL
347
11
  9
$SOLIDHIST
280
     0
  9
$SHOWHIST
280
     1
  9
$DWFFRAME
280
     2
  9
$DGNFRAME
280
     0
  9
$REALWORLDSCALE
290
     1
  9
$INTERFERECOLOR
 62
     1
  9
$INTERFEREOBJVS
345
33
  9
$INTERFEREVPVS
346
30
  9
$CSHADOW
280
     0
  9
$SHADOWPLANELOCATION
 40
0.0
  0
ENDSEC
  0
SECTION
  2
CLASSES
  0
CLASS
  1
ACDBDICTIONARYWDFLT
  2
AcDbDictionaryWithDefault
  3
ObjectDBX Classes
 90
        0
 91
        1
280
     0
281
     0
  0
CLASS
  1
MATERIAL
  2
AcDbMaterial
  3
ObjectDBX Classes
 90
     1153
 91
        3
280
     0
281
     0
  0
CLASS
  1
VISUALSTYLE
  2
AcDbVisualStyle
  3
ObjectDBX Classes
 90
     4095
 91
       24
280
     0
281
     0
  0
CLASS
  1
SCALE
  2
AcDbScale
  3
ObjectDBX Classes
 90
     1153
 91
       17
280
     0
281
     0
  0
CLASS
  1
TABLESTYLE
  2
AcDbTableStyle
  3
ObjectDBX Classes
 90
     4095
 91
        1
280
     0
281
     0
  0
CLASS
  1
MLEADERSTYLE
  2
AcDbMLeaderStyle
  3
ACDB_MLEADERSTYLE_CLASS
 90
     4095
 91
        1
280
     0
281
     0
  0
CLASS
  1
ACDBSECTIONVIEWSTYLE
  2
AcDbSectionViewStyle
  3
ObjectDBX Classes
 90
     1025
 91
        1
280
     0
281
     0
  0
CLASS
  1
ACDBDETAILVIEWSTYLE
  2
AcDbDetailViewStyle
  3
ObjectDBX Classes
 90
     1025
 91
        1
280
     0
281
     0
  0
CLASS
  1
DICTIONARYVAR
  2
AcDbDictionaryVar
  3
ObjectDBX Classes
 90
        0
 91
        5
280
     0
281
     0
  0
CLASS
  1
CELLSTYLEMAP
  2
AcDbCellStyleMap
  3
ObjectDBX Classes
 90
     1152
 91
        1
280
     0
281
     0
  0
ENDSEC
  0
SECTION
  2
TABLES
  0
TABLE
  2
VPORT
  5
8
330
0
100
AcDbSymbolTable
 70
     1
  0
VPORT
  5
57
330
8
100
AcDbSymbolTableRecord
100
AcDbViewportTableRecord
  2
*Active
 70
     0
 10
0.0
 20
0.0
 11
1.0
 21
1.0
 12
0.0
 22
0.0
 13
0.0
 23
0.0
 14
1.0
 24
1.0
 15
0.0
 25
0.0
 16
0.0
 26
0.0
 36
1.0
 17
91.48398420022189
 27
-113.1428571428571
 37
0.0
 40
230.8114285714286
 41
0.8740893652337257
 42
50.0
 43
0.0
 44
0.0
 50
0.0
 51
0.0
 71
     0
 72
   100
 73
     1
 74
     1
 75
     0
 76
     0
 77
     0
 78
     0
281
     0
 65
     1
110
0.0
120
0.0
130
0.0
111
1.0
121
0.0
131
0.0
112
0.0
122
1.0
132
0.0
 79
     0
146
0.0
 60
     3
 61
     5
292
     1
282
     1
141
0.0
142
0.0
 63
   250
421
  3355443
  0
ENDTAB
  0
TABLE
  2
LTYPE
  5
5
330
0
100
AcDbSymbolTable
 70
     1
  0
LTYPE
  5
5B
330
5
100
AcDbSymbolTableRecord
100
AcDbLinetypeTableRecord
  2
ByBlock
 70
     0
  3

 72
    65
 73
     0
 40
0.0
  0
LTYPE
  5
5C
330
5
100
AcDbSymbolTableRecord
100
AcDbLinetypeTableRecord
  2
ByLayer
 70
     0
  3

 72
    65
 73
     0
 40
0.0
  0
LTYPE
  5
5D
330
5
100
AcDbSymbolTableRecord
100
AcDbLinetypeTableRecord
  2
Continuous
 70
     0
  3
Solid line
 72
    65
 73
     0
 40
0.0
  0
ENDTAB
  0
TABLE
  2
LAYER
  5
2
330
0
100
AcDbSymbolTable
 70
    24
  0
LAYER
  5
54
330
2
100
AcDbSymbolTableRecord
100
AcDbLayerTableRecord
  2
0
 70
     0
 62
     7
  6
Continuous
370
    -3
390
F
347
21
348
0
  0
LAYER
  5
78
330
2
100
AcDbSymbolTableRecord
100
AcDbLayerTableRecord
  2
Background
 70
     4
 62
     7
  6
Continuous
370
     0
390
F
347
21
348
0
  0
LAYER
  5
79
330
2
100
AcDbSymbolTableRecord
100
AcDbLayerTableRecord
  2
reference1
 70
     5
 62
     7
  6
Continuous
370
     0
390
F
347
21
348
0
  0
LAYER
  5
7A
330
2
100
AcDbSymbolTableRecord
100
AcDbLayerTableRecord
  2
reference2
 70
     5
 62
     7
  6
Continuous
370
     0
390
F
347
21
348
0
  0
LAYER
  5
7B
330
2
100
AcDbSymbolTableRecord
100
AcDbLayerTableRecord
  2
Title-path
 70
     5
 62
     7
  6
Continuous
370
     0
390
F
347
21
348
0
  0
LAYER
  5
7C
330
2
100
AcDbSymbolTableRecord
100
AcDbLayerTableRecord
  2
Title-font
 70
     5
 62
     7
  6
Continuous
370
     0
390
F
347
21
348
0
  0
LAYER
  5
7D
330
2
100
AcDbSymbolTableRecord
100
AcDbLayerTableRecord
  2
Panel-path
 70
     5
 62
     7
  6
Continuous
370
     0
390
F
347
21
348
0
  0
LAYER
  5
7E
330
2
100
AcDbSymbolTableRecord
100
AcDbLayerTableRecord
  2
Panel-font
 70
     5
 62
     7
  6
Continuous
370
     0
390
F
347
21
348
0
  0
LAYER
  5
7F
330
2
100
AcDbSymbolTableRecord
100
AcDbLayerTableRecord
  2
EdgeTop
 70
     0
 62
     7
  6
Continuous
370
     0
390
F
347
21
348
0
  0
LAYER
  5
81
330
2
100
AcDbSymbolTableRecord
100
AcDbLayerTableRecord
  2
VoidB-Flame
 70
     4
 62
     7
  6
Continuous
370
     0
390
F
347
21
348
0
  0
LAYER
  5
82
330
2
100
AcDbSymbolTableRecord
100
AcDbLayerTableRecord
  2
Flames
 70
     4
 62
     7
  6
Continuous
370
     0
390
F
347
21
348
0
  0
LAYER
  5
83
330
2
100
AcDbSymbolTableRecord
100
AcDbLayerTableRecord
  2
VoidB-Lightning
 70
     4
 62
     7
  6
Continuous
370
     0
390
F
347
21
348
0
  0
LAYER
  5
84
330
2
100
AcDbSymbolTableRecord
100
AcDbLayerTableRecord
  2
Lightning
 70
     4
 62
     7
  6
Continuous
370
     0
390
F
347
21
348
0
  0
LAYER
  5
85
330
2
100
AcDbSymbolTableRecord
100
AcDbLayerTableRecord
  2
CopperF-Delorean
 70
     0
 62
     7
  6
Continuous
370
     0
390
F
347
21
348
0
  0
LAYER
  5
88
330
2
100
AcDbSymbolTableRecord
100
AcDbLayerTableRecord
  2
Delorean
 70
     4
 62
     7
  6
Continuous
370
     0
390
F
347
21
348
0
  0
LAYER
  5
89
330
2
100
AcDbSymbolTableRecord
100
AcDbLayerTableRecord
  2
VoidB-Title
 70
     4
 62
     7
  6
Continuous
370
     0
390
F
347
21
348
0
  0
LAYER
  5
8A
330
2
100
AcDbSymbolTableRecord
100
AcDbLayerTableRecord
  2
Title-path-fill
 70
     4
 62
     7
  6
Continuous
370
     0
390
F
347
21
348
0
  0
LAYER
  5
8B
330
2
100
AcDbSymbolTableRecord
100
AcDbLayerTableRecord
  2
ClockTower
 70
     4
 62
     7
  6
Continuous
370
     0
390
F
347
21
348
0
  0
LAYER
  5
8C
330
2
100
AcDbSymbolTableRecord
100
AcDbLayerTableRecord
  2
Panel-path-fill
 70
     4
 62
     7
  6
Continuous
370
     0
390
F
347
21
348
0
  0
LAYER
  5
8D
330
2
100
AcDbSymbolTableRecord
100
AcDbLayerTableRecord
  2
VoidF-Delorean
 70
     4
 62
     7
  6
Continuous
370
     0
390
F
347
21
348
0
  0
LAYER
  5
8E
330
2
100
AcDbSymbolTableRecord
100
AcDbLayerTableRecord
  2
VoidF-Flame
 70
     4
 62
     7
  6
Continuous
370
     0
390
F
347
21
348
0
  0
LAYER
  5
8F
330
2
100
AcDbSymbolTableRecord
100
AcDbLayerTableRecord
  2
VoidF-Lightning
 70
     4
 62
     7
  6
Continuous
370
     0
390
F
347
21
348
0
  0
LAYER
  5
90
330
2
100
AcDbSymbolTableRecord
100
AcDbLayerTableRecord
  2
VoidF-Title
 70
     4
 62
     7
  6
Continuous
370
     0
390
F
347
21
348
0
  0
LAYER
  5
91
330
2
100
AcDbSymbolTableRecord
100
AcDbLayerTableRecord
  2
LED-Placement
 70
     5
 62
     7
  6
Continuous
370
     0
390
F
347
21
348
0
  0
ENDTAB
  0
TABLE
  2
STYLE
  5
3
330
0
100
AcDbSymbolTable
 70
     2
  0
STYLE
  5
55
330
3
100
AcDbSymbolTableRecord
100
AcDbTextStyleTableRecord
  2
Standard
 70
     0
 40
0.0
 41
1.0
 50
0.0
 71
     0
 42
0.2
  3
txt
  4

  0
STYLE
  5
5A
330
3
100
AcDbSymbolTableRecord
100
AcDbTextStyleTableRecord
  2
Annotative
 70
     0
 40
0.0
 41
1.0
 50
0.0
 71
     0
 42
0.2
  3
txt
  4

1001
AcadAnnotative
1000
AnnotativeData
1002
{
1070
     1
1070
     1
1002
}
  0
ENDTAB
  0
TABLE
  2
VIEW
  5
6
330
0
100
AcDbSymbolTable
 70
     0
  0
ENDTAB
  0
TABLE
  2
UCS
  5
7
330
0
100
AcDbSymbolTable
 70
     0
  0
ENDTAB
  0
TABLE
  2
APPID
  5
9
330
0
100
AcDbSymbolTable
 70
     2
  0
APPID
  5
56
330
9
100
AcDbSymbolTableRecord
100
AcDbRegAppTableRecord
  2
ACAD
 70
     0
  0
APPID
  5
5E
330
9
100
AcDbSymbolTableRecord
100
AcDbRegAppTableRecord
  2
AcadAnnotative
 70
     0
  0
ENDTAB
  0
TABLE
  2
DIMSTYLE
  5
A
330
0
100
AcDbSymbolTable
 70
     2
100
AcDbDimStyleTable
 71
     0
  0
DIMSTYLE
105
58
330
A
100
AcDbSymbolTableRecord
100
AcDbDimStyleTableRecord
  2
Standard
 70
     0
340
55
  0
DIMSTYLE
105
59
330
A
100
AcDbSymbolTableRecord
100
AcDbDimStyleTableRecord
  2
Annotative
 70
     0
340
55
1001
AcadAnnotative
1000
AnnotativeData
1002
{
1070
     1
1070
     1
1002
}
  0
ENDTAB
  0
TABLE
  2
BLOCK_RECORD
  5
1
330
0
100
AcDbSymbolTable
 70
     1
  0
BLOCK_RECORD
  5
70
330
1
100
AcDbSymbolTableRecord
100
AcDbBlockTableRecord
  2
*Model_Space
340
73
 70
     0
280
     1
281
     0
  0
BLOCK_RECORD
  5
6C
330
1
100
AcDbSymbolTableRecord
100
AcDbBlockTableRecord
  2
*Paper_Space
340
6F
 70
     0
280
     1
281
     0
  0
BLOCK_RECORD
  5
74
330
1
100
AcDbSymbolTableRecord
100
AcDbBlockTableRecord
  2
*Paper_Space0
340
77
 70
     0
280
     1
281
     0
  0
ENDTAB
  0
ENDSEC
  0
SECTION
  2
BLOCKS
  0
BLOCK
  5
71
330
70
100
AcDbEntity
  8
0
100
AcDbBlockBegin
  2
*Model_Space
 70
     0
 10
0.0
 20
0.0
 30
0.0
  3
*Model_Space
  1

  0
ENDBLK
  5
72
330
70
100
AcDbEntity
  8
0
100
AcDbBlockEnd
  0
BLOCK
  5
6D
330
6C
100
AcDbEntity
 67
     1
  8
0
100
AcDbBlockBegin
  2
*Paper_Space
 70
     0
 10
0.0
 20
0.0
 30
0.0
  3
*Paper_Space
  1

  0
ENDBLK
  5
6E
330
6C
100
AcDbEntity
 67
     1
  8
0
100
AcDbBlockEnd
  0
BLOCK
  5
75
330
74
100
AcDbEntity
 67
     1
  8
0
100
AcDbBlockBegin
  2
*Paper_Space0
 70
     0
 10
0.0
 20
0.0
 30
0.0
  3
*Paper_Space0
  1

  0
ENDBLK
  5
76
330
74
100
AcDbEntity
 67
     1
  8
0
100
AcDbBlockEnd
  0
ENDSEC
  0
SECTION
  2
ENTITIES
  0
LWPOLYLINE
  5
80
330
70
100
AcDbEntity
  8
EdgeTop
 62
   250
420
  2301728
370
    35
100
AcDbPolyline
 90
        8
 70
     1
 43
0.0
 10
142.8571428571428
 20
-91.42857142857142
 10
142.8571428571428
 20
-34.28571428571429
 10
131.4285714285714
 20
-22.85714285714286
 10
17.14285714285714
 20
-22.85714285714286
 10
5.714285714285713
 20
-34.28571428571429
 10
5.714285714285713
 20
-91.42857142857142
 10
17.14285714285714
 20
-102.8571428571428
 10
131.4285714285714
 20
-102.8571428571428
  0
SPLINE
  5
86
330
70
100
AcDbEntity
  8
CopperF-Delorean
 62
   243
420
 12674939
370
     9
100
AcDbSpline
210
0.0
220
0.0
230
1.0
 70
    11
 71
     3
 72
   587
 73
   583
 74
     0
 42
0.0000000001
 43
0.0000000001
 40
0.0
 40
0.0
 40
0.0
 40
0.0
 40
1.0
 40
1.0
 40
1.0
 40
2.0
 40
2.0
 40
2.0
 40
3.0
 40
3.0
 40
3.0
 40
4.0
 40
4.0
 40
4.0
 40
5.0
 40
5.0
 40
5.0
 40
6.0
 40
6.0
 40
6.0
 40
7.0
 40
7.0
 40
7.0
 40
8.0
 40
8.0
 40
8.0
 40
9.0
 40
9.0
 40
9.0
 40
10.0
 40
10.0
 40
10.0
 40
11.0
 40
11.0
 40
11.0
 40
12.0
 40
12.0
 40
12.0
 40
13.0
 40
13.0
 40
13.0
 40
14.0
 40
14.0
 40
14.0
 40
15.0
 40
15.0
 40
15.0
 40
16.0
 40
16.0
 40
16.0
 40
17.0
 40
17.0
 40
17.0
 40
18.0
 40
18.0
 40
18.0
 40
19.0
 40
19.0
 40
19.0
 40
20.0
 40
20.0
 40
20.0
 40
21.0
 40
21.0
 40
21.0
 40
22.0
 40
22.0
 40
22.0
 40
23.0
 40
23.0
 40
23.0
 40
24.0
 40
24.0
 40
24.0
 40
25.0
 40
25.0
 40
25.0
 40
26.0
 40
26.0
 40
26.0
 40
27.0
 40
27.0
 40
27.0
 40
28.0
 40
28.0
 40
28.0
 40
29.0
 40
29.0
 40
29.0
 40
30.0
 40
30.0
 40
30.0
 40
31.0
 40
31.0
 40
31.0
 40
32.0
 40
32.0
 40
32.0
 40
33.0
 40
33.0
 40
33.0
 40
34.0
 40
34.0
 40
34.0
 40
35.0
 40
35.0
 40
35.0
 40
36.0
 40
36.0
 40
36.0
 40
37.0
 40
37.0
 40
37.0
 40
38.0
 40
38.0
 40
38.0
 40
39.0
 40
39.0
 40
39.0
 40
40.0
 40
40.0
 40
40.0
 40
41.0
 40
41.0
 40
41.0
 40
42.0
 40
42.0
 40
42.0
 40
43.0
 40
43.0
 40
43.0
 40
44.0
 40
44.0
 40
44.0
 40
45.0
 40
45.0
 40
45.0
 40
46.0
 40
46.0
 40
46.0
 40
47.0
 40
47.0
 40
47.0
 40
48.0
 40
48.0
 40
48.0
 40
49.0
 40
49.0
 40
49.0
 40
50.0
 40
50.0
 40
50.0
 40
51.0
 40
51.0
 40
51.0
 40
52.0
 40
52.0
 40
52.0
 40
53.0
 40
53.0
 40
53.0
 40
54.0
 40
54.0
 40
54.0
 40
55.0
 40
55.0
 40
55.0
 40
56.0
 40
56.0
 40
56.0
 40
57.0
 40
57.0
 40
57.0
 40
58.0
 40
58.0
 40
58.0
 40
59.0
 40
59.0
 40
59.0
 40
60.0
 40
60.0
 40
60.0
 40
61.0
 40
61.0
 40
61.0
 40
62.0
 40
62.0
 40
62.0
 40
63.0
 40
63.0
 40
63.0
 40
64.0
 40
64.0
 40
64.0
 40
65.0
 40
65.0
 40
65.0
 40
66.0
 40
66.0
 40
66.0
 40
67.0
 40
67.0
 40
67.0
 40
68.0
 40
68.0
 40
68.0
 40
69.0
 40
69.0
 40
69.0
 40
70.0
 40
70.0
 40
70.0
 40
71.0
 40
71.0
 40
71.0
 40
72.0
 40
72.0
 40
72.0
 40
73.0
 40
73.0
 40
73.0
 40
74.0
 40
74.0
 40
74.0
 40
75.0
 40
75.0
 40
75.0
 40
76.0
 40
76.0
 40
76.0
 40
77.0
 40
77.0
 40
77.0
 40
78.0
 40
78.0
 40
78.0
 40
79.0
 40
79.0
 40
79.0
 40
80.0
 40
80.0
 40
80.0
 40
81.0
 40
81.0
 40
81.0
 40
82.0
 40
82.0
 40
82.0
 40
83.0
 40
83.0
 40
83.0
 40
84.0
 40
84.0
 40
84.0
 40
85.0
 40
85.0
 40
85.0
 40
86.0
 40
86.0
 40
86.0
 40
87.0
 40
87.0
 40
87.0
 40
88.0
 40
88.0
 40
88.0
 40
89.0
 40
89.0
 40
89.0
 40
90.0
 40
90.0
 40
90.0
 40
91.0
 40
91.0
 40
91.0
 40
92.0
 40
92.0
 40
92.0
 40
93.0
 40
93.0
 40
93.0
 40
94.0
 40
94.0
 40
94.0
 40
95.0
 40
95.0
 40
95.0
 40
96.0
 40
96.0
 40
96.0
 40
97.0
 40
97.0
 40
97.0
 40
98.0
 40
98.0
 40
98.0
 40
99.0
 40
99.0
 40
99.0
 40
100.0
 40
100.0
 40
100.0
 40
101.0
 40
101.0
 40
101.0
 40
102.0
 40
102.0
 40
102.0
 40
103.0
 40
103.0
 40
103.0
 40
104.0
 40
104.0
 40
104.0
 40
105.0
 40
105.0
 40
105.0
 40
106.0
 40
106.0
 40
106.0
 40
107.0
 40
107.0
 40
107.0
 40
108.0
 40
108.0
 40
108.0
 40
109.0
 40
109.0
 40
109.0
 40
110.0
 40
110.0
 40
110.0
 40
111.0
 40
111.0
 40
111.0
 40
112.0
 40
112.0
 40
112.0
 40
113.0
 40
113.0
 40
113.0
 40
114.0
 40
114.0
 40
114.0
 40
115.0
 40
115.0
 40
115.0
 40
116.0
 40
116.0
 40
116.0
 40
117.0
 40
117.0
 40
117.0
 40
118.0
 40
118.0
 40
118.0
 40
119.0
 40
119.0
 40
119.0
 40
120.0
 40
120.0
 40
120.0
 40
121.0
 40
121.0
 40
121.0
 40
122.0
 40
122.0
 40
122.0
 40
123.0
 40
123.0
 40
123.0
 40
124.0
 40
124.0
 40
124.0
 40
125.0
 40
125.0
 40
125.0
 40
126.0
 40
126.0
 40
126.0
 40
127.0
 40
127.0
 40
127.0
 40
128.0
 40
128.0
 40
128.0
 40
129.0
 40
129.0
 40
129.0
 40
130.0
 40
130.0
 40
130.0
 40
131.0
 40
131.0
 40
131.0
 40
132.0
 40
132.0
 40
132.0
 40
133.0
 40
133.0
 40
133.0
 40
134.0
 40
134.0
 40
134.0
 40
135.0
 40
135.0
 40
135.0
 40
136.0
 40
136.0
 40
136.0
 40
137.0
 40
137.0
 40
137.0
 40
138.0
 40
138.0
 40
138.0
 40
139.0
 40
139.0
 40
139.0
 40
140.0
 40
140.0
 40
140.0
 40
141.0
 40
141.0
 40
141.0
 40
142.0
 40
142.0
 40
142.0
 40
143.0
 40
143.0
 40
143.0
 40
144.0
 40
144.0
 40
144.0
 40
145.0
 40
145.0
 40
145.0
 40
146.0
 40
146.0
 40
146.0
 40
147.0
 40
147.0
 40
147.0
 40
148.0
 40
148.0
 40
148.0
 40
149.0
 40
149.0
 40
149.0
 40
150.0
 40
150.0
 40
150.0
 40
151.0
 40
151.0
 40
151.0
 40
152.0
 40
152.0
 40
152.0
 40
153.0
 40
153.0
 40
153.0
 40
154.0
 40
154.0
 40
154.0
 40
155.0
 40
155.0
 40
155.0
 40
156.0
 40
156.0
 40
156.0
 40
157.0
 40
157.0
 40
157.0
 40
158.0
 40
158.0
 40
158.0
 40
159.0
 40
159.0
 40
159.0
 40
160.0
 40
160.0
 40
160.0
 40
161.0
 40
161.0
 40
161.0
 40
162.0
 40
162.0
 40
162.0
 40
163.0
 40
163.0
 40
163.0
 40
164.0
 40
164.0
 40
164.0
 40
165.0
 40
165.0
 40
165.0
 40
166.0
 40
166.0
 40
166.0
 40
167.0
 40
167.0
 40
167.0
 40
168.0
 40
168.0
 40
168.0
 40
169.0
 40
169.0
 40
169.0
 40
170.0
 40
170.0
 40
170.0
 40
171.0
 40
171.0
 40
171.0
 40
172.0
 40
172.0
 40
172.0
 40
173.0
 40
173.0
 40
173.0
 40
174.0
 40
174.0
 40
174.0
 40
175.0
 40
175.0
 40
175.0
 40
176.0
 40
176.0
 40
176.0
 40
177.0
 40
177.0
 40
177.0
 40
178.0
 40
178.0
 40
178.0
 40
179.0
 40
179.0
 40
179.0
 40
180.0
 40
180.0
 40
180.0
 40
181.0
 40
181.0
 40
181.0
 40
182.0
 40
182.0
 40
182.0
 40
183.0
 40
183.0
 40
183.0
 40
184.0
 40
184.0
 40
184.0
 40
185.0
 40
185.0
 40
185.0
 40
186.0
 40
186.0
 40
186.0
 40
187.0
 40
187.0
 40
187.0
 40
188.0
 40
188.0
 40
188.0
 40
189.0
 40
189.0
 40
189.0
 40
190.0
 40
190.0
 40
190.0
 40
191.0
 40
191.0
 40
191.0
 40
192.0
 40
192.0
 40
192.0
 40
193.0
 40
193.0
 40
193.0
 40
194.0
 40
194.0
 40
194.0
 40
194.0
 10
16.12053571428571
 20
-68.07142857142856
 30
0.0
 10
16.12053571428571
 20
-68.07142857142856
 30
0.0
 10
15.61160714285714
 20
-69.54464285714284
 30
0.0
 10
15.61160714285714
 20
-69.54464285714284
 30
0.0
 10
15.61160714285714
 20
-69.54464285714284
 30
0.0
 10
15.26339285714285
 20
-70.89732142857143
 30
0.0
 10
15.26339285714285
 20
-70.89732142857143
 30
0.0
 10
15.26339285714285
 20
-70.89732142857143
 30
0.0
 10
14.71428571428571
 20
-71.9955357142857
 30
0.0
 10
14.71428571428571
 20
-71.9955357142857
 30
0.0
 10
14.71428571428571
 20
-71.9955357142857
 30
0.0
 10
14.86160714285714
 20
-72.9330357142857
 30
0.0
 10
14.86160714285714
 20
-72.9330357142857
 30
0.0
 10
14.86160714285714
 20
-72.9330357142857
 30
0.0
 10
15.03571428571428
 20
-74.01785714285714
 30
0.0
 10
15.03571428571428
 20
-74.01785714285714
 30
0.0
 10
15.03571428571428
 20
-74.01785714285714
 30
0.0
 10
15.03571428571428
 20
-74.98214285714285
 30
0.0
 10
15.03571428571428
 20
-74.98214285714285
 30
0.0
 10
15.03571428571428
 20
-74.98214285714285
 30
0.0
 10
15.04910714285714
 20
-75.75892857142857
 30
0.0
 10
15.04910714285714
 20
-75.75892857142857
 30
0.0
 10
15.04910714285714
 20
-75.75892857142857
 30
0.0
 10
15.4375
 20
-76.30803571428571
 30
0.0
 10
15.4375
 20
-76.30803571428571
 30
0.0
 10
15.4375
 20
-76.30803571428571
 30
0.0
 10
16.04017857142857
 20
-76.73660714285714
 30
0.0
 10
16.04017857142857
 20
-76.73660714285714
 30
0.0
 10
16.04017857142857
 20
-76.73660714285714
 30
0.0
 10
16.28125
 20
-77.125
 30
0.0
 10
16.28125
 20
-77.125
 30
0.0
 10
16.28125
 20
-77.125
 30
0.0
 10
16.29464285714286
 20
-80.03125
 30
0.0
 10
16.29464285714286
 20
-80.03125
 30
0.0
 10
16.29464285714286
 20
-80.03125
 30
0.0
 10
17.07142857142857
 20
-80.88839285714284
 30
0.0
 10
17.07142857142857
 20
-80.88839285714284
 30
0.0
 10
17.07142857142857
 20
-80.88839285714284
 30
0.0
 10
18.58482142857143
 20
-81.8125
 30
0.0
 10
18.58482142857143
 20
-81.8125
 30
0.0
 10
18.58482142857143
 20
-81.8125
 30
0.0
 10
20.58035714285714
 20
-82.33482142857143
 30
0.0
 10
20.58035714285714
 20
-82.33482142857143
 30
0.0
 10
20.58035714285714
 20
-82.33482142857143
 30
0.0
 10
29.20535714285714
 20
-83.1049107142857
 30
0.0
 10
29.20535714285714
 20
-83.1049107142857
 30
0.0
 10
29.20535714285714
 20
-83.1049107142857
 30
0.0
 10
39.390625
 20
-84.12946428571428
 30
0.0
 10
39.390625
 20
-84.12946428571428
 30
0.0
 10
39.390625
 20
-84.12946428571428
 30
0.0
 10
45.47767857142857
 20
-84.29017857142858
 30
0.0
 10
45.47767857142857
 20
-84.29017857142858
 30
0.0
 10
45.47767857142857
 20
-84.29017857142858
 30
0.0
 10
53.21205357142857
 20
-84.33035714285713
 30
0.0
 10
53.21205357142857
 20
-84.33035714285713
 30
0.0
 10
53.21205357142857
 20
-84.33035714285713
 30
0.0
 10
56.04464285714286
 20
-84.25
 30
0.0
 10
56.04464285714286
 20
-84.25
 30
0.0
 10
56.04464285714286
 20
-84.25
 30
0.0
 10
57.71205357142857
 20
-83.78794642857142
 30
0.0
 10
57.71205357142857
 20
-83.78794642857142
 30
0.0
 10
57.71205357142857
 20
-83.78794642857142
 30
0.0
 10
58.81696428571428
 20
-83.22544642857144
 30
0.0
 10
58.81696428571428
 20
-83.22544642857144
 30
0.0
 10
58.81696428571428
 20
-83.22544642857144
 30
0.0
 10
59.96205357142857
 20
-82.140625
 30
0.0
 10
59.96205357142857
 20
-82.140625
 30
0.0
 10
59.96205357142857
 20
-82.140625
 30
0.0
 10
60.3939732142857
 20
-81.48772321428571
 30
0.0
 10
60.3939732142857
 20
-81.48772321428571
 30
0.0
 10
60.3939732142857
 20
-81.48772321428571
 30
0.0
 10
61.42857142857142
 20
-81.60825892857143
 30
0.0
 10
61.42857142857142
 20
-81.60825892857143
 30
0.0
 10
61.42857142857142
 20
-81.60825892857143
 30
0.0
 10
63.4375
 20
-81.79910714285714
 30
0.0
 10
63.4375
 20
-81.79910714285714
 30
0.0
 10
63.4375
 20
-81.79910714285714
 30
0.0
 10
65.02455357142856
 20
-82.0703125
 30
0.0
 10
65.02455357142856
 20
-82.0703125
 30
0.0
 10
65.02455357142856
 20
-82.0703125
 30
0.0
 10
65.90848214285713
 20
-81.97991071428571
 30
0.0
 10
65.90848214285713
 20
-81.97991071428571
 30
0.0
 10
65.90848214285713
 20
-81.97991071428571
 30
0.0
 10
66.3203125
 20
-79.87053571428571
 30
0.0
 10
66.3203125
 20
-79.87053571428571
 30
0.0
 10
66.3203125
 20
-79.87053571428571
 30
0.0
 10
67.13392857142856
 20
-77.10825892857143
 30
0.0
 10
67.13392857142856
 20
-77.10825892857143
 30
0.0
 10
67.13392857142856
 20
-77.10825892857143
 30
0.0
 10
67.92745535714285
 20
-74.81808035714284
 30
0.0
 10
67.92745535714285
 20
-74.81808035714284
 30
0.0
 10
67.92745535714285
 20
-74.81808035714284
 30
0.0
 10
68.73102678571427
 20
-72.98995535714285
 30
0.0
 10
68.73102678571427
 20
-72.98995535714285
 30
0.0
 10
68.73102678571427
 20
-72.98995535714285
 30
0.0
 10
69.44419642857143
 20
-71.875
 30
0.0
 10
69.44419642857143
 20
-71.875
 30
0.0
 10
69.44419642857143
 20
-71.875
 30
0.0
 10
70.55580357142857
 20
-70.92410714285714
 30
0.0
 10
70.55580357142857
 20
-70.92410714285714
 30
0.0
 10
70.55580357142857
 20
-70.92410714285714
 30
0.0
 10
71.7611607142857
 20
-70.328125
 30
0.0
 10
71.7611607142857
 20
-70.328125
 30
0.0
 10
71.7611607142857
 20
-70.328125
 30
0.0
 10
72.98660714285714
 20
-69.8861607142857
 30
0.0
 10
72.98660714285714
 20
-69.8861607142857
 30
0.0
 10
72.98660714285714
 20
-69.8861607142857
 30
0.0
 10
74.06473214285714
 20
-69.74553571428571
 30
0.0
 10
74.06473214285714
 20
-69.74553571428571
 30
0.0
 10
74.06473214285714
 20
-69.74553571428571
 30
0.0
 10
75.32366071428571
 20
-69.91294642857143
 30
0.0
 10
75.32366071428571
 20
-69.91294642857143
 30
0.0
 10
75.32366071428571
 20
-69.91294642857143
 30
0.0
 10
76.47544642857143
 20
-70.16071428571428
 30
0.0
 10
76.47544642857143
 20
-70.16071428571428
 30
0.0
 10
76.47544642857143
 20
-70.16071428571428
 30
0.0
 10
77.27901785714284
 20
-70.64955357142856
 30
0.0
 10
77.27901785714284
 20
-70.64955357142856
 30
0.0
 10
77.27901785714284
 20
-70.64955357142856
 30
0.0
 10
77.93526785714284
 20
-71.21875
 30
0.0
 10
77.93526785714284
 20
-71.21875
 30
0.0
 10
77.93526785714284
 20
-71.21875
 30
0.0
 10
78.22321428571427
 20
-71.77455357142857
 30
0.0
 10
78.22321428571427
 20
-71.77455357142857
 30
0.0
 10
78.22321428571427
 20
-71.77455357142857
 30
0.0
 10
78.51785714285714
 20
-72.50446428571428
 30
0.0
 10
78.51785714285714
 20
-72.50446428571428
 30
0.0
 10
78.51785714285714
 20
-72.50446428571428
 30
0.0
 10
78.91964285714284
 20
-73.70982142857143
 30
0.0
 10
78.91964285714284
 20
-73.70982142857143
 30
0.0
 10
78.91964285714284
 20
-73.70982142857143
 30
0.0
 10
79.05357142857143
 20
-74.72767857142857
 30
0.0
 10
79.05357142857143
 20
-74.72767857142857
 30
0.0
 10
79.05357142857143
 20
-74.72767857142857
 30
0.0
 10
79.2142857142857
 20
-76.61607142857143
 30
0.0
 10
79.2142857142857
 20
-76.61607142857143
 30
0.0
 10
79.2142857142857
 20
-76.61607142857143
 30
0.0
 10
79.39508928571427
 20
-78.50446428571427
 30
0.0
 10
79.39508928571427
 20
-78.50446428571427
 30
0.0
 10
79.39508928571427
 20
-78.50446428571427
 30
0.0
 10
79.48214285714285
 20
-79.59598214285714
 30
0.0
 10
79.48214285714285
 20
-79.59598214285714
 30
0.0
 10
79.48214285714285
 20
-79.59598214285714
 30
0.0
 10
79.421875
 20
-80.21205357142857
 30
0.0
 10
79.421875
 20
-80.21205357142857
 30
0.0
 10
79.421875
 20
-80.21205357142857
 30
0.0
 10
79.2611607142857
 20
-80.60714285714285
 30
0.0
 10
79.2611607142857
 20
-80.60714285714285
 30
0.0
 10
79.2611607142857
 20
-80.60714285714285
 30
0.0
 10
79.234375
 20
-80.83816964285714
 30
0.0
 10
79.234375
 20
-80.83816964285714
 30
0.0
 10
79.234375
 20
-80.83816964285714
 30
0.0
 10
79.29129464285714
 20
-81.09263392857142
 30
0.0
 10
79.29129464285714
 20
-81.09263392857142
 30
0.0
 10
79.29129464285714
 20
-81.09263392857142
 30
0.0
 10
79.71316964285714
 20
-81.06250000000001
 30
0.0
 10
79.71316964285714
 20
-81.06250000000001
 30
0.0
 10
79.71316964285714
 20
-81.06250000000001
 30
0.0
 10
84.31026785714285
 20
-80.34263392857143
 30
0.0
 10
84.31026785714285
 20
-80.34263392857143
 30
0.0
 10
84.31026785714285
 20
-80.34263392857143
 30
0.0
 10
87.90625
 20
-79.90066964285714
 30
0.0
 10
87.90625
 20
-79.90066964285714
 30
0.0
 10
87.90625
 20
-79.90066964285714
 30
0.0
 10
92.28571428571427
 20
-79.57924107142857
 30
0.0
 10
92.28571428571427
 20
-79.57924107142857
 30
0.0
 10
92.28571428571427
 20
-79.57924107142857
 30
0.0
 10
96.40401785714285
 20
-79.33816964285714
 30
0.0
 10
96.40401785714285
 20
-79.33816964285714
 30
0.0
 10
96.40401785714285
 20
-79.33816964285714
 30
0.0
 10
99.54799107142857
 20
-79.08705357142856
 30
0.0
 10
99.54799107142857
 20
-79.08705357142856
 30
0.0
 10
99.54799107142857
 20
-79.08705357142856
 30
0.0
 10
101.7075892857143
 20
-78.78571428571428
 30
0.0
 10
101.7075892857143
 20
-78.78571428571428
 30
0.0
 10
101.7075892857143
 20
-78.78571428571428
 30
0.0
 10
103.3147321428571
 20
-78.37388392857143
 30
0.0
 10
103.3147321428571
 20
-78.37388392857143
 30
0.0
 10
103.3147321428571
 20
-78.37388392857143
 30
0.0
 10
103.8169642857142
 20
-78.0625
 30
0.0
 10
103.8169642857142
 20
-78.0625
 30
0.0
 10
103.8169642857142
 20
-78.0625
 30
0.0
 10
104.6305803571428
 20
-76.77678571428571
 30
0.0
 10
104.6305803571428
 20
-76.77678571428571
 30
0.0
 10
104.6305803571428
 20
-76.77678571428571
 30
0.0
 10
105.3638392857143
 20
-74.88839285714284
 30
0.0
 10
105.3638392857143
 20
-74.88839285714284
 30
0.0
 10
105.3638392857143
 20
-74.88839285714284
 30
0.0
 10
106.2075892857142
 20
-72.5078125
 30
0.0
 10
106.2075892857142
 20
-72.5078125
 30
0.0
 10
106.2075892857142
 20
-72.5078125
 30
0.0
 10
106.7299107142857
 20
-71.47321428571427
 30
0.0
 10
106.7299107142857
 20
-71.47321428571427
 30
0.0
 10
106.7299107142857
 20
-71.47321428571427
 30
0.0
 10
107.4732142857143
 20
-70.21763392857143
 30
0.0
 10
107.4732142857143
 20
-70.21763392857143
 30
0.0
 10
107.4732142857143
 20
-70.21763392857143
 30
0.0
 10
108.0758928571428
 20
-69.29352678571428
 30
0.0
 10
108.0758928571428
 20
-69.29352678571428
 30
0.0
 10
108.0758928571428
 20
-69.29352678571428
 30
0.0
 10
108.8292410714285
 20
-68.5502232142857
 30
0.0
 10
108.8292410714285
 20
-68.5502232142857
 30
0.0
 10
108.8292410714285
 20
-68.5502232142857
 30
0.0
 10
109.7834821428571
 20
-68.05803571428571
 30
0.0
 10
109.7834821428571
 20
-68.05803571428571
 30
0.0
 10
109.7834821428571
 20
-68.05803571428571
 30
0.0
 10
110.4765625
 20
-67.99776785714285
 30
0.0
 10
110.4765625
 20
-67.99776785714285
 30
0.0
 10
110.4765625
 20
-67.99776785714285
 30
0.0
 10
111.1495535714285
 20
-68.1484375
 30
0.0
 10
111.1495535714285
 20
-68.1484375
 30
0.0
 10
111.1495535714285
 20
-68.1484375
 30
0.0
 10
111.6316964285714
 20
-68.53013392857143
 30
0.0
 10
111.6316964285714
 20
-68.53013392857143
 30
0.0
 10
111.6316964285714
 20
-68.53013392857143
 30
0.0
 10
112.0636160714285
 20
-69.203125
 30
0.0
 10
112.0636160714285
 20
-69.203125
 30
0.0
 10
112.0636160714285
 20
-69.203125
 30
0.0
 10
112.3448660714285
 20
-70.05691964285714
 30
0.0
 10
112.3448660714285
 20
-70.05691964285714
 30
0.0
 10
112.3448660714285
 20
-70.05691964285714
 30
0.0
 10
112.4654017857142
 20
-71.09151785714285
 30
0.0
 10
112.4654017857142
 20
-71.09151785714285
 30
0.0
 10
112.4654017857142
 20
-71.09151785714285
 30
0.0
 10
112.5256696428571
 20
-72.55803571428571
 30
0.0
 10
112.5256696428571
 20
-72.55803571428571
 30
0.0
 10
112.5256696428571
 20
-72.55803571428571
 30
0.0
 10
112.5758928571428
 20
-73.89397321428571
 30
0.0
 10
112.5758928571428
 20
-73.89397321428571
 30
0.0
 10
112.5758928571428
 20
-73.89397321428571
 30
0.0
 10
112.5959821428571
 20
-75.0390625
 30
0.0
 10
112.5959821428571
 20
-75.0390625
 30
0.0
 10
112.5959821428571
 20
-75.0390625
 30
0.0
 10
112.6261160714285
 20
-75.57142857142856
 30
0.0
 10
112.6261160714285
 20
-75.57142857142856
 30
0.0
 10
112.6261160714285
 20
-75.57142857142856
 30
0.0
 10
112.9977678571428
 20
-75.35044642857143
 30
0.0
 10
112.9977678571428
 20
-75.35044642857143
 30
0.0
 10
112.9977678571428
 20
-75.35044642857143
 30
0.0
 10
113.6104910714285
 20
-74.86830357142856
 30
0.0
 10
113.6104910714285
 20
-74.86830357142856
 30
0.0
 10
113.6104910714285
 20
-74.86830357142856
 30
0.0
 10
114.2734375
 20
-74.1953125
 30
0.0
 10
114.2734375
 20
-74.1953125
 30
0.0
 10
114.2734375
 20
-74.1953125
 30
0.0
 10
114.8861607142857
 20
-73.76339285714284
 30
0.0
 10
114.8861607142857
 20
-73.76339285714284
 30
0.0
 10
114.8861607142857
 20
-73.76339285714284
 30
0.0
 10
115.75
 20
-73.32142857142857
 30
0.0
 10
115.75
 20
-73.32142857142857
 30
0.0
 10
115.75
 20
-73.32142857142857
 30
0.0
 10
116.4732142857143
 20
-73.140625
 30
0.0
 10
116.4732142857143
 20
-73.140625
 30
0.0
 10
116.4732142857143
 20
-73.140625
 30
0.0
 10
117.2165178571428
 20
-73.13058035714284
 30
0.0
 10
117.2165178571428
 20
-73.13058035714284
 30
0.0
 10
117.2165178571428
 20
-73.13058035714284
 30
0.0
 10
117.4450334821428
 20
-73.09040178571428
 30
0.0
 10
117.4450334821428
 20
-73.09040178571428
 30
0.0
 10
117.4450334821428
 20
-73.09040178571428
 30
0.0
 10
117.5354352678571
 20
-72.90959821428571
 30
0.0
 10
117.5354352678571
 20
-72.90959821428571
 30
0.0
 10
117.5354352678571
 20
-72.90959821428571
 30
0.0
 10
117.6258370535714
 20
-72.52790178571427
 30
0.0
 10
117.6258370535714
 20
-72.52790178571427
 30
0.0
 10
117.6258370535714
 20
-72.52790178571427
 30
0.0
 10
117.5329241071428
 20
-72.42745535714284
 30
0.0
 10
117.5329241071428
 20
-72.42745535714284
 30
0.0
 10
117.5329241071428
 20
-72.42745535714284
 30
0.0
 10
117.3722098214285
 20
-72.3295200892857
 30
0.0
 10
117.3722098214285
 20
-72.3295200892857
 30
0.0
 10
117.3722098214285
 20
-72.3295200892857
 30
0.0
 10
117.3722098214285
 20
-72.23158482142856
 30
0.0
 10
117.3722098214285
 20
-72.23158482142856
 30
0.0
 10
117.3722098214285
 20
-72.23158482142856
 30
0.0
 10
117.5379464285714
 20
-72.19893973214285
 30
0.0
 10
117.5379464285714
 20
-72.19893973214285
 30
0.0
 10
117.5379464285714
 20
-72.19893973214285
 30
0.0
 10
117.7413504464285
 20
-72.18638392857143
 30
0.0
 10
117.7413504464285
 20
-72.18638392857143
 30
0.0
 10
117.7413504464285
 20
-72.18638392857143
 30
0.0
 10
117.8970424107143
 20
-71.26729910714285
 30
0.0
 10
117.8970424107143
 20
-71.26729910714285
 30
0.0
 10
117.8970424107143
 20
-71.26729910714285
 30
0.0
 10
117.7639508928571
 20
-71.08649553571428
 30
0.0
 10
117.7639508928571
 20
-71.08649553571428
 30
0.0
 10
117.7639508928571
 20
-71.08649553571428
 30
0.0
 10
117.7112165178571
 20
-70.95340401785714
 30
0.0
 10
117.7112165178571
 20
-70.95340401785714
 30
0.0
 10
117.7112165178571
 20
-70.95340401785714
 30
0.0
 10
117.7915736607143
 20
-70.90066964285714
 30
0.0
 10
117.7915736607143
 20
-70.90066964285714
 30
0.0
 10
117.7915736607143
 20
-70.90066964285714
 30
0.0
 10
118.017578125
 20
-70.82533482142856
 30
0.0
 10
118.017578125
 20
-70.82533482142856
 30
0.0
 10
118.017578125
 20
-70.82533482142856
 30
0.0
 10
118.123046875
 20
-70.66462053571427
 30
0.0
 10
118.123046875
 20
-70.66462053571427
 30
0.0
 10
118.123046875
 20
-70.66462053571427
 30
0.0
 10
118.0728236607142
 20
-70.19754464285714
 30
0.0
 10
118.0728236607142
 20
-70.19754464285714
 30
0.0
 10
118.0728236607142
 20
-70.19754464285714
 30
0.0
 10
117.8970424107143
 20
-69.75809151785714
 30
0.0
 10
117.8970424107143
 20
-69.75809151785714
 30
0.0
 10
117.8970424107143
 20
-69.75809151785714
 30
0.0
 10
117.6785714285714
 20
-69.56975446428571
 30
0.0
 10
117.6785714285714
 20
-69.56975446428571
 30
0.0
 10
117.6785714285714
 20
-69.56975446428571
 30
0.0
 10
117.1788504464285
 20
-69.33872767857143
 30
0.0
 10
117.1788504464285
 20
-69.33872767857143
 30
0.0
 10
117.1788504464285
 20
-69.33872767857143
 30
0.0
 10
116.5334821428571
 20
-69.08928571428571
 30
0.0
 10
116.5334821428571
 20
-69.08928571428571
 30
0.0
 10
116.5334821428571
 20
-69.08928571428571
 30
0.0
 10
115.9910714285714
 20
-68.72767857142857
 30
0.0
 10
115.9910714285714
 20
-68.72767857142857
 30
0.0
 10
115.9910714285714
 20
-68.72767857142857
 30
0.0
 10
115.7767857142857
 20
-68.35267857142857
 30
0.0
 10
115.7767857142857
 20
-68.35267857142857
 30
0.0
 10
115.7767857142857
 20
-68.35267857142857
 30
0.0
 10
115.7232142857143
 20
-67.91071428571427
 30
0.0
 10
115.7232142857143
 20
-67.91071428571427
 30
0.0
 10
115.7232142857143
 20
-67.91071428571427
 30
0.0
 10
115.6160714285714
 20
-67.50223214285714
 30
0.0
 10
115.6160714285714
 20
-67.50223214285714
 30
0.0
 10
115.6160714285714
 20
-67.50223214285714
 30
0.0
 10
115.4553571428571
 20
-67.13392857142856
 30
0.0
 10
115.4553571428571
 20
-67.13392857142856
 30
0.0
 10
115.4553571428571
 20
-67.13392857142856
 30
0.0
 10
115.0133928571428
 20
-66.52455357142857
 30
0.0
 10
115.0133928571428
 20
-66.52455357142857
 30
0.0
 10
115.0133928571428
 20
-66.52455357142857
 30
0.0
 10
114.2834821428571
 20
-66.02232142857143
 30
0.0
 10
114.2834821428571
 20
-66.02232142857143
 30
0.0
 10
114.2834821428571
 20
-66.02232142857143
 30
0.0
 10
113.3928571428571
 20
-65.6674107142857
 30
0.0
 10
113.3928571428571
 20
-65.6674107142857
 30
0.0
 10
113.3928571428571
 20
-65.6674107142857
 30
0.0
 10
112.2477678571428
 20
-65.36607142857143
 30
0.0
 10
112.2477678571428
 20
-65.36607142857143
 30
0.0
 10
112.2477678571428
 20
-65.36607142857143
 30
0.0
 10
110.2321428571428
 20
-65.04464285714284
 30
0.0
 10
110.2321428571428
 20
-65.04464285714284
 30
0.0
 10
110.2321428571428
 20
-65.04464285714284
 30
0.0
 10
107.3191964285714
 20
-64.609375
 30
0.0
 10
107.3191964285714
 20
-64.609375
 30
0.0
 10
107.3191964285714
 20
-64.609375
 30
0.0
 10
105.2633928571428
 20
-64.28125
 30
0.0
 10
105.2633928571428
 20
-64.28125
 30
0.0
 10
105.2633928571428
 20
-64.28125
 30
0.0
 10
104.5267857142857
 20
-64.19419642857143
 30
0.0
 10
104.5267857142857
 20
-64.19419642857143
 30
0.0
 10
104.5267857142857
 20
-64.19419642857143
 30
0.0
 10
103.7834821428571
 20
-64.17410714285714
 30
0.0
 10
103.7834821428571
 20
-64.17410714285714
 30
0.0
 10
103.7834821428571
 20
-64.17410714285714
 30
0.0
 10
102.7321428571428
 20
-64.2142857142857
 30
0.0
 10
102.7321428571428
 20
-64.2142857142857
 30
0.0
 10
102.7321428571428
 20
-64.2142857142857
 30
0.0
 10
101.78125
 20
-64.20758928571427
 30
0.0
 10
101.78125
 20
-64.20758928571427
 30
0.0
 10
101.78125
 20
-64.20758928571427
 30
0.0
 10
100.7165178571428
 20
-64.10044642857143
 30
0.0
 10
100.7165178571428
 20
-64.10044642857143
 30
0.0
 10
100.7165178571428
 20
-64.10044642857143
 30
0.0
 10
100.1138392857143
 20
-63.9799107142857
 30
0.0
 10
100.1138392857143
 20
-63.9799107142857
 30
0.0
 10
100.1138392857143
 20
-63.9799107142857
 30
0.0
 10
99.71205357142856
 20
-63.91294642857142
 30
0.0
 10
99.71205357142856
 20
-63.91294642857142
 30
0.0
 10
99.71205357142856
 20
-63.91294642857142
 30
0.0
 10
99.63839285714286
 20
-63.34375
 30
0.0
 10
99.63839285714286
 20
-63.34375
 30
0.0
 10
99.63839285714286
 20
-63.34375
 30
0.0
 10
99.59151785714285
 20
-62.72767857142857
 30
0.0
 10
99.59151785714285
 20
-62.72767857142857
 30
0.0
 10
99.59151785714285
 20
-62.72767857142857
 30
0.0
 10
99.52455357142858
 20
-62.31919642857143
 30
0.0
 10
99.52455357142858
 20
-62.31919642857143
 30
0.0
 10
99.52455357142858
 20
-62.31919642857143
 30
0.0
 10
99.38392857142858
 20
-62.125
 30
0.0
 10
99.38392857142858
 20
-62.125
 30
0.0
 10
99.38392857142858
 20
-62.125
 30
0.0
 10
99.00892857142856
 20
-62.05133928571428
 30
0.0
 10
99.00892857142856
 20
-62.05133928571428
 30
0.0
 10
99.00892857142856
 20
-62.05133928571428
 30
0.0
 10
97.92410714285715
 20
-62.07142857142857
 30
0.0
 10
97.92410714285715
 20
-62.07142857142857
 30
0.0
 10
97.92410714285715
 20
-62.07142857142857
 30
0.0
 10
97.19419642857141
 20
-62.05803571428571
 30
0.0
 10
97.19419642857141
 20
-62.05803571428571
 30
0.0
 10
97.19419642857141
 20
-62.05803571428571
 30
0.0
 10
96.68526785714284
 20
-61.796875
 30
0.0
 10
96.68526785714284
 20
-61.796875
 30
0.0
 10
96.68526785714284
 20
-61.796875
 30
0.0
 10
94.50223214285713
 20
-60.53794642857142
 30
0.0
 10
94.50223214285713
 20
-60.53794642857142
 30
0.0
 10
94.50223214285713
 20
-60.53794642857142
 30
0.0
 10
91.31473214285714
 20
-58.73660714285714
 30
0.0
 10
91.31473214285714
 20
-58.73660714285714
 30
0.0
 10
91.31473214285714
 20
-58.73660714285714
 30
0.0
 10
88.67968750000001
 20
-57.38058035714285
 30
0.0
 10
88.67968750000001
 20
-57.38058035714285
 30
0.0
 10
88.67968750000001
 20
-57.38058035714285
 30
0.0
 10
86.4799107142857
 20
-56.46651785714285
 30
0.0
 10
86.4799107142857
 20
-56.46651785714285
 30
0.0
 10
86.4799107142857
 20
-56.46651785714285
 30
0.0
 10
84.7421875
 20
-55.95424107142857
 30
0.0
 10
84.7421875
 20
-55.95424107142857
 30
0.0
 10
84.7421875
 20
-55.95424107142857
 30
0.0
 10
82.36160714285714
 20
-55.45200892857142
 30
0.0
 10
82.36160714285714
 20
-55.45200892857142
 30
0.0
 10
82.36160714285714
 20
-55.45200892857142
 30
0.0
 10
80.16183035714284
 20
-55.18080357142856
 30
0.0
 10
80.16183035714284
 20
-55.18080357142856
 30
0.0
 10
80.16183035714284
 20
-55.18080357142856
 30
0.0
 10
77.95200892857143
 20
-55.0703125
 30
0.0
 10
77.95200892857143
 20
-55.0703125
 30
0.0
 10
77.95200892857143
 20
-55.0703125
 30
0.0
 10
75.3203125
 20
-55.01004464285713
 30
0.0
 10
75.3203125
 20
-55.01004464285713
 30
0.0
 10
75.3203125
 20
-55.01004464285713
 30
0.0
 10
72.3671875
 20
-55.10044642857142
 30
0.0
 10
72.3671875
 20
-55.10044642857142
 30
0.0
 10
72.3671875
 20
-55.10044642857142
 30
0.0
 10
71.40290178571428
 20
-54.69866071428571
 30
0.0
 10
71.40290178571428
 20
-54.69866071428571
 30
0.0
 10
71.40290178571428
 20
-54.69866071428571
 30
0.0
 10
70.2377232142857
 20
-54.17633928571429
 30
0.0
 10
70.2377232142857
 20
-54.17633928571429
 30
0.0
 10
70.2377232142857
 20
-54.17633928571429
 30
0.0
 10
69.00223214285714
 20
-53.72433035714285
 30
0.0
 10
69.00223214285714
 20
-53.72433035714285
 30
0.0
 10
69.00223214285714
 20
-53.72433035714285
 30
0.0
 10
66.92299107142857
 20
-53.58370535714286
 30
0.0
 10
66.92299107142857
 20
-53.58370535714286
 30
0.0
 10
66.92299107142857
 20
-53.58370535714286
 30
0.0
 10
62.78459821428571
 20
-53.34263392857142
 30
0.0
 10
62.78459821428571
 20
-53.34263392857142
 30
0.0
 10
62.78459821428571
 20
-53.34263392857142
 30
0.0
 10
60.12276785714285
 20
-53.2421875
 30
0.0
 10
60.12276785714285
 20
-53.2421875
 30
0.0
 10
60.12276785714285
 20
-53.2421875
 30
0.0
 10
59.86160714285714
 20
-53.16183035714285
 30
0.0
 10
59.86160714285714
 20
-53.16183035714285
 30
0.0
 10
59.86160714285714
 20
-53.16183035714285
 30
0.0
 10
59.63058035714285
 20
-52.88058035714286
 30
0.0
 10
59.63058035714285
 20
-52.88058035714286
 30
0.0
 10
59.63058035714285
 20
-52.88058035714286
 30
0.0
 10
59.59040178571428
 20
-52.34821428571429
 30
0.0
 10
59.59040178571428
 20
-52.34821428571429
 30
0.0
 10
59.59040178571428
 20
-52.34821428571429
 30
0.0
 10
59.91183035714286
 20
-52.00669642857143
 30
0.0
 10
59.91183035714286
 20
-52.00669642857143
 30
0.0
 10
59.91183035714286
 20
-52.00669642857143
 30
0.0
 10
60.45424107142856
 20
-51.73549107142857
 30
0.0
 10
60.45424107142856
 20
-51.73549107142857
 30
0.0
 10
60.45424107142856
 20
-51.73549107142857
 30
0.0
 10
60.65513392857142
 20
-51.37388392857142
 30
0.0
 10
60.65513392857142
 20
-51.37388392857142
 30
0.0
 10
60.65513392857142
 20
-51.37388392857142
 30
0.0
 10
60.66517857142857
 20
-50.95200892857143
 30
0.0
 10
60.66517857142857
 20
-50.95200892857143
 30
0.0
 10
60.66517857142857
 20
-50.95200892857143
 30
0.0
 10
60.4642857142857
 20
-50.73102678571428
 30
0.0
 10
60.4642857142857
 20
-50.73102678571428
 30
0.0
 10
60.4642857142857
 20
-50.73102678571428
 30
0.0
 10
59.83147321428571
 20
-50.63058035714285
 30
0.0
 10
59.83147321428571
 20
-50.63058035714285
 30
0.0
 10
59.83147321428571
 20
-50.63058035714285
 30
0.0
 10
57.86272321428571
 20
-50.67075892857142
 30
0.0
 10
57.86272321428571
 20
-50.67075892857142
 30
0.0
 10
57.86272321428571
 20
-50.67075892857142
 30
0.0
 10
56.62723214285714
 20
-50.59040178571429
 30
0.0
 10
56.62723214285714
 20
-50.59040178571429
 30
0.0
 10
56.62723214285714
 20
-50.59040178571429
 30
0.0
 10
55.69308035714286
 20
-50.63058035714285
 30
0.0
 10
55.69308035714286
 20
-50.63058035714285
 30
0.0
 10
55.69308035714286
 20
-50.63058035714285
 30
0.0
 10
54.859375
 20
-50.79129464285713
 30
0.0
 10
54.859375
 20
-50.79129464285713
 30
0.0
 10
54.859375
 20
-50.79129464285713
 30
0.0
 10
54.23660714285714
 20
-51.17299107142857
 30
0.0
 10
54.23660714285714
 20
-51.17299107142857
 30
0.0
 10
54.23660714285714
 20
-51.17299107142857
 30
0.0
 10
52.94084821428571
 20
-51.6049107142857
 30
0.0
 10
52.94084821428571
 20
-51.6049107142857
 30
0.0
 10
52.94084821428571
 20
-51.6049107142857
 30
0.0
 10
51.94642857142857
 20
-51.52455357142857
 30
0.0
 10
51.94642857142857
 20
-51.52455357142857
 30
0.0
 10
51.94642857142857
 20
-51.52455357142857
 30
0.0
 10
50.53013392857142
 20
-51.37388392857142
 30
0.0
 10
50.53013392857142
 20
-51.37388392857142
 30
0.0
 10
50.53013392857142
 20
-51.37388392857142
 30
0.0
 10
49.87723214285714
 20
-51.46428571428571
 30
0.0
 10
49.8470982142857
 20
-51.47433035714286
 30
0.0
 10
49.81696428571428
 20
-51.484375
 30
0.0
 10
49.46540178571428
 20
-51.49441964285713
 30
0.0
 10
49.46540178571428
 20
-51.49441964285713
 30
0.0
 10
49.46540178571428
 20
-51.49441964285713
 30
0.0
 10
48.89285714285714
 20
-51.04241071428571
 30
0.0
 10
48.89285714285714
 20
-51.04241071428571
 30
0.0
 10
48.89285714285714
 20
-51.04241071428571
 30
0.0
 10
48.55133928571429
 20
-51.19308035714285
 30
0.0
 10
48.55133928571429
 20
-51.19308035714285
 30
0.0
 10
48.55133928571429
 20
-51.19308035714285
 30
0.0
 10
47.34598214285713
 20
-52.24776785714285
 30
0.0
 10
47.34598214285713
 20
-52.24776785714285
 30
0.0
 10
47.34598214285713
 20
-52.24776785714285
 30
0.0
 10
46.703125
 20
-52.8203125
 30
0.0
 10
46.703125
 20
-52.8203125
 30
0.0
 10
46.703125
 20
-52.8203125
 30
0.0
 10
46.58258928571428
 20
-53.171875
 30
0.0
 10
46.58258928571428
 20
-53.171875
 30
0.0
 10
46.58258928571428
 20
-53.171875
 30
0.0
 10
45.00558035714285
 20
-53.2421875
 30
0.0
 10
45.00558035714285
 20
-53.2421875
 30
0.0
 10
45.00558035714285
 20
-53.2421875
 30
0.0
 10
42.33370535714285
 20
-53.14174107142857
 30
0.0
 10
42.33370535714285
 20
-53.14174107142857
 30
0.0
 10
42.33370535714285
 20
-53.14174107142857
 30
0.0
 10
38.95870535714286
 20
-53.30245535714285
 30
0.0
 10
38.95870535714286
 20
-53.30245535714285
 30
0.0
 10
38.95870535714286
 20
-53.30245535714285
 30
0.0
 10
38.11495535714286
 20
-57.49107142857142
 30
0.0
 10
38.11495535714286
 20
-57.49107142857142
 30
0.0
 10
38.11495535714286
 20
-57.49107142857142
 30
0.0
 10
36.5078125
 20
-58.10379464285714
 30
0.0
 10
36.5078125
 20
-58.10379464285714
 30
0.0
 10
36.5078125
 20
-58.10379464285714
 30
0.0
 10
35.49330357142857
 20
-58.19419642857142
 30
0.0
 10
35.49330357142857
 20
-58.19419642857142
 30
0.0
 10
35.49330357142857
 20
-58.19419642857142
 30
0.0
 10
34.75
 20
-58.29464285714285
 30
0.0
 10
34.75
 20
-58.29464285714285
 30
0.0
 10
34.75
 20
-58.29464285714285
 30
0.0
 10
33.91629464285714
 20
-57.25
 30
0.0
 10
33.91629464285714
 20
-57.25
 30
0.0
 10
33.91629464285714
 20
-57.25
 30
0.0
 10
32.12834821428572
 20
-55.92410714285714
 30
0.0
 10
32.12834821428572
 20
-55.92410714285714
 30
0.0
 10
32.12834821428572
 20
-55.92410714285714
 30
0.0
 10
30.62165178571429
 20
-54.3671875
 30
0.0
 10
30.62165178571429
 20
-54.3671875
 30
0.0
 10
30.62165178571429
 20
-54.3671875
 30
0.0
 10
28.32142857142857
 20
-53.18191964285714
 30
0.0
 10
28.32142857142857
 20
-53.18191964285714
 30
0.0
 10
28.32142857142857
 20
-53.18191964285714
 30
0.0
 10
24.96651785714286
 20
-53.0111607142857
 30
0.0
 10
24.96651785714286
 20
-53.0111607142857
 30
0.0
 10
24.96651785714286
 20
-53.0111607142857
 30
0.0
 10
22.49553571428571
 20
-52.98102678571428
 30
0.0
 10
22.49553571428571
 20
-52.98102678571428
 30
0.0
 10
22.49553571428571
 20
-52.98102678571428
 30
0.0
 10
21.14955357142857
 20
-53.171875
 30
0.0
 10
21.14955357142857
 20
-53.171875
 30
0.0
 10
21.14955357142857
 20
-53.171875
 30
0.0
 10
20.56696428571429
 20
-55.09040178571428
 30
0.0
 10
20.56696428571429
 20
-55.09040178571428
 30
0.0
 10
20.56696428571429
 20
-55.09040178571428
 30
0.0
 10
20.125
 20
-57.9330357142857
 30
0.0
 10
20.125
 20
-57.9330357142857
 30
0.0
 10
20.125
 20
-57.9330357142857
 30
0.0
 10
19.78348214285714
 20
-60.98660714285713
 30
0.0
 10
19.78348214285714
 20
-60.98660714285713
 30
0.0
 10
19.78348214285714
 20
-60.98660714285713
 30
0.0
 10
19.66294642857143
 20
-63.5078125
 30
0.0
 10
19.66294642857143
 20
-63.5078125
 30
0.0
 10
19.66294642857143
 20
-63.5078125
 30
0.0
 10
19.06026785714286
 20
-64.06026785714285
 30
0.0
 10
19.06026785714286
 20
-64.06026785714285
 30
0.0
 10
19.06026785714286
 20
-64.06026785714285
 30
0.0
 10
18.65848214285714
 20
-64.39174107142857
 30
0.0
 10
18.65848214285714
 20
-64.39174107142857
 30
0.0
 10
18.65848214285714
 20
-64.39174107142857
 30
0.0
 10
17.96540178571428
 20
-65.32589285714284
 30
0.0
 10
17.96540178571428
 20
-65.32589285714284
 30
0.0
 10
17.96540178571428
 20
-65.32589285714284
 30
0.0
 10
16.90066964285714
 20
-66.97321428571427
 30
0.0
 10
16.90066964285714
 20
-66.97321428571427
 30
0.0
 10
16.90066964285714
 20
-66.97321428571427
 30
0.0
 10
16.12053571428571
 20
-68.07142857142856
 30
0.0
 10
16.12053571428571
 20
-68.07142857142856
 30
0.0
  0
HATCH
  5
87
330
70
100
AcDbEntity
  8
CopperF-Delorean
 62
   254
420
 15124687
440
 33554687
100
AcDbHatch
 10
0.0
 20
0.0
 30
0.0
210
0.0
220
0.0
230
1.0
  2
SOLID
 70
     1
 71
     1
 91
        1
 92
        1
 93
        1
 72
     4
 94
        3
 73
     0
 74
     0
 95
      587
 96
      583
 40
0.0
 40
0.0
 40
0.0
 40
0.0
 40
1.0
 40
1.0
 40
1.0
 40
2.0
 40
2.0
 40
2.0
 40
3.0
 40
3.0
 40
3.0
 40
4.0
 40
4.0
 40
4.0
 40
5.0
 40
5.0
 40
5.0
 40
6.0
 40
6.0
 40
6.0
 40
7.0
 40
7.0
 40
7.0
 40
8.0
 40
8.0
 40
8.0
 40
9.0
 40
9.0
 40
9.0
 40
10.0
 40
10.0
 40
10.0
 40
11.0
 40
11.0
 40
11.0
 40
12.0
 40
12.0
 40
12.0
 40
13.0
 40
13.0
 40
13.0
 40
14.0
 40
14.0
 40
14.0
 40
15.0
 40
15.0
 40
15.0
 40
16.0
 40
16.0
 40
16.0
 40
17.0
 40
17.0
 40
17.0
 40
18.0
 40
18.0
 40
18.0
 40
19.0
 40
19.0
 40
19.0
 40
20.0
 40
20.0
 40
20.0
 40
21.0
 40
21.0
 40
21.0
 40
22.0
 40
22.0
 40
22.0
 40
23.0
 40
23.0
 40
23.0
 40
24.0
 40
24.0
 40
24.0
 40
25.0
 40
25.0
 40
25.0
 40
26.0
 40
26.0
 40
26.0
 40
27.0
 40
27.0
 40
27.0
 40
28.0
 40
28.0
 40
28.0
 40
29.0
 40
29.0
 40
29.0
 40
30.0
 40
30.0
 40
30.0
 40
31.0
 40
31.0
 40
31.0
 40
32.0
 40
32.0
 40
32.0
 40
33.0
 40
33.0
 40
33.0
 40
34.0
 40
34.0
 40
34.0
 40
35.0
 40
35.0
 40
35.0
 40
36.0
 40
36.0
 40
36.0
 40
37.0
 40
37.0
 40
37.0
 40
38.0
 40
38.0
 40
38.0
 40
39.0
 40
39.0
 40
39.0
 40
40.0
 40
40.0
 40
40.0
 40
41.0
 40
41.0
 40
41.0
 40
42.0
 40
42.0
 40
42.0
 40
43.0
 40
43.0
 40
43.0
 40
44.0
 40
44.0
 40
44.0
 40
45.0
 40
45.0
 40
45.0
 40
46.0
 40
46.0
 40
46.0
 40
47.0
 40
47.0
 40
47.0
 40
48.0
 40
48.0
 40
48.0
 40
49.0
 40
49.0
 40
49.0
 40
50.0
 40
50.0
 40
50.0
 40
51.0
 40
51.0
 40
51.0
 40
52.0
 40
52.0
 40
52.0
 40
53.0
 40
53.0
 40
53.0
 40
54.0
 40
54.0
 40
54.0
 40
55.0
 40
55.0
 40
55.0
 40
56.0
 40
56.0
 40
56.0
 40
57.0
 40
57.0
 40
57.0
 40
58.0
 40
58.0
 40
58.0
 40
59.0
 40
59.0
 40
59.0
 40
60.0
 40
60.0
 40
60.0
 40
61.0
 40
61.0
 40
61.0
 40
62.0
 40
62.0
 40
62.0
 40
63.0
 40
63.0
 40
63.0
 40
64.0
 40
64.0
 40
64.0
 40
65.0
 40
65.0
 40
65.0
 40
66.0
 40
66.0
 40
66.0
 40
67.0
 40
67.0
 40
67.0
 40
68.0
 40
68.0
 40
68.0
 40
69.0
 40
69.0
 40
69.0
 40
70.0
 40
70.0
 40
70.0
 40
71.0
 40
71.0
 40
71.0
 40
72.0
 40
72.0
 40
72.0
 40
73.0
 40
73.0
 40
73.0
 40
74.0
 40
74.0
 40
74.0
 40
75.0
 40
75.0
 40
75.0
 40
76.0
 40
76.0
 40
76.0
 40
77.0
 40
77.0
 40
77.0
 40
78.0
 40
78.0
 40
78.0
 40
79.0
 40
79.0
 40
79.0
 40
80.0
 40
80.0
 40
80.0
 40
81.0
 40
81.0
 40
81.0
 40
82.0
 40
82.0
 40
82.0
 40
83.0
 40
83.0
 40
83.0
 40
84.0
 40
84.0
 40
84.0
 40
85.0
 40
85.0
 40
85.0
 40
86.0
 40
86.0
 40
86.0
 40
87.0
 40
87.0
 40
87.0
 40
88.0
 40
88.0
 40
88.0
 40
89.0
 40
89.0
 40
89.0
 40
90.0
 40
90.0
 40
90.0
 40
91.0
 40
91.0
 40
91.0
 40
92.0
 40
92.0
 40
92.0
 40
93.0
 40
93.0
 40
93.0
 40
94.0
 40
94.0
 40
94.0
 40
95.0
 40
95.0
 40
95.0
 40
96.0
 40
96.0
 40
96.0
 40
97.0
 40
97.0
 40
97.0
 40
98.0
 40
98.0
 40
98.0
 40
99.0
 40
99.0
 40
99.0
 40
100.0
 40
100.0
 40
100.0
 40
101.0
 40
101.0
 40
101.0
 40
102.0
 40
102.0
 40
102.0
 40
103.0
 40
103.0
 40
103.0
 40
104.0
 40
104.0
 40
104.0
 40
105.0
 40
105.0
 40
105.0
 40
106.0
 40
106.0
 40
106.0
 40
107.0
 40
107.0
 40
107.0
 40
108.0
 40
108.0
 40
108.0
 40
109.0
 40
109.0
 40
109.0
 40
110.0
 40
110.0
 40
110.0
 40
111.0
 40
111.0
 40
111.0
 40
112.0
 40
112.0
 40
112.0
 40
113.0
 40
113.0
 40
113.0
 40
114.0
 40
114.0
 40
114.0
 40
115.0
 40
115.0
 40
115.0
 40
116.0
 40
116.0
 40
116.0
 40
117.0
 40
117.0
 40
117.0
 40
118.0
 40
118.0
 40
118.0
 40
119.0
 40
119.0
 40
119.0
 40
120.0
 40
120.0
 40
120.0
 40
121.0
 40
121.0
 40
121.0
 40
122.0
 40
122.0
 40
122.0
 40
123.0
 40
123.0
 40
123.0
 40
124.0
 40
124.0
 40
124.0
 40
125.0
 40
125.0
 40
125.0
 40
126.0
 40
126.0
 40
126.0
 40
127.0
 40
127.0
 40
127.0
 40
128.0
 40
128.0
 40
128.0
 40
129.0
 40
129.0
 40
129.0
 40
130.0
 40
130.0
 40
130.0
 40
131.0
 40
131.0
 40
131.0
 40
132.0
 40
132.0
 40
132.0
 40
133.0
 40
133.0
 40
133.0
 40
134.0
 40
134.0
 40
134.0
 40
135.0
 40
135.0
 40
135.0
 40
136.0
 40
136.0
 40
136.0
 40
137.0
 40
137.0
 40
137.0
 40
138.0
 40
138.0
 40
138.0
 40
139.0
 40
139.0
 40
139.0
 40
140.0
 40
140.0
 40
140.0
 40
141.0
 40
141.0
 40
141.0
 40
142.0
 40
142.0
 40
142.0
 40
143.0
 40
143.0
 40
143.0
 40
144.0
 40
144.0
 40
144.0
 40
145.0
 40
145.0
 40
145.0
 40
146.0
 40
146.0
 40
146.0
 40
147.0
 40
147.0
 40
147.0
 40
148.0
 40
148.0
 40
148.0
 40
149.0
 40
149.0
 40
149.0
 40
150.0
 40
150.0
 40
150.0
 40
151.0
 40
151.0
 40
151.0
 40
152.0
 40
152.0
 40
152.0
 40
153.0
 40
153.0
 40
153.0
 40
154.0
 40
154.0
 40
154.0
 40
155.0
 40
155.0
 40
155.0
 40
156.0
 40
156.0
 40
156.0
 40
157.0
 40
157.0
 40
157.0
 40
158.0
 40
158.0
 40
158.0
 40
159.0
 40
159.0
 40
159.0
 40
160.0
 40
160.0
 40
160.0
 40
161.0
 40
161.0
 40
161.0
 40
162.0
 40
162.0
 40
162.0
 40
163.0
 40
163.0
 40
163.0
 40
164.0
 40
164.0
 40
164.0
 40
165.0
 40
165.0
 40
165.0
 40
166.0
 40
166.0
 40
166.0
 40
167.0
 40
167.0
 40
167.0
 40
168.0
 40
168.0
 40
168.0
 40
169.0
 40
169.0
 40
169.0
 40
170.0
 40
170.0
 40
170.0
 40
171.0
 40
171.0
 40
171.0
 40
172.0
 40
172.0
 40
172.0
 40
173.0
 40
173.0
 40
173.0
 40
174.0
 40
174.0
 40
174.0
 40
175.0
 40
175.0
 40
175.0
 40
176.0
 40
176.0
 40
176.0
 40
177.0
 40
177.0
 40
177.0
 40
178.0
 40
178.0
 40
178.0
 40
179.0
 40
179.0
 40
179.0
 40
180.0
 40
180.0
 40
180.0
 40
181.0
 40
181.0
 40
181.0
 40
182.0
 40
182.0
 40
182.0
 40
183.0
 40
183.0
 40
183.0
 40
184.0
 40
184.0
 40
184.0
 40
185.0
 40
185.0
 40
185.0
 40
186.0
 40
186.0
 40
186.0
 40
187.0
 40
187.0
 40
187.0
 40
188.0
 40
188.0
 40
188.0
 40
189.0
 40
189.0
 40
189.0
 40
190.0
 40
190.0
 40
190.0
 40
191.0
 40
191.0
 40
191.0
 40
192.0
 40
192.0
 40
192.0
 40
193.0
 40
193.0
 40
193.0
 40
194.0
 40
194.0
 40
194.0
 40
194.0
 10
16.12053571428571
 20
-68.07142857142856
 10
16.12053571428571
 20
-68.07142857142856
 10
15.61160714285714
 20
-69.54464285714284
 10
15.61160714285714
 20
-69.54464285714284
 10
15.61160714285714
 20
-69.54464285714284
 10
15.26339285714285
 20
-70.89732142857143
 10
15.26339285714285
 20
-70.89732142857143
 10
15.26339285714285
 20
-70.89732142857143
 10
14.71428571428571
 20
-71.9955357142857
 10
14.71428571428571
 20
-71.9955357142857
 10
14.71428571428571
 20
-71.9955357142857
 10
14.86160714285714
 20
-72.9330357142857
 10
14.86160714285714
 20
-72.9330357142857
 10
14.86160714285714
 20
-72.9330357142857
 10
15.03571428571428
 20
-74.01785714285714
 10
15.03571428571428
 20
-74.01785714285714
 10
15.03571428571428
 20
-74.01785714285714
 10
15.03571428571428
 20
-74.98214285714285
 10
15.03571428571428
 20
-74.98214285714285
 10
15.03571428571428
 20
-74.98214285714285
 10
15.04910714285714
 20
-75.75892857142857
 10
15.04910714285714
 20
-75.75892857142857
 10
15.04910714285714
 20
-75.75892857142857
 10
15.4375
 20
-76.30803571428571
 10
15.4375
 20
-76.30803571428571
 10
15.4375
 20
-76.30803571428571
 10
16.04017857142857
 20
-76.73660714285714
 10
16.04017857142857
 20
-76.73660714285714
 10
16.04017857142857
 20
-76.73660714285714
 10
16.28125
 20
-77.125
 10
16.28125
 20
-77.125
 10
16.28125
 20
-77.125
 10
16.29464285714286
 20
-80.03125
 10
16.29464285714286
 20
-80.03125
 10
16.29464285714286
 20
-80.03125
 10
17.07142857142857
 20
-80.88839285714284
 10
17.07142857142857
 20
-80.88839285714284
 10
17.07142857142857
 20
-80.88839285714284
 10
18.58482142857143
 20
-81.8125
 10
18.58482142857143
 20
-81.8125
 10
18.58482142857143
 20
-81.8125
 10
20.58035714285714
 20
-82.33482142857143
 10
20.58035714285714
 20
-82.33482142857143
 10
20.58035714285714
 20
-82.33482142857143
 10
29.20535714285714
 20
-83.1049107142857
 10
29.20535714285714
 20
-83.1049107142857
 10
29.20535714285714
 20
-83.1049107142857
 10
39.390625
 20
-84.12946428571428
 10
39.390625
 20
-84.12946428571428
 10
39.390625
 20
-84.12946428571428
 10
45.47767857142857
 20
-84.29017857142858
 10
45.47767857142857
 20
-84.29017857142858
 10
45.47767857142857
 20
-84.29017857142858
 10
53.21205357142857
 20
-84.33035714285713
 10
53.21205357142857
 20
-84.33035714285713
 10
53.21205357142857
 20
-84.33035714285713
 10
56.04464285714286
 20
-84.25
 10
56.04464285714286
 20
-84.25
 10
56.04464285714286
 20
-84.25
 10
57.71205357142857
 20
-83.78794642857142
 10
57.71205357142857
 20
-83.78794642857142
 10
57.71205357142857
 20
-83.78794642857142
 10
58.81696428571428
 20
-83.22544642857144
 10
58.81696428571428
 20
-83.22544642857144
 10
58.81696428571428
 20
-83.22544642857144
 10
59.96205357142857
 20
-82.140625
 10
59.96205357142857
 20
-82.140625
 10
59.96205357142857
 20
-82.140625
 10
60.3939732142857
 20
-81.48772321428571
 10
60.3939732142857
 20
-81.48772321428571
 10
60.3939732142857
 20
-81.48772321428571
 10
61.42857142857142
 20
-81.60825892857143
 10
61.42857142857142
 20
-81.60825892857143
 10
61.42857142857142
 20
-81.60825892857143
 10
63.4375
 20
-81.79910714285714
 10
63.4375
 20
-81.79910714285714
 10
63.4375
 20
-81.79910714285714
 10
65.02455357142856
 20
-82.0703125
 10
65.02455357142856
 20
-82.0703125
 10
65.02455357142856
 20
-82.0703125
 10
65.90848214285713
 20
-81.97991071428571
 10
65.90848214285713
 20
-81.97991071428571
 10
65.90848214285713
 20
-81.97991071428571
 10
66.3203125
 20
-79.87053571428571
 10
66.3203125
 20
-79.87053571428571
 10
66.3203125
 20
-79.87053571428571
 10
67.13392857142856
 20
-77.10825892857143
 10
67.13392857142856
 20
-77.10825892857143
 10
67.13392857142856
 20
-77.10825892857143
 10
67.92745535714285
 20
-74.81808035714284
 10
67.92745535714285
 20
-74.81808035714284
 10
67.92745535714285
 20
-74.81808035714284
 10
68.73102678571427
 20
-72.98995535714285
 10
68.73102678571427
 20
-72.98995535714285
 10
68.73102678571427
 20
-72.98995535714285
 10
69.44419642857143
 20
-71.875
 10
69.44419642857143
 20
-71.875
 10
69.44419642857143
 20
-71.875
 10
70.55580357142857
 20
-70.92410714285714
 10
70.55580357142857
 20
-70.92410714285714
 10
70.55580357142857
 20
-70.92410714285714
 10
71.7611607142857
 20
-70.328125
 10
71.7611607142857
 20
-70.328125
 10
71.7611607142857
 20
-70.328125
 10
72.98660714285714
 20
-69.8861607142857
 10
72.98660714285714
 20
-69.8861607142857
 10
72.98660714285714
 20
-69.8861607142857
 10
74.06473214285714
 20
-69.74553571428571
 10
74.06473214285714
 20
-69.74553571428571
 10
74.06473214285714
 20
-69.74553571428571
 10
75.32366071428571
 20
-69.91294642857143
 10
75.32366071428571
 20
-69.91294642857143
 10
75.32366071428571
 20
-69.91294642857143
 10
76.47544642857143
 20
-70.16071428571428
 10
76.47544642857143
 20
-70.16071428571428
 10
76.47544642857143
 20
-70.16071428571428
 10
77.27901785714284
 20
-70.64955357142856
 10
77.27901785714284
 20
-70.64955357142856
 10
77.27901785714284
 20
-70.64955357142856
 10
77.93526785714284
 20
-71.21875
 10
77.93526785714284
 20
-71.21875
 10
77.93526785714284
 20
-71.21875
 10
78.22321428571427
 20
-71.77455357142857
 10
78.22321428571427
 20
-71.77455357142857
 10
78.22321428571427
 20
-71.77455357142857
 10
78.51785714285714
 20
-72.50446428571428
 10
78.51785714285714
 20
-72.50446428571428
 10
78.51785714285714
 20
-72.50446428571428
 10
78.91964285714284
 20
-73.70982142857143
 10
78.91964285714284
 20
-73.70982142857143
 10
78.91964285714284
 20
-73.70982142857143
 10
79.05357142857143
 20
-74.72767857142857
 10
79.05357142857143
 20
-74.72767857142857
 10
79.05357142857143
 20
-74.72767857142857
 10
79.2142857142857
 20
-76.61607142857143
 10
79.2142857142857
 20
-76.61607142857143
 10
79.2142857142857
 20
-76.61607142857143
 10
79.39508928571427
 20
-78.50446428571427
 10
79.39508928571427
 20
-78.50446428571427
 10
79.39508928571427
 20
-78.50446428571427
 10
79.48214285714285
 20
-79.59598214285714
 10
79.48214285714285
 20
-79.59598214285714
 10
79.48214285714285
 20
-79.59598214285714
 10
79.421875
 20
-80.21205357142857
 10
79.421875
 20
-80.21205357142857
 10
79.421875
 20
-80.21205357142857
 10
79.2611607142857
 20
-80.60714285714285
 10
79.2611607142857
 20
-80.60714285714285
 10
79.2611607142857
 20
-80.60714285714285
 10
79.234375
 20
-80.83816964285714
 10
79.234375
 20
-80.83816964285714
 10
79.234375
 20
-80.83816964285714
 10
79.29129464285714
 20
-81.09263392857142
 10
79.29129464285714
 20
-81.09263392857142
 10
79.29129464285714
 20
-81.09263392857142
 10
79.71316964285714
 20
-81.06250000000001
 10
79.71316964285714
 20
-81.06250000000001
 10
79.71316964285714
 20
-81.06250000000001
 10
84.31026785714285
 20
-80.34263392857143
 10
84.31026785714285
 20
-80.34263392857143
 10
84.31026785714285
 20
-80.34263392857143
 10
87.90625
 20
-79.90066964285714
 10
87.90625
 20
-79.90066964285714
 10
87.90625
 20
-79.90066964285714
 10
92.28571428571427
 20
-79.57924107142857
 10
92.28571428571427
 20
-79.57924107142857
 10
92.28571428571427
 20
-79.57924107142857
 10
96.40401785714285
 20
-79.33816964285714
 10
96.40401785714285
 20
-79.33816964285714
 10
96.40401785714285
 20
-79.33816964285714
 10
99.54799107142857
 20
-79.08705357142856
 10
99.54799107142857
 20
-79.08705357142856
 10
99.54799107142857
 20
-79.08705357142856
 10
101.7075892857143
 20
-78.78571428571428
 10
101.7075892857143
 20
-78.78571428571428
 10
101.7075892857143
 20
-78.78571428571428
 10
103.3147321428571
 20
-78.37388392857143
 10
103.3147321428571
 20
-78.37388392857143
 10
103.3147321428571
 20
-78.37388392857143
 10
103.8169642857142
 20
-78.0625
 10
103.8169642857142
 20
-78.0625
 10
103.8169642857142
 20
-78.0625
 10
104.6305803571428
 20
-76.77678571428571
 10
104.6305803571428
 20
-76.77678571428571
 10
104.6305803571428
 20
-76.77678571428571
 10
105.3638392857143
 20
-74.88839285714284
 10
105.3638392857143
 20
-74.88839285714284
 10
105.3638392857143
 20
-74.88839285714284
 10
106.2075892857142
 20
-72.5078125
 10
106.2075892857142
 20
-72.5078125
 10
106.2075892857142
 20
-72.5078125
 10
106.7299107142857
 20
-71.47321428571427
 10
106.7299107142857
 20
-71.47321428571427
 10
106.7299107142857
 20
-71.47321428571427
 10
107.4732142857143
 20
-70.21763392857143
 10
107.4732142857143
 20
-70.21763392857143
 10
107.4732142857143
 20
-70.21763392857143
 10
108.0758928571428
 20
-69.29352678571428
 10
108.0758928571428
 20
-69.29352678571428
 10
108.0758928571428
 20
-69.29352678571428
 10
108.8292410714285
 20
-68.5502232142857
 10
108.8292410714285
 20
-68.5502232142857
 10
108.8292410714285
 20
-68.5502232142857
 10
109.7834821428571
 20
-68.05803571428571
 10
109.7834821428571
 20
-68.05803571428571
 10
109.7834821428571
 20
-68.05803571428571
 10
110.4765625
 20
-67.99776785714285
 10
110.4765625
 20
-67.99776785714285
 10
110.4765625
 20
-67.99776785714285
 10
111.1495535714285
 20
-68.1484375
 10
111.1495535714285
 20
-68.1484375
 10
111.1495535714285
 20
-68.1484375
 10
111.6316964285714
 20
-68.53013392857143
 10
111.6316964285714
 20
-68.53013392857143
 10
111.6316964285714
 20
-68.53013392857143
 10
112.0636160714285
 20
-69.203125
 10
112.0636160714285
 20
-69.203125
 10
112.0636160714285
 20
-69.203125
 10
112.3448660714285
 20
-70.05691964285714
 10
112.3448660714285
 20
-70.05691964285714
 10
112.3448660714285
 20
-70.05691964285714
 10
112.4654017857142
 20
-71.09151785714285
 10
112.4654017857142
 20
-71.09151785714285
 10
112.4654017857142
 20
-71.09151785714285
 10
112.5256696428571
 20
-72.55803571428571
 10
112.5256696428571
 20
-72.55803571428571
 10
112.5256696428571
 20
-72.55803571428571
 10
112.5758928571428
 20
-73.89397321428571
 10
112.5758928571428
 20
-73.89397321428571
 10
112.5758928571428
 20
-73.89397321428571
 10
112.5959821428571
 20
-75.0390625
 10
112.5959821428571
 20
-75.0390625
 10
112.5959821428571
 20
-75.0390625
 10
112.6261160714285
 20
-75.57142857142856
 10
112.6261160714285
 20
-75.57142857142856
 10
112.6261160714285
 20
-75.57142857142856
 10
112.9977678571428
 20
-75.35044642857143
 10
112.9977678571428
 20
-75.35044642857143
 10
112.9977678571428
 20
-75.35044642857143
 10
113.6104910714285
 20
-74.86830357142856
 10
113.6104910714285
 20
-74.86830357142856
 10
113.6104910714285
 20
-74.86830357142856
 10
114.2734375
 20
-74.1953125
 10
114.2734375
 20
-74.1953125
 10
114.2734375
 20
-74.1953125
 10
114.8861607142857
 20
-73.76339285714284
 10
114.8861607142857
 20
-73.76339285714284
 10
114.8861607142857
 20
-73.76339285714284
 10
115.75
 20
-73.32142857142857
 10
115.75
 20
-73.32142857142857
 10
115.75
 20
-73.32142857142857
 10
116.4732142857143
 20
-73.140625
 10
116.4732142857143
 20
-73.140625
 10
116.4732142857143
 20
-73.140625
 10
117.2165178571428
 20
-73.13058035714284
 10
117.2165178571428
 20
-73.13058035714284
 10
117.2165178571428
 20
-73.13058035714284
 10
117.4450334821428
 20
-73.09040178571428
 10
117.4450334821428
 20
-73.09040178571428
 10
117.4450334821428
 20
-73.09040178571428
 10
117.5354352678571
 20
-72.90959821428571
 10
117.5354352678571
 20
-72.90959821428571
 10
117.5354352678571
 20
-72.90959821428571
 10
117.6258370535714
 20
-72.52790178571427
 10
117.6258370535714
 20
-72.52790178571427
 10
117.6258370535714
 20
-72.52790178571427
 10
117.5329241071428
 20
-72.42745535714284
 10
117.5329241071428
 20
-72.42745535714284
 10
117.5329241071428
 20
-72.42745535714284
 10
117.3722098214285
 20
-72.3295200892857
 10
117.3722098214285
 20
-72.3295200892857
 10
117.3722098214285
 20
-72.3295200892857
 10
117.3722098214285
 20
-72.23158482142856
 10
117.3722098214285
 20
-72.23158482142856
 10
117.3722098214285
 20
-72.23158482142856
 10
117.5379464285714
 20
-72.19893973214285
 10
117.5379464285714
 20
-72.19893973214285
 10
117.5379464285714
 20
-72.19893973214285
 10
117.7413504464285
 20
-72.18638392857143
 10
117.7413504464285
 20
-72.18638392857143
 10
117.7413504464285
 20
-72.18638392857143
 10
117.8970424107143
 20
-71.26729910714285
 10
117.8970424107143
 20
-71.26729910714285
 10
117.8970424107143
 20
-71.26729910714285
 10
117.7639508928571
 20
-71.08649553571428
 10
117.7639508928571
 20
-71.08649553571428
 10
117.7639508928571
 20
-71.08649553571428
 10
117.7112165178571
 20
-70.95340401785714
 10
117.7112165178571
 20
-70.95340401785714
 10
117.7112165178571
 20
-70.95340401785714
 10
117.7915736607143
 20
-70.90066964285714
 10
117.7915736607143
 20
-70.90066964285714
 10
117.7915736607143
 20
-70.90066964285714
 10
118.017578125
 20
-70.82533482142856
 10
118.017578125
 20
-70.82533482142856
 10
118.017578125
 20
-70.82533482142856
 10
118.123046875
 20
-70.66462053571427
 10
118.123046875
 20
-70.66462053571427
 10
118.123046875
 20
-70.66462053571427
 10
118.0728236607142
 20
-70.19754464285714
 10
118.0728236607142
 20
-70.19754464285714
 10
118.0728236607142
 20
-70.19754464285714
 10
117.8970424107143
 20
-69.75809151785714
 10
117.8970424107143
 20
-69.75809151785714
 10
117.8970424107143
 20
-69.75809151785714
 10
117.6785714285714
 20
-69.56975446428571
 10
117.6785714285714
 20
-69.56975446428571
 10
117.6785714285714
 20
-69.56975446428571
 10
117.1788504464285
 20
-69.33872767857143
 10
117.1788504464285
 20
-69.33872767857143
 10
117.1788504464285
 20
-69.33872767857143
 10
116.5334821428571
 20
-69.08928571428571
 10
116.5334821428571
 20
-69.08928571428571
 10
116.5334821428571
 20
-69.08928571428571
 10
115.9910714285714
 20
-68.72767857142857
 10
115.9910714285714
 20
-68.72767857142857
 10
115.9910714285714
 20
-68.72767857142857
 10
115.7767857142857
 20
-68.35267857142857
 10
115.7767857142857
 20
-68.35267857142857
 10
115.7767857142857
 20
-68.35267857142857
 10
115.7232142857143
 20
-67.91071428571427
 10
115.7232142857143
 20
-67.91071428571427
 10
115.7232142857143
 20
-67.91071428571427
 10
115.6160714285714
 20
-67.50223214285714
 10
115.6160714285714
 20
-67.50223214285714
 10
115.6160714285714
 20
-67.50223214285714
 10
115.4553571428571
 20
-67.13392857142856
 10
115.4553571428571
 20
-67.13392857142856
 10
115.4553571428571
 20
-67.13392857142856
 10
115.0133928571428
 20
-66.52455357142857
 10
115.0133928571428
 20
-66.52455357142857
 10
115.0133928571428
 20
-66.52455357142857
 10
114.2834821428571
 20
-66.02232142857143
 10
114.2834821428571
 20
-66.02232142857143
 10
114.2834821428571
 20
-66.02232142857143
 10
113.3928571428571
 20
-65.6674107142857
 10
113.3928571428571
 20
-65.6674107142857
 10
113.3928571428571
 20
-65.6674107142857
 10
112.2477678571428
 20
-65.36607142857143
 10
112.2477678571428
 20
-65.36607142857143
 10
112.2477678571428
 20
-65.36607142857143
 10
110.2321428571428
 20
-65.04464285714284
 10
110.2321428571428
 20
-65.04464285714284
 10
110.2321428571428
 20
-65.04464285714284
 10
107.3191964285714
 20
-64.609375
 10
107.3191964285714
 20
-64.609375
 10
107.3191964285714
 20
-64.609375
 10
105.2633928571428
 20
-64.28125
 10
105.2633928571428
 20
-64.28125
 10
105.2633928571428
 20
-64.28125
 10
104.5267857142857
 20
-64.19419642857143
 10
104.5267857142857
 20
-64.19419642857143
 10
104.5267857142857
 20
-64.19419642857143
 10
103.7834821428571
 20
-64.17410714285714
 10
103.7834821428571
 20
-64.17410714285714
 10
103.7834821428571
 20
-64.17410714285714
 10
102.7321428571428
 20
-64.2142857142857
 10
102.7321428571428
 20
-64.2142857142857
 10
102.7321428571428
 20
-64.2142857142857
 10
101.78125
 20
-64.20758928571427
 10
101.78125
 20
-64.20758928571427
 10
101.78125
 20
-64.20758928571427
 10
100.7165178571428
 20
-64.10044642857143
 10
100.7165178571428
 20
-64.10044642857143
 10
100.7165178571428
 20
-64.10044642857143
 10
100.1138392857143
 20
-63.9799107142857
 10
100.1138392857143
 20
-63.9799107142857
 10
100.1138392857143
 20
-63.9799107142857
 10
99.71205357142856
 20
-63.91294642857142
 10
99.71205357142856
 20
-63.91294642857142
 10
99.71205357142856
 20
-63.91294642857142
 10
99.63839285714286
 20
-63.34375
 10
99.63839285714286
 20
-63.34375
 10
99.63839285714286
 20
-63.34375
 10
99.59151785714285
 20
-62.72767857142857
 10
99.59151785714285
 20
-62.72767857142857
 10
99.59151785714285
 20
-62.72767857142857
 10
99.52455357142858
 20
-62.31919642857143
 10
99.52455357142858
 20
-62.31919642857143
 10
99.52455357142858
 20
-62.31919642857143
 10
99.38392857142858
 20
-62.125
 10
99.38392857142858
 20
-62.125
 10
99.38392857142858
 20
-62.125
 10
99.00892857142856
 20
-62.05133928571428
 10
99.00892857142856
 20
-62.05133928571428
 10
99.00892857142856
 20
-62.05133928571428
 10
97.92410714285715
 20
-62.07142857142857
 10
97.92410714285715
 20
-62.07142857142857
 10
97.92410714285715
 20
-62.07142857142857
 10
97.19419642857141
 20
-62.05803571428571
 10
97.19419642857141
 20
-62.05803571428571
 10
97.19419642857141
 20
-62.05803571428571
 10
96.68526785714284
 20
-61.796875
 10
96.68526785714284
 20
-61.796875
 10
96.68526785714284
 20
-61.796875
 10
94.50223214285713
 20
-60.53794642857142
 10
94.50223214285713
 20
-60.53794642857142
 10
94.50223214285713
 20
-60.53794642857142
 10
91.31473214285714
 20
-58.73660714285714
 10
91.31473214285714
 20
-58.73660714285714
 10
91.31473214285714
 20
-58.73660714285714
 10
88.67968750000001
 20
-57.38058035714285
 10
88.67968750000001
 20
-57.38058035714285
 10
88.67968750000001
 20
-57.38058035714285
 10
86.4799107142857
 20
-56.46651785714285
 10
86.4799107142857
 20
-56.46651785714285
 10
86.4799107142857
 20
-56.46651785714285
 10
84.7421875
 20
-55.95424107142857
 10
84.7421875
 20
-55.95424107142857
 10
84.7421875
 20
-55.95424107142857
 10
82.36160714285714
 20
-55.45200892857142
 10
82.36160714285714
 20
-55.45200892857142
 10
82.36160714285714
 20
-55.45200892857142
 10
80.16183035714284
 20
-55.18080357142856
 10
80.16183035714284
 20
-55.18080357142856
 10
80.16183035714284
 20
-55.18080357142856
 10
77.95200892857143
 20
-55.0703125
 10
77.95200892857143
 20
-55.0703125
 10
77.95200892857143
 20
-55.0703125
 10
75.3203125
 20
-55.01004464285713
 10
75.3203125
 20
-55.01004464285713
 10
75.3203125
 20
-55.01004464285713
 10
72.3671875
 20
-55.10044642857142
 10
72.3671875
 20
-55.10044642857142
 10
72.3671875
 20
-55.10044642857142
 10
71.40290178571428
 20
-54.69866071428571
 10
71.40290178571428
 20
-54.69866071428571
 10
71.40290178571428
 20
-54.69866071428571
 10
70.2377232142857
 20
-54.17633928571429
 10
70.2377232142857
 20
-54.17633928571429
 10
70.2377232142857
 20
-54.17633928571429
 10
69.00223214285714
 20
-53.72433035714285
 10
69.00223214285714
 20
-53.72433035714285
 10
69.00223214285714
 20
-53.72433035714285
 10
66.92299107142857
 20
-53.58370535714286
 10
66.92299107142857
 20
-53.58370535714286
 10
66.92299107142857
 20
-53.58370535714286
 10
62.78459821428571
 20
-53.34263392857142
 10
62.78459821428571
 20
-53.34263392857142
 10
62.78459821428571
 20
-53.34263392857142
 10
60.12276785714285
 20
-53.2421875
 10
60.12276785714285
 20
-53.2421875
 10
60.12276785714285
 20
-53.2421875
 10
59.86160714285714
 20
-53.16183035714285
 10
59.86160714285714
 20
-53.16183035714285
 10
59.86160714285714
 20
-53.16183035714285
 10
59.63058035714285
 20
-52.88058035714286
 10
59.63058035714285
 20
-52.88058035714286
 10
59.63058035714285
 20
-52.88058035714286
 10
59.59040178571428
 20
-52.34821428571429
 10
59.59040178571428
 20
-52.34821428571429
 10
59.59040178571428
 20
-52.34821428571429
 10
59.91183035714286
 20
-52.00669642857143
 10
59.91183035714286
 20
-52.00669642857143
 10
59.91183035714286
 20
-52.00669642857143
 10
60.45424107142856
 20
-51.73549107142857
 10
60.45424107142856
 20
-51.73549107142857
 10
60.45424107142856
 20
-51.73549107142857
 10
60.65513392857142
 20
-51.37388392857142
 10
60.65513392857142
 20
-51.37388392857142
 10
60.65513392857142
 20
-51.37388392857142
 10
60.66517857142857
 20
-50.95200892857143
 10
60.66517857142857
 20
-50.95200892857143
 10
60.66517857142857
 20
-50.95200892857143
 10
60.4642857142857
 20
-50.73102678571428
 10
60.4642857142857
 20
-50.73102678571428
 10
60.4642857142857
 20
-50.73102678571428
 10
59.83147321428571
 20
-50.63058035714285
 10
59.83147321428571
 20
-50.63058035714285
 10
59.83147321428571
 20
-50.63058035714285
 10
57.86272321428571
 20
-50.67075892857142
 10
57.86272321428571
 20
-50.67075892857142
 10
57.86272321428571
 20
-50.67075892857142
 10
56.62723214285714
 20
-50.59040178571429
 10
56.62723214285714
 20
-50.59040178571429
 10
56.62723214285714
 20
-50.59040178571429
 10
55.69308035714286
 20
-50.63058035714285
 10
55.69308035714286
 20
-50.63058035714285
 10
55.69308035714286
 20
-50.63058035714285
 10
54.859375
 20
-50.79129464285713
 10
54.859375
 20
-50.79129464285713
 10
54.859375
 20
-50.79129464285713
 10
54.23660714285714
 20
-51.17299107142857
 10
54.23660714285714
 20
-51.17299107142857
 10
54.23660714285714
 20
-51.17299107142857
 10
52.94084821428571
 20
-51.6049107142857
 10
52.94084821428571
 20
-51.6049107142857
 10
52.94084821428571
 20
-51.6049107142857
 10
51.94642857142857
 20
-51.52455357142857
 10
51.94642857142857
 20
-51.52455357142857
 10
51.94642857142857
 20
-51.52455357142857
 10
50.53013392857142
 20
-51.37388392857142
 10
50.53013392857142
 20
-51.37388392857142
 10
50.53013392857142
 20
-51.37388392857142
 10
49.87723214285714
 20
-51.46428571428571
 10
49.8470982142857
 20
-51.47433035714286
 10
49.81696428571428
 20
-51.484375
 10
49.46540178571428
 20
-51.49441964285713
 10
49.46540178571428
 20
-51.49441964285713
 10
49.46540178571428
 20
-51.49441964285713
 10
48.89285714285714
 20
-51.04241071428571
 10
48.89285714285714
 20
-51.04241071428571
 10
48.89285714285714
 20
-51.04241071428571
 10
48.55133928571429
 20
-51.19308035714285
 10
48.55133928571429
 20
-51.19308035714285
 10
48.55133928571429
 20
-51.19308035714285
 10
47.34598214285713
 20
-52.24776785714285
 10
47.34598214285713
 20
-52.24776785714285
 10
47.34598214285713
 20
-52.24776785714285
 10
46.703125
 20
-52.8203125
 10
46.703125
 20
-52.8203125
 10
46.703125
 20
-52.8203125
 10
46.58258928571428
 20
-53.171875
 10
46.58258928571428
 20
-53.171875
 10
46.58258928571428
 20
-53.171875
 10
45.00558035714285
 20
-53.2421875
 10
45.00558035714285
 20
-53.2421875
 10
45.00558035714285
 20
-53.2421875
 10
42.33370535714285
 20
-53.14174107142857
 10
42.33370535714285
 20
-53.14174107142857
 10
42.33370535714285
 20
-53.14174107142857
 10
38.95870535714286
 20
-53.30245535714285
 10
38.95870535714286
 20
-53.30245535714285
 10
38.95870535714286
 20
-53.30245535714285
 10
38.11495535714286
 20
-57.49107142857142
 10
38.11495535714286
 20
-57.49107142857142
 10
38.11495535714286
 20
-57.49107142857142
 10
36.5078125
 20
-58.10379464285714
 10
36.5078125
 20
-58.10379464285714
 10
36.5078125
 20
-58.10379464285714
 10
35.49330357142857
 20
-58.19419642857142
 10
35.49330357142857
 20
-58.19419642857142
 10
35.49330357142857
 20
-58.19419642857142
 10
34.75
 20
-58.29464285714285
 10
34.75
 20
-58.29464285714285
 10
34.75
 20
-58.29464285714285
 10
33.91629464285714
 20
-57.25
 10
33.91629464285714
 20
-57.25
 10
33.91629464285714
 20
-57.25
 10
32.12834821428572
 20
-55.92410714285714
 10
32.12834821428572
 20
-55.92410714285714
 10
32.12834821428572
 20
-55.92410714285714
 10
30.62165178571429
 20
-54.3671875
 10
30.62165178571429
 20
-54.3671875
 10
30.62165178571429
 20
-54.3671875
 10
28.32142857142857
 20
-53.18191964285714
 10
28.32142857142857
 20
-53.18191964285714
 10
28.32142857142857
 20
-53.18191964285714
 10
24.96651785714286
 20
-53.0111607142857
 10
24.96651785714286
 20
-53.0111607142857
 10
24.96651785714286
 20
-53.0111607142857
 10
22.49553571428571
 20
-52.98102678571428
 10
22.49553571428571
 20
-52.98102678571428
 10
22.49553571428571
 20
-52.98102678571428
 10
21.14955357142857
 20
-53.171875
 10
21.14955357142857
 20
-53.171875
 10
21.14955357142857
 20
-53.171875
 10
20.56696428571429
 20
-55.09040178571428
 10
20.56696428571429
 20
-55.09040178571428
 10
20.56696428571429
 20
-55.09040178571428
 10
20.125
 20
-57.9330357142857
 10
20.125
 20
-57.9330357142857
 10
20.125
 20
-57.9330357142857
 10
19.78348214285714
 20
-60.98660714285713
 10
19.78348214285714
 20
-60.98660714285713
 10
19.78348214285714
 20
-60.98660714285713
 10
19.66294642857143
 20
-63.5078125
 10
19.66294642857143
 20
-63.5078125
 10
19.66294642857143
 20
-63.5078125
 10
19.06026785714286
 20
-64.06026785714285
 10
19.06026785714286
 20
-64.06026785714285
 10
19.06026785714286
 20
-64.06026785714285
 10
18.65848214285714
 20
-64.39174107142857
 10
18.65848214285714
 20
-64.39174107142857
 10
18.65848214285714
 20
-64.39174107142857
 10
17.96540178571428
 20
-65.32589285714284
 10
17.96540178571428
 20
-65.32589285714284
 10
17.96540178571428
 20
-65.32589285714284
 10
16.90066964285714
 20
-66.97321428571427
 10
16.90066964285714
 20
-66.97321428571427
 10
16.90066964285714
 20
-66.97321428571427
 10
16.12053571428571
 20
-68.07142857142856
 10
16.12053571428571
 20
-68.07142857142856
 97
        0
 97
        1
330
86
 75
     2
 76
     1
 98
        1
 10
0.0
 20
0.0
450
        0
451
        0
460
0.0
461
0.0
452
        0
462
0.0
453
        0
470

  0
ENDSEC
  0
SECTION
  2
OBJECTS
  0
DICTIONARY
  5
C
330
0
100
AcDbDictionary
281
     1
  3
ACAD_COLOR
350
63
  3
ACAD_DETAILVIEWSTYLE
350
6A
  3
ACAD_GROUP
350
D
  3
ACAD_LAYOUT
350
62
  3
ACAD_MATERIAL
350
10
  3
ACAD_MLEADERSTYLE
350
66
  3
ACAD_MLINESTYLE
350
5F
  3
ACAD_PLOTSETTINGS
350
61
  3
ACAD_PLOTSTYLENAME
350
E
  3
ACAD_SCALELIST
350
42
  3
ACAD_SECTIONVIEWSTYLE
350
68
  3
ACAD_TABLESTYLE
350
64
  3
ACAD_VISUALSTYLE
350
29
  3
ACDB_RECOMPOSE_DATA
350
9A
  3
AcDbVariableDictionary
350
92
  0
DICTIONARY
  5
63
102
{ACAD_REACTORS
330
C
102
}
330
C
100
AcDbDictionary
281
     1
  0
DICTIONARY
  5
6A
102
{ACAD_REACTORS
330
C
102
}
330
C
100
AcDbDictionary
281
     1
  3
Imperial24
350
6B
  0
DICTIONARY
  5
D
102
{ACAD_REACTORS
330
C
102
}
330
C
100
AcDbDictionary
281
     1
  0
DICTIONARY
  5
62
102
{ACAD_REACTORS
330
C
102
}
330
C
100
AcDbDictionary
281
     1
  3
Layout1
350
6F
  3
Layout2
350
77
  3
Model
350
73
  0
DICTIONARY
  5
10
102
{ACAD_REACTORS
330
C
102
}
330
C
100
AcDbDictionary
281
     1
  3
ByBlock
350
19
  3
ByLayer
350
11
  3
Global
350
21
  0
DICTIONARY
  5
66
102
{ACAD_REACTORS
330
C
102
}
330
C
100
AcDbDictionary
281
     1
  3
Standard
350
67
  0
DICTIONARY
  5
5F
102
{ACAD_REACTORS
330
C
102
}
330
C
100
AcDbDictionary
281
     1
  3
Standard
350
60
  0
DICTIONARY
  5
61
102
{ACAD_REACTORS
330
C
102
}
330
C
100
AcDbDictionary
281
     1
  0
ACDBDICTIONARYWDFLT
  5
E
102
{ACAD_REACTORS
330
C
102
}
330
C
100
AcDbDictionary
281
     1
  3
Normal
350
F
100
AcDbDictionaryWithDefault
340
F
  0
DICTIONARY
  5
42
102
{ACAD_REACTORS
330
C
102
}
330
C
100
AcDbDictionary
281
     1
  3
A0
350
43
  3
A1
350
44
  3
A2
350
45
  3
A3
350
46
  3
A4
350
47
  3
A5
350
48
  3
A6
350
49
  3
A7
350
4A
  3
A8
350
4B
  3
A9
350
4C
  3
B0
350
4D
  3
B1
350
4E
  3
B2
350
4F
  3
B3
350
50
  3
B4
350
51
  3
B5
350
52
  3
B6
350
53
  0
DICTIONARY
  5
68
102
{ACAD_REACTORS
330
C
102
}
330
C
100
AcDbDictionary
281
     1
  3
Imperial24
350
69
  0
DICTIONARY
  5
64
102
{ACAD_REACTORS
330
C
102
}
330
C
100
AcDbDictionary
281
     1
  3
Standard
350
65
  0
DICTIONARY
  5
29
102
{ACAD_REACTORS
330
C
102
}
330
C
100
AcDbDictionary
281
     1
  3
2dWireframe
350
2F
  3
Basic
350
2E
  3
Brighten
350
35
  3
ColorChange
350
39
  3
Conceptual
350
32
  3
Dim
350
34
  3
EdgeColorOff
350
41
  3
Facepattern
350
38
  3
Flat
350
2A
  3
FlatWithEdges
350
2B
  3
Gouraud
350
2C
  3
GouraudWithEdges
350
2D
  3
Hidden
350
31
  3
JitterOff
350
3F
  3
Linepattern
350
37
  3
OverhangOff
350
40
  3
Realistic
350
33
  3
Shaded
350
3E
  3
Shaded with edges
350
3D
  3
Shades of Gray
350
3A
  3
Sketchy
350
3B
  3
Thicken
350
36
  3
Wireframe
350
30
  3
X-Ray
350
3C
  0
XRECORD
  5
9A
102
{ACAD_REACTORS
330
C
102
}
330
C
100
AcDbXrecord
280
     1
 90
        1
330
65
  0
DICTIONARY
  5
92
102
{ACAD_REACTORS
330
C
102
}
330
C
100
AcDbDictionary
281
     1
  3
CANNOSCALE
350
97
  3
CMLEADERSTYLE
350
94
  3
CTABLESTYLE
350
93
  3
CVIEWDETAILSTYLE
350
95
  3
CVIEWSECTIONSTYLE
350
96
  0
ACDBDETAILVIEWSTYLE
  5
6B
102
{ACAD_REACTORS
330
6A
102
}
330
6A
100
AcDbModelDocViewStyle
 70
     0
  3
Imperial24
290
     1
300
Imperial24
 90
        0
100
AcDbDetailViewStyle
 70
     0
 71
     0
 90
        3
 71
     1
340
55
 62
   256
 40
0.24
340
0
 62
   256
 40
0.24
300

 40
0.36
280
     3
 71
     2
340
5D
 90
       25
 62
   256
 71
     3
340
55
 62
   256
 40
0.24
 90
        1
 40
0.75
 90
        1
300
%<\AcVar ViewType \f "%tc1">% %<\AcVar ViewDetailId>%\PSCALE %<\AcVar ViewScale \f "%sn">%
 71
     4
340
5D
 90
       25
 62
   256
340
5D
 90
       25
 62
   256
280
     0
  0
LAYOUT
  5
6F
102
{ACAD_REACTORS
330
62
102
}
330
62
100
AcDbPlotSettings
  1

  2

  4

  6

 40
0.0
 41
0.0
 42
0.0
 43
0.0
 44
0.0
 45
0.0
 46
0.0
 47
0.0
 48
0.0
 49
0.0
140
0.0
141
0.0
142
1.0
143
1.0
 70
   688
 72
     0
 73
     0
 74
     5
  7

 75
    16
147
1.0
 76
     0
 77
     2
 78
   300
148
0.0
149
0.0
100
AcDbLayout
  1
Layout1
 70
     1
 71
     1
 10
0.0
 20
0.0
 11
12.0
 21
9.0
 12
0.0
 22
0.0
 32
0.0
 14
0.0
 24
0.0
 34
0.0
 15
0.0
 25
0.0
 35
0.0
146
0.0
 13
0.0
 23
0.0
 33
0.0
 16
1.0
 26
0.0
 36
0.0
 17
0.0
 27
1.0
 37
0.0
 76
     0
330
6C
  0
LAYOUT
  5
77
102
{ACAD_REACTORS
330
62
102
}
330
62
100
AcDbPlotSettings
  1

  2

  4

  6

 40
0.0
 41
0.0
 42
0.0
 43
0.0
 44
0.0
 45
0.0
 46
0.0
 47
0.0
 48
0.0
 49
0.0
140
0.0
141
0.0
142
1.0
143
1.0
 70
   688
 72
     0
 73
     0
 74
     5
  7

 75
    16
147
1.0
 76
     0
 77
     2
 78
   300
148
0.0
149
0.0
100
AcDbLayout
  1
Layout2
 70
     1
 71
     2
 10
0.0
 20
0.0
 11
12.0
 21
9.0
 12
0.0
 22
0.0
 32
0.0
 14
0.0
 24
0.0
 34
0.0
 15
0.0
 25
0.0
 35
0.0
146
0.0
 13
0.0
 23
0.0
 33
0.0
 16
1.0
 26
0.0
 36
0.0
 17
0.0
 27
1.0
 37
0.0
 76
     0
330
74
  0
LAYOUT
  5
73
102
{ACAD_REACTORS
330
62
102
}
330
62
100
AcDbPlotSettings
  1

  2

  4

  6

 40
0.0
 41
0.0
 42
0.0
 43
0.0
 44
0.0
 45
0.0
 46
0.0
 47
0.0
 48
0.0
 49
0.0
140
0.0
141
0.0
142
1.0
143
1.0
 70
  1712
 72
     0
 73
     0
 74
     0
  7

 75
     0
147
1.0
 76
     0
 77
     2
 78
   300
148
0.0
149
0.0
100
AcDbLayout
  1
Model
 70
     1
 71
     0
 10
0.0
 20
0.0
 11
12.0
 21
9.0
 12
0.0
 22
0.0
 32
0.0
 14
0.0
 24
0.0
 34
0.0
 15
0.0
 25
0.0
 35
0.0
146
0.0
 13
0.0
 23
0.0
 33
0.0
 16
1.0
 26
0.0
 36
0.0
 17
0.0
 27
1.0
 37
0.0
 76
     0
330
70
  0
MATERIAL
  5
19
102
{ACAD_XDICTIONARY
360
1A
102
}
102
{ACAD_REACTORS
330
10
102
}
330
10
100
AcDbMaterial
  1
ByBlock
 72
     0
 43
0.0208333333333333
 43
0.0
 43
0.0
 43
0.0
 43
0.0
 43
0.0208333333333333
 43
0.0
 43
0.0
 43
0.0
 43
0.0
 43
1.0
 43
0.0
 43
0.0
 43
0.0
 43
0.0
 43
1.0
 77
     0
 47
0.0208333333333333
 47
0.0
 47
0.0
 47
0.0
 47
0.0
 47
0.0208333333333333
 47
0.0
 47
0.0
 47
0.0
 47
0.0
 47
1.0
 47
0.0
 47
0.0
 47
0.0
 47
0.0
 47
1.0
171
     0
 49
0.0208333333333333
 49
0.0
 49
0.0
 49
0.0
 49
0.0
 49
0.0208333333333333
 49
0.0
 49
0.0
 49
0.0
 49
0.0
 49
1.0
 49
0.0
 49
0.0
 49
0.0
 49
0.0
 49
1.0
175
     0
142
0.0208333333333333
142
0.0
142
0.0
142
0.0
142
0.0
142
0.0208333333333333
142
0.0
142
0.0
142
0.0
142
0.0
142
1.0
142
0.0
142
0.0
142
0.0
142
0.0
142
1.0
179
     0
144
0.0208333333333333
144
0.0
144
0.0
144
0.0
144
0.0
144
0.0208333333333333
144
0.0
144
0.0
144
0.0
144
0.0
144
1.0
144
0.0
144
0.0
144
0.0
144
0.0
144
1.0
147
0.0208333333333333
147
0.0
147
0.0
147
0.0
147
0.0
147
0.0208333333333333
147
0.0
147
0.0
147
0.0
147
0.0
147
1.0
147
0.0
147
0.0
147
0.0
147
0.0
147
1.0
  0
MATERIAL
  5
11
102
{ACAD_XDICTIONARY
360
12
102
}
102
{ACAD_REACTORS
330
10
102
}
330
10
100
AcDbMaterial
  1
ByLayer
 72
     0
 43
0.0208333333333333
 43
0.0
 43
0.0
 43
0.0
 43
0.0
 43
0.0208333333333333
 43
0.0
 43
0.0
 43
0.0
 43
0.0
 43
1.0
 43
0.0
 43
0.0
 43
0.0
 43
0.0
 43
1.0
 77
     0
 47
0.0208333333333333
 47
0.0
 47
0.0
 47
0.0
 47
0.0
 47
0.0208333333333333
 47
0.0
 47
0.0
 47
0.0
 47
0.0
 47
1.0
 47
0.0
 47
0.0
 47
0.0
 47
0.0
 47
1.0
171
     0
 49
0.0208333333333333
 49
0.0
 49
0.0
 49
0.0
 49
0.0
 49
0.0208333333333333
 49
0.0
 49
0.0
 49
0.0
 49
0.0
 49
1.0
 49
0.0
 49
0.0
 49
0.0
 49
0.0
 49
1.0
175
     0
142
0.0208333333333333
142
0.0
142
0.0
142
0.0
142
0.0
142
0.0208333333333333
142
0.0
142
0.0
142
0.0
142
0.0
142
1.0
142
0.0
142
0.0
142
0.0
142
0.0
142
1.0
179
     0
144
0.0208333333333333
144
0.0
144
0.0
144
0.0
144
0.0
144
0.0208333333333333
144
0.0
144
0.0
144
0.0
144
0.0
144
1.0
144
0.0
144
0.0
144
0.0
144
0.0
144
1.0
147
0.0208333333333333
147
0.0
147
0.0
147
0.0
147
0.0
147
0.0208333333333333
147
0.0
147
0.0
147
0.0
147
0.0
147
1.0
147
0.0
147
0.0
147
0.0
147
0.0
147
1.0
  0
MATERIAL
  5
21
102
{ACAD_XDICTIONARY
360
22
102
}
102
{ACAD_REACTORS
330
10
102
}
330
10
100
AcDbMaterial
  1
Global
 72
     0
 43
0.0208333333333333
 43
0.0
 43
0.0
 43
0.0
 43
0.0
 43
0.0208333333333333
 43
0.0
 43
0.0
 43
0.0
 43
0.0
 43
1.0
 43
0.0
 43
0.0
 43
0.0
 43
0.0
 43
1.0
 77
     0
 47
0.0208333333333333
 47
0.0
 47
0.0
 47
0.0
 47
0.0
 47
0.0208333333333333
 47
0.0
 47
0.0
 47
0.0
 47
0.0
 47
1.0
 47
0.0
 47
0.0
 47
0.0
 47
0.0
 47
1.0
171
     0
 49
0.0208333333333333
 49
0.0
 49
0.0
 49
0.0
 49
0.0
 49
0.0208333333333333
 49
0.0
 49
0.0
 49
0.0
 49
0.0
 49
1.0
 49
0.0
 49
0.0
 49
0.0
 49
0.0
 49
1.0
175
     0
142
0.0208333333333333
142
0.0
142
0.0
142
0.0
142
0.0
142
0.0208333333333333
142
0.0
142
0.0
142
0.0
142
0.0
142
1.0
142
0.0
142
0.0
142
0.0
142
0.0
142
1.0
179
     0
144
0.0208333333333333
144
0.0
144
0.0
144
0.0
144
0.0
144
0.0208333333333333
144
0.0
144
0.0
144
0.0
144
0.0
144
1.0
144
0.0
144
0.0
144
0.0
144
0.0
144
1.0
147
0.0208333333333333
147
0.0
147
0.0
147
0.0
147
0.0
147
0.0208333333333333
147
0.0
147
0.0
147
0.0
147
0.0
147
1.0
147
0.0
147
0.0
147
0.0
147
0.0
147
1.0
  0
MLEADERSTYLE
  5
67
102
{ACAD_REACTORS
330
66
102
}
330
66
100
AcDbMLeaderStyle
179
     2
170
     2
171
     1
172
     0
 90
        2
 40
0.0
 41
0.0
173
     1
 91
-1056964608
340
5B
 92
       -2
290
     1
 42
0.09
291
     1
 43
0.36
  3
Standard
 44
0.18
300

342
55
174
     1
178
     6
175
     1
176
     0
 93
-1056964608
 45
0.18
292
     0
297
     0
 46
0.18
 94
-1056964608
 47
1.0
 49
1.0
140
1.0
293
     1
141
0.0
294
     1
177
     0
142
1.0
295
     1
296
     0
143
0.125
271
     0
272
     9
273
     9
298
     1
  0
MLINESTYLE
  5
60
102
{ACAD_REACTORS
330
5F
102
}
330
5F
100
AcDbMlineStyle
  2
STANDARD
 70
     0
  3

 62
   256
 51
90.0
 52
90.0
 71
     2
 49
0.5
 62
   256
  6
BYLAYER
 49
-0.5
 62
   256
  6
BYLAYER
  0
ACDBPLACEHOLDER
  5
F
102
{ACAD_REACTORS
330
E
102
}
330
E
  0
SCALE
  5
43
102
{ACAD_REACTORS
330
42
102
}
330
42
100
AcDbScale
 70
     0
300
1:1
140
1.0
141
1.0
290
     1
  0
SCALE
  5
44
102
{ACAD_REACTORS
330
42
102
}
330
42
100
AcDbScale
 70
     0
300
1/128" = 1'-0"
140
0.0078125
141
12.0
290
     0
  0
SCALE
  5
45
102
{ACAD_REACTORS
330
42
102
}
330
42
100
AcDbScale
 70
     0
300
1/64" = 1'-0"
140
0.015625
141
12.0
290
     0
  0
SCALE
  5
46
102
{ACAD_REACTORS
330
42
102
}
330
42
100
AcDbScale
 70
     0
300
1/32" = 1'-0"
140
0.03125
141
12.0
290
     0
  0
SCALE
  5
47
102
{ACAD_REACTORS
330
42
102
}
330
42
100
AcDbScale
 70
     0
300
1/16" = 1'-0"
140
0.0625
141
12.0
290
     0
  0
SCALE
  5
48
102
{ACAD_REACTORS
330
42
102
}
330
42
100
AcDbScale
 70
     0
300
3/32" = 1'-0"
140
0.09375
141
12.0
290
     0
  0
SCALE
  5
49
102
{ACAD_REACTORS
330
42
102
}
330
42
100
AcDbScale
 70
     0
300
1/8" = 1'-0"
140
0.125
141
12.0
290
     0
  0
SCALE
  5
4A
102
{ACAD_REACTORS
330
42
102
}
330
42
100
AcDbScale
 70
     0
300
3/16" = 1'-0"
140
0.1875
141
12.0
290
     0
  0
SCALE
  5
4B
102
{ACAD_REACTORS
330
42
102
}
330
42
100
AcDbScale
 70
     0
300
1/4" = 1'-0"
140
0.25
141
12.0
290
     0
  0
SCALE
  5
4C
102
{ACAD_REACTORS
330
42
102
}
330
42
100
AcDbScale
 70
     0
300
3/8" = 1'-0"
140
0.375
141
12.0
290
     0
  0
SCALE
  5
4D
102
{ACAD_REACTORS
330
42
102
}
330
42
100
AcDbScale
 70
     0
300
1/2" = 1'-0"
140
0.5
141
12.0
290
     0
  0
SCALE
  5
4E
102
{ACAD_REACTORS
330
42
102
}
330
42
100
AcDbScale
 70
     0
300
3/4" = 1'-0"
140
0.75
141
12.0
290
     0
  0
SCALE
  5
4F
102
{ACAD_REACTORS
330
42
102
}
330
42
100
AcDbScale
 70
     0
300
1" = 1'-0"
140
1.0
141
12.0
290
     0
  0
SCALE
  5
50
102
{ACAD_REACTORS
330
42
102
}
330
42
100
AcDbScale
 70
     0
300
1-1/2" = 1'-0"
140
1.5
141
12.0
290
     0
  0
SCALE
  5
51
102
{ACAD_REACTORS
330
42
102
}
330
42
100
AcDbScale
 70
     0
300
3" = 1'-0"
140
3.0
141
12.0
290
     0
  0
SCALE
  5
52
102
{ACAD_REACTORS
330
42
102
}
330
42
100
AcDbScale
 70
     0
300
6" = 1'-0"
140
6.0
141
12.0
290
     0
  0
SCALE
  5
53
102
{ACAD_REACTORS
330
42
102
}
330
42
100
AcDbScale
 70
     0
300
1'-0" = 1'-0"
140
12.0
141
12.0
290
     0
  0
ACDBSECTIONVIEWSTYLE
  5
69
102
{ACAD_REACTORS
330
68
102
}
330
68
100
AcDbModelDocViewStyle
 70
     0
  3
Imperial24
290
     1
300
Imperial24
 90
        0
100
AcDbSectionViewStyle
 70
     0
 71
     0
 90
       78
 71
     1
340
55
 62
   256
 40
0.24
340
0
340
0
 62
   256
 40
0.24
300
I, O, Q, S, X, Z
 40
0.48
 90
        3
 40
0.18
 90
        1
 71
     2
340
5D
 90
       25
 62
   256
340
5D
 90
       50
 62
   256
 40
0.24
 40
0.0
 40
0.24
 71
     3
340
55
 62
   256
 40
0.24
 90
        1
 40
0.75
 90
        1
300
%<\AcVar ViewType \f "%tc1">% %<\AcVar ViewSectionStartId>%-%<\AcVar ViewSectionEndId>%\PSCALE %<\AcVar ViewScale \f "%sn">%
 71
     4
 62
   256
 62
   257
300
ANSI31
 40
1.0
 90
        0
290
     0
290
     0
 90
        6
 40
0.0
 40
1.570796326794896
 40
0.2617993877991494
 40
1.308996938995747
 40
-0.2617993877991494
 40
1.832595714594046
  0
TABLESTYLE
  5
65
102
{ACAD_XDICTIONARY
360
98
102
}
102
{ACAD_REACTORS
330
64
102
}
330
64
100
AcDbTableStyle
280
     0
  3
Standard
 70
     0
 71
     0
 40
0.06
 41
0.06
280
     0
281
     0
  7
Standard
140
0.18
170
     2
 62
     0
 63
     7
283
     0
 90
      512
 91
        0
  1

274
    -2
284
     1
 64
     0
275
    -2
285
     1
 65
     0
276
    -2
286
     1
 66
     0
277
    -2
287
     1
 67
     0
278
    -2
288
     1
 68
     0
279
    -2
289
     1
 69
     0
  7
Standard
140
0.25
170
     5
 62
     0
 63
     7
283
     0
 90
      512
 91
        0
  1

274
    -2
284
     1
 64
     0
275
    -2
285
     1
 65
     0
276
    -2
286
     1
 66
     0
277
    -2
287
     1
 67
     0
278
    -2
288
     1
 68
     0
279
    -2
289
     1
 69
     0
  7
Standard
140
0.18
170
     5
 62
     0
 63
     7
283
     0
 90
      512
 91
        0
  1

274
    -2
284
     1
 64
     0
275
    -2
285
     1
 65
     0
276
    -2
286
     1
 66
     0
277
    -2
287
     1
 67
     0
278
    -2
288
     1
 68
     0
279
    -2
289
     1
 69
     0
  0
VISUALSTYLE
  5
2F
102
{ACAD_REACTORS
330
29
102
}
330
29
100
AcDbVisualStyle
  2
2dWireframe
 70
     4
177
     3
291
     0
 70
    58
 90
        0
176
     1
 90
        2
176
     1
 90
        0
176
     1
 90
        0
176
     1
 40
0.6
176
     1
 40
30.0
176
     1
 62
     7
420
 16777215
176
     1
 90
        1
176
     1
 90
        4
176
     1
 62
     7
176
     1
 62
   257
176
     1
 90
        1
176
     1
 90
        1
176
     1
 40
1.0
176
     1
 90
        0
176
     1
 62
   257
176
     1
 40
1.0
176
     1
 90
        1
176
     1
 90
        6
176
     1
 90
        2
176
     1
 62
     7
176
     1
 90
        5
176
     1
 90
        0
176
     1
 90
        0
176
     1
290
     0
176
     1
 90
        1
176
     1
 40
0.0
176
     1
 90
        0
176
     1
290
     1
176
     1
290
     1
176
     1
290
     0
176
     1
290
     0
176
     1
290
     0
176
     1
290
     0
176
     1
290
     0
176
     1
290
     0
176
     1
290
     0
176
     1
 90
       50
176
     1
 40
0.0
176
     1
 40
1.0
176
     1
 90
        0
176
     1
 62
    18
420
        0
176
     1
 90
       50
176
     1
 90
        3
176
     1
 62
     5
420
      255
176
     1
290
     0
176
     1
 90
       50
176
     1
 90
       50
176
     1
 90
       50
176
     1
290
     0
176
     1
 90
       50
176
     1
 62
   256
176
     0
 40
1.0
176
     0
 90
        2
176
     1
  1
strokes_ogs.tif
176
     1
290
     0
176
     1
 40
1.0
176
     1
 40
1.0
176
     1
  0
VISUALSTYLE
  5
2E
102
{ACAD_REACTORS
330
29
102
}
330
29
100
AcDbVisualStyle
  2
Basic
 70
     7
177
     3
291
     1
 70
    58
 90
        1
176
     1
 90
        0
176
     1
 90
        1
176
     1
 90
        0
176
     1
 40
0.6
176
     1
 40
30.0
176
     1
 62
     7
420
 16777215
176
     1
 90
        0
176
     1
 90
        4
176
     1
 62
     7
176
     1
 62
   257
176
     1
 90
        1
176
     1
 90
        1
176
     1
 40
1.0
176
     1
 90
        8
176
     1
 62
     7
176
     1
 40
1.0
176
     1
 90
        1
176
     1
 90
        6
176
     1
 90
        2
176
     1
 62
     7
176
     1
 90
        5
176
     1
 90
        0
176
     1
 90
        0
176
     1
290
     0
176
     1
 90
        1
176
     1
 40
0.0
176
     1
 90
        0
176
     1
290
     0
176
     1
290
     1
176
     1
290
     1
176
     1
290
     0
176
     1
290
     0
176
     1
290
     0
176
     1
290
     0
176
     1
290
     0
176
     1
290
     0
176
     1
 90
       50
176
     1
 40
0.0
176
     1
 40
1.0
176
     1
 90
        0
176
     1
 62
    18
420
        0
176
     1
 90
       50
176
     1
 90
        3
176
     1
 62
     5
420
      255
176
     1
290
     0
176
     1
 90
       50
176
     1
 90
       50
176
     1
 90
       50
176
     1
290
     0
176
     1
 90
       50
176
     1
 62
   256
176
     0
 40
1.0
176
     0
 90
        2
176
     1
  1
strokes_ogs.tif
176
     1
290
     0
176
     1
 40
1.0
176
     1
 40
1.0
176
     1
  0
VISUALSTYLE
  5
35
102
{ACAD_REACTORS
330
29
102
}
330
29
100
AcDbVisualStyle
  2
Brighten
 70
    12
177
     3
291
     1
 70
    58
 90
        2
176
     1
 90
        2
176
     1
 90
        0
176
     1
 90
        0
176
     1
 40
0.6
176
     1
 40
30.0
176
     1
 62
     7
420
 16777215
176
     1
 90
        1
176
     1
 90
        4
176
     1
 62
     7
176
     1
 62
   257
176
     1
 90
        1
176
     1
 90
        1
176
     1
 40
1.0
176
     1
 90
        8
176
     1
 62
     7
176
     1
 40
1.0
176
     1
 90
        1
176
     1
 90
        6
176
     1
 90
        2
176
     1
 62
     7
176
     1
 90
        5
176
     1
 90
        0
176
     1
 90
        0
176
     1
290
     0
176
     1
 90
        1
176
     1
 40
50.0
176
     1
 90
        0
176
     1
290
     0
176
     1
290
     1
176
     1
290
     1
176
     1
290
     0
176
     1
290
     0
176
     1
290
     0
176
     1
290
     0
176
     1
290
     0
176
     1
290
     0
176
     1
 90
       50
176
     1
 40
0.0
176
     1
 40
1.0
176
     1
 90
        0
176
     1
 62
    18
420
        0
176
     1
 90
       50
176
     1
 90
        3
176
     1
 62
     5
420
      255
176
     1
290
     0
176
     1
 90
       50
176
     1
 90
       50
176
     1
 90
       50
176
     1
290
     0
176
     1
 90
       50
176
     1
 62
   256
176
     0
 40
1.0
176
     0
 90
        2
176
     1
  1
strokes_ogs.tif
176
     1
290
     0
176
     1
 40
1.0
176
     1
 40
1.0
176
     1
  0
VISUALSTYLE
  5
39
102
{ACAD_REACTORS
330
29
102
}
330
29
100
AcDbVisualStyle
  2
ColorChange
 70
    16
177
     3
291
     1
 70
    58
 90
        2
176
     1
 90
        2
176
     1
 90
        3
176
     1
 90
        0
176
     1
 40
0.6
176
     1
 40
30.0
176
     1
 62
     8
420
  8421504
176
     1
 90
        1
176
     1
 90
        4
176
     1
 62
     7
176
     1
 62
   257
176
     1
 90
        1
176
     1
 90
        1
176
     1
 40
1.0
176
     1
 90
        8
176
     1
 62
     8
420
  8421504
176
     1
 40
1.0
176
     1
 90
        1
176
     1
 90
        6
176
     1
 90
        2
176
     1
 62
     7
176
     1
 90
        5
176
     1
 90
        0
176
     1
 90
        0
176
     1
290
     0
176
     1
 90
        1
176
     1
 40
0.0
176
     1
 90
        0
176
     1
290
     0
176
     1
290
     1
176
     1
290
     1
176
     1
290
     0
176
     1
290
     0
176
     1
290
     0
176
     1
290
     0
176
     1
290
     0
176
     1
290
     0
176
     1
 90
       50
176
     1
 40
0.0
176
     1
 40
1.0
176
     1
 90
        0
176
     1
 62
    18
420
        0
176
     1
 90
       50
176
     1
 90
        3
176
     1
 62
     5
420
      255
176
     1
290
     0
176
     1
 90
       50
176
     1
 90
       50
176
     1
 90
       50
176
     1
290
     0
176
     1
 90
       50
176
     1
 62
   256
176
     0
 40
1.0
176
     0
 90
        2
176
     1
  1
strokes_ogs.tif
176
     1
290
     0
176
     1
 40
1.0
176
     1
 40
1.0
176
     1
  0
VISUALSTYLE
  5
32
102
{ACAD_REACTORS
330
29
102
}
330
29
100
AcDbVisualStyle
  2
Conceptual
 70
     9
177
     3
291
     0
 70
    58
 90
        3
176
     1
 90
        2
176
     1
 90
        0
176
     1
 90
        0
176
     1
 40
0.6
176
     1
 40
30.0
176
     1
 62
     7
420
 16777215
176
     1
 90
        2
176
     1
 90
        2
176
     1
 62
     7
176
     1
 62
   257
176
     1
 90
        1
176
     1
 90
        1
176
     1
 40
179.0
176
     1
 90
        8
176
     1
 62
     7
176
     1
 40
1.0
176
     1
 90
        1
176
     1
 90
        6
176
     1
 90
        2
176
     1
 62
     7
176
     1
 90
        3
176
     1
 90
        0
176
     1
 90
        0
176
     1
290
     0
176
     1
 90
        1
176
     1
 40
0.0
176
     1
 90
        0
176
     1
290
     0
176
     1
290
     1
176
     1
290
     1
176
     1
290
     0
176
     1
290
     0
176
     1
290
     0
176
     1
290
     0
176
     1
290
     0
176
     1
290
     0
176
     1
 90
       50
176
     1
 40
0.0
176
     1
 40
1.0
176
     1
 90
        0
176
     1
 62
    18
420
        0
176
     1
 90
       50
176
     1
 90
        3
176
     1
 62
     5
420
      255
176
     1
290
     0
176
     1
 90
       50
176
     1
 90
       50
176
     1
 90
       50
176
     1
290
     0
176
     1
 90
       50
176
     1
 62
   256
176
     0
 40
1.0
176
     0
 90
        2
176
     1
  1
strokes_ogs.tif
176
     1
290
     0
176
     1
 40
1.0
176
     1
 40
1.0
176
     1
  0
VISUALSTYLE
  5
34
102
{ACAD_REACTORS
330
29
102
}
330
29
100
AcDbVisualStyle
  2
Dim
 70
    11
177
     3
291
     1
 70
    58
 90
        2
176
     1
 90
        2
176
     1
 90
        0
176
     1
 90
        0
176
     1
 40
0.6
176
     1
 40
30.0
176
     1
 62
     7
420
 16777215
176
     1
 90
        1
176
     1
 90
        4
176
     1
 62
     7
176
     1
 62
   257
176
     1
 90
        1
176
     1
 90
        1
176
     1
 40
1.0
176
     1
 90
        8
176
     1
 62
     7
176
     1
 40
1.0
176
     1
 90
        1
176
     1
 90
        6
176
     1
 90
        2
176
     1
 62
     7
176
     1
 90
        5
176
     1
 90
        0
176
     1
 90
        0
176
     1
290
     0
176
     1
 90
        1
176
     1
 40
-50.0
176
     1
 90
        0
176
     1
290
     0
176
     1
290
     1
176
     1
290
     1
176
     1
290
     0
176
     1
290
     0
176
     1
290
     0
176
     1
290
     0
176
     1
290
     0
176
     1
290
     0
176
     1
 90
       50
176
     1
 40
0.0
176
     1
 40
1.0
176
     1
 90
        0
176
     1
 62
    18
420
        0
176
     1
 90
       50
176
     1
 90
        3
176
     1
 62
     5
420
      255
176
     1
290
     0
176
     1
 90
       50
176
     1
 90
       50
176
     1
 90
       50
176
     1
290
     0
176
     1
 90
       50
176
     1
 62
   256
176
     0
 40
1.0
176
     0
 90
        2
176
     1
  1
strokes_ogs.tif
176
     1
290
     0
176
     1
 40
1.0
176
     1
 40
1.0
176
     1
  0
VISUALSTYLE
  5
41
102
{ACAD_REACTORS
330
29
102
}
330
29
100
AcDbVisualStyle
  2
EdgeColorOff
 70
    22
177
     3
291
     1
 70
    58
 90
        2
176
     0
 90
        2
176
     0
 90
        0
176
     0
 90
        0
176
     0
 40
0.6
176
     0
 40
30.0
176
     0
 62
     7
420
 16777215
176
     0
 90
        1
176
     0
 90
        4
176
     0
 62
     7
176
     0
 62
   257
176
     0
 90
        1
176
     0
 90
        1
176
     0
 40
1.0
176
     0
 90
        8
176
     2
 62
     7
176
     0
 40
1.0
176
     0
 90
        1
176
     0
 90
        6
176
     0
 90
        2
176
     0
 62
     7
176
     0
 90
        5
176
     0
 90
        0
176
     0
 90
        0
176
     0
290
     0
176
     0
 90
        1
176
     0
 40
0.0
176
     0
 90
        0
176
     0
290
     0
176
     0
290
     1
176
     0
290
     1
176
     0
290
     0
176
     0
290
     0
176
     0
290
     0
176
     0
290
     0
176
     0
290
     0
176
     0
290
     0
176
     0
 90
       50
176
     0
 40
0.0
176
     0
 40
1.0
176
     0
 90
        0
176
     0
 62
    18
420
        0
176
     0
 90
       50
176
     0
 90
        3
176
     0
 62
     5
420
      255
176
     0
290
     0
176
     0
 90
       50
176
     0
 90
       50
176
     0
 90
       50
176
     0
290
     0
176
     0
 90
       50
176
     0
 62
   256
176
     0
 40
1.0
176
     0
 90
        2
176
     0
  1
strokes_ogs.tif
176
     0
290
     0
176
     0
 40
1.0
176
     0
 40
1.0
176
     0
  0
VISUALSTYLE
  5
38
102
{ACAD_REACTORS
330
29
102
}
330
29
100
AcDbVisualStyle
  2
Facepattern
 70
    15
177
     3
291
     1
 70
    58
 90
        2
176
     1
 90
        2
176
     1
 90
        0
176
     1
 90
        0
176
     1
 40
0.6
176
     1
 40
30.0
176
     1
 62
     7
420
 16777215
176
     1
 90
        1
176
     1
 90
        4
176
     1
 62
     7
176
     1
 62
   257
176
     1
 90
        1
176
     1
 90
        1
176
     1
 40
1.0
176
     1
 90
        8
176
     1
 62
     7
176
     1
 40
1.0
176
     1
 90
        1
176
     1
 90
        6
176
     1
 90
        2
176
     1
 62
     7
176
     1
 90
        5
176
     1
 90
        0
176
     1
 90
        0
176
     1
290
     0
176
     1
 90
        1
176
     1
 40
0.0
176
     1
 90
        0
176
     1
290
     0
176
     1
290
     1
176
     1
290
     1
176
     1
290
     0
176
     1
290
     0
176
     1
290
     0
176
     1
290
     0
176
     1
290
     0
176
     1
290
     0
176
     1
 90
       50
176
     1
 40
0.0
176
     1
 40
1.0
176
     1
 90
        0
176
     1
 62
    18
420
        0
176
     1
 90
       50
176
     1
 90
        3
176
     1
 62
     5
420
      255
176
     1
290
     0
176
     1
 90
       50
176
     1
 90
       50
176
     1
 90
       50
176
     1
290
     0
176
     1
 90
       50
176
     1
 62
   256
176
     0
 40
1.0
176
     0
 90
        2
176
     1
  1
strokes_ogs.tif
176
     1
290
     0
176
     1
 40
1.0
176
     1
 40
1.0
176
     1
  0
VISUALSTYLE
  5
2A
102
{ACAD_REACTORS
330
29
102
}
330
29
100
AcDbVisualStyle
  2
Flat
 70
     0
177
     3
291
     1
 70
    58
 90
        2
176
     1
 90
        1
176
     1
 90
        1
176
     1
 90
        2
176
     1
 40
0.6
176
     1
 40
30.0
176
     1
 62
     7
420
 16777215
176
     1
 90
        0
176
     1
 90
        0
176
     1
 62
     7
176
     1
 62
   257
176
     1
 90
        1
176
     1
 90
        1
176
     1
 40
1.0
176
     1
 90
        8
176
     1
 62
     7
176
     1
 40
1.0
176
     1
 90
        1
176
     1
 90
        6
176
     1
 90
        2
176
     1
 62
     7
176
     1
 90
        5
176
     1
 90
        0
176
     1
 90
        0
176
     1
290
     0
176
     1
 90
       13
176
     1
 40
0.0
176
     1
 90
        0
176
     1
290
     0
176
     1
290
     1
176
     1
290
     1
176
     1
290
     0
176
     1
290
     0
176
     1
290
     0
176
     1
290
     0
176
     1
290
     0
176
     1
290
     0
176
     1
 90
       50
176
     1
 40
0.0
176
     1
 40
1.0
176
     1
 90
        0
176
     1
 62
    18
420
        0
176
     1
 90
       50
176
     1
 90
        3
176
     1
 62
     5
420
      255
176
     1
290
     0
176
     1
 90
       50
176
     1
 90
       50
176
     1
 90
       50
176
     1
290
     0
176
     1
 90
       50
176
     1
 62
   256
176
     0
 40
1.0
176
     0
 90
        2
176
     1
  1
strokes_ogs.tif
176
     1
290
     0
176
     1
 40
1.0
176
     1
 40
1.0
176
     1
  0
VISUALSTYLE
  5
2B
102
{ACAD_REACTORS
330
29
102
}
330
29
100
AcDbVisualStyle
  2
FlatWithEdges
 70
     1
177
     3
291
     1
 70
    58
 90
        2
176
     1
 90
        1
176
     1
 90
        1
176
     1
 90
        2
176
     1
 40
0.6
176
     1
 40
30.0
176
     1
 62
     7
420
 16777215
176
     1
 90
        1
176
     1
 90
        0
176
     1
 62
     7
176
     1
 62
   257
176
     1
 90
        1
176
     1
 90
        1
176
     1
 40
1.0
176
     1
 90
        0
176
     1
 62
   257
176
     1
 40
1.0
176
     1
 90
        1
176
     1
 90
        6
176
     1
 90
        2
176
     1
 62
     7
176
     1
 90
        5
176
     1
 90
        0
176
     1
 90
        0
176
     1
290
     0
176
     1
 90
       13
176
     1
 40
0.0
176
     1
 90
        0
176
     1
290
     0
176
     1
290
     1
176
     1
290
     1
176
     1
290
     0
176
     1
290
     0
176
     1
290
     0
176
     1
290
     0
176
     1
290
     0
176
     1
290
     0
176
     1
 90
       50
176
     1
 40
0.0
176
     1
 40
1.0
176
     1
 90
        0
176
     1
 62
    18
420
        0
176
     1
 90
       50
176
     1
 90
        3
176
     1
 62
     5
420
      255
176
     1
290
     0
176
     1
 90
       50
176
     1
 90
       50
176
     1
 90
       50
176
     1
290
     0
176
     1
 90
       50
176
     1
 62
   256
176
     0
 40
1.0
176
     0
 90
        2
176
     1
  1
strokes_ogs.tif
176
     1
290
     0
176
     1
 40
1.0
176
     1
 40
1.0
176
     1
  0
VISUALSTYLE
  5
2C
102
{ACAD_REACTORS
330
29
102
}
330
29
100
AcDbVisualStyle
  2
Gouraud
 70
     2
177
     3
291
     1
 70
    58
 90
        2
176
     1
 90
        2
176
     1
 90
        1
176
     1
 90
        2
176
     1
 40
0.6
176
     1
 40
30.0
176
     1
 62
     7
420
 16777215
176
     1
 90
        0
176
     1
 90
        0
176
     1
 62
     7
176
     1
 62
   257
176
     1
 90
        1
176
     1
 90
        1
176
     1
 40
1.0
176
     1
 90
        0
176
     1
 62
     7
176
     1
 40
1.0
176
     1
 90
        1
176
     1
 90
        6
176
     1
 90
        2
176
     1
 62
     7
176
     1
 90
        5
176
     1
 90
        0
176
     1
 90
        0
176
     1
290
     0
176
     1
 90
       13
176
     1
 40
0.0
176
     1
 90
        0
176
     1
290
     0
176
     1
290
     1
176
     1
290
     1
176
     1
290
     0
176
     1
290
     0
176
     1
290
     0
176
     1
290
     0
176
     1
290
     0
176
     1
290
     0
176
     1
 90
       50
176
     1
 40
0.0
176
     1
 40
1.0
176
     1
 90
        0
176
     1
 62
    18
420
        0
176
     1
 90
       50
176
     1
 90
        3
176
     1
 62
     5
420
      255
176
     1
290
     0
176
     1
 90
       50
176
     1
 90
       50
176
     1
 90
       50
176
     1
290
     0
176
     1
 90
       50
176
     1
 62
   256
176
     0
 40
1.0
176
     0
 90
        2
176
     1
  1
strokes_ogs.tif
176
     1
290
     0
176
     1
 40
1.0
176
     1
 40
1.0
176
     1
  0
VISUALSTYLE
  5
2D
102
{ACAD_REACTORS
330
29
102
}
330
29
100
AcDbVisualStyle
  2
GouraudWithEdges
 70
     3
177
     3
291
     1
 70
    58
 90
        2
176
     1
 90
        2
176
     1
 90
        1
176
     1
 90
        2
176
     1
 40
0.6
176
     1
 40
30.0
176
     1
 62
     7
420
 16777215
176
     1
 90
        1
176
     1
 90
        0
176
     1
 62
     7
176
     1
 62
   257
176
     1
 90
        1
176
     1
 90
        1
176
     1
 40
1.0
176
     1
 90
        0
176
     1
 62
   257
176
     1
 40
1.0
176
     1
 90
        1
176
     1
 90
        6
176
     1
 90
        2
176
     1
 62
     7
176
     1
 90
        5
176
     1
 90
        0
176
     1
 90
        0
176
     1
290
     0
176
     1
 90
       13
176
     1
 40
0.0
176
     1
 90
        0
176
     1
290
     0
176
     1
290
     1
176
     1
290
     1
176
     1
290
     0
176
     1
290
     0
176
     1
290
     0
176
     1
290
     0
176
     1
290
     0
176
     1
290
     0
176
     1
 90
       50
176
     1
 40
0.0
176
     1
 40
1.0
176
     1
 90
        0
176
     1
 62
    18
420
        0
176
     1
 90
       50
176
     1
 90
        3
176
     1
 62
     5
420
      255
176
     1
290
     0
176
     1
 90
       50
176
     1
 90
       50
176
     1
 90
       50
176
     1
290
     0
176
     1
 90
       50
176
     1
 62
   256
176
     0
 40
1.0
176
     0
 90
        2
176
     1
  1
strokes_ogs.tif
176
     1
290
     0
176
     1
 40
1.0
176
     1
 40
1.0
176
     1
  0
VISUALSTYLE
  5
31
102
{ACAD_REACTORS
330
29
102
}
330
29
100
AcDbVisualStyle
  2
Hidden
 70
     6
177
     3
291
     0
 70
    58
 90
        1
176
     1
 90
        2
176
     1
 90
        2
176
     1
 90
        0
176
     1
 40
0.6
176
     1
 40
30.0
176
     1
 62
     7
420
 16777215
176
     1
 90
        2
176
     1
 90
        2
176
     1
 62
     7
176
     1
 62
   257
176
     1
 90
        2
176
     1
 90
        1
176
     1
 40
40.0
176
     1
 90
        0
176
     1
 62
   257
176
     1
 40
1.0
176
     1
 90
        1
176
     1
 90
        6
176
     1
 90
        2
176
     1
 62
     7
176
     1
 90
        3
176
     1
 90
        0
176
     1
 90
        0
176
     1
290
     0
176
     1
 90
        1
176
     1
 40
0.0
176
     1
 90
        0
176
     1
290
     0
176
     1
290
     1
176
     1
290
     1
176
     1
290
     0
176
     1
290
     0
176
     1
290
     0
176
     1
290
     0
176
     1
290
     0
176
     1
290
     0
176
     1
 90
       50
176
     1
 40
0.0
176
     1
 40
1.0
176
     1
 90
        0
176
     1
 62
    18
420
        0
176
     1
 90
       50
176
     1
 90
        3
176
     1
 62
     5
420
      255
176
     1
290
     0
176
     1
 90
       50
176
     1
 90
       50
176
     1
 90
       50
176
     1
290
     0
176
     1
 90
       50
176
     1
 62
   256
176
     0
 40
1.0
176
     0
 90
        2
176
     1
  1
strokes_ogs.tif
176
     1
290
     0
176
     1
 40
1.0
176
     1
 40
1.0
176
     1
  0
VISUALSTYLE
  5
3F
102
{ACAD_REACTORS
330
29
102
}
330
29
100
AcDbVisualStyle
  2
JitterOff
 70
    20
177
     3
291
     1
 70
    58
 90
        2
176
     0
 90
        2
176
     0
 90
        0
176
     0
 90
        0
176
     0
 40
0.6
176
     0
 40
30.0
176
     0
 62
     7
420
 16777215
176
     0
 90
        1
176
     0
 90
        4
176
     0
 62
     7
176
     0
 62
   257
176
     0
 90
        1
176
     0
 90
        1
176
     0
 40
1.0
176
     0
 90
       10
176
     2
 62
     7
176
     0
 40
1.0
176
     0
 90
        1
176
     0
 90
        6
176
     0
 90
        2
176
     0
 62
     7
176
     0
 90
        5
176
     0
 90
        0
176
     0
 90
        0
176
     0
290
     0
176
     0
 90
        1
176
     0
 40
0.0
176
     0
 90
        0
176
     0
290
     0
176
     0
290
     1
176
     0
290
     1
176
     0
290
     0
176
     0
290
     0
176
     0
290
     0
176
     0
290
     0
176
     0
290
     0
176
     0
290
     0
176
     0
 90
       50
176
     0
 40
0.0
176
     0
 40
1.0
176
     0
 90
        0
176
     0
 62
    18
420
        0
176
     0
 90
       50
176
     0
 90
        3
176
     0
 62
     5
420
      255
176
     0
290
     0
176
     0
 90
       50
176
     0
 90
       50
176
     0
 90
       50
176
     0
290
     0
176
     0
 90
       50
176
     0
 62
   256
176
     0
 40
1.0
176
     0
 90
        2
176
     0
  1
strokes_ogs.tif
176
     0
290
     0
176
     0
 40
1.0
176
     0
 40
1.0
176
     0
  0
VISUALSTYLE
  5
37
102
{ACAD_REACTORS
330
29
102
}
330
29
100
AcDbVisualStyle
  2
Linepattern
 70
    14
177
     3
291
     1
 70
    58
 90
        2
176
     1
 90
        2
176
     1
 90
        0
176
     1
 90
        0
176
     1
 40
0.6
176
     1
 40
30.0
176
     1
 62
     7
420
 16777215
176
     1
 90
        1
176
     1
 90
        4
176
     1
 62
     7
176
     1
 62
   257
176
     1
 90
        7
176
     1
 90
        7
176
     1
 40
1.0
176
     1
 90
        8
176
     1
 62
     7
176
     1
 40
1.0
176
     1
 90
        1
176
     1
 90
        6
176
     1
 90
        2
176
     1
 62
     7
176
     1
 90
        5
176
     1
 90
        0
176
     1
 90
        0
176
     1
290
     0
176
     1
 90
        1
176
     1
 40
0.0
176
     1
 90
        0
176
     1
290
     0
176
     1
290
     1
176
     1
290
     1
176
     1
290
     0
176
     1
290
     0
176
     1
290
     0
176
     1
290
     0
176
     1
290
     0
176
     1
290
     0
176
     1
 90
       50
176
     1
 40
0.0
176
     1
 40
1.0
176
     1
 90
        0
176
     1
 62
    18
420
        0
176
     1
 90
       50
176
     1
 90
        3
176
     1
 62
     5
420
      255
176
     1
290
     0
176
     1
 90
       50
176
     1
 90
       50
176
     1
 90
       50
176
     1
290
     0
176
     1
 90
       50
176
     1
 62
   256
176
     0
 40
1.0
176
     0
 90
        2
176
     1
  1
strokes_ogs.tif
176
     1
290
     0
176
     1
 40
1.0
176
     1
 40
1.0
176
     1
  0
VISUALSTYLE
  5
40
102
{ACAD_REACTORS
330
29
102
}
330
29
100
AcDbVisualStyle
  2
OverhangOff
 70
    21
177
     3
291
     1
 70
    58
 90
        2
176
     0
 90
        2
176
     0
 90
        0
176
     0
 90
        0
176
     0
 40
0.6
176
     0
 40
30.0
176
     0
 62
     7
420
 16777215
176
     0
 90
        1
176
     0
 90
        4
176
     0
 62
     7
176
     0
 62
   257
176
     0
 90
        1
176
     0
 90
        1
176
     0
 40
1.0
176
     0
 90
        9
176
     2
 62
     7
176
     0
 40
1.0
176
     0
 90
        1
176
     0
 90
        6
176
     0
 90
        2
176
     0
 62
     7
176
     0
 90
        5
176
     0
 90
        0
176
     0
 90
        0
176
     0
290
     0
176
     0
 90
        1
176
     0
 40
0.0
176
     0
 90
        0
176
     0
290
     0
176
     0
290
     1
176
     0
290
     1
176
     0
290
     0
176
     0
290
     0
176
     0
290
     0
176
     0
290
     0
176
     0
290
     0
176
     0
290
     0
176
     0
 90
       50
176
     0
 40
0.0
176
     0
 40
1.0
176
     0
 90
        0
176
     0
 62
    18
420
        0
176
     0
 90
       50
176
     0
 90
        3
176
     0
 62
     5
420
      255
176
     0
290
     0
176
     0
 90
       50
176
     0
 90
       50
176
     0
 90
       50
176
     0
290
     0
176
     0
 90
       50
176
     0
 62
   256
176
     0
 40
1.0
176
     0
 90
        2
176
     0
  1
strokes_ogs.tif
176
     0
290
     0
176
     0
 40
1.0
176
     0
 40
1.0
176
     0
  0
VISUALSTYLE
  5
33
102
{ACAD_REACTORS
330
29
102
}
330
29
100
AcDbVisualStyle
  2
Realistic
 70
     8
177
     3
291
     0
 70
    58
 90
        2
176
     1
 90
        3
176
     1
 90
        0
176
     1
 90
        2
176
     1
 40
0.6
176
     1
 40
30.0
176
     1
 62
     7
420
 16777215
176
     1
 90
        0
176
     1
 90
        0
176
     1
 62
     7
176
     1
 62
   257
176
     1
 90
        1
176
     1
 90
        1
176
     1
 40
1.0
176
     1
 90
        8
176
     1
 62
   257
176
     1
 40
1.0
176
     1
 90
        1
176
     1
 90
        6
176
     1
 90
        2
176
     1
 62
     7
176
     1
 90
        3
176
     1
 90
        0
176
     1
 90
        0
176
     1
290
     0
176
     1
 90
       13
176
     1
 40
0.0
176
     1
 90
        0
176
     1
290
     0
176
     1
290
     1
176
     1
290
     1
176
     1
290
     0
176
     1
290
     0
176
     1
290
     0
176
     1
290
     0
176
     1
290
     0
176
     1
290
     0
176
     1
 90
       50
176
     1
 40
0.0
176
     1
 40
1.0
176
     1
 90
        0
176
     1
 62
    18
420
        0
176
     1
 90
       50
176
     1
 90
        3
176
     1
 62
     5
420
      255
176
     1
290
     0
176
     1
 90
       50
176
     1
 90
       50
176
     1
 90
       50
176
     1
290
     0
176
     1
 90
       50
176
     1
 62
   256
176
     0
 40
1.0
176
     0
 90
        2
176
     1
  1
strokes_ogs.tif
176
     1
290
     0
176
     1
 40
1.0
176
     1
 40
1.0
176
     1
  0
VISUALSTYLE
  5
3E
102
{ACAD_REACTORS
330
29
102
}
330
29
100
AcDbVisualStyle
  2
Shaded
 70
    27
177
     3
291
     0
 70
    58
 90
        2
176
     1
 90
        2
176
     1
 90
        1
176
     1
 90
        2
176
     1
 40
0.6
176
     1
 40
30.0
176
     1
 62
     7
420
 16777215
176
     1
 90
        0
176
     1
 90
        4
176
     1
 62
     7
176
     1
 62
   257
176
     1
 90
        1
176
     1
 90
        1
176
     1
 40
1.0
176
     1
 90
        8
176
     1
 62
   257
176
     1
 40
1.0
176
     1
 90
        1
176
     1
 90
        6
176
     1
 90
        2
176
     1
 62
     8
420
  7895160
176
     1
 90
        3
176
     1
 90
        0
176
     1
 90
        0
176
     1
290
     0
176
     1
 90
        5
176
     1
 40
0.0
176
     1
 90
        0
176
     1
290
     0
176
     1
290
     1
176
     1
290
     1
176
     1
290
     0
176
     1
290
     0
176
     1
290
     0
176
     1
290
     0
176
     1
290
     0
176
     1
290
     0
176
     1
 90
       50
176
     1
 40
0.0
176
     1
 40
1.0
176
     1
 90
        0
176
     1
 62
    18
420
        0
176
     1
 90
       50
176
     1
 90
        3
176
     1
 62
     5
420
      255
176
     1
290
     0
176
     1
 90
       50
176
     1
 90
       50
176
     1
 90
       50
176
     1
290
     0
176
     1
 90
       50
176
     1
 62
   256
176
     0
 40
1.0
176
     0
 90
        2
176
     1
  1
strokes_ogs.tif
176
     1
290
     0
176
     1
 40
1.0
176
     1
 40
1.0
176
     1
  0
VISUALSTYLE
  5
3D
102
{ACAD_REACTORS
330
29
102
}
330
29
100
AcDbVisualStyle
  2
Shaded with edges
 70
    26
177
     3
291
     0
 70
    58
 90
        2
176
     1
 90
        2
176
     1
 90
        1
176
     1
 90
        2
176
     1
 40
0.6
176
     1
 40
30.0
176
     1
 62
     7
420
 16777215
176
     1
 90
        1
176
     1
 90
        2
176
     1
 62
     7
176
     1
 62
   257
176
     1
 90
        2
176
     1
 90
        1
176
     1
 40
1.0
176
     1
 90
        8
176
     1
 62
   257
176
     1
 40
1.0
176
     1
 90
        1
176
     1
 90
        6
176
     1
 90
        2
176
     1
 62
     7
176
     1
 90
        3
176
     1
 90
        0
176
     1
 90
        0
176
     1
290
     0
176
     1
 90
        5
176
     1
 40
0.0
176
     1
 90
        0
176
     1
290
     0
176
     1
290
     1
176
     1
290
     1
176
     1
290
     0
176
     1
290
     0
176
     1
290
     0
176
     1
290
     0
176
     1
290
     0
176
     1
290
     0
176
     1
 90
       50
176
     1
 40
0.0
176
     1
 40
1.0
176
     1
 90
        0
176
     1
 62
    18
420
        0
176
     1
 90
       50
176
     1
 90
        3
176
     1
 62
     5
420
      255
176
     1
290
     0
176
     1
 90
       50
176
     1
 90
       50
176
     1
 90
       50
176
     1
290
     0
176
     1
 90
       50
176
     1
 62
   256
176
     0
 40
1.0
176
     0
 90
        2
176
     1
  1
strokes_ogs.tif
176
     1
290
     0
176
     1
 40
1.0
176
     1
 40
1.0
176
     1
  0
VISUALSTYLE
  5
3A
102
{ACAD_REACTORS
330
29
102
}
330
29
100
AcDbVisualStyle
  2
Shades of Gray
 70
    23
177
     3
291
     0
 70
    58
 90
        2
176
     1
 90
        2
176
     1
 90
        3
176
     1
 90
        0
176
     1
 40
0.6
176
     1
 40
30.0
176
     1
 62
     7
420
 16777215
176
     1
 90
        2
176
     1
 90
        2
176
     1
 62
     7
176
     1
 62
     7
176
     1
 90
        1
176
     1
 90
        1
176
     1
 40
40.0
176
     1
 90
        8
176
     1
 62
     7
176
     1
 40
1.0
176
     1
 90
        1
176
     1
 90
        6
176
     1
 90
        2
176
     1
 62
     7
176
     1
 90
        3
176
     1
 90
        0
176
     1
 90
        0
176
     1
290
     0
176
     1
 90
        1
176
     1
 40
0.0
176
     1
 90
        0
176
     1
290
     0
176
     1
290
     1
176
     1
290
     1
176
     1
290
     0
176
     1
290
     0
176
     1
290
     0
176
     1
290
     0
176
     1
290
     0
176
     1
290
     0
176
     1
 90
       50
176
     1
 40
0.0
176
     1
 40
1.0
176
     1
 90
        0
176
     1
 62
    18
420
        0
176
     1
 90
       50
176
     1
 90
        3
176
     1
 62
     5
420
      255
176
     1
290
     0
176
     1
 90
       50
176
     1
 90
       50
176
     1
 90
       50
176
     1
290
     0
176
     1
 90
       50
176
     1
 62
   256
176
     0
 40
1.0
176
     0
 90
        2
176
     1
  1
strokes_ogs.tif
176
     1
290
     0
176
     1
 40
1.0
176
     1
 40
1.0
176
     1
  0
VISUALSTYLE
  5
3B
102
{ACAD_REACTORS
330
29
102
}
330
29
100
AcDbVisualStyle
  2
Sketchy
 70
    24
177
     3
291
     0
 70
    58
 90
        1
176
     1
 90
        2
176
     1
 90
        2
176
     1
 90
        0
176
     1
 40
0.6
176
     1
 40
30.0
176
     1
 62
     7
420
 16777215
176
     1
 90
        2
176
     1
 90
        2
176
     1
 62
     7
176
     1
 62
     7
176
     1
 90
        1
176
     1
 90
        1
176
     1
 40
40.0
176
     1
 90
       11
176
     1
 62
     7
176
     1
 40
1.0
176
     1
 90
        1
176
     1
 90
        6
176
     1
 90
        2
176
     1
 62
     7
176
     1
 90
        6
176
     1
 90
        0
176
     1
 90
        0
176
     1
290
     0
176
     1
 90
        1
176
     1
 40
0.0
176
     1
 90
        0
176
     1
290
     0
176
     1
290
     1
176
     1
290
     1
176
     1
290
     0
176
     1
290
     0
176
     1
290
     0
176
     1
290
     0
176
     1
290
     0
176
     1
290
     0
176
     1
 90
       50
176
     1
 40
0.0
176
     1
 40
1.0
176
     1
 90
        0
176
     1
 62
    18
420
        0
176
     1
 90
       50
176
     1
 90
        3
176
     1
 62
     5
420
      255
176
     1
290
     0
176
     1
 90
       50
176
     1
 90
       50
176
     1
 90
       50
176
     1
290
     0
176
     1
 90
       50
176
     1
 62
   256
176
     0
 40
1.0
176
     0
 90
        2
176
     1
  1
strokes_ogs.tif
176
     1
290
     0
176
     1
 40
1.0
176
     1
 40
1.0
176
     1
  0
VISUALSTYLE
  5
36
102
{ACAD_REACTORS
330
29
102
}
330
29
100
AcDbVisualStyle
  2
Thicken
 70
    13
177
     3
291
     1
 70
    58
 90
        2
176
     1
 90
        2
176
     1
 90
        0
176
     1
 90
        0
176
     1
 40
0.6
176
     1
 40
30.0
176
     1
 62
     7
420
 16777215
176
     1
 90
        1
176
     1
 90
        4
176
     1
 62
     7
176
     1
 62
   257
176
     1
 90
        1
176
     1
 90
        1
176
     1
 40
1.0
176
     1
 90
       12
176
     1
 62
     7
176
     1
 40
1.0
176
     1
 90
        1
176
     1
 90
        6
176
     1
 90
        2
176
     1
 62
     7
176
     1
 90
        5
176
     1
 90
        0
176
     1
 90
        0
176
     1
290
     0
176
     1
 90
        1
176
     1
 40
0.0
176
     1
 90
        0
176
     1
290
     0
176
     1
290
     1
176
     1
290
     1
176
     1
290
     0
176
     1
290
     0
176
     1
290
     0
176
     1
290
     0
176
     1
290
     0
176
     1
290
     0
176
     1
 90
       50
176
     1
 40
0.0
176
     1
 40
1.0
176
     1
 90
        0
176
     1
 62
    18
420
        0
176
     1
 90
       50
176
     1
 90
        3
176
     1
 62
     5
420
      255
176
     1
290
     0
176
     1
 90
       50
176
     1
 90
       50
176
     1
 90
       50
176
     1
290
     0
176
     1
 90
       50
176
     1
 62
   256
176
     0
 40
1.0
176
     0
 90
        2
176
     1
  1
strokes_ogs.tif
176
     1
290
     0
176
     1
 40
1.0
176
     1
 40
1.0
176
     1
  0
VISUALSTYLE
  5
30
102
{ACAD_REACTORS
330
29
102
}
330
29
100
AcDbVisualStyle
  2
Wireframe
 70
     5
177
     3
291
     0
 70
    58
 90
        0
176
     1
 90
        2
176
     1
 90
        0
176
     1
 90
        0
176
     1
 40
0.6
176
     1
 40
30.0
176
     1
 62
     7
420
 16777215
176
     1
 90
        1
176
     1
 90
        4
176
     1
 62
     7
176
     1
 62
   257
176
     1
 90
        1
176
     1
 90
        1
176
     1
 40
1.0
176
     1
 90
        0
176
     1
 62
   257
176
     1
 40
1.0
176
     1
 90
        1
176
     1
 90
        6
176
     1
 90
        2
176
     1
 62
     7
176
     1
 90
        3
176
     1
 90
        0
176
     1
 90
        0
176
     1
290
     0
176
     1
 90
        1
176
     1
 40
0.0
176
     1
 90
        0
176
     1
290
     0
176
     1
290
     1
176
     1
290
     1
176
     1
290
     0
176
     1
290
     0
176
     1
290
     0
176
     1
290
     0
176
     1
290
     0
176
     1
290
     0
176
     1
 90
       50
176
     1
 40
0.0
176
     1
 40
1.0
176
     1
 90
        0
176
     1
 62
    18
420
        0
176
     1
 90
       50
176
     1
 90
        3
176
     1
 62
     5
420
      255
176
     1
290
     0
176
     1
 90
       50
176
     1
 90
       50
176
     1
 90
       50
176
     1
290
     0
176
     1
 90
       50
176
     1
 62
   256
176
     0
 40
1.0
176
     0
 90
        2
176
     1
  1
strokes_ogs.tif
176
     1
290
     0
176
     1
 40
1.0
176
     1
 40
1.0
176
     1
  0
VISUALSTYLE
  5
3C
102
{ACAD_REACTORS
330
29
102
}
330
29
100
AcDbVisualStyle
  2
X-Ray
 70
    25
177
     3
291
     0
 70
    58
 90
        2
176
     1
 90
        2
176
     1
 90
        1
176
     1
 90
        1
176
     1
 40
0.5
176
     1
 40
30.0
176
     1
 62
     7
420
 16777215
176
     1
 90
        1
176
     1
 90
        0
176
     1
 62
     7
176
     1
 62
   257
176
     1
 90
        1
176
     1
 90
        1
176
     1
 40
1.0
176
     1
 90
        8
176
     1
 62
     7
176
     1
 40
1.0
176
     1
 90
        1
176
     1
 90
        6
176
     1
 90
        2
176
     1
 62
     7
176
     1
 90
        3
176
     1
 90
        0
176
     1
 90
        0
176
     1
290
     0
176
     1
 90
       13
176
     1
 40
0.0
176
     1
 90
        0
176
     1
290
     0
176
     1
290
     1
176
     1
290
     1
176
     1
290
     0
176
     1
290
     0
176
     1
290
     0
176
     1
290
     0
176
     1
290
     0
176
     1
290
     0
176
     1
 90
       50
176
     1
 40
0.0
176
     1
 40
1.0
176
     1
 90
        0
176
     1
 62
    18
420
        0
176
     1
 90
       50
176
     1
 90
        3
176
     1
 62
     5
420
      255
176
     1
290
     0
176
     1
 90
       50
176
     1
 90
       50
176
     1
 90
       50
176
     1
290
     0
176
     1
 90
       50
176
     1
 62
   256
176
     0
 40
1.0
176
     0
 90
        2
176
     1
  1
strokes_ogs.tif
176
     1
290
     0
176
     1
 40
1.0
176
     1
 40
1.0
176
     1
  0
DICTIONARYVAR
  5
97
102
{ACAD_REACTORS
330
92
102
}
330
92
100
DictionaryVariables
280
     0
  1
1:1
  0
DICTIONARYVAR
  5
94
102
{ACAD_REACTORS
330
92
102
}
330
92
100
DictionaryVariables
280
     0
  1
STANDARD
  0
DICTIONARYVAR
  5
93
102
{ACAD_REACTORS
330
92
102
}
330
92
100
DictionaryVariables
280
     0
  1
STANDARD
  0
DICTIONARYVAR
  5
95
102
{ACAD_REACTORS
330
92
102
}
330
92
100
DictionaryVariables
280
     0
  1
Imperial24
  0
DICTIONARYVAR
  5
96
102
{ACAD_REACTORS
330
92
102
}
330
92
100
DictionaryVariables
280
     0
  1
Imperial24
  0
DICTIONARY
  5
1A
330
19
100
AcDbDictionary
280
     1
281
     1
  3
BUMPTILE
360
1C
  3
DIFFUSETILE
360
1B
  3
OPACITYTILE
360
1F
  3
REFLECTIONTILE
360
1E
  3
REFRACTIONTILE
360
20
  3
SPECULARTILE
360
1D
  0
DICTIONARY
  5
12
330
11
100
AcDbDictionary
280
     1
281
     1
  3
BUMPTILE
360
14
  3
DIFFUSETILE
360
13
  3
OPACITYTILE
360
17
  3
REFLECTIONTILE
360
16
  3
REFRACTIONTILE
360
18
  3
SPECULARTILE
360
15
  0
DICTIONARY
  5
22
330
21
100
AcDbDictionary
280
     1
281
     1
  3
BUMPTILE
360
24
  3
DIFFUSETILE
360
23
  3
OPACITYTILE
360
27
  3
REFLECTIONTILE
360
26
  3
REFRACTIONTILE
360
28
  3
SPECULARTILE
360
25
  0
DICTIONARY
  5
98
330
65
100
AcDbDictionary
280
     1
281
     1
  3
ACAD_ROUNDTRIP_2008_TABLESTYLE_CELLSTYLEMAP
360
99
  0
XRECORD
  5
1C
102
{ACAD_REACTORS
330
1A
102
}
330
1A
100
AcDbXrecord
280
     1
270
     1
271
     1
  0
XRECORD
  5
1B
102
{ACAD_REACTORS
330
1A
102
}
330
1A
100
AcDbXrecord
280
     1
270
     1
271
     1
  0
XRECORD
  5
1F
102
{ACAD_REACTORS
330
1A
102
}
330
1A
100
AcDbXrecord
280
     1
270
     1
271
     1
  0
XRECORD
  5
1E
102
{ACAD_REACTORS
330
1A
102
}
330
1A
100
AcDbXrecord
280
     1
270
     1
271
     1
  0
XRECORD
  5
20
102
{ACAD_REACTORS
330
1A
102
}
330
1A
100
AcDbXrecord
280
     1
270
     1
271
     1
  0
XRECORD
  5
1D
102
{ACAD_REACTORS
330
1A
102
}
330
1A
100
AcDbXrecord
280
     1
270
     1
271
     1
  0
XRECORD
  5
14
102
{ACAD_REACTORS
330
12
102
}
330
12
100
AcDbXrecord
280
     1
270
     1
271
     1
  0
XRECORD
  5
13
102
{ACAD_REACTORS
330
12
102
}
330
12
100
AcDbXrecord
280
     1
270
     1
271
     1
  0
XRECORD
  5
17
102
{ACAD_REACTORS
330
12
102
}
330
12
100
AcDbXrecord
280
     1
270
     1
271
     1
  0
XRECORD
  5
16
102
{ACAD_REACTORS
330
12
102
}
330
12
100
AcDbXrecord
280
     1
270
     1
271
     1
  0
XRECORD
  5
18
102
{ACAD_REACTORS
330
12
102
}
330
12
100
AcDbXrecord
280
     1
270
     1
271
     1
  0
XRECORD
  5
15
102
{ACAD_REACTORS
330
12
102
}
330
12
100
AcDbXrecord
280
     1
270
     1
271
     1
  0
XRECORD
  5
24
102
{ACAD_REACTORS
330
22
102
}
330
22
100
AcDbXrecord
280
     1
270
     1
271
     1
  0
XRECORD
  5
23
102
{ACAD_REACTORS
330
22
102
}
330
22
100
AcDbXrecord
280
     1
270
     1
271
     1
  0
XRECORD
  5
27
102
{ACAD_REACTORS
330
22
102
}
330
22
100
AcDbXrecord
280
     1
270
     1
271
     1
  0
XRECORD
  5
26
102
{ACAD_REACTORS
330
22
102
}
330
22
100
AcDbXrecord
280
     1
270
     1
271
     1
  0
XRECORD
  5
28
102
{ACAD_REACTORS
330
22
102
}
330
22
100
AcDbXrecord
280
     1
270
     1
271
     1
  0
XRECORD
  5
25
102
{ACAD_REACTORS
330
22
102
}
330
22
100
AcDbXrecord
280
     1
270
     1
271
     1
  0
CELLSTYLEMAP
  5
99
102
{ACAD_REACTORS
330
98
102
}
330
98
100
AcDbCellStyleMap
 90
        3
300
CELLSTYLE
  1
TABLEFORMAT_BEGIN
 90
        5
170
     1
 91
        0
 92
    32768
 62
   257
 93
        1
300
CONTENTFORMAT
  1
CONTENTFORMAT_BEGIN
 90
        0
 91
        0
 92
      512
 93
        0
300

 40
0.0
140
1.0
 94
        5
 62
     0
340
55
144
0.25
309
CONTENTFORMAT_END
171
     0
 94
        0
309
TABLEFORMAT_END
  1
CELLSTYLE_BEGIN
 90
        1
 91
        1
300
_TITLE
309
CELLSTYLE_END
300
CELLSTYLE
  1
TABLEFORMAT_BEGIN
 90
        5
170
     1
 91
        0
 92
        0
 62
   257
 93
        1
300
CONTENTFORMAT
  1
CONTENTFORMAT_BEGIN
 90
        0
 91
        0
 92
      512
 93
        0
300

 40
0.0
140
1.0
 94
        5
 62
     0
340
55
144
0.18
309
CONTENTFORMAT_END
171
     0
 94
        0
309
TABLEFORMAT_END
  1
CELLSTYLE_BEGIN
 90
        2
 91
        1
300
_HEADER
309
CELLSTYLE_END
300
CELLSTYLE
  1
TABLEFORMAT_BEGIN
 90
        5
170
     1
 91
        0
 92
        0
 62
   257
 93
        1
300
CONTENTFORMAT
  1
CONTENTFORMAT_BEGIN
 90
        0
 91
        0
 92
      512
 93
        0
300

 40
0.0
140
1.0
 94
        2
 62
     0
340
55
144
0.18
309
CONTENTFORMAT_END
171
     0
 94
        0
309
TABLEFORMAT_END
  1
CELLSTYLE_BEGIN
 90
        3
 91
        2
300
_DATA
309
CELLSTYLE_END
  0
ENDSEC
  0
EOF
