  0
SECTION
  2
HEADER
  9
$ACADVER
  1
AC1027
  9
$ACADMAINTVER
 70
   125
  9
$DWGCODEPAGE
  3
ANSI_1252
  9
$REQUIREDVERSIONS
160
                 0
  9
$INSBASE
 10
0.0
 20
0.0
 30
0.0
  9
$EXTMIN
 10
1.000000000000000E+20
 20
1.000000000000000E+20
 30
1.000000000000000E+20
  9
$EXTMAX
 10
-1.000000000000000E+20
 20
-1.000000000000000E+20
 30
-1.000000000000000E+20
  9
$LIMMIN
 10
0.0
 20
0.0
  9
$LIMMAX
 10
12.0
 20
9.0
  9
$ORTHOMODE
 70
     0
  9
$REGENMODE
 70
     1
  9
$FILLMODE
 70
     1
  9
$QTEXTMODE
 70
     0
  9
$MIRRTEXT
 70
     0
  9
$LTSCALE
 40
1.0
  9
$ATTMODE
 70
     1
  9
$TEXTSIZE
 40
0.2
  9
$TRACEWID
 40
0.05
  9
$TEXTSTYLE
  7
Standard
  9
$CLAYER
  8
0
  9
$CELTYPE
  6
ByLayer
  9
$CECOLOR
 62
   256
  9
$CELTSCALE
 40
1.0
  9
$DISPSILH
 70
     0
  9
$DIMSCALE
 40
1.0
  9
$DIMASZ
 40
0.18
  9
$DIMEXO
 40
0.0625
  9
$DIMDLI
 40
0.38
  9
$DIMRND
 40
0.0
  9
$DIMDLE
 40
0.0
  9
$DIMEXE
 40
0.18
  9
$DIMTP
 40
0.0
  9
$DIMTM
 40
0.0
  9
$DIMTXT
 40
0.18
  9
$DIMCEN
 40
0.09
  9
$DIMTSZ
 40
0.0
  9
$DIMTOL
 70
     0
  9
$DIMLIM
 70
     0
  9
$DIMTIH
 70
     1
  9
$DIMTOH
 70
     1
  9
$DIMSE1
 70
     0
  9
$DIMSE2
 70
     0
  9
$DIMTAD
 70
     0
  9
$DIMZIN
 70
     0
  9
$DIMBLK
  1

  9
$DIMASO
 70
     1
  9
$DIMSHO
 70
     1
  9
$DIMPOST
  1

  9
$DIMAPOST
  1

  9
$DIMALT
 70
     0
  9
$DIMALTD
 70
     2
  9
$DIMALTF
 40
25.4
  9
$DIMLFAC
 40
1.0
  9
$DIMTOFL
 70
     0
  9
$DIMTVP
 40
0.0
  9
$DIMTIX
 70
     0
  9
$DIMSOXD
 70
     0
  9
$DIMSAH
 70
     0
  9
$DIMBLK1
  1

  9
$DIMBLK2
  1

  9
$DIMSTYLE
  2
Standard
  9
$DIMCLRD
 70
     0
  9
$DIMCLRE
 70
     0
  9
$DIMCLRT
 70
     0
  9
$DIMTFAC
 40
1.0
  9
$DIMGAP
 40
0.09
  9
$DIMJUST
 70
     0
  9
$DIMSD1
 70
     0
  9
$DIMSD2
 70
     0
  9
$DIMTOLJ
 70
     1
  9
$DIMTZIN
 70
     0
  9
$DIMALTZ
 70
     0
  9
$DIMALTTZ
 70
     0
  9
$DIMUPT
 70
     0
  9
$DIMDEC
 70
     4
  9
$DIMTDEC
 70
     4
  9
$DIMALTU
 70
     2
  9
$DIMALTTD
 70
     2
  9
$DIMTXSTY
  7
Standard
  9
$DIMAUNIT
 70
     0
  9
$DIMADEC
 70
     0
  9
$DIMALTRND
 40
0.0
  9
$DIMAZIN
 70
     0
  9
$DIMDSEP
 70
    46
  9
$DIMATFIT
 70
     3
  9
$DIMFRAC
 70
     0
  9
$DIMLDRBLK
  1

  9
$DIMLUNIT
 70
     2
  9
$DIMLWD
 70
    -2
  9
$DIMLWE
 70
    -2
  9
$DIMTMOVE
 70
     0
  9
$DIMFXL
 40
1.0
  9
$DIMFXLON
 70
     0
  9
$DIMJOGANG
 40
0.7853981633974483
  9
$DIMTFILL
 70
     0
  9
$DIMTFILLCLR
 70
     0
  9
$DIMARCSYM
 70
     0
  9
$DIMLTYPE
  6

  9
$DIMLTEX1
  6

  9
$DIMLTEX2
  6

  9
$DIMTXTDIRECTION
 70
     0
  9
$LUNITS
 70
     2
  9
$LUPREC
 70
     4
  9
$SKETCHINC
 40
0.1
  9
$FILLETRAD
 40
0.0
  9
$AUNITS
 70
     0
  9
$AUPREC
 70
     0
  9
$MENU
  1
.
  9
$ELEVATION
 40
0.0
  9
$PELEVATION
 40
0.0
  9
$THICKNESS
 40
0.0
  9
$LIMCHECK
 70
     0
  9
$CHAMFERA
 40
0.0
  9
$CHAMFERB
 40
0.0
  9
$CHAMFERC
 40
0.0
  9
$CHAMFERD
 40
0.0
  9
$SKPOLY
 70
     0
  9
$TDCREATE
 40
2460122.507916667
  9
$TDUCREATE
 40
2460122.716250000
  9
$TDUPDATE
 40
2460122.507916667
  9
$TDUUPDATE
 40
2460122.716250000
  9
$TDINDWG
 40
0.0000000000
  9
$TDUSRTIMER
 40
0.0000000000
  9
$USRTIMER
 70
     1
  9
$ANGBASE
 50
0.0
  9
$ANGDIR
 70
     0
  9
$PDMODE
 70
     0
  9
$PDSIZE
 40
0.0
  9
$PLINEWID
 40
0.0
  9
$SPLFRAME
 70
     0
  9
$SPLINETYPE
 70
     6
  9
$SPLINESEGS
 70
     8
  9
$HANDSEED
  5
C3
  9
$SURFTAB1
 70
     6
  9
$SURFTAB2
 70
     6
  9
$SURFTYPE
 70
     6
  9
$SURFU
 70
     6
  9
$SURFV
 70
     6
  9
$UCSBASE
  2

  9
$UCSNAME
  2

  9
$UCSORG
 10
0.0
 20
0.0
 30
0.0
  9
$UCSXDIR
 10
1.0
 20
0.0
 30
0.0
  9
$UCSYDIR
 10
0.0
 20
1.0
 30
0.0
  9
$UCSORTHOREF
  2

  9
$UCSORTHOVIEW
 70
     0
  9
$UCSORGTOP
 10
0.0
 20
0.0
 30
0.0
  9
$UCSORGBOTTOM
 10
0.0
 20
0.0
 30
0.0
  9
$UCSORGLEFT
 10
0.0
 20
0.0
 30
0.0
  9
$UCSORGRIGHT
 10
0.0
 20
0.0
 30
0.0
  9
$UCSORGFRONT
 10
0.0
 20
0.0
 30
0.0
  9
$UCSORGBACK
 10
0.0
 20
0.0
 30
0.0
  9
$PUCSBASE
  2

  9
$PUCSNAME
  2

  9
$PUCSORG
 10
0.0
 20
0.0
 30
0.0
  9
$PUCSXDIR
 10
1.0
 20
0.0
 30
0.0
  9
$PUCSYDIR
 10
0.0
 20
1.0
 30
0.0
  9
$PUCSORTHOREF
  2

  9
$PUCSORTHOVIEW
 70
     0
  9
$PUCSORGTOP
 10
0.0
 20
0.0
 30
0.0
  9
$PUCSORGBOTTOM
 10
0.0
 20
0.0
 30
0.0
  9
$PUCSORGLEFT
 10
0.0
 20
0.0
 30
0.0
  9
$PUCSORGRIGHT
 10
0.0
 20
0.0
 30
0.0
  9
$PUCSORGFRONT
 10
0.0
 20
0.0
 30
0.0
  9
$PUCSORGBACK
 10
0.0
 20
0.0
 30
0.0
  9
$USERI1
 70
     0
  9
$USERI2
 70
     0
  9
$USERI3
 70
     0
  9
$USERI4
 70
     0
  9
$USERI5
 70
     0
  9
$USERR1
 40
0.0
  9
$USERR2
 40
0.0
  9
$USERR3
 40
0.0
  9
$USERR4
 40
0.0
  9
$USERR5
 40
0.0
  9
$WORLDVIEW
 70
     1
  9
$SHADEDGE
 70
     3
  9
$SHADEDIF
 70
    70
  9
$TILEMODE
 70
     1
  9
$MAXACTVP
 70
    64
  9
$PINSBASE
 10
0.0
 20
0.0
 30
0.0
  9
$PLIMCHECK
 70
     0
  9
$PEXTMIN
 10
1.000000000000000E+20
 20
1.000000000000000E+20
 30
1.000000000000000E+20
  9
$PEXTMAX
 10
-1.000000000000000E+20
 20
-1.000000000000000E+20
 30
-1.000000000000000E+20
  9
$PLIMMIN
 10
0.0
 20
0.0
  9
$PLIMMAX
 10
12.0
 20
9.0
  9
$UNITMODE
 70
     0
  9
$VISRETAIN
 70
     1
  9
$PLINEGEN
 70
     0
  9
$PSLTSCALE
 70
     1
  9
$TREEDEPTH
 70
  3020
  9
$CMLSTYLE
  2
Standard
  9
$CMLJUST
 70
     0
  9
$CMLSCALE
 40
1.0
  9
$PROXYGRAPHICS
 70
     1
  9
$MEASUREMENT
 70
     0
  9
$CELWEIGHT
370
    -1
  9
$ENDCAPS
280
     0
  9
$JOINSTYLE
280
     0
  9
$LWDISPLAY
290
     1
  9
$INSUNITS
 70
     0
  9
$HYPERLINKBASE
  1

  9
$STYLESHEET
  1

  9
$XEDIT
290
     1
  9
$CEPSNTYPE
380
     0
  9
$PSTYLEMODE
290
     1
  9
$FINGERPRINTGUID
  2
{C061C5A6-9246-D249-9E2D-EC2D09092D5E}
  9
$VERSIONGUID
  2
{8EAA8240-F2E4-E54B-85ED-B390D45689ED}
  9
$EXTNAMES
290
     1
  9
$PSVPSCALE
 40
0.0
  9
$OLESTARTUP
290
     0
  9
$SORTENTS
280
   127
  9
$INDEXCTL
280
     0
  9
$HIDETEXT
280
     1
  9
$XCLIPFRAME
280
     2
  9
$HALOGAP
280
     0
  9
$OBSCOLOR
 70
   257
  9
$OBSLTYPE
280
     0
  9
$INTERSECTIONDISPLAY
280
     0
  9
$INTERSECTIONCOLOR
 70
   257
  9
$DIMASSOC
280
     2
  9
$PROJECTNAME
  1

  9
$CAMERADISPLAY
290
     0
  9
$LENSLENGTH
 40
50.0
  9
$CAMERAHEIGHT
 40
0.0
  9
$STEPSPERSEC
 40
2.0
  9
$STEPSIZE
 40
6.0
  9
$3DDWFPREC
 40
2.0
  9
$PSOLWIDTH
 40
0.25
  9
$PSOLHEIGHT
 40
4.0
  9
$LOFTANG1
 40
1.570796326794896
  9
$LOFTANG2
 40
1.570796326794896
  9
$LOFTMAG1
 40
0.0
  9
$LOFTMAG2
 40
0.0
  9
$LOFTPARAM
 70
     7
  9
$LOFTNORMALS
280
     1
  9
$LATITUDE
 40
37.795
  9
$LONGITUDE
 40
-122.394
  9
$NORTHDIRECTION
 40
0.0
  9
$TIMEZONE
 70
 -8000
  9
$LIGHTGLYPHDISPLAY
280
     1
  9
$TILEMODELIGHTSYNCH
280
     1
  9
$CMATERIAL
347
11
  9
$SOLIDHIST
280
     0
  9
$SHOWHIST
280
     1
  9
$DWFFRAME
280
     2
  9
$DGNFRAME
280
     0
  9
$REALWORLDSCALE
290
     1
  9
$INTERFERECOLOR
 62
     1
  9
$INTERFEREOBJVS
345
33
  9
$INTERFEREVPVS
346
30
  9
$CSHADOW
280
     0
  9
$SHADOWPLANELOCATION
 40
0.0
  0
ENDSEC
  0
SECTION
  2
CLASSES
  0
CLASS
  1
ACDBDICTIONARYWDFLT
  2
AcDbDictionaryWithDefault
  3
ObjectDBX Classes
 90
        0
 91
        1
280
     0
281
     0
  0
CLASS
  1
MATERIAL
  2
AcDbMaterial
  3
ObjectDBX Classes
 90
     1153
 91
        3
280
     0
281
     0
  0
CLASS
  1
VISUALSTYLE
  2
AcDbVisualStyle
  3
ObjectDBX Classes
 90
     4095
 91
       24
280
     0
281
     0
  0
CLASS
  1
SCALE
  2
AcDbScale
  3
ObjectDBX Classes
 90
     1153
 91
       17
280
     0
281
     0
  0
CLASS
  1
TABLESTYLE
  2
AcDbTableStyle
  3
ObjectDBX Classes
 90
     4095
 91
        1
280
     0
281
     0
  0
CLASS
  1
MLEADERSTYLE
  2
AcDbMLeaderStyle
  3
ACDB_MLEADERSTYLE_CLASS
 90
     4095
 91
        1
280
     0
281
     0
  0
CLASS
  1
ACDBSECTIONVIEWSTYLE
  2
AcDbSectionViewStyle
  3
ObjectDBX Classes
 90
     1025
 91
        1
280
     0
281
     0
  0
CLASS
  1
ACDBDETAILVIEWSTYLE
  2
AcDbDetailViewStyle
  3
ObjectDBX Classes
 90
     1025
 91
        1
280
     0
281
     0
  0
CLASS
  1
DICTIONARYVAR
  2
AcDbDictionaryVar
  3
ObjectDBX Classes
 90
        0
 91
        5
280
     0
281
     0
  0
CLASS
  1
CELLSTYLEMAP
  2
AcDbCellStyleMap
  3
ObjectDBX Classes
 90
     1152
 91
        1
280
     0
281
     0
  0
ENDSEC
  0
SECTION
  2
TABLES
  0
TABLE
  2
VPORT
  5
8
330
0
100
AcDbSymbolTable
 70
     1
1001
ACAD
1000
DbSaveVer
1071
      205
  0
VPORT
  5
57
330
8
100
AcDbSymbolTableRecord
100
AcDbViewportTableRecord
  2
*Active
 70
     0
 10
0.0
 20
0.0
 11
1.0
 21
1.0
 12
0.0
 22
0.0
 13
0.0
 23
0.0
 14
1.0
 24
1.0
 15
0.0
 25
0.0
 16
0.0
 26
0.0
 36
1.0
 17
87.42857142857143
 27
-113.1428571428571
 37
0.0
 40
230.8114285714286
 41
0.7727272727272727
 42
50.0
 43
0.0
 44
0.0
 50
0.0
 51
0.0
 71
     0
 72
   100
 73
     1
 74
     0
 75
     1
 76
     0
 77
     0
 78
     0
281
     0
 65
     1
110
0.0
120
0.0
130
0.0
111
1.0
121
0.0
131
0.0
112
0.0
122
1.0
132
0.0
 79
     0
146
0.0
 60
     3
 61
     5
292
     1
282
     1
141
0.0
142
0.0
 63
   250
421
  3355443
  0
ENDTAB
  0
TABLE
  2
LTYPE
  5
5
330
0
100
AcDbSymbolTable
 70
     1
  0
LTYPE
  5
5B
330
5
100
AcDbSymbolTableRecord
100
AcDbLinetypeTableRecord
  2
ByBlock
 70
     0
  3

 72
    65
 73
     0
 40
0.0
  0
LTYPE
  5
5C
330
5
100
AcDbSymbolTableRecord
100
AcDbLinetypeTableRecord
  2
ByLayer
 70
     0
  3

 72
    65
 73
     0
 40
0.0
  0
LTYPE
  5
5D
330
5
100
AcDbSymbolTableRecord
100
AcDbLinetypeTableRecord
  2
Continuous
 70
     0
  3
Solid line
 72
    65
 73
     0
 40
0.0
  0
ENDTAB
  0
TABLE
  2
LAYER
  5
2
330
0
100
AcDbSymbolTable
 70
    26
  0
LAYER
  5
54
330
2
100
AcDbSymbolTableRecord
100
AcDbLayerTableRecord
  2
0
 70
     0
 62
     7
  6
Continuous
370
    -3
390
F
347
21
348
0
  0
LAYER
  5
78
330
2
100
AcDbSymbolTableRecord
100
AcDbLayerTableRecord
  2
Background
 70
     4
 62
     7
  6
Continuous
370
     0
390
F
347
21
348
0
  0
LAYER
  5
79
330
2
100
AcDbSymbolTableRecord
100
AcDbLayerTableRecord
  2
Title-path
 70
     5
 62
     7
  6
Continuous
370
     0
390
F
347
21
348
0
  0
LAYER
  5
7A
330
2
100
AcDbSymbolTableRecord
100
AcDbLayerTableRecord
  2
Title-font
 70
     5
 62
     7
  6
Continuous
370
     0
390
F
347
21
348
0
  0
LAYER
  5
7B
330
2
100
AcDbSymbolTableRecord
100
AcDbLayerTableRecord
  2
Panel-path
 70
     5
 62
     7
  6
Continuous
370
     0
390
F
347
21
348
0
  0
LAYER
  5
7C
330
2
100
AcDbSymbolTableRecord
100
AcDbLayerTableRecord
  2
Panel-font
 70
     5
 62
     7
  6
Continuous
370
     0
390
F
347
21
348
0
  0
LAYER
  5
7D
330
2
100
AcDbSymbolTableRecord
100
AcDbLayerTableRecord
  2
EdgeTop
 70
     0
 62
     7
  6
Continuous
370
     0
390
F
347
21
348
0
  0
LAYER
  5
7F
330
2
100
AcDbSymbolTableRecord
100
AcDbLayerTableRecord
  2
Book
 70
     4
 62
     7
  6
Continuous
370
     0
390
F
347
21
348
0
  0
LAYER
  5
80
330
2
100
AcDbSymbolTableRecord
100
AcDbLayerTableRecord
  2
Cipher1
 70
     4
 62
     7
  6
Continuous
370
     0
390
F
347
21
348
0
  0
LAYER
  5
81
330
2
100
AcDbSymbolTableRecord
100
AcDbLayerTableRecord
  2
Cipher2
 70
     0
 62
     7
  6
Continuous
370
     0
390
F
347
21
348
0
  0
LAYER
  5
A6
330
2
100
AcDbSymbolTableRecord
100
AcDbLayerTableRecord
  2
Cipher3
 70
     4
 62
     7
  6
Continuous
370
     0
390
F
347
21
348
0
  0
LAYER
  5
A7
330
2
100
AcDbSymbolTableRecord
100
AcDbLayerTableRecord
  2
DocBrown
 70
     4
 62
     7
  6
Continuous
370
     0
390
F
347
21
348
0
  0
LAYER
  5
A8
330
2
100
AcDbSymbolTableRecord
100
AcDbLayerTableRecord
  2
VoidB-Flame
 70
     4
 62
     7
  6
Continuous
370
     0
390
F
347
21
348
0
  0
LAYER
  5
A9
330
2
100
AcDbSymbolTableRecord
100
AcDbLayerTableRecord
  2
Flames
 70
     4
 62
     7
  6
Continuous
370
     0
390
F
347
21
348
0
  0
LAYER
  5
AA
330
2
100
AcDbSymbolTableRecord
100
AcDbLayerTableRecord
  2
VoidB-Lightning
 70
     4
 62
     7
  6
Continuous
370
     0
390
F
347
21
348
0
  0
LAYER
  5
AB
330
2
100
AcDbSymbolTableRecord
100
AcDbLayerTableRecord
  2
Lightning
 70
     4
 62
     7
  6
Continuous
370
     0
390
F
347
21
348
0
  0
LAYER
  5
AC
330
2
100
AcDbSymbolTableRecord
100
AcDbLayerTableRecord
  2
CopperF-Delorean
 70
     4
 62
     7
  6
Continuous
370
     0
390
F
347
21
348
0
  0
LAYER
  5
AD
330
2
100
AcDbSymbolTableRecord
100
AcDbLayerTableRecord
  2
Delorean
 70
     4
 62
     7
  6
Continuous
370
     0
390
F
347
21
348
0
  0
LAYER
  5
AE
330
2
100
AcDbSymbolTableRecord
100
AcDbLayerTableRecord
  2
VoidB-Title
 70
     4
 62
     7
  6
Continuous
370
     0
390
F
347
21
348
0
  0
LAYER
  5
AF
330
2
100
AcDbSymbolTableRecord
100
AcDbLayerTableRecord
  2
Title-path-fill
 70
     4
 62
     7
  6
Continuous
370
     0
390
F
347
21
348
0
  0
LAYER
  5
B0
330
2
100
AcDbSymbolTableRecord
100
AcDbLayerTableRecord
  2
ClockTower
 70
     4
 62
     7
  6
Continuous
370
     0
390
F
347
21
348
0
  0
LAYER
  5
B1
330
2
100
AcDbSymbolTableRecord
100
AcDbLayerTableRecord
  2
Panel-path-fill
 70
     4
 62
     7
  6
Continuous
370
     0
390
F
347
21
348
0
  0
LAYER
  5
B2
330
2
100
AcDbSymbolTableRecord
100
AcDbLayerTableRecord
  2
VoidF-Delorean
 70
     4
 62
     7
  6
Continuous
370
     0
390
F
347
21
348
0
  0
LAYER
  5
B3
330
2
100
AcDbSymbolTableRecord
100
AcDbLayerTableRecord
  2
VoidF-Flame
 70
     4
 62
     7
  6
Continuous
370
     0
390
F
347
21
348
0
  0
LAYER
  5
B4
330
2
100
AcDbSymbolTableRecord
100
AcDbLayerTableRecord
  2
VoidF-Lightning
 70
     4
 62
     7
  6
Continuous
370
     0
390
F
347
21
348
0
  0
LAYER
  5
B5
330
2
100
AcDbSymbolTableRecord
100
AcDbLayerTableRecord
  2
VoidF-Title
 70
     4
 62
     7
  6
Continuous
370
     0
390
F
347
21
348
0
  0
ENDTAB
  0
TABLE
  2
STYLE
  5
3
330
0
100
AcDbSymbolTable
 70
     2
  0
STYLE
  5
55
330
3
100
AcDbSymbolTableRecord
100
AcDbTextStyleTableRecord
  2
Standard
 70
     0
 40
0.0
 41
1.0
 50
0.0
 71
     0
 42
0.2
  3
txt
  4

  0
STYLE
  5
5A
330
3
100
AcDbSymbolTableRecord
100
AcDbTextStyleTableRecord
  2
Annotative
 70
     0
 40
0.0
 41
1.0
 50
0.0
 71
     0
 42
0.2
  3
txt
  4

1001
AcadAnnotative
1000
AnnotativeData
1002
{
1070
     1
1070
     1
1002
}
  0
ENDTAB
  0
TABLE
  2
VIEW
  5
6
330
0
100
AcDbSymbolTable
 70
     0
  0
ENDTAB
  0
TABLE
  2
UCS
  5
7
330
0
100
AcDbSymbolTable
 70
     0
  0
ENDTAB
  0
TABLE
  2
APPID
  5
9
330
0
100
AcDbSymbolTable
 70
     2
  0
APPID
  5
56
330
9
100
AcDbSymbolTableRecord
100
AcDbRegAppTableRecord
  2
ACAD
 70
     0
  0
APPID
  5
5E
330
9
100
AcDbSymbolTableRecord
100
AcDbRegAppTableRecord
  2
AcadAnnotative
 70
     0
  0
ENDTAB
  0
TABLE
  2
DIMSTYLE
  5
A
330
0
100
AcDbSymbolTable
 70
     2
100
AcDbDimStyleTable
 71
     0
  0
DIMSTYLE
105
58
330
A
100
AcDbSymbolTableRecord
100
AcDbDimStyleTableRecord
  2
Standard
 70
     0
340
55
  0
DIMSTYLE
105
59
330
A
100
AcDbSymbolTableRecord
100
AcDbDimStyleTableRecord
  2
Annotative
 70
     0
340
55
1001
AcadAnnotative
1000
AnnotativeData
1002
{
1070
     1
1070
     1
1002
}
  0
ENDTAB
  0
TABLE
  2
BLOCK_RECORD
  5
1
330
0
100
AcDbSymbolTable
 70
     1
  0
BLOCK_RECORD
  5
70
330
1
100
AcDbSymbolTableRecord
100
AcDbBlockTableRecord
  2
*Model_Space
340
73
 70
     0
280
     1
281
     0
  0
BLOCK_RECORD
  5
6C
330
1
100
AcDbSymbolTableRecord
100
AcDbBlockTableRecord
  2
*Paper_Space
340
6F
 70
     0
280
     1
281
     0
  0
BLOCK_RECORD
  5
74
330
1
100
AcDbSymbolTableRecord
100
AcDbBlockTableRecord
  2
*Paper_Space0
340
77
 70
     0
280
     1
281
     0
  0
ENDTAB
  0
ENDSEC
  0
SECTION
  2
BLOCKS
  0
BLOCK
  5
71
330
70
100
AcDbEntity
  8
0
100
AcDbBlockBegin
  2
*Model_Space
 70
     0
 10
0.0
 20
0.0
 30
0.0
  3
*Model_Space
  1

  0
ENDBLK
  5
72
330
70
100
AcDbEntity
  8
0
100
AcDbBlockEnd
  0
BLOCK
  5
6D
330
6C
100
AcDbEntity
 67
     1
  8
0
100
AcDbBlockBegin
  2
*Paper_Space
 70
     0
 10
0.0
 20
0.0
 30
0.0
  3
*Paper_Space
  1

  0
ENDBLK
  5
6E
330
6C
100
AcDbEntity
 67
     1
  8
0
100
AcDbBlockEnd
  0
BLOCK
  5
75
330
74
100
AcDbEntity
 67
     1
  8
0
100
AcDbBlockBegin
  2
*Paper_Space0
 70
     0
 10
0.0
 20
0.0
 30
0.0
  3
*Paper_Space0
  1

  0
ENDBLK
  5
76
330
74
100
AcDbEntity
 67
     1
  8
0
100
AcDbBlockEnd
  0
ENDSEC
  0
SECTION
  2
ENTITIES
  0
LWPOLYLINE
  5
7E
330
70
100
AcDbEntity
  8
EdgeTop
 62
   250
420
  2301728
370
    35
100
AcDbPolyline
 90
        8
 70
     1
 43
0.0
 10
142.8571428571428
 20
-91.42857142857142
 10
142.8571428571428
 20
-34.28571428571429
 10
131.4285714285714
 20
-22.85714285714286
 10
17.14285714285714
 20
-22.85714285714286
 10
5.714285714285713
 20
-34.28571428571429
 10
5.714285714285713
 20
-91.42857142857142
 10
17.14285714285714
 20
-102.8571428571428
 10
131.4285714285714
 20
-102.8571428571428
  0
SPLINE
  5
82
330
70
100
AcDbEntity
  8
Cipher2
 62
   250
420
  2301728
370
    18
100
AcDbSpline
210
0.0
220
0.0
230
1.0
 70
     9
 71
     3
 72
    14
 73
    10
 74
     0
 42
0.0000000001
 43
0.0000000001
 40
0.0
 40
0.0
 40
0.0
 40
0.0
 40
1.0
 40
1.0
 40
1.0
 40
2.0
 40
2.0
 40
2.0
 40
3.0
 40
3.0
 40
3.0
 40
3.0
 10
140.7681361607143
 20
-90.10951450892857
 30
0.0
 10
140.7212611607143
 20
-90.01311383928571
 30
0.0
 10
140.6819196428571
 20
-89.96498325892856
 30
0.0
 10
140.6498325892857
 20
-89.96498325892856
 30
0.0
 10
140.6082589285714
 20
-89.96498325892856
 30
0.0
 10
140.5809151785714
 20
-90.01311383928571
 30
0.0
 10
140.5678013392857
 20
-90.10951450892857
 30
0.0
 10
140.5678013392857
 20
-90.10951450892857
 30
0.0
 10
140.7681361607143
 20
-90.10951450892857
 30
0.0
 10
140.7681361607143
 20
-90.10951450892857
 30
0.0
  0
SPLINE
  5
83
330
70
100
AcDbEntity
  8
Cipher2
 62
   250
420
  2301728
370
    18
100
AcDbSpline
210
0.0
220
0.0
230
1.0
 70
     9
 71
     3
 72
    35
 73
    31
 74
     0
 42
0.0000000001
 43
0.0000000001
 40
0.0
 40
0.0
 40
0.0
 40
0.0
 40
1.0
 40
1.0
 40
1.0
 40
2.0
 40
2.0
 40
2.0
 40
3.0
 40
3.0
 40
3.0
 40
4.0
 40
4.0
 40
4.0
 40
5.0
 40
5.0
 40
5.0
 40
6.0
 40
6.0
 40
6.0
 40
7.0
 40
7.0
 40
7.0
 40
8.0
 40
8.0
 40
8.0
 40
9.0
 40
9.0
 40
9.0
 40
10.0
 40
10.0
 40
10.0
 40
10.0
 10
140.1339285714285
 20
-89.43470982142857
 30
0.0
 10
140.1908482142857
 20
-89.55315290178571
 30
0.0
 10
140.2193080357142
 20
-89.66936383928571
 30
0.0
 10
140.2193080357142
 20
-89.78334263392858
 30
0.0
 10
140.2193080357142
 20
-89.83803013392856
 30
0.0
 10
140.2151227678571
 20
-89.88657924107142
 30
0.0
 10
140.20703125
 20
-89.92885044642857
 30
0.0
 10
140.20703125
 20
-89.92885044642857
 30
0.0
 10
140.6590401785714
 20
-89.92885044642857
 30
0.0
 10
140.6590401785714
 20
-89.92885044642857
 30
0.0
 10
140.7103794642857
 20
-89.92885044642857
 30
0.0
 10
140.7491629464285
 20
-89.95689174107143
 30
0.0
 10
140.7751116071428
 20
-90.01283482142858
 30
0.0
 10
140.7751116071428
 20
-90.01283482142858
 30
0.0
 10
140.7868303571428
 20
-90.03920200892856
 30
0.0
 10
140.7868303571428
 20
-90.03920200892856
 30
0.0
 10
140.8122209821428
 20
-90.09458705357143
 30
0.0
 10
140.837890625
 20
-90.12220982142856
 30
0.0
 10
140.8638392857143
 20
-90.12220982142856
 30
0.0
 10
140.896484375
 20
-90.12220982142856
 30
0.0
 10
140.9252232142857
 20
-90.08649553571428
 30
0.0
 10
140.9506138392857
 20
-90.01534598214284
 30
0.0
 10
140.9760044642857
 20
-89.94391741071428
 30
0.0
 10
140.9888392857143
 20
-89.8636997767857
 30
0.0
 10
140.9888392857143
 20
-89.77455357142856
 30
0.0
 10
140.9888392857143
 20
-89.64955357142857
 30
0.0
 10
140.9534040178571
 20
-89.53627232142856
 30
0.0
 10
140.8822544642857
 20
-89.43470982142857
 30
0.0
 10
140.8822544642857
 20
-89.43470982142857
 30
0.0
 10
140.1339285714285
 20
-89.43470982142857
 30
0.0
 10
140.1339285714285
 20
-89.43470982142857
 30
0.0
  0
SPLINE
  5
84
330
70
100
AcDbEntity
  8
Cipher2
 62
   250
420
  2301728
370
    18
100
AcDbSpline
210
0.0
220
0.0
230
1.0
 70
     9
 71
     3
 72
    23
 73
    19
 74
     0
 42
0.0000000001
 43
0.0000000001
 40
0.0
 40
0.0
 40
0.0
 40
0.0
 40
1.0
 40
1.0
 40
1.0
 40
2.0
 40
2.0
 40
2.0
 40
3.0
 40
3.0
 40
3.0
 40
4.0
 40
4.0
 40
4.0
 40
5.0
 40
5.0
 40
5.0
 40
6.0
 40
6.0
 40
6.0
 40
6.0
 10
140.6556919642857
 20
-90.62611607142857
 30
0.0
 10
140.5569196428571
 20
-90.50795200892856
 30
0.0
 10
140.5072544642857
 20
-90.37388392857144
 30
0.0
 10
140.5072544642857
 20
-90.2240513392857
 30
0.0
 10
140.5072544642857
 20
-90.13574218749999
 30
0.0
 10
140.5242745535714
 20
-90.05329241071427
 30
0.0
 10
140.5580357142857
 20
-89.97670200892857
 30
0.0
 10
140.5580357142857
 20
-89.97670200892857
 30
0.0
 10
139.9545200892857
 20
-89.97670200892857
 30
0.0
 10
139.9545200892857
 20
-89.97670200892857
 30
0.0
 10
139.8088727678571
 20
-89.97670200892857
 30
0.0
 10
139.7357700892857
 20
-90.06110491071428
 30
0.0
 10
139.7357700892857
 20
-90.2299107142857
 30
0.0
 10
139.7357700892857
 20
-90.36481584821428
 30
0.0
 10
139.7940848214285
 20
-90.49693080357142
 30
0.0
 10
139.9109933035714
 20
-90.62611607142857
 30
0.0
 10
139.9109933035714
 20
-90.62611607142857
 30
0.0
 10
140.6556919642857
 20
-90.62611607142857
 30
0.0
 10
140.6556919642857
 20
-90.62611607142857
 30
0.0
  0
SPLINE
  5
85
330
70
100
AcDbEntity
  8
Cipher2
 62
   250
420
  2301728
370
    18
100
AcDbSpline
210
0.0
220
0.0
230
1.0
 70
    11
 71
     3
 72
    62
 73
    58
 74
     0
 42
0.0000000001
 43
0.0000000001
 40
0.0
 40
0.0
 40
0.0
 40
0.0
 40
1.0
 40
1.0
 40
1.0
 40
2.0
 40
2.0
 40
2.0
 40
3.0
 40
3.0
 40
3.0
 40
4.0
 40
4.0
 40
4.0
 40
5.0
 40
5.0
 40
5.0
 40
6.0
 40
6.0
 40
6.0
 40
7.0
 40
7.0
 40
7.0
 40
8.0
 40
8.0
 40
8.0
 40
9.0
 40
9.0
 40
9.0
 40
10.0
 40
10.0
 40
10.0
 40
11.0
 40
11.0
 40
11.0
 40
12.0
 40
12.0
 40
12.0
 40
13.0
 40
13.0
 40
13.0
 40
14.0
 40
14.0
 40
14.0
 40
15.0
 40
15.0
 40
15.0
 40
16.0
 40
16.0
 40
16.0
 40
17.0
 40
17.0
 40
17.0
 40
18.0
 40
18.0
 40
18.0
 40
19.0
 40
19.0
 40
19.0
 40
19.0
 10
141.3384486607142
 20
-90.72279575892856
 30
0.0
 10
141.3384486607142
 20
-90.72279575892856
 30
0.0
 10
139.7084263392857
 20
-90.72279575892856
 30
0.0
 10
139.7084263392857
 20
-90.72279575892856
 30
0.0
 10
139.6941964285714
 20
-90.73967633928571
 30
0.0
 10
139.6771763392857
 20
-90.74818638392857
 30
0.0
 10
139.6576450892857
 20
-90.74818638392857
 30
0.0
 10
139.6135602678571
 20
-90.74818638392857
 30
0.0
 10
139.5912388392857
 20
-90.72433035714285
 30
0.0
 10
139.5912388392857
 20
-90.67633928571428
 30
0.0
 10
139.5912388392857
 20
-90.62723214285714
 30
0.0
 10
139.6135602678571
 20
-90.60267857142857
 30
0.0
 10
139.6576450892857
 20
-90.60267857142857
 30
0.0
 10
139.6752232142857
 20
-90.60267857142857
 30
0.0
 10
139.6922433035714
 20
-90.61049107142856
 30
0.0
 10
139.7084263392857
 20
-90.62611607142857
 30
0.0
 10
139.7084263392857
 20
-90.62611607142857
 30
0.0
 10
139.8482142857143
 20
-90.62611607142857
 30
0.0
 10
139.8482142857143
 20
-90.62611607142857
 30
0.0
 10
139.7413504464285
 20
-90.50279017857143
 30
0.0
 10
139.6880580357143
 20
-90.37067522321427
 30
0.0
 10
139.6880580357143
 20
-90.22977120535713
 30
0.0
 10
139.6880580357143
 20
-90.02915736607143
 30
0.0
 10
139.7745535714285
 20
-89.92885044642857
 30
0.0
 10
139.9481026785714
 20
-89.92885044642857
 30
0.0
 10
139.9481026785714
 20
-89.92885044642857
 30
0.0
 10
140.1593191964285
 20
-89.92885044642857
 30
0.0
 10
140.1593191964285
 20
-89.92885044642857
 30
0.0
 10
140.1936383928571
 20
-89.72446986607144
 30
0.0
 10
140.154296875
 20
-89.54380580357144
 30
0.0
 10
140.041015625
 20
-89.38685825892857
 30
0.0
 10
140.041015625
 20
-89.38685825892857
 30
0.0
 10
140.9037388392857
 20
-89.38685825892857
 30
0.0
 10
140.9037388392857
 20
-89.38685825892857
 30
0.0
 10
140.9924665178571
 20
-89.49944196428571
 30
0.0
 10
141.0365513392857
 20
-89.63071986607143
 30
0.0
 10
141.0365513392857
 20
-89.78041294642856
 30
0.0
 10
141.0365513392857
 20
-89.88267299107143
 30
0.0
 10
141.0217633928571
 20
-89.97098214285713
 30
0.0
 10
140.9916294642857
 20
-90.04547991071428
 30
0.0
 10
140.9617745535714
 20
-90.12011718750001
 30
0.0
 10
140.9263392857142
 20
-90.15736607142857
 30
0.0
 10
140.8853236607143
 20
-90.15736607142857
 30
0.0
 10
140.8853236607143
 20
-90.15736607142857
 30
0.0
 10
140.5611049107142
 20
-90.15736607142857
 30
0.0
 10
140.5611049107142
 20
-90.15736607142857
 30
0.0
 10
140.5571986607142
 20
-90.18973214285713
 30
0.0
 10
140.5552455357143
 20
-90.21316964285714
 30
0.0
 10
140.5552455357143
 20
-90.22739955357144
 30
0.0
 10
140.5552455357143
 20
-90.37653459821427
 30
0.0
 10
140.6116071428571
 20
-90.50948660714285
 30
0.0
 10
140.7240513392857
 20
-90.62611607142857
 30
0.0
 10
140.7240513392857
 20
-90.62611607142857
 30
0.0
 10
141.3384486607142
 20
-90.62611607142857
 30
0.0
 10
141.3384486607142
 20
-90.62611607142857
 30
0.0
 10
141.3384486607142
 20
-90.62611607142857
 30
0.0
 10
141.3384486607142
 20
-90.72279575892856
 30
0.0
 10
141.3384486607142
 20
-90.72279575892856
 30
0.0
  0
SPLINE
  5
86
330
70
100
AcDbEntity
  8
Cipher2
 62
   250
420
  2301728
370
    18
100
AcDbSpline
210
0.0
220
0.0
230
1.0
 70
    11
 71
     3
 72
    29
 73
    25
 74
     0
 42
0.0000000001
 43
0.0000000001
 40
0.0
 40
0.0
 40
0.0
 40
0.0
 40
1.0
 40
1.0
 40
1.0
 40
2.0
 40
2.0
 40
2.0
 40
3.0
 40
3.0
 40
3.0
 40
4.0
 40
4.0
 40
4.0
 40
5.0
 40
5.0
 40
5.0
 40
6.0
 40
6.0
 40
6.0
 40
7.0
 40
7.0
 40
7.0
 40
8.0
 40
8.0
 40
8.0
 40
8.0
 10
140.6997767857142
 20
-88.31640625
 30
0.0
 10
140.6997767857142
 20
-88.31640625
 30
0.0
 10
140.6997767857142
 20
-88.46093749999999
 30
0.0
 10
140.6997767857142
 20
-88.46093749999999
 30
0.0
 10
140.6997767857142
 20
-88.50069754464284
 30
0.0
 10
140.7140066964285
 20
-88.53473772321427
 30
0.0
 10
140.7424665178571
 20
-88.56291852678571
 30
0.0
 10
140.7712053571428
 20
-88.59137834821428
 30
0.0
 10
140.8046875
 20
-88.60546875
 30
0.0
 10
140.84375
 20
-88.60546875
 30
0.0
 10
140.8828125
 20
-88.60546875
 30
0.0
 10
140.9162946428571
 20
-88.59137834821428
 30
0.0
 10
140.9450334821428
 20
-88.56291852678571
 30
0.0
 10
140.9734933035714
 20
-88.53473772321427
 30
0.0
 10
140.9877232142857
 20
-88.50069754464284
 30
0.0
 10
140.9877232142857
 20
-88.46093749999999
 30
0.0
 10
140.9877232142857
 20
-88.42117745535714
 30
0.0
 10
140.9734933035714
 20
-88.38713727678571
 30
0.0
 10
140.9450334821428
 20
-88.35895647321427
 30
0.0
 10
140.9162946428571
 20
-88.3304966517857
 30
0.0
 10
140.8828125
 20
-88.31640625
 30
0.0
 10
140.84375
 20
-88.31640625
 30
0.0
 10
140.84375
 20
-88.31640625
 30
0.0
 10
140.6997767857142
 20
-88.31640625
 30
0.0
 10
140.6997767857142
 20
-88.31640625
 30
0.0
  0
SPLINE
  5
87
330
70
100
AcDbEntity
  8
Cipher2
 62
   250
420
  2301728
370
    18
100
AcDbSpline
210
0.0
220
0.0
230
1.0
 70
    11
 71
     3
 72
    29
 73
    25
 74
     0
 42
0.0000000001
 43
0.0000000001
 40
0.0
 40
0.0
 40
0.0
 40
0.0
 40
1.0
 40
1.0
 40
1.0
 40
2.0
 40
2.0
 40
2.0
 40
3.0
 40
3.0
 40
3.0
 40
4.0
 40
4.0
 40
4.0
 40
5.0
 40
5.0
 40
5.0
 40
6.0
 40
6.0
 40
6.0
 40
7.0
 40
7.0
 40
7.0
 40
8.0
 40
8.0
 40
8.0
 40
8.0
 10
140.6997767857142
 20
-87.73828124999999
 30
0.0
 10
140.6997767857142
 20
-87.73828124999999
 30
0.0
 10
140.84375
 20
-87.73828124999999
 30
0.0
 10
140.84375
 20
-87.73828124999999
 30
0.0
 10
140.8833705357142
 20
-87.73828124999999
 30
0.0
 10
140.9171316964285
 20
-87.72391183035713
 30
0.0
 10
140.9455915178571
 20
-87.6953125
 30
0.0
 10
140.9737723214285
 20
-87.66671316964284
 30
0.0
 10
140.9877232142857
 20
-87.6328125
 30
0.0
 10
140.9877232142857
 20
-87.59375
 30
0.0
 10
140.9877232142857
 20
-87.5546875
 30
0.0
 10
140.9737723214285
 20
-87.52078683035714
 30
0.0
 10
140.9455915178571
 20
-87.4921875
 30
0.0
 10
140.9171316964285
 20
-87.46358816964285
 30
0.0
 10
140.8833705357142
 20
-87.44921875000001
 30
0.0
 10
140.84375
 20
-87.44921875000001
 30
0.0
 10
140.8041294642857
 20
-87.44921875000001
 30
0.0
 10
140.7703683035714
 20
-87.46330915178571
 30
0.0
 10
140.7421875
 20
-87.49176897321428
 30
0.0
 10
140.7137276785714
 20
-87.5199497767857
 30
0.0
 10
140.6997767857142
 20
-87.55398995535713
 30
0.0
 10
140.6997767857142
 20
-87.59375
 30
0.0
 10
140.6997767857142
 20
-87.59375
 30
0.0
 10
140.6997767857142
 20
-87.73828124999999
 30
0.0
 10
140.6997767857142
 20
-87.73828124999999
 30
0.0
  0
SPLINE
  5
88
330
70
100
AcDbEntity
  8
Cipher2
 62
   250
420
  2301728
370
    18
100
AcDbSpline
210
0.0
220
0.0
230
1.0
 70
    11
 71
     3
 72
    17
 73
    13
 74
     0
 42
0.0000000001
 43
0.0000000001
 40
0.0
 40
0.0
 40
0.0
 40
0.0
 40
1.0
 40
1.0
 40
1.0
 40
2.0
 40
2.0
 40
2.0
 40
3.0
 40
3.0
 40
3.0
 40
4.0
 40
4.0
 40
4.0
 40
4.0
 10
140.5541294642857
 20
-87.8828125
 30
0.0
 10
140.5541294642857
 20
-87.8828125
 30
0.0
 10
140.2670200892857
 20
-87.8828125
 30
0.0
 10
140.2670200892857
 20
-87.8828125
 30
0.0
 10
140.2670200892857
 20
-87.8828125
 30
0.0
 10
140.2670200892857
 20
-88.17187500000001
 30
0.0
 10
140.2670200892857
 20
-88.17187500000001
 30
0.0
 10
140.2670200892857
 20
-88.17187500000001
 30
0.0
 10
140.5541294642857
 20
-88.17187500000001
 30
0.0
 10
140.5541294642857
 20
-88.17187500000001
 30
0.0
 10
140.5541294642857
 20
-88.17187500000001
 30
0.0
 10
140.5541294642857
 20
-87.8828125
 30
0.0
 10
140.5541294642857
 20
-87.8828125
 30
0.0
  0
SPLINE
  5
89
330
70
100
AcDbEntity
  8
Cipher2
 62
   250
420
  2301728
370
    18
100
AcDbSpline
210
0.0
220
0.0
230
1.0
 70
    11
 71
     3
 72
    29
 73
    25
 74
     0
 42
0.0000000001
 43
0.0000000001
 40
0.0
 40
0.0
 40
0.0
 40
0.0
 40
1.0
 40
1.0
 40
1.0
 40
2.0
 40
2.0
 40
2.0
 40
3.0
 40
3.0
 40
3.0
 40
4.0
 40
4.0
 40
4.0
 40
5.0
 40
5.0
 40
5.0
 40
6.0
 40
6.0
 40
6.0
 40
7.0
 40
7.0
 40
7.0
 40
8.0
 40
8.0
 40
8.0
 40
8.0
 10
140.1216517857142
 20
-88.31640625
 30
0.0
 10
140.1216517857142
 20
-88.31640625
 30
0.0
 10
139.9776785714285
 20
-88.31640625
 30
0.0
 10
139.9776785714285
 20
-88.31640625
 30
0.0
 10
139.9386160714285
 20
-88.31640625
 30
0.0
 10
139.9048549107142
 20
-88.33077566964284
 30
0.0
 10
139.8763950892857
 20
-88.359375
 30
0.0
 10
139.84765625
 20
-88.38797433035713
 30
0.0
 10
139.8334263392857
 20
-88.42187499999999
 30
0.0
 10
139.8334263392857
 20
-88.46093749999999
 30
0.0
 10
139.8334263392857
 20
-88.49930245535714
 30
0.0
 10
139.8473772321428
 20
-88.53306361607144
 30
0.0
 10
139.8752790178571
 20
-88.56208147321428
 30
0.0
 10
139.9031808035714
 20
-88.59095982142857
 30
0.0
 10
139.9372209821428
 20
-88.60546875
 30
0.0
 10
139.9776785714285
 20
-88.60546875
 30
0.0
 10
140.0170200892857
 20
-88.60546875
 30
0.0
 10
140.0510602678571
 20
-88.59137834821428
 30
0.0
 10
140.0792410714285
 20
-88.56291852678571
 30
0.0
 10
140.107421875
 20
-88.53473772321427
 30
0.0
 10
140.1216517857142
 20
-88.50069754464284
 30
0.0
 10
140.1216517857142
 20
-88.46093749999999
 30
0.0
 10
140.1216517857142
 20
-88.46093749999999
 30
0.0
 10
140.1216517857142
 20
-88.31640625
 30
0.0
 10
140.1216517857142
 20
-88.31640625
 30
0.0
  0
SPLINE
  5
8A
330
70
100
AcDbEntity
  8
Cipher2
 62
   250
420
  2301728
370
    18
100
AcDbSpline
210
0.0
220
0.0
230
1.0
 70
    11
 71
     3
 72
    29
 73
    25
 74
     0
 42
0.0000000001
 43
0.0000000001
 40
0.0
 40
0.0
 40
0.0
 40
0.0
 40
1.0
 40
1.0
 40
1.0
 40
2.0
 40
2.0
 40
2.0
 40
3.0
 40
3.0
 40
3.0
 40
4.0
 40
4.0
 40
4.0
 40
5.0
 40
5.0
 40
5.0
 40
6.0
 40
6.0
 40
6.0
 40
7.0
 40
7.0
 40
7.0
 40
8.0
 40
8.0
 40
8.0
 40
8.0
 10
140.1216517857142
 20
-87.73828124999999
 30
0.0
 10
140.1216517857142
 20
-87.73828124999999
 30
0.0
 10
140.1216517857142
 20
-87.59375
 30
0.0
 10
140.1216517857142
 20
-87.59375
 30
0.0
 10
140.1216517857142
 20
-87.55398995535713
 30
0.0
 10
140.107421875
 20
-87.5199497767857
 30
0.0
 10
140.0786830357143
 20
-87.49176897321428
 30
0.0
 10
140.0502232142857
 20
-87.46330915178571
 30
0.0
 10
140.0164620535714
 20
-87.44921875000001
 30
0.0
 10
139.9776785714285
 20
-87.44921875000001
 30
0.0
 10
139.9386160714285
 20
-87.44921875000001
 30
0.0
 10
139.9048549107142
 20
-87.46330915178571
 30
0.0
 10
139.8763950892857
 20
-87.49176897321428
 30
0.0
 10
139.84765625
 20
-87.5199497767857
 30
0.0
 10
139.8334263392857
 20
-87.55398995535713
 30
0.0
 10
139.8334263392857
 20
-87.59375
 30
0.0
 10
139.8334263392857
 20
-87.63351004464285
 30
0.0
 10
139.84765625
 20
-87.66755022321428
 30
0.0
 10
139.8758370535714
 20
-87.6957310267857
 30
0.0
 10
139.9040178571428
 20
-87.72419084821427
 30
0.0
 10
139.9380580357143
 20
-87.73828124999999
 30
0.0
 10
139.9776785714285
 20
-87.73828124999999
 30
0.0
 10
139.9776785714285
 20
-87.73828124999999
 30
0.0
 10
140.1216517857142
 20
-87.73828124999999
 30
0.0
 10
140.1216517857142
 20
-87.73828124999999
 30
0.0
  0
SPLINE
  5
8B
330
70
100
AcDbEntity
  8
Cipher2
 62
   250
420
  2301728
370
    18
100
AcDbSpline
210
0.0
220
0.0
230
1.0
 70
    11
 71
     3
 72
   113
 73
   109
 74
     0
 42
0.0000000001
 43
0.0000000001
 40
0.0
 40
0.0
 40
0.0
 40
0.0
 40
1.0
 40
1.0
 40
1.0
 40
2.0
 40
2.0
 40
2.0
 40
3.0
 40
3.0
 40
3.0
 40
4.0
 40
4.0
 40
4.0
 40
5.0
 40
5.0
 40
5.0
 40
6.0
 40
6.0
 40
6.0
 40
7.0
 40
7.0
 40
7.0
 40
8.0
 40
8.0
 40
8.0
 40
9.0
 40
9.0
 40
9.0
 40
10.0
 40
10.0
 40
10.0
 40
11.0
 40
11.0
 40
11.0
 40
12.0
 40
12.0
 40
12.0
 40
13.0
 40
13.0
 40
13.0
 40
14.0
 40
14.0
 40
14.0
 40
15.0
 40
15.0
 40
15.0
 40
16.0
 40
16.0
 40
16.0
 40
17.0
 40
17.0
 40
17.0
 40
18.0
 40
18.0
 40
18.0
 40
19.0
 40
19.0
 40
19.0
 40
20.0
 40
20.0
 40
20.0
 40
21.0
 40
21.0
 40
21.0
 40
22.0
 40
22.0
 40
22.0
 40
23.0
 40
23.0
 40
23.0
 40
24.0
 40
24.0
 40
24.0
 40
25.0
 40
25.0
 40
25.0
 40
26.0
 40
26.0
 40
26.0
 40
27.0
 40
27.0
 40
27.0
 40
28.0
 40
28.0
 40
28.0
 40
29.0
 40
29.0
 40
29.0
 40
30.0
 40
30.0
 40
30.0
 40
31.0
 40
31.0
 40
31.0
 40
32.0
 40
32.0
 40
32.0
 40
33.0
 40
33.0
 40
33.0
 40
34.0
 40
34.0
 40
34.0
 40
35.0
 40
35.0
 40
35.0
 40
36.0
 40
36.0
 40
36.0
 40
36.0
 10
140.5541294642857
 20
-87.73828124999999
 30
0.0
 10
140.5541294642857
 20
-87.73828124999999
 30
0.0
 10
140.5541294642857
 20
-87.59375
 30
0.0
 10
140.5541294642857
 20
-87.59375
 30
0.0
 10
140.5541294642857
 20
-87.51436941964284
 30
0.0
 10
140.5828683035714
 20
-87.4462890625
 30
0.0
 10
140.6397879464285
 20
-87.3896484375
 30
0.0
 10
140.6969866071428
 20
-87.33300781249999
 30
0.0
 10
140.7647879464285
 20
-87.3046875
 30
0.0
 10
140.84375
 20
-87.3046875
 30
0.0
 10
140.9227120535714
 20
-87.3046875
 30
0.0
 10
140.9905133928571
 20
-87.33300781249999
 30
0.0
 10
141.0477120535714
 20
-87.3896484375
 30
0.0
 10
141.1049107142857
 20
-87.4462890625
 30
0.0
 10
141.1333705357143
 20
-87.51436941964284
 30
0.0
 10
141.1333705357143
 20
-87.59375
 30
0.0
 10
141.1333705357143
 20
-87.67257254464285
 30
0.0
 10
141.1049107142857
 20
-87.74037388392857
 30
0.0
 10
141.0482700892857
 20
-87.7972935267857
 30
0.0
 10
140.9916294642857
 20
-87.85435267857144
 30
0.0
 10
140.9235491071428
 20
-87.8828125
 30
0.0
 10
140.8443080357143
 20
-87.8828125
 30
0.0
 10
140.8443080357143
 20
-87.8828125
 30
0.0
 10
140.6997767857142
 20
-87.8828125
 30
0.0
 10
140.6997767857142
 20
-87.8828125
 30
0.0
 10
140.6997767857142
 20
-87.8828125
 30
0.0
 10
140.6997767857142
 20
-88.17187500000001
 30
0.0
 10
140.6997767857142
 20
-88.17187500000001
 30
0.0
 10
140.6997767857142
 20
-88.17187500000001
 30
0.0
 10
140.8443080357143
 20
-88.17187500000001
 30
0.0
 10
140.8443080357143
 20
-88.17187500000001
 30
0.0
 10
140.9224330357143
 20
-88.17187500000001
 30
0.0
 10
140.9899553571428
 20
-88.2001953125
 30
0.0
 10
141.0474330357143
 20
-88.2568359375
 30
0.0
 10
141.1046316964285
 20
-88.31347656250001
 30
0.0
 10
141.1333705357143
 20
-88.38155691964285
 30
0.0
 10
141.1333705357143
 20
-88.46093749999999
 30
0.0
 10
141.1333705357143
 20
-88.53906249999999
 30
0.0
 10
141.1051897321428
 20
-88.60672433035714
 30
0.0
 10
141.048828125
 20
-88.6640625
 30
0.0
 10
140.9921875
 20
-88.72140066964284
 30
0.0
 10
140.923828125
 20
-88.75
 30
0.0
 10
140.84375
 20
-88.75
 30
0.0
 10
140.7642299107143
 20
-88.75
 30
0.0
 10
140.6961495535714
 20
-88.72154017857143
 30
0.0
 10
140.6392299107142
 20
-88.66448102678571
 30
0.0
 10
140.5825892857142
 20
-88.60756138392856
 30
0.0
 10
140.5541294642857
 20
-88.53976004464284
 30
0.0
 10
140.5541294642857
 20
-88.46093749999999
 30
0.0
 10
140.5541294642857
 20
-88.46093749999999
 30
0.0
 10
140.5541294642857
 20
-88.31640625
 30
0.0
 10
140.5541294642857
 20
-88.31640625
 30
0.0
 10
140.5541294642857
 20
-88.31640625
 30
0.0
 10
140.2670200892857
 20
-88.31640625
 30
0.0
 10
140.2670200892857
 20
-88.31640625
 30
0.0
 10
140.2670200892857
 20
-88.31640625
 30
0.0
 10
140.2670200892857
 20
-88.46093749999999
 30
0.0
 10
140.2670200892857
 20
-88.46093749999999
 30
0.0
 10
140.2670200892857
 20
-88.53976004464284
 30
0.0
 10
140.2388392857143
 20
-88.60756138392856
 30
0.0
 10
140.1819196428571
 20
-88.66448102678571
 30
0.0
 10
140.1252790178571
 20
-88.72154017857143
 30
0.0
 10
140.0571986607143
 20
-88.75
 30
0.0
 10
139.9776785714285
 20
-88.75
 30
0.0
 10
139.8978794642857
 20
-88.75
 30
0.0
 10
139.8297991071428
 20
-88.72154017857143
 30
0.0
 10
139.7731584821428
 20
-88.66448102678571
 30
0.0
 10
139.7162388392857
 20
-88.60756138392856
 30
0.0
 10
139.6880580357143
 20
-88.53976004464284
 30
0.0
 10
139.6880580357143
 20
-88.46093749999999
 30
0.0
 10
139.6880580357143
 20
-88.38211495535714
 30
0.0
 10
139.7162388392857
 20
-88.31431361607142
 30
0.0
 10
139.7728794642857
 20
-88.25739397321427
 30
0.0
 10
139.8295200892857
 20
-88.20033482142857
 30
0.0
 10
139.8976004464285
 20
-88.17187500000001
 30
0.0
 10
139.9771205357142
 20
-88.17187500000001
 30
0.0
 10
139.9771205357142
 20
-88.17187500000001
 30
0.0
 10
140.1216517857142
 20
-88.17187500000001
 30
0.0
 10
140.1216517857142
 20
-88.17187500000001
 30
0.0
 10
140.1216517857142
 20
-88.17187500000001
 30
0.0
 10
140.1216517857142
 20
-87.8828125
 30
0.0
 10
140.1216517857142
 20
-87.8828125
 30
0.0
 10
140.1216517857142
 20
-87.8828125
 30
0.0
 10
139.9771205357142
 20
-87.8828125
 30
0.0
 10
139.9771205357142
 20
-87.8828125
 30
0.0
 10
139.8976004464285
 20
-87.8828125
 30
0.0
 10
139.8295200892857
 20
-87.85435267857144
 30
0.0
 10
139.7728794642857
 20
-87.7972935267857
 30
0.0
 10
139.7162388392857
 20
-87.74037388392857
 30
0.0
 10
139.6880580357143
 20
-87.67257254464285
 30
0.0
 10
139.6880580357143
 20
-87.59375
 30
0.0
 10
139.6880580357143
 20
-87.51492745535713
 30
0.0
 10
139.7162388392857
 20
-87.44712611607143
 30
0.0
 10
139.7731584821428
 20
-87.39020647321428
 30
0.0
 10
139.8297991071428
 20
-87.33314732142856
 30
0.0
 10
139.8978794642857
 20
-87.3046875
 30
0.0
 10
139.9776785714285
 20
-87.3046875
 30
0.0
 10
140.0563616071428
 20
-87.3046875
 30
0.0
 10
140.1244419642857
 20
-87.33300781249999
 30
0.0
 10
140.181640625
 20
-87.3896484375
 30
0.0
 10
140.2385602678571
 20
-87.4462890625
 30
0.0
 10
140.2670200892857
 20
-87.51436941964284
 30
0.0
 10
140.2670200892857
 20
-87.59375
 30
0.0
 10
140.2670200892857
 20
-87.59375
 30
0.0
 10
140.2670200892857
 20
-87.73828124999999
 30
0.0
 10
140.2670200892857
 20
-87.73828124999999
 30
0.0
 10
140.2670200892857
 20
-87.73828124999999
 30
0.0
 10
140.5541294642857
 20
-87.73828124999999
 30
0.0
 10
140.5541294642857
 20
-87.73828124999999
 30
0.0
  0
SPLINE
  5
8C
330
70
100
AcDbEntity
  8
Cipher2
 62
   250
420
  2301728
370
    18
100
AcDbSpline
210
0.0
220
0.0
230
1.0
 70
     9
 71
     3
 72
    29
 73
    25
 74
     0
 42
0.0000000001
 43
0.0000000001
 40
0.0
 40
0.0
 40
0.0
 40
0.0
 40
1.0
 40
1.0
 40
1.0
 40
2.0
 40
2.0
 40
2.0
 40
3.0
 40
3.0
 40
3.0
 40
4.0
 40
4.0
 40
4.0
 40
5.0
 40
5.0
 40
5.0
 40
6.0
 40
6.0
 40
6.0
 40
7.0
 40
7.0
 40
7.0
 40
8.0
 40
8.0
 40
8.0
 40
8.0
 10
140.375
 20
-86.57686941964284
 30
0.0
 10
140.5337611607142
 20
-86.57686941964284
 30
0.0
 10
140.6702008928571
 20
-86.5189732142857
 30
0.0
 10
140.7843191964285
 20
-86.40304129464285
 30
0.0
 10
140.8984375
 20
-86.28710937500001
 30
0.0
 10
140.9556361607142
 20
-86.14885602678571
 30
0.0
 10
140.9556361607142
 20
-85.98800223214285
 30
0.0
 10
140.9556361607142
 20
-85.82589285714284
 30
0.0
 10
140.8978794642857
 20
-85.68722098214285
 30
0.0
 10
140.7829241071428
 20
-85.57198660714284
 30
0.0
 10
140.6676897321428
 20
-85.45675223214285
 30
0.0
 10
140.5287388392857
 20
-85.39913504464285
 30
0.0
 10
140.3663504464285
 20
-85.39913504464285
 30
0.0
 10
140.2042410714285
 20
-85.39913504464285
 30
0.0
 10
140.0655691964285
 20
-85.45675223214285
 30
0.0
 10
139.9506138392857
 20
-85.57198660714284
 30
0.0
 10
139.8353794642857
 20
-85.68722098214285
 30
0.0
 10
139.7779017857142
 20
-85.82589285714284
 30
0.0
 10
139.7779017857142
 20
-85.98800223214285
 30
0.0
 10
139.7779017857142
 20
-86.1527622767857
 30
0.0
 10
139.8356584821428
 20
-86.29199218750001
 30
0.0
 10
139.9514508928571
 20
-86.40597098214284
 30
0.0
 10
140.0672433035714
 20
-86.51994977678571
 30
0.0
 10
140.2084263392857
 20
-86.57686941964284
 30
0.0
 10
140.375
 20
-86.57686941964284
 30
0.0
  0
SPLINE
  5
8D
330
70
100
AcDbEntity
  8
Cipher2
 62
   250
420
  2301728
370
    18
100
AcDbSpline
210
0.0
220
0.0
230
1.0
 70
     9
 71
     3
 72
    41
 73
    37
 74
     0
 42
0.0000000001
 43
0.0000000001
 40
0.0
 40
0.0
 40
0.0
 40
0.0
 40
1.0
 40
1.0
 40
1.0
 40
2.0
 40
2.0
 40
2.0
 40
3.0
 40
3.0
 40
3.0
 40
4.0
 40
4.0
 40
4.0
 40
5.0
 40
5.0
 40
5.0
 40
6.0
 40
6.0
 40
6.0
 40
7.0
 40
7.0
 40
7.0
 40
8.0
 40
8.0
 40
8.0
 40
9.0
 40
9.0
 40
9.0
 40
10.0
 40
10.0
 40
10.0
 40
11.0
 40
11.0
 40
11.0
 40
12.0
 40
12.0
 40
12.0
 40
12.0
 10
139.7396763392857
 20
-85.72823660714284
 30
0.0
 10
139.7396763392857
 20
-85.72823660714284
 30
0.0
 10
139.8256138392857
 20
-85.51925223214285
 30
0.0
 10
139.8256138392857
 20
-85.51925223214285
 30
0.0
 10
139.8783482142857
 20
-85.39229910714285
 30
0.0
 10
139.9620535714285
 20
-85.29059709821428
 30
0.0
 10
140.076171875
 20
-85.21414620535713
 30
0.0
 10
140.1905691964285
 20
-85.13755580357143
 30
0.0
 10
140.3161272321428
 20
-85.09933035714285
 30
0.0
 10
140.4536830357143
 20
-85.09933035714285
 30
0.0
 10
140.6417410714285
 20
-85.09933035714285
 30
0.0
 10
140.8021763392857
 20
-85.16573660714284
 30
0.0
 10
140.9347098214285
 20
-85.29854910714284
 30
0.0
 10
141.0669642857143
 20
-85.43136160714285
 30
0.0
 10
141.1333705357143
 20
-85.591796875
 30
0.0
 10
141.1333705357143
 20
-85.77999441964285
 30
0.0
 10
141.1333705357143
 20
-85.8685825892857
 30
0.0
 10
141.1160714285714
 20
-85.95479910714285
 30
0.0
 10
141.0814732142857
 20
-86.03878348214285
 30
0.0
 10
141.0814732142857
 20
-86.03878348214285
 30
0.0
 10
140.9946986607143
 20
-86.24776785714285
 30
0.0
 10
140.9946986607143
 20
-86.24776785714285
 30
0.0
 10
140.9425223214285
 20
-86.37472098214285
 30
0.0
 10
140.859375
 20
-86.47642299107143
 30
0.0
 10
140.7452566964285
 20
-86.55287388392856
 30
0.0
 10
140.630859375
 20
-86.62946428571428
 30
0.0
 10
140.5050223214285
 20
-86.66768973214285
 30
0.0
 10
140.3677455357142
 20
-86.66768973214285
 30
0.0
 10
140.1802455357143
 20
-86.66768973214285
 30
0.0
 10
140.0200892857142
 20
-86.60142299107143
 30
0.0
 10
139.8872767857143
 20
-86.46888950892856
 30
0.0
 10
139.7544642857142
 20
-86.33649553571428
 30
0.0
 10
139.6880580357143
 20
-86.17647879464284
 30
0.0
 10
139.6880580357143
 20
-85.98897879464285
 30
0.0
 10
139.6880580357143
 20
-85.90569196428571
 30
0.0
 10
139.7053571428571
 20
-85.81877790178571
 30
0.0
 10
139.7396763392857
 20
-85.72823660714284
 30
0.0
  0
SPLINE
  5
8E
330
70
100
AcDbEntity
  8
Cipher2
 62
   250
420
  2301728
370
    18
100
AcDbSpline
210
0.0
220
0.0
230
1.0
 70
     9
 71
     3
 72
    71
 73
    67
 74
     0
 42
0.0000000001
 43
0.0000000001
 40
0.0
 40
0.0
 40
0.0
 40
0.0
 40
1.0
 40
1.0
 40
1.0
 40
2.0
 40
2.0
 40
2.0
 40
3.0
 40
3.0
 40
3.0
 40
4.0
 40
4.0
 40
4.0
 40
5.0
 40
5.0
 40
5.0
 40
6.0
 40
6.0
 40
6.0
 40
7.0
 40
7.0
 40
7.0
 40
8.0
 40
8.0
 40
8.0
 40
9.0
 40
9.0
 40
9.0
 40
10.0
 40
10.0
 40
10.0
 40
11.0
 40
11.0
 40
11.0
 40
12.0
 40
12.0
 40
12.0
 40
13.0
 40
13.0
 40
13.0
 40
14.0
 40
14.0
 40
14.0
 40
15.0
 40
15.0
 40
15.0
 40
16.0
 40
16.0
 40
16.0
 40
17.0
 40
17.0
 40
17.0
 40
18.0
 40
18.0
 40
18.0
 40
19.0
 40
19.0
 40
19.0
 40
20.0
 40
20.0
 40
20.0
 40
21.0
 40
21.0
 40
21.0
 40
22.0
 40
22.0
 40
22.0
 40
22.0
 10
140.4341517857143
 20
-84.00055803571428
 30
0.0
 10
140.5532924107142
 20
-84.00055803571428
 30
0.0
 10
140.6791294642857
 20
-84.02804129464284
 30
0.0
 10
140.8116629464285
 20
-84.08314732142857
 30
0.0
 10
140.9439174107142
 20
-84.13811383928571
 30
0.0
 10
141.0633370535714
 20
-84.21219308035714
 30
0.0
 10
141.1693638392857
 20
-84.30524553571428
 30
0.0
 10
141.1693638392857
 20
-84.30524553571428
 30
0.0
 10
141.1693638392857
 20
-84.46247209821427
 30
0.0
 10
141.1693638392857
 20
-84.46247209821427
 30
0.0
 10
140.9455915178571
 20
-84.25027901785714
 30
0.0
 10
140.7003348214285
 20
-84.14411272321428
 30
0.0
 10
140.4341517857143
 20
-84.14411272321428
 30
0.0
 10
140.4341517857143
 20
-84.14411272321428
 30
0.0
 10
140.4341517857143
 20
-84.45172991071428
 30
0.0
 10
140.4341517857143
 20
-84.45172991071428
 30
0.0
 10
140.4341517857143
 20
-84.45172991071428
 30
0.0
 10
140.3256138392857
 20
-84.45172991071428
 30
0.0
 10
140.3256138392857
 20
-84.45172991071428
 30
0.0
 10
140.3256138392857
 20
-84.45172991071428
 30
0.0
 10
140.3256138392857
 20
-84.14411272321428
 30
0.0
 10
140.3256138392857
 20
-84.14411272321428
 30
0.0
 10
140.0945870535714
 20
-84.15708705357143
 30
0.0
 10
139.8699776785714
 20
-84.26325334821427
 30
0.0
 10
139.6517857142857
 20
-84.46247209821427
 30
0.0
 10
139.6517857142857
 20
-84.46247209821427
 30
0.0
 10
139.6517857142857
 20
-84.31305803571428
 30
0.0
 10
139.6517857142857
 20
-84.31305803571428
 30
0.0
 10
139.8470982142857
 20
-84.13071986607143
 30
0.0
 10
140.0717075892857
 20
-84.02664620535714
 30
0.0
 10
140.3256138392857
 20
-84.00055803571428
 30
0.0
 10
140.3256138392857
 20
-84.00055803571428
 30
0.0
 10
140.3256138392857
 20
-83.70172991071427
 30
0.0
 10
140.3256138392857
 20
-83.70172991071427
 30
0.0
 10
140.0717075892857
 20
-83.67564174107142
 30
0.0
 10
139.8470982142857
 20
-83.57156808035714
 30
0.0
 10
139.6517857142857
 20
-83.38922991071427
 30
0.0
 10
139.6517857142857
 20
-83.38922991071427
 30
0.0
 10
139.6517857142857
 20
-83.23981584821428
 30
0.0
 10
139.6517857142857
 20
-83.23981584821428
 30
0.0
 10
139.8699776785714
 20
-83.43903459821428
 30
0.0
 10
140.0945870535714
 20
-83.54520089285713
 30
0.0
 10
140.3256138392857
 20
-83.55817522321428
 30
0.0
 10
140.3256138392857
 20
-83.55817522321428
 30
0.0
 10
140.3256138392857
 20
-83.25055803571428
 30
0.0
 10
140.3256138392857
 20
-83.25055803571428
 30
0.0
 10
140.3256138392857
 20
-83.25055803571428
 30
0.0
 10
140.4341517857143
 20
-83.25055803571428
 30
0.0
 10
140.4341517857143
 20
-83.25055803571428
 30
0.0
 10
140.4341517857143
 20
-83.25055803571428
 30
0.0
 10
140.4341517857143
 20
-83.55817522321428
 30
0.0
 10
140.4341517857143
 20
-83.55817522321428
 30
0.0
 10
140.7003348214285
 20
-83.55817522321428
 30
0.0
 10
140.9455915178571
 20
-83.45200892857143
 30
0.0
 10
141.1693638392857
 20
-83.23981584821428
 30
0.0
 10
141.1693638392857
 20
-83.23981584821428
 30
0.0
 10
141.1693638392857
 20
-83.39704241071428
 30
0.0
 10
141.1693638392857
 20
-83.39704241071428
 30
0.0
 10
141.0633370535714
 20
-83.49009486607142
 30
0.0
 10
140.9439174107142
 20
-83.56417410714284
 30
0.0
 10
140.8116629464285
 20
-83.619140625
 30
0.0
 10
140.6791294642857
 20
-83.67424665178571
 30
0.0
 10
140.5532924107142
 20
-83.70172991071427
 30
0.0
 10
140.4341517857143
 20
-83.70172991071427
 30
0.0
 10
140.4341517857143
 20
-83.70172991071427
 30
0.0
 10
140.4341517857143
 20
-84.00055803571428
 30
0.0
 10
140.4341517857143
 20
-84.00055803571428
 30
0.0
  0
SPLINE
  5
8F
330
70
100
AcDbEntity
  8
Cipher2
 62
   250
420
  2301728
370
    18
100
AcDbSpline
210
0.0
220
0.0
230
1.0
 70
     9
 71
     3
 72
    29
 73
    25
 74
     0
 42
0.0000000001
 43
0.0000000001
 40
0.0
 40
0.0
 40
0.0
 40
0.0
 40
1.0
 40
1.0
 40
1.0
 40
2.0
 40
2.0
 40
2.0
 40
3.0
 40
3.0
 40
3.0
 40
4.0
 40
4.0
 40
4.0
 40
5.0
 40
5.0
 40
5.0
 40
6.0
 40
6.0
 40
6.0
 40
7.0
 40
7.0
 40
7.0
 40
8.0
 40
8.0
 40
8.0
 40
8.0
 10
140.7525111607142
 20
-82.49441964285713
 30
0.0
 10
140.8292410714285
 20
-82.49441964285713
 30
0.0
 10
140.8939732142857
 20
-82.46888950892858
 30
0.0
 10
140.9464285714285
 20
-82.41768973214284
 30
0.0
 10
140.9986049107143
 20
-82.36662946428571
 30
0.0
 10
141.0248325892857
 20
-82.30371093749999
 30
0.0
 10
141.0248325892857
 20
-82.22879464285714
 30
0.0
 10
141.0248325892857
 20
-82.15583147321428
 30
0.0
 10
140.9986049107143
 20
-82.09347098214285
 30
0.0
 10
140.9458705357143
 20
-82.04185267857143
 30
0.0
 10
140.8931361607143
 20
-81.98995535714285
 30
0.0
 10
140.8292410714285
 20
-81.96414620535714
 30
0.0
 10
140.7544642857143
 20
-81.96414620535714
 30
0.0
 10
140.6782924107143
 20
-81.96414620535714
 30
0.0
 10
140.6138392857142
 20
-81.98981584821428
 30
0.0
 10
140.5616629464285
 20
-82.04129464285713
 30
0.0
 10
140.5092075892857
 20
-82.09277343750001
 30
0.0
 10
140.4829799107143
 20
-82.15583147321428
 30
0.0
 10
140.4829799107143
 20
-82.23074776785713
 30
0.0
 10
140.4829799107143
 20
-82.30371093749999
 30
0.0
 10
140.5092075892857
 20
-82.36579241071428
 30
0.0
 10
140.5619419642857
 20
-82.41727120535713
 30
0.0
 10
140.6146763392857
 20
-82.46875000000001
 30
0.0
 10
140.6782924107143
 20
-82.49441964285713
 30
0.0
 10
140.7525111607142
 20
-82.49441964285713
 30
0.0
  0
SPLINE
  5
90
330
70
100
AcDbEntity
  8
Cipher2
 62
   250
420
  2301728
370
    18
100
AcDbSpline
210
0.0
220
0.0
230
1.0
 70
     9
 71
     3
 72
   104
 73
   100
 74
     0
 42
0.0000000001
 43
0.0000000001
 40
0.0
 40
0.0
 40
0.0
 40
0.0
 40
1.0
 40
1.0
 40
1.0
 40
2.0
 40
2.0
 40
2.0
 40
3.0
 40
3.0
 40
3.0
 40
4.0
 40
4.0
 40
4.0
 40
5.0
 40
5.0
 40
5.0
 40
6.0
 40
6.0
 40
6.0
 40
7.0
 40
7.0
 40
7.0
 40
8.0
 40
8.0
 40
8.0
 40
9.0
 40
9.0
 40
9.0
 40
10.0
 40
10.0
 40
10.0
 40
11.0
 40
11.0
 40
11.0
 40
12.0
 40
12.0
 40
12.0
 40
13.0
 40
13.0
 40
13.0
 40
14.0
 40
14.0
 40
14.0
 40
15.0
 40
15.0
 40
15.0
 40
16.0
 40
16.0
 40
16.0
 40
17.0
 40
17.0
 40
17.0
 40
18.0
 40
18.0
 40
18.0
 40
19.0
 40
19.0
 40
19.0
 40
20.0
 40
20.0
 40
20.0
 40
21.0
 40
21.0
 40
21.0
 40
22.0
 40
22.0
 40
22.0
 40
23.0
 40
23.0
 40
23.0
 40
24.0
 40
24.0
 40
24.0
 40
25.0
 40
25.0
 40
25.0
 40
26.0
 40
26.0
 40
26.0
 40
27.0
 40
27.0
 40
27.0
 40
28.0
 40
28.0
 40
28.0
 40
29.0
 40
29.0
 40
29.0
 40
30.0
 40
30.0
 40
30.0
 40
31.0
 40
31.0
 40
31.0
 40
32.0
 40
32.0
 40
32.0
 40
33.0
 40
33.0
 40
33.0
 40
33.0
 10
141.3872767857142
 20
-81.05789620535714
 30
0.0
 10
141.4907924107142
 20
-81.17047991071428
 30
0.0
 10
141.5424107142857
 20
-81.27859933035713
 30
0.0
 10
141.5424107142857
 20
-81.38211495535713
 30
0.0
 10
141.5424107142857
 20
-81.47195870535714
 30
0.0
 10
141.5125558035714
 20
-81.5472935267857
 30
0.0
 10
141.453125
 20
-81.60825892857143
 30
0.0
 10
141.3934151785714
 20
-81.66908482142856
 30
0.0
 10
141.3200334821428
 20
-81.69949776785713
 30
0.0
 10
141.2327008928571
 20
-81.69949776785713
 30
0.0
 10
141.1160714285714
 20
-81.69949776785713
 30
0.0
 10
140.9280133928571
 20
-81.63825334821428
 30
0.0
 10
140.66796875
 20
-81.51590401785714
 30
0.0
 10
140.66796875
 20
-81.51590401785714
 30
0.0
 10
140.46875
 20
-81.42215401785714
 30
0.0
 10
140.46875
 20
-81.42215401785714
 30
0.0
 10
140.3141741071428
 20
-81.34988839285714
 30
0.0
 10
140.1891741071428
 20
-81.31375558035713
 30
0.0
 10
140.0934709821428
 20
-81.31375558035713
 30
0.0
 10
139.9709821428571
 20
-81.31375558035713
 30
0.0
 10
139.8727678571428
 20
-81.34933035714285
 30
0.0
 10
139.7982700892857
 20
-81.42075892857143
 30
0.0
 10
139.7240513392857
 20
-81.49190848214285
 30
0.0
 10
139.6869419642857
 20
-81.58621651785713
 30
0.0
 10
139.6869419642857
 20
-81.70340401785713
 30
0.0
 10
139.6869419642857
 20
-81.8134765625
 30
0.0
 10
139.7201450892857
 20
-81.90248325892858
 30
0.0
 10
139.7862723214285
 20
-81.97042410714285
 30
0.0
 10
139.8523995535714
 20
-82.03850446428571
 30
0.0
 10
139.9391741071428
 20
-82.07254464285714
 30
0.0
 10
140.0465959821428
 20
-82.07254464285714
 30
0.0
 10
140.1456473214285
 20
-82.07254464285714
 30
0.0
 10
140.26171875
 20
-82.04059709821427
 30
0.0
 10
140.39453125
 20
-81.97684151785713
 30
0.0
 10
140.39453125
 20
-81.97684151785713
 30
0.0
 10
140.4737723214285
 20
-81.93875558035713
 30
0.0
 10
140.4737723214285
 20
-81.93875558035713
 30
0.0
 10
140.6046316964285
 20
-81.87555803571427
 30
0.0
 10
140.701171875
 20
-81.84402901785714
 30
0.0
 10
140.7628348214285
 20
-81.84402901785714
 30
0.0
 10
140.8627232142857
 20
-81.84402901785714
 30
0.0
 10
140.94921875
 20
-81.88169642857143
 30
0.0
 10
141.0228794642857
 20
-81.95675223214285
 30
0.0
 10
141.0965401785714
 20
-82.03208705357143
 30
0.0
 10
141.1333705357143
 20
-82.12067522321428
 30
0.0
 10
141.1333705357143
 20
-82.22293526785714
 30
0.0
 10
141.1333705357143
 20
-82.32840401785713
 30
0.0
 10
141.0962611607143
 20
-82.41810825892857
 30
0.0
 10
141.0220424107142
 20
-82.49190848214285
 30
0.0
 10
140.9478236607142
 20
-82.56584821428571
 30
0.0
 10
140.8577008928571
 20
-82.60281808035713
 30
0.0
 10
140.7513950892857
 20
-82.60281808035713
 30
0.0
 10
140.6492745535714
 20
-82.60281808035713
 30
0.0
 10
140.5608258928571
 20
-82.56640625000001
 30
0.0
 10
140.486328125
 20
-82.49344308035714
 30
0.0
 10
140.4118303571428
 20
-82.42047991071428
 30
0.0
 10
140.3744419642857
 20
-82.33356584821427
 30
0.0
 10
140.3744419642857
 20
-82.23270089285714
 30
0.0
 10
140.3744419642857
 20
-82.19628906249999
 30
0.0
 10
140.3814174107143
 20
-82.15583147321428
 30
0.0
 10
140.3950892857142
 20
-82.11160714285714
 30
0.0
 10
140.2603236607142
 20
-82.18191964285713
 30
0.0
 10
140.1411830357143
 20
-82.21707589285713
 30
0.0
 10
140.0376674107143
 20
-82.21707589285713
 30
0.0
 10
139.9029017857142
 20
-82.21707589285713
 30
0.0
 10
139.7907366071428
 20
-82.1683872767857
 30
0.0
 10
139.701171875
 20
-82.07114955357143
 30
0.0
 10
139.6116071428571
 20
-81.97377232142857
 30
0.0
 10
139.5669642857143
 20
-81.8515625
 30
0.0
 10
139.5669642857143
 20
-81.70438058035713
 30
0.0
 10
139.5669642857143
 20
-81.54296875
 30
0.0
 10
139.6143973214285
 20
-81.41336495535714
 30
0.0
 10
139.708984375
 20
-81.31570870535714
 30
0.0
 10
139.8038504464285
 20
-81.21805245535714
 30
0.0
 10
139.9294084821428
 20
-81.16922433035714
 30
0.0
 10
140.0864955357143
 20
-81.16922433035714
 30
0.0
 10
140.1646205357143
 20
-81.16922433035714
 30
0.0
 10
140.2318638392857
 20
-81.17731584821427
 30
0.0
 10
140.2885044642857
 20
-81.19363839285714
 30
0.0
 10
140.3451450892857
 20
-81.20996093749999
 30
0.0
 10
140.4386160714285
 20
-81.24832589285714
 30
0.0
 10
140.5689174107143
 20
-81.30887276785713
 30
0.0
 10
140.5689174107143
 20
-81.30887276785713
 30
0.0
 10
140.7154017857143
 20
-81.37625558035713
 30
0.0
 10
140.7154017857143
 20
-81.37625558035713
 30
0.0
 10
140.9743303571428
 20
-81.49609375
 30
0.0
 10
141.1420200892857
 20
-81.55594308035714
 30
0.0
 10
141.2181919642857
 20
-81.55594308035714
 30
0.0
 10
141.2742745535714
 20
-81.55594308035714
 30
0.0
 10
141.3203125
 20
-81.53920200892857
 30
0.0
 10
141.3565848214285
 20
-81.50558035714285
 30
0.0
 10
141.392578125
 20
-81.47209821428571
 30
0.0
 10
141.4107142857143
 20
-81.42926897321428
 30
0.0
 10
141.4107142857143
 20
-81.37723214285713
 30
0.0
 10
141.4107142857143
 20
-81.30887276785713
 30
0.0
 10
141.3719308035714
 20
-81.23074776785713
 30
0.0
 10
141.2943638392857
 20
-81.14285714285713
 30
0.0
 10
141.2943638392857
 20
-81.14285714285713
 30
0.0
 10
141.3872767857142
 20
-81.05789620535714
 30
0.0
 10
141.3872767857142
 20
-81.05789620535714
 30
0.0
  0
SPLINE
  5
91
330
70
100
AcDbEntity
  8
Cipher2
 62
   250
420
  2301728
370
     9
100
AcDbSpline
210
0.0
220
0.0
230
1.0
 70
     9
 71
     3
 72
    35
 73
    31
 74
     0
 42
0.0000000001
 43
0.0000000001
 40
0.0
 40
0.0
 40
0.0
 40
0.0
 40
1.0
 40
1.0
 40
1.0
 40
2.0
 40
2.0
 40
2.0
 40
3.0
 40
3.0
 40
3.0
 40
4.0
 40
4.0
 40
4.0
 40
5.0
 40
5.0
 40
5.0
 40
6.0
 40
6.0
 40
6.0
 40
7.0
 40
7.0
 40
7.0
 40
8.0
 40
8.0
 40
8.0
 40
9.0
 40
9.0
 40
9.0
 40
10.0
 40
10.0
 40
10.0
 40
10.0
 10
140.6289899553573
 20
-77.9870117187503
 30
0.0
 10
140.6289899553573
 20
-77.9870117187503
 30
0.0
 10
140.5586774553573
 20
-78.01748046875009
 30
0.0
 10
140.5586774553573
 20
-78.01748046875009
 30
0.0
 10
140.5071149553571
 20
-78.03941127232143
 30
0.0
 10
140.481333705357
 20
-78.06519252232153
 30
0.0
 10
140.481333705357
 20
-78.09482421875042
 30
0.0
 10
140.481333705357
 20
-78.11206752232152
 30
0.0
 10
140.4856863839289
 20
-78.12512555803602
 30
0.0
 10
140.4940569196431
 20
-78.13416573660756
 30
0.0
 10
140.5027622767858
 20
-78.14303850446439
 30
0.0
 10
140.5161551339286
 20
-78.14755859375042
 30
0.0
 10
140.5339006696428
 20
-78.14755859375042
 30
0.0
 10
140.5489676339285
 20
-78.14755859375042
 30
0.0
 10
140.577762276786
 20
-78.13851841517887
 30
0.0
 10
140.620619419643
 20
-78.12060546875
 30
0.0
 10
140.620619419643
 20
-78.12060546875
 30
0.0
 10
140.726088169643
 20
-78.07607421875009
 30
0.0
 10
140.726088169643
 20
-78.07607421875009
 30
0.0
 10
140.7816685267857
 20
-78.05263671875009
 30
0.0
 10
140.809458705357
 20
-78.02652064732163
 30
0.0
 10
140.809458705357
 20
-77.99755859375
 30
0.0
 10
140.809458705357
 20
-77.98115234375031
 30
0.0
 10
140.8044363839284
 20
-77.96876395089306
 30
0.0
 10
140.7940569196429
 20
-77.96072823660714
 30
0.0
 10
140.7840122767858
 20
-77.95235770089284
 30
0.0
 10
140.7692801339284
 20
-77.94833984375042
 30
0.0
 10
140.749525669643
 20
-77.94833984375042
 30
0.0
 10
140.7247488839285
 20
-77.94833984375042
 30
0.0
 10
140.6842354910716
 20
-77.9612304687502
 30
0.0
 10
140.6289899553573
 20
-77.9870117187503
 30
0.0
  0
SPLINE
  5
92
330
70
100
AcDbEntity
  8
Cipher2
 62
   250
420
  2301728
370
     9
100
AcDbSpline
210
0.0
220
0.0
230
1.0
 70
     9
 71
     3
 72
    35
 73
    31
 74
     0
 42
0.0000000001
 43
0.0000000001
 40
0.0
 40
0.0
 40
0.0
 40
0.0
 40
1.0
 40
1.0
 40
1.0
 40
2.0
 40
2.0
 40
2.0
 40
3.0
 40
3.0
 40
3.0
 40
4.0
 40
4.0
 40
4.0
 40
5.0
 40
5.0
 40
5.0
 40
6.0
 40
6.0
 40
6.0
 40
7.0
 40
7.0
 40
7.0
 40
8.0
 40
8.0
 40
8.0
 40
9.0
 40
9.0
 40
9.0
 40
10.0
 40
10.0
 40
10.0
 40
10.0
 10
140.5134765625002
 20
-77.8219447544647
 30
0.0
 10
140.5134765625002
 20
-77.8219447544647
 30
0.0
 10
140.3942801339284
 20
-77.87032645089285
 30
0.0
 10
140.3942801339284
 20
-77.87032645089285
 30
0.0
 10
140.3256417410713
 20
-77.89778180803581
 30
0.0
 10
140.2914899553574
 20
-77.9260742187502
 30
0.0
 10
140.2914899553574
 20
-77.95503627232183
 30
0.0
 10
140.2914899553574
 20
-77.9754603794645
 30
0.0
 10
140.2975167410716
 20
-77.99102957589326
 30
0.0
 10
140.3095703125
 20
-78.00157645089296
 30
0.0
 10
140.3216238839289
 20
-78.01212332589317
 30
0.0
 10
140.3397042410714
 20
-78.01748046875009
 30
0.0
 10
140.3638113839286
 20
-78.01748046875009
 30
0.0
 10
140.3959542410713
 20
-78.01748046875009
 30
0.0
 10
140.4341238839286
 20
-78.0081054687502
 30
0.0
 10
140.4783203125002
 20
-77.9891880580357
 30
0.0
 10
140.4783203125002
 20
-77.9891880580357
 30
0.0
 10
140.589481026786
 20
-77.94331752232183
 30
0.0
 10
140.589481026786
 20
-77.94331752232183
 30
0.0
 10
140.6822265624999
 20
-77.90414341517887
 30
0.0
 10
140.7284319196431
 20
-77.86597377232152
 30
0.0
 10
140.7284319196431
 20
-77.82914341517868
 30
0.0
 10
140.7284319196431
 20
-77.80938895089327
 30
0.0
 10
140.7234095982146
 20
-77.79482421875009
 30
0.0
 10
140.7126953125002
 20
-77.78494698660714
 30
0.0
 10
140.7023158482141
 20
-77.7750697544647
 30
0.0
 10
140.6869140625001
 20
-77.77021484375031
 30
0.0
 10
140.6664899553574
 20
-77.77021484375031
 30
0.0
 10
140.6423828125002
 20
-77.77021484375031
 30
0.0
 10
140.5914899553572
 20
-77.78745814732143
 30
0.0
 10
140.5134765625002
 20
-77.8219447544647
 30
0.0
  0
SPLINE
  5
93
330
70
100
AcDbEntity
  8
Cipher2
 62
   250
420
  2301728
370
     9
100
AcDbSpline
210
0.0
220
0.0
230
1.0
 70
     9
 71
     3
 72
    89
 73
    85
 74
     0
 42
0.0000000001
 43
0.0000000001
 40
0.0
 40
0.0
 40
0.0
 40
0.0
 40
1.0
 40
1.0
 40
1.0
 40
2.0
 40
2.0
 40
2.0
 40
3.0
 40
3.0
 40
3.0
 40
4.0
 40
4.0
 40
4.0
 40
5.0
 40
5.0
 40
5.0
 40
6.0
 40
6.0
 40
6.0
 40
7.0
 40
7.0
 40
7.0
 40
8.0
 40
8.0
 40
8.0
 40
9.0
 40
9.0
 40
9.0
 40
10.0
 40
10.0
 40
10.0
 40
11.0
 40
11.0
 40
11.0
 40
12.0
 40
12.0
 40
12.0
 40
13.0
 40
13.0
 40
13.0
 40
14.0
 40
14.0
 40
14.0
 40
15.0
 40
15.0
 40
15.0
 40
16.0
 40
16.0
 40
16.0
 40
17.0
 40
17.0
 40
17.0
 40
18.0
 40
18.0
 40
18.0
 40
19.0
 40
19.0
 40
19.0
 40
20.0
 40
20.0
 40
20.0
 40
21.0
 40
21.0
 40
21.0
 40
22.0
 40
22.0
 40
22.0
 40
23.0
 40
23.0
 40
23.0
 40
24.0
 40
24.0
 40
24.0
 40
25.0
 40
25.0
 40
25.0
 40
26.0
 40
26.0
 40
26.0
 40
27.0
 40
27.0
 40
27.0
 40
28.0
 40
28.0
 40
28.0
 40
28.0
 10
141.0635881696429
 20
-77.53232421875042
 30
0.0
 10
140.9825613839285
 20
-77.47523716517857
 30
0.0
 10
140.8817801339288
 20
-77.42333984375
 30
0.0
 10
140.761244419643
 20
-77.37646484375
 30
0.0
 10
140.7511997767859
 20
-77.37261439732174
 30
0.0
 10
140.7368024553574
 20
-77.36675502232174
 30
0.0
 10
140.7180524553571
 20
-77.35888671875
 30
0.0
 10
140.6986328125001
 20
-77.36441127232163
 30
0.0
 10
140.6842354910716
 20
-77.36826171875041
 30
0.0
 10
140.6748604910717
 20
-77.37060546875
 30
0.0
 10
140.5446149553572
 20
-77.40425502232183
 30
0.0
 10
140.4237444196431
 20
-77.46519252232143
 30
0.0
 10
140.3122488839284
 20
-77.55341796875031
 30
0.0
 10
140.3122488839284
 20
-77.55341796875031
 30
0.0
 10
140.280775669643
 20
-77.7913085937502
 30
0.0
 10
140.280775669643
 20
-77.7913085937502
 30
0.0
 10
140.3892578124999
 20
-77.7913085937502
 30
0.0
 10
140.4471819196431
 20
-77.72216796875
 30
0.0
 10
140.4542131696429
 20
-77.58388671875009
 30
0.0
 10
140.479994419643
 20
-77.58539341517877
 30
0.0
 10
140.5010881696429
 20
-77.5862304687502
 30
0.0
 10
140.5174944196431
 20
-77.5862304687502
 30
0.0
 10
140.5677176339288
 20
-77.5862304687502
 30
0.0
 10
140.6226283482143
 20
-77.58070591517856
 30
0.0
 10
140.6828962053571
 20
-77.56982421875
 30
0.0
 10
140.6828962053571
 20
-77.56982421875
 30
0.0
 10
140.6828962053571
 20
-77.6272460937502
 30
0.0
 10
140.6828962053571
 20
-77.6272460937502
 30
0.0
 10
140.6350167410715
 20
-77.63812779017877
 30
0.0
 10
140.5864676339286
 20
-77.64365234375041
 30
0.0
 10
140.5362444196429
 20
-77.64365234375041
 30
0.0
 10
140.5362444196429
 20
-77.64365234375041
 30
0.0
 10
140.5118024553573
 20
-77.64365234375041
 30
0.0
 10
140.5118024553573
 20
-77.64365234375041
 30
0.0
 10
140.5007533482146
 20
-77.69839564732163
 30
0.0
 10
140.4816685267859
 20
-77.74409877232184
 30
0.0
 10
140.4542131696429
 20
-77.78076171875
 30
0.0
 10
140.4542131696429
 20
-77.78076171875
 30
0.0
 10
140.5667131696427
 20
-77.73505859375031
 30
0.0
 10
140.5667131696427
 20
-77.73505859375031
 30
0.0
 10
140.6052176339284
 20
-77.72015904017877
 30
0.0
 10
140.6360212053571
 20
-77.71279296875009
 30
0.0
 10
140.6594587053571
 20
-77.71279296875009
 30
0.0
 10
140.7023158482141
 20
-77.71279296875009
 30
0.0
 10
140.7344587053573
 20
-77.72250279017888
 30
0.0
 10
140.7562220982145
 20
-77.74208984375009
 30
0.0
 10
140.7776506696427
 20
-77.76167689732183
 30
0.0
 10
140.7883649553571
 20
-77.7913085937502
 30
0.0
 10
140.7883649553571
 20
-77.83115234375042
 30
0.0
 10
140.7883649553571
 20
-77.85140904017888
 30
0.0
 10
140.7796595982145
 20
-77.87534877232143
 30
0.0
 10
140.762583705357
 20
-77.9026367187502
 30
0.0
 10
140.7984095982143
 20
-77.90732421875041
 30
0.0
 10
140.8255301339289
 20
-77.91820591517899
 30
0.0
 10
140.843275669643
 20
-77.93544921875009
 30
0.0
 10
140.8613560267856
 20
-77.95269252232174
 30
0.0
 10
140.8703962053571
 20
-77.97562779017868
 30
0.0
 10
140.8703962053571
 20
-78.00458984375031
 30
0.0
 10
140.8703962053571
 20
-78.04058314732174
 30
0.0
 10
140.8482979910716
 20
-78.07172154017877
 30
0.0
 10
140.8047712053573
 20
-78.09833984375031
 30
0.0
 10
140.8047712053573
 20
-78.09833984375031
 30
0.0
 10
140.762583705357
 20
-78.12412109375042
 30
0.0
 10
140.762583705357
 20
-78.12412109375042
 30
0.0
 10
140.8382533482145
 20
-78.11390904017857
 30
0.0
 10
140.9042131696431
 20
-78.10068359375041
 30
0.0
 10
140.960463169643
 20
-78.0842773437502
 30
0.0
 10
140.9674944196428
 20
-78.08193359375009
 30
0.0
 10
140.9772042410716
 20
-78.07875279017856
 30
0.0
 10
140.9899274553572
 20
-78.0749023437503
 30
0.0
 10
140.9899274553572
 20
-78.0749023437503
 30
0.0
 10
141.112806919643
 20
-77.9670898437502
 30
0.0
 10
141.112806919643
 20
-77.9670898437502
 30
0.0
 10
141.112806919643
 20
-77.9670898437502
 30
0.0
 10
141.2172712053574
 20
-77.9670898437502
 30
0.0
 10
141.2172712053574
 20
-77.9670898437502
 30
0.0
 10
141.2437220982142
 20
-77.88823939732174
 30
0.0
 10
141.2571149553571
 20
-77.81390904017877
 30
0.0
 10
141.2571149553571
 20
-77.7444335937502
 30
0.0
 10
141.2571149553571
 20
-77.67562779017888
 30
0.0
 10
141.2437220982142
 20
-77.60498046875
 30
0.0
 10
141.2172712053574
 20
-77.53232421875042
 30
0.0
 10
141.2172712053574
 20
-77.53232421875042
 30
0.0
 10
141.0635881696429
 20
-77.53232421875042
 30
0.0
 10
141.0635881696429
 20
-77.53232421875042
 30
0.0
  0
SPLINE
  5
94
330
70
100
AcDbEntity
  8
Cipher2
 62
   250
420
  2301728
370
     9
100
AcDbSpline
210
0.0
220
0.0
230
1.0
 70
    11
 71
     3
 72
    62
 73
    58
 74
     0
 42
0.0000000001
 43
0.0000000001
 40
0.0
 40
0.0
 40
0.0
 40
0.0
 40
1.0
 40
1.0
 40
1.0
 40
2.0
 40
2.0
 40
2.0
 40
3.0
 40
3.0
 40
3.0
 40
4.0
 40
4.0
 40
4.0
 40
5.0
 40
5.0
 40
5.0
 40
6.0
 40
6.0
 40
6.0
 40
7.0
 40
7.0
 40
7.0
 40
8.0
 40
8.0
 40
8.0
 40
9.0
 40
9.0
 40
9.0
 40
10.0
 40
10.0
 40
10.0
 40
11.0
 40
11.0
 40
11.0
 40
12.0
 40
12.0
 40
12.0
 40
13.0
 40
13.0
 40
13.0
 40
14.0
 40
14.0
 40
14.0
 40
15.0
 40
15.0
 40
15.0
 40
16.0
 40
16.0
 40
16.0
 40
17.0
 40
17.0
 40
17.0
 40
18.0
 40
18.0
 40
18.0
 40
19.0
 40
19.0
 40
19.0
 40
19.0
 10
140.1813337053572
 20
-77.66190011160714
 30
0.0
 10
140.1813337053572
 20
-77.66190011160714
 30
0.0
 10
139.6174944196427
 20
-77.79984654017868
 30
0.0
 10
139.6174944196427
 20
-77.79984654017868
 30
0.0
 10
139.5136997767856
 20
-77.82479073660734
 30
0.0
 10
139.461802455357
 20
-77.85726841517888
 30
0.0
 10
139.461802455357
 20
-77.89694475446438
 30
0.0
 10
139.461802455357
 20
-77.91954520089295
 30
0.0
 10
139.4674944196428
 20
-77.93645368303571
 30
0.0
 10
139.4792131696428
 20
-77.94783761160734
 30
0.0
 10
139.4909319196428
 20
-77.95905412946428
 30
0.0
 10
139.508677455357
 20
-77.96474609375009
 30
0.0
 10
139.532114955357
 20
-77.96474609375009
 30
0.0
 10
139.5451729910715
 20
-77.96474609375009
 30
0.0
 10
139.5635881696429
 20
-77.96156529017856
 30
0.0
 10
139.5870256696429
 20
-77.9553710937502
 30
0.0
 10
139.5964006696428
 20
-77.9530273437501
 30
0.0
 10
139.6094587053573
 20
-77.95001395089326
 30
0.0
 10
139.625864955357
 20
-77.94599609375031
 30
0.0
 10
139.6482979910714
 20
-77.94063895089284
 30
0.0
 10
139.6653738839289
 20
-77.93628627232152
 30
0.0
 10
139.6760881696427
 20
-77.93327287946469
 30
0.0
 10
139.6760881696427
 20
-77.93327287946469
 30
0.0
 10
140.222181919643
 20
-77.78846261160755
 30
0.0
 10
140.222181919643
 20
-77.78846261160755
 30
0.0
 10
140.222181919643
 20
-77.78846261160755
 30
0.0
 10
140.2603515624999
 20
-77.52529296875009
 30
0.0
 10
140.2603515624999
 20
-77.52529296875009
 30
0.0
 10
140.3155970982141
 20
-77.47607421875
 30
0.0
 10
140.3731863839285
 20
-77.43623046875031
 30
0.0
 10
140.433119419643
 20
-77.40576171875
 30
0.0
 10
140.433119419643
 20
-77.40576171875
 30
0.0
 10
140.2482979910715
 20
-77.40576171875
 30
0.0
 10
140.2482979910715
 20
-77.40576171875
 30
0.0
 10
140.2482979910715
 20
-77.40576171875
 30
0.0
 10
139.7982979910713
 20
-77.29125279017899
 30
0.0
 10
139.7982979910713
 20
-77.29125279017899
 30
0.0
 10
139.706556919643
 20
-77.26764787946428
 30
0.0
 10
139.6466238839285
 20
-77.25576171875009
 30
0.0
 10
139.6174944196427
 20
-77.25576171875009
 30
0.0
 10
139.6004185267858
 20
-77.25576171875009
 30
0.0
 10
139.5876953125002
 20
-77.26011439732143
 30
0.0
 10
139.5796595982143
 20
-77.26865234375042
 30
0.0
 10
139.5712890625
 20
-77.27735770089307
 30
0.0
 10
139.567271205357
 20
-77.29058314732174
 30
0.0
 10
139.567271205357
 20
-77.30866350446428
 30
0.0
 10
139.567271205357
 20
-77.33059430803613
 30
0.0
 10
139.5769810267858
 20
-77.34767020089306
 30
0.0
 10
139.5964006696428
 20
-77.35989118303613
 30
0.0
 10
139.6161551339287
 20
-77.37194475446449
 30
0.0
 10
139.6657087053572
 20
-77.39136439732153
 30
0.0
 10
139.7453962053571
 20
-77.41815011160724
 30
0.0
 10
139.7453962053571
 20
-77.41815011160724
 30
0.0
 10
140.1907087053571
 20
-77.56982421875
 30
0.0
 10
140.1907087053571
 20
-77.56982421875
 30
0.0
 10
140.1907087053571
 20
-77.56982421875
 30
0.0
 10
140.1813337053572
 20
-77.66190011160714
 30
0.0
 10
140.1813337053572
 20
-77.66190011160714
 30
0.0
  0
SPLINE
  5
95
330
70
100
AcDbEntity
  8
Cipher2
 62
   250
420
  2301728
370
     9
100
AcDbSpline
210
0.0
220
0.0
230
1.0
 70
     9
 71
     3
 72
   104
 73
   100
 74
     0
 42
0.0000000001
 43
0.0000000001
 40
0.0
 40
0.0
 40
0.0
 40
0.0
 40
1.0
 40
1.0
 40
1.0
 40
2.0
 40
2.0
 40
2.0
 40
3.0
 40
3.0
 40
3.0
 40
4.0
 40
4.0
 40
4.0
 40
5.0
 40
5.0
 40
5.0
 40
6.0
 40
6.0
 40
6.0
 40
7.0
 40
7.0
 40
7.0
 40
8.0
 40
8.0
 40
8.0
 40
9.0
 40
9.0
 40
9.0
 40
10.0
 40
10.0
 40
10.0
 40
11.0
 40
11.0
 40
11.0
 40
12.0
 40
12.0
 40
12.0
 40
13.0
 40
13.0
 40
13.0
 40
14.0
 40
14.0
 40
14.0
 40
15.0
 40
15.0
 40
15.0
 40
16.0
 40
16.0
 40
16.0
 40
17.0
 40
17.0
 40
17.0
 40
18.0
 40
18.0
 40
18.0
 40
19.0
 40
19.0
 40
19.0
 40
20.0
 40
20.0
 40
20.0
 40
21.0
 40
21.0
 40
21.0
 40
22.0
 40
22.0
 40
22.0
 40
23.0
 40
23.0
 40
23.0
 40
24.0
 40
24.0
 40
24.0
 40
25.0
 40
25.0
 40
25.0
 40
26.0
 40
26.0
 40
26.0
 40
27.0
 40
27.0
 40
27.0
 40
28.0
 40
28.0
 40
28.0
 40
29.0
 40
29.0
 40
29.0
 40
30.0
 40
30.0
 40
30.0
 40
31.0
 40
31.0
 40
31.0
 40
32.0
 40
32.0
 40
32.0
 40
33.0
 40
33.0
 40
33.0
 40
33.0
 10
141.0870256696429
 20
-77.47958984375042
 30
0.0
 10
141.0870256696429
 20
-77.47958984375042
 30
0.0
 10
141.2571149553571
 20
-77.47958984375042
 30
0.0
 10
141.2571149553571
 20
-77.47958984375042
 30
0.0
 10
141.2969587053573
 20
-77.5803710937502
 30
0.0
 10
141.3167131696427
 20
-77.67094029017868
 30
0.0
 10
141.3167131696427
 20
-77.75146484375
 30
0.0
 10
141.3167131696427
 20
-77.85308314732174
 30
0.0
 10
141.2969587053573
 20
-77.94482421875
 30
0.0
 10
141.2571149553571
 20
-78.02685546875
 30
0.0
 10
141.2571149553571
 20
-78.02685546875
 30
0.0
 10
141.125864955357
 20
-78.02685546875
 30
0.0
 10
141.125864955357
 20
-78.02685546875
 30
0.0
 10
141.0960658482145
 20
-78.05414341517877
 30
0.0
 10
141.0612444196428
 20
-78.08511439732163
 30
0.0
 10
141.0214006696431
 20
-78.1194335937502
 30
0.0
 10
140.9099051339284
 20
-78.16547154017877
 30
0.0
 10
140.7927176339284
 20
-78.18857421875041
 30
0.0
 10
140.6698381696431
 20
-78.18857421875041
 30
0.0
 10
140.6698381696431
 20
-78.18857421875041
 30
0.0
 10
140.6135881696427
 20
-78.18857421875041
 30
0.0
 10
140.6135881696427
 20
-78.18857421875041
 30
0.0
 10
140.5807756696428
 20
-78.19945591517899
 30
0.0
 10
140.554324776786
 20
-78.20498046875009
 30
0.0
 10
140.5339006696428
 20
-78.20498046875009
 30
0.0
 10
140.4980747767856
 20
-78.20498046875009
 30
0.0
 10
140.4712890624999
 20
-78.19744698660724
 30
0.0
 10
140.4538783482146
 20
-78.18204520089317
 30
0.0
 10
140.4361328124999
 20
-78.16697823660745
 30
0.0
 10
140.4274274553572
 20
-78.14437779017888
 30
0.0
 10
140.4274274553572
 20
-78.11474609375
 30
0.0
 10
140.4274274553572
 20
-78.10386439732143
 30
0.0
 10
140.4307756696429
 20
-78.08578404017888
 30
0.0
 10
140.4378069196427
 20
-78.0608398437502
 30
0.0
 10
140.4049944196428
 20
-78.0702148437501
 30
0.0
 10
140.3795479910716
 20
-78.0749023437503
 30
0.0
 10
140.3618024553574
 20
-78.0749023437503
 30
0.0
 10
140.3186104910715
 20
-78.0749023437503
 30
0.0
 10
140.2868024553572
 20
-78.06452287946427
 30
0.0
 10
140.2657087053573
 20
-78.04376395089327
 30
0.0
 10
140.2446149553574
 20
-78.02317243303592
 30
0.0
 10
140.233900669643
 20
-77.99253627232143
 30
0.0
 10
140.233900669643
 20
-77.95185546875031
 30
0.0
 10
140.233900669643
 20
-77.91586216517888
 30
0.0
 10
140.2553292410713
 20
-77.88187779017867
 30
0.0
 10
140.2985212053572
 20
-77.8499023437502
 30
0.0
 10
140.2787667410713
 20
-77.85073939732163
 30
0.0
 10
140.2626953125
 20
-77.85107421875
 30
0.0
 10
140.2509765625
 20
-77.85107421875
 30
0.0
 10
140.2405970982145
 20
-77.85107421875
 30
0.0
 10
140.2275390625
 20
-77.85090680803581
 30
0.0
 10
140.211802455357
 20
-77.85057198660744
 30
0.0
 10
140.211802455357
 20
-77.85057198660744
 30
0.0
 10
139.718275669643
 20
-77.98249162946428
 30
0.0
 10
139.718275669643
 20
-77.98249162946428
 30
0.0
 10
139.6208426339284
 20
-78.00894252232163
 30
0.0
 10
139.558231026786
 20
-78.02216796875031
 30
0.0
 10
139.530775669643
 20
-78.02216796875031
 30
0.0
 10
139.4895926339289
 20
-78.02216796875031
 30
0.0
 10
139.4584542410713
 20
-78.01128627232174
 30
0.0
 10
139.438364955357
 20
-77.98935546875042
 30
0.0
 10
139.4179408482144
 20
-77.96759207589326
 30
0.0
 10
139.4078962053572
 20
-77.93528180803592
 30
0.0
 10
139.4078962053572
 20
-77.8922572544647
 30
0.0
 10
139.4078962053572
 20
-77.82529296875042
 30
0.0
 10
139.476199776786
 20
-77.77540457589307
 30
0.0
 10
139.612806919643
 20
-77.74259207589317
 30
0.0
 10
139.612806919643
 20
-77.74259207589317
 30
0.0
 10
140.1461774553572
 20
-77.61268136160755
 30
0.0
 10
140.1461774553572
 20
-77.61268136160755
 30
0.0
 10
140.1461774553572
 20
-77.61268136160755
 30
0.0
 10
139.741713169643
 20
-77.48009207589295
 30
0.0
 10
139.741713169643
 20
-77.48009207589295
 30
0.0
 10
139.5870256696429
 20
-77.42919921875
 30
0.0
 10
139.5096819196431
 20
-77.37211216517867
 30
0.0
 10
139.5096819196431
 20
-77.30866350446428
 30
0.0
 10
139.5096819196431
 20
-77.27819475446449
 30
0.0
 10
139.520396205357
 20
-77.25207868303602
 30
0.0
 10
139.5414899553574
 20
-77.23065011160724
 30
0.0
 10
139.5625837053573
 20
-77.20905412946428
 30
0.0
 10
139.5883649553574
 20
-77.19833984375042
 30
0.0
 10
139.6188337053572
 20
-77.19833984375042
 30
0.0
 10
139.6509765624999
 20
-77.19833984375042
 30
0.0
 10
139.7169363839285
 20
-77.21156529017857
 30
0.0
 10
139.8170479910716
 20
-77.23818359375009
 30
0.0
 10
139.8170479910716
 20
-77.23818359375009
 30
0.0
 10
140.2640345982145
 20
-77.35537109375009
 30
0.0
 10
140.2640345982145
 20
-77.35537109375009
 30
0.0
 10
140.3186104910715
 20
-77.34917689732174
 30
0.0
 10
140.3956194196429
 20
-77.3459960937502
 30
0.0
 10
140.4953962053571
 20
-77.3459960937502
 30
0.0
 10
140.4953962053571
 20
-77.3459960937502
 30
0.0
 10
140.5456194196428
 20
-77.34482421875042
 30
0.0
 10
140.5456194196428
 20
-77.34482421875042
 30
0.0
 10
140.612918526786
 20
-77.32021484375009
 30
0.0
 10
140.6731863839288
 20
-77.30565011160745
 30
0.0
 10
140.726088169643
 20
-77.30079520089306
 30
0.0
 10
140.8379185267856
 20
-77.33929966517877
 30
0.0
 10
140.9581194196429
 20
-77.39889787946438
 30
0.0
 10
141.0870256696429
 20
-77.47958984375042
 30
0.0
  0
SPLINE
  5
96
330
70
100
AcDbEntity
  8
Cipher2
 62
   250
420
  2301728
370
    18
100
AcDbSpline
210
0.0
220
0.0
230
1.0
 70
     9
 71
     3
 72
    17
 73
    13
 74
     0
 42
0.0000000001
 43
0.0000000001
 40
0.0
 40
0.0
 40
0.0
 40
0.0
 40
1.0
 40
1.0
 40
1.0
 40
2.0
 40
2.0
 40
2.0
 40
3.0
 40
3.0
 40
3.0
 40
4.0
 40
4.0
 40
4.0
 40
4.0
 10
140.3627232142857
 20
-75.2474888392857
 30
0.0
 10
140.3627232142857
 20
-75.2474888392857
 30
0.0
 10
140.3627232142857
 20
-75.36188616071427
 30
0.0
 10
140.3627232142857
 20
-75.36188616071427
 30
0.0
 10
140.3627232142857
 20
-75.60546875
 30
0.0
 10
140.4453125
 20
-75.77873883928571
 30
0.0
 10
140.6104910714285
 20
-75.88253348214284
 30
0.0
 10
140.7229352678571
 20
-75.82114955357143
 30
0.0
 10
140.8244977678571
 20
-75.75641741071428
 30
0.0
 10
140.9146205357143
 20
-75.68805803571428
 30
0.0
 10
140.7963169642857
 20
-75.47321428571428
 30
0.0
 10
140.6124441964285
 20
-75.32645089285714
 30
0.0
 10
140.3627232142857
 20
-75.2474888392857
 30
0.0
  0
SPLINE
  5
97
330
70
100
AcDbEntity
  8
Cipher2
 62
   250
420
  2301728
370
    18
100
AcDbSpline
210
0.0
220
0.0
230
1.0
 70
     9
 71
     3
 72
    20
 73
    16
 74
     0
 42
0.0000000001
 43
0.0000000001
 40
0.0
 40
0.0
 40
0.0
 40
0.0
 40
1.0
 40
1.0
 40
1.0
 40
2.0
 40
2.0
 40
2.0
 40
3.0
 40
3.0
 40
3.0
 40
4.0
 40
4.0
 40
4.0
 40
5.0
 40
5.0
 40
5.0
 40
5.0
 10
140.9938616071428
 20
-75.86077008928571
 30
0.0
 10
140.8292410714285
 20
-75.99358258928571
 30
0.0
 10
140.611328125
 20
-76.10825892857143
 30
0.0
 10
140.3401227678571
 20
-76.2045200892857
 30
0.0
 10
140.4246651785714
 20
-76.38699776785713
 30
0.0
 10
140.5521763392857
 20
-76.4779575892857
 30
0.0
 10
140.72265625
 20
-76.4779575892857
 30
0.0
 10
140.8200334821428
 20
-76.4779575892857
 30
0.0
 10
140.900390625
 20
-76.44642857142857
 30
0.0
 10
140.9634486607143
 20
-76.3828125
 30
0.0
 10
141.0265066964285
 20
-76.31947544642857
 30
0.0
 10
141.0580357142857
 20
-76.23883928571427
 30
0.0
 10
141.0580357142857
 20
-76.14118303571427
 30
0.0
 10
141.0580357142857
 20
-76.060546875
 30
0.0
 10
141.0365513392857
 20
-75.96707589285713
 30
0.0
 10
140.9938616071428
 20
-75.86077008928571
 30
0.0
  0
SPLINE
  5
98
330
70
100
AcDbEntity
  8
Cipher2
 62
   250
420
  2301728
370
    18
100
AcDbSpline
210
0.0
220
0.0
230
1.0
 70
     9
 71
     3
 72
    23
 73
    19
 74
     0
 42
0.0000000001
 43
0.0000000001
 40
0.0
 40
0.0
 40
0.0
 40
0.0
 40
1.0
 40
1.0
 40
1.0
 40
2.0
 40
2.0
 40
2.0
 40
3.0
 40
3.0
 40
3.0
 40
4.0
 40
4.0
 40
4.0
 40
5.0
 40
5.0
 40
5.0
 40
6.0
 40
6.0
 40
6.0
 40
6.0
 10
140.2380022321428
 20
-76.04352678571427
 30
0.0
 10
140.1570870535714
 20
-75.853515625
 30
0.0
 10
140.0398995535714
 20
-75.75837053571428
 30
0.0
 10
139.88671875
 20
-75.75837053571428
 30
0.0
 10
139.8303571428571
 20
-75.75837053571428
 30
0.0
 10
139.7885044642857
 20
-75.77036830357143
 30
0.0
 10
139.7603236607142
 20
-75.79408482142857
 30
0.0
 10
139.732421875
 20
-75.81780133928571
 30
0.0
 10
139.7181919642857
 20
-75.853515625
 30
0.0
 10
139.7181919642857
 20
-75.90094866071428
 30
0.0
 10
139.7181919642857
 20
-75.95703125
 30
0.0
 10
139.7413504464285
 20
-76.00390625
 30
0.0
 10
139.7876674107143
 20
-76.04157366071428
 30
0.0
 10
139.833984375
 20
-76.07924107142856
 30
0.0
 10
139.8914620535714
 20
-76.09821428571428
 30
0.0
 10
139.9601004464285
 20
-76.09821428571428
 30
0.0
 10
140.029296875
 20
-76.09821428571428
 30
0.0
 10
140.1219308035714
 20
-76.080078125
 30
0.0
 10
140.2380022321428
 20
-76.04352678571427
 30
0.0
  0
SPLINE
  5
99
330
70
100
AcDbEntity
  8
Cipher2
 62
   250
420
  2301728
370
    18
100
AcDbSpline
210
0.0
220
0.0
230
1.0
 70
     9
 71
     3
 72
   110
 73
   106
 74
     0
 42
0.0000000001
 43
0.0000000001
 40
0.0
 40
0.0
 40
0.0
 40
0.0
 40
1.0
 40
1.0
 40
1.0
 40
2.0
 40
2.0
 40
2.0
 40
3.0
 40
3.0
 40
3.0
 40
4.0
 40
4.0
 40
4.0
 40
5.0
 40
5.0
 40
5.0
 40
6.0
 40
6.0
 40
6.0
 40
7.0
 40
7.0
 40
7.0
 40
8.0
 40
8.0
 40
8.0
 40
9.0
 40
9.0
 40
9.0
 40
10.0
 40
10.0
 40
10.0
 40
11.0
 40
11.0
 40
11.0
 40
12.0
 40
12.0
 40
12.0
 40
13.0
 40
13.0
 40
13.0
 40
14.0
 40
14.0
 40
14.0
 40
15.0
 40
15.0
 40
15.0
 40
16.0
 40
16.0
 40
16.0
 40
17.0
 40
17.0
 40
17.0
 40
18.0
 40
18.0
 40
18.0
 40
19.0
 40
19.0
 40
19.0
 40
20.0
 40
20.0
 40
20.0
 40
21.0
 40
21.0
 40
21.0
 40
22.0
 40
22.0
 40
22.0
 40
23.0
 40
23.0
 40
23.0
 40
24.0
 40
24.0
 40
24.0
 40
25.0
 40
25.0
 40
25.0
 40
26.0
 40
26.0
 40
26.0
 40
27.0
 40
27.0
 40
27.0
 40
28.0
 40
28.0
 40
28.0
 40
29.0
 40
29.0
 40
29.0
 40
30.0
 40
30.0
 40
30.0
 40
31.0
 40
31.0
 40
31.0
 40
32.0
 40
32.0
 40
32.0
 40
33.0
 40
33.0
 40
33.0
 40
34.0
 40
34.0
 40
34.0
 40
35.0
 40
35.0
 40
35.0
 40
35.0
 10
141.0560825892857
 20
-75.80915178571427
 30
0.0
 10
141.1316964285714
 20
-75.95172991071428
 30
0.0
 10
141.1693638392857
 20
-76.10239955357143
 30
0.0
 10
141.1693638392857
 20
-76.26143973214285
 30
0.0
 10
141.1693638392857
 20
-76.38364955357143
 30
0.0
 10
141.1333705357143
 20
-76.484375
 30
0.0
 10
141.0616629464285
 20
-76.56361607142857
 30
0.0
 10
140.9896763392857
 20
-76.64271763392857
 30
0.0
 10
140.8978794642857
 20
-76.68233816964285
 30
0.0
 10
140.7857142857142
 20
-76.68233816964285
 30
0.0
 10
140.6791294642857
 20
-76.68233816964285
 30
0.0
 10
140.5862165178571
 20
-76.64606584821427
 30
0.0
 10
140.5072544642857
 20
-76.57352120535714
 30
0.0
 10
140.4280133928571
 20
-76.50083705357143
 30
0.0
 10
140.353515625
 20
-76.38337053571428
 30
0.0
 10
140.283203125
 20
-76.22126116071427
 30
0.0
 10
140.203125
 20
-76.25251116071428
 30
0.0
 10
140.1283482142857
 20
-76.26813616071427
 30
0.0
 10
140.0594308035714
 20
-76.26813616071427
 30
0.0
 10
139.9539620535714
 20
-76.26813616071427
 30
0.0
 10
139.8596540178571
 20
-76.22544642857143
 30
0.0
 10
139.7765066964285
 20
-76.13978794642857
 30
0.0
 10
139.693359375
 20
-76.05412946428571
 30
0.0
 10
139.6517857142857
 20
-75.95703125
 30
0.0
 10
139.6517857142857
 20
-75.84821428571427
 30
0.0
 10
139.6517857142857
 20
-75.77455357142857
 30
0.0
 10
139.673828125
 20
-75.71456473214285
 30
0.0
 10
139.7179129464285
 20
-75.66768973214284
 30
0.0
 10
139.76171875
 20
-75.62081473214284
 30
0.0
 10
139.8186383928571
 20
-75.59737723214285
 30
0.0
 10
139.8883928571428
 20
-75.59737723214285
 30
0.0
 10
140.0669642857143
 20
-75.59737723214285
 30
0.0
 10
140.2020089285714
 20
-75.73883928571428
 30
0.0
 10
140.2940848214285
 20
-76.02204241071428
 30
0.0
 10
140.3512834821428
 20
-76.00251116071428
 30
0.0
 10
140.4375
 20
-75.96568080357143
 30
0.0
 10
140.5530133928571
 20
-75.9115513392857
 30
0.0
 10
140.4243861607143
 20
-75.83816964285714
 30
0.0
 10
140.3364955357143
 20
-75.75641741071428
 30
0.0
 10
140.2887834821428
 20
-75.66657366071428
 30
0.0
 10
140.2410714285714
 20
-75.57672991071427
 30
0.0
 10
140.2173549107143
 20
-75.447265625
 30
0.0
 10
140.2173549107143
 20
-75.27790178571428
 30
0.0
 10
140.2173549107143
 20
-75.27790178571428
 30
0.0
 10
140.2173549107143
 20
-74.96847098214285
 30
0.0
 10
140.2173549107143
 20
-74.96847098214285
 30
0.0
 10
140.2173549107143
 20
-74.77622767857143
 30
0.0
 10
140.2061941964285
 20
-74.65122767857143
 30
0.0
 10
140.1841517857143
 20
-74.59347098214284
 30
0.0
 10
140.1623883928571
 20
-74.53543526785714
 30
0.0
 10
140.115234375
 20
-74.50641741071428
 30
0.0
 10
140.0421316964285
 20
-74.50641741071428
 30
0.0
 10
139.9768415178571
 20
-74.50641741071428
 30
0.0
 10
139.9302455357142
 20
-74.54045758928571
 30
0.0
 10
139.90234375
 20
-74.60909598214285
 30
0.0
 10
139.90234375
 20
-74.60909598214285
 30
0.0
 10
139.7642299107143
 20
-74.46847098214284
 30
0.0
 10
139.7642299107143
 20
-74.46847098214284
 30
0.0
 10
139.8152901785714
 20
-74.40652901785714
 30
0.0
 10
139.8791852678571
 20
-74.37555803571427
 30
0.0
 10
139.9561941964285
 20
-74.37555803571427
 30
0.0
 10
140.0666852678571
 20
-74.37555803571427
 30
0.0
 10
140.162109375
 20
-74.44001116071428
 30
0.0
 10
140.2421875
 20
-74.56891741071427
 30
0.0
 10
140.3225446428571
 20
-74.69782366071427
 30
0.0
 10
140.3627232142857
 20
-74.85016741071428
 30
0.0
 10
140.3627232142857
 20
-75.02594866071428
 30
0.0
 10
140.3627232142857
 20
-75.02594866071428
 30
0.0
 10
140.3627232142857
 20
-75.10016741071428
 30
0.0
 10
140.3627232142857
 20
-75.10016741071428
 30
0.0
 10
140.6001674107143
 20
-75.20172991071428
 30
0.0
 10
140.7996651785714
 20
-75.38364955357143
 30
0.0
 10
140.9614955357143
 20
-75.64592633928571
 30
0.0
 10
141.0848214285714
 20
-75.53599330357143
 30
0.0
 10
141.1805245535714
 20
-75.41378348214284
 30
0.0
 10
141.2483258928571
 20
-75.2787388392857
 30
0.0
 10
141.3161272321428
 20
-75.14425223214285
 30
0.0
 10
141.3501674107143
 20
-75.00920758928571
 30
0.0
 10
141.3501674107143
 20
-74.87472098214285
 30
0.0
 10
141.3501674107143
 20
-74.75362723214285
 30
0.0
 10
141.3152901785714
 20
-74.65597098214285
 30
0.0
 10
141.2455357142857
 20
-74.58175223214285
 30
0.0
 10
141.17578125
 20
-74.50753348214284
 30
0.0
 10
141.0842633928571
 20
-74.47014508928571
 30
0.0
 10
140.9709821428571
 20
-74.47014508928571
 30
0.0
 10
140.865234375
 20
-74.47014508928571
 30
0.0
 10
140.7907366071428
 20
-74.52204241071427
 30
0.0
 10
140.7469308035714
 20
-74.62555803571428
 30
0.0
 10
140.7469308035714
 20
-74.62555803571428
 30
0.0
 10
140.5998883928571
 20
-74.46847098214284
 30
0.0
 10
140.5998883928571
 20
-74.46847098214284
 30
0.0
 10
140.6459263392857
 20
-74.36997767857143
 30
0.0
 10
140.7321428571428
 20
-74.32087053571428
 30
0.0
 10
140.8582589285714
 20
-74.32087053571428
 30
0.0
 10
141.0228794642857
 20
-74.32087053571428
 30
0.0
 10
141.162109375
 20
-74.38839285714284
 30
0.0
 10
141.2759486607143
 20
-74.5234375
 30
0.0
 10
141.3897879464285
 20
-74.65848214285713
 30
0.0
 10
141.4467075892857
 20
-74.82393973214285
 30
0.0
 10
141.4467075892857
 20
-75.01925223214285
 30
0.0
 10
141.4467075892857
 20
-75.15987723214284
 30
0.0
 10
141.4126674107142
 20
-75.298828125
 30
0.0
 10
141.3443080357142
 20
-75.43666294642857
 30
0.0
 10
141.2759486607143
 20
-75.57421875
 30
0.0
 10
141.1799665178571
 20
-75.69838169642856
 30
0.0
 10
141.0560825892857
 20
-75.80915178571427
 30
0.0
  0
SPLINE
  5
9A
330
70
100
AcDbEntity
  8
Cipher2
 62
   250
420
  2301728
370
    18
100
AcDbSpline
210
0.0
220
0.0
230
1.0
 70
    11
 71
     3
 72
    17
 73
    13
 74
     0
 42
0.0000000001
 43
0.0000000001
 40
0.0
 40
0.0
 40
0.0
 40
0.0
 40
1.0
 40
1.0
 40
1.0
 40
2.0
 40
2.0
 40
2.0
 40
3.0
 40
3.0
 40
3.0
 40
4.0
 40
4.0
 40
4.0
 40
4.0
 10
140.4107142857142
 20
-73.80385044642856
 30
0.0
 10
140.4107142857142
 20
-73.80385044642856
 30
0.0
 10
140.0013950892857
 20
-73.39481026785714
 30
0.0
 10
140.0013950892857
 20
-73.39481026785714
 30
0.0
 10
140.0013950892857
 20
-73.39481026785714
 30
0.0
 10
140.4107142857142
 20
-72.98660714285714
 30
0.0
 10
140.4107142857142
 20
-72.98660714285714
 30
0.0
 10
140.4107142857142
 20
-72.98660714285714
 30
0.0
 10
140.8197544642857
 20
-73.39481026785714
 30
0.0
 10
140.8197544642857
 20
-73.39481026785714
 30
0.0
 10
140.8197544642857
 20
-73.39481026785714
 30
0.0
 10
140.4107142857142
 20
-73.80385044642856
 30
0.0
 10
140.4107142857142
 20
-73.80385044642856
 30
0.0
  0
SPLINE
  5
9B
330
70
100
AcDbEntity
  8
Cipher2
 62
   250
420
  2301728
370
    18
100
AcDbSpline
210
0.0
220
0.0
230
1.0
 70
     9
 71
     3
 72
    29
 73
    25
 74
     0
 42
0.0000000001
 43
0.0000000001
 40
0.0
 40
0.0
 40
0.0
 40
0.0
 40
1.0
 40
1.0
 40
1.0
 40
2.0
 40
2.0
 40
2.0
 40
3.0
 40
3.0
 40
3.0
 40
4.0
 40
4.0
 40
4.0
 40
5.0
 40
5.0
 40
5.0
 40
6.0
 40
6.0
 40
6.0
 40
7.0
 40
7.0
 40
7.0
 40
8.0
 40
8.0
 40
8.0
 40
8.0
 10
140.7525111607142
 20
-72.24051339285714
 30
0.0
 10
140.8292410714285
 20
-72.24051339285714
 30
0.0
 10
140.8939732142857
 20
-72.21484375
 30
0.0
 10
140.9464285714285
 20
-72.16378348214284
 30
0.0
 10
140.9986049107143
 20
-72.1127232142857
 30
0.0
 10
141.0248325892857
 20
-72.04966517857143
 30
0.0
 10
141.0248325892857
 20
-71.97488839285714
 30
0.0
 10
141.0248325892857
 20
-71.90206473214285
 30
0.0
 10
140.9986049107143
 20
-71.83956473214284
 30
0.0
 10
140.9458705357143
 20
-71.78794642857143
 30
0.0
 10
140.8931361607143
 20
-71.73604910714285
 30
0.0
 10
140.8292410714285
 20
-71.71037946428571
 30
0.0
 10
140.7544642857143
 20
-71.71037946428571
 30
0.0
 10
140.6782924107143
 20
-71.71037946428571
 30
0.0
 10
140.6138392857142
 20
-71.73604910714285
 30
0.0
 10
140.5616629464285
 20
-71.78738839285713
 30
0.0
 10
140.5092075892857
 20
-71.83872767857143
 30
0.0
 10
140.4829799107143
 20
-71.90206473214285
 30
0.0
 10
140.4829799107143
 20
-71.97684151785714
 30
0.0
 10
140.4829799107143
 20
-72.04966517857143
 30
0.0
 10
140.5092075892857
 20
-72.11188616071428
 30
0.0
 10
140.5619419642857
 20
-72.1635044642857
 30
0.0
 10
140.6146763392857
 20
-72.21484375
 30
0.0
 10
140.6782924107143
 20
-72.24051339285714
 30
0.0
 10
140.7525111607142
 20
-72.24051339285714
 30
0.0
  0
SPLINE
  5
9C
330
70
100
AcDbEntity
  8
Cipher2
 62
   250
420
  2301728
370
    18
100
AcDbSpline
210
0.0
220
0.0
230
1.0
 70
     9
 71
     3
 72
   104
 73
   100
 74
     0
 42
0.0000000001
 43
0.0000000001
 40
0.0
 40
0.0
 40
0.0
 40
0.0
 40
1.0
 40
1.0
 40
1.0
 40
2.0
 40
2.0
 40
2.0
 40
3.0
 40
3.0
 40
3.0
 40
4.0
 40
4.0
 40
4.0
 40
5.0
 40
5.0
 40
5.0
 40
6.0
 40
6.0
 40
6.0
 40
7.0
 40
7.0
 40
7.0
 40
8.0
 40
8.0
 40
8.0
 40
9.0
 40
9.0
 40
9.0
 40
10.0
 40
10.0
 40
10.0
 40
11.0
 40
11.0
 40
11.0
 40
12.0
 40
12.0
 40
12.0
 40
13.0
 40
13.0
 40
13.0
 40
14.0
 40
14.0
 40
14.0
 40
15.0
 40
15.0
 40
15.0
 40
16.0
 40
16.0
 40
16.0
 40
17.0
 40
17.0
 40
17.0
 40
18.0
 40
18.0
 40
18.0
 40
19.0
 40
19.0
 40
19.0
 40
20.0
 40
20.0
 40
20.0
 40
21.0
 40
21.0
 40
21.0
 40
22.0
 40
22.0
 40
22.0
 40
23.0
 40
23.0
 40
23.0
 40
24.0
 40
24.0
 40
24.0
 40
25.0
 40
25.0
 40
25.0
 40
26.0
 40
26.0
 40
26.0
 40
27.0
 40
27.0
 40
27.0
 40
28.0
 40
28.0
 40
28.0
 40
29.0
 40
29.0
 40
29.0
 40
30.0
 40
30.0
 40
30.0
 40
31.0
 40
31.0
 40
31.0
 40
32.0
 40
32.0
 40
32.0
 40
33.0
 40
33.0
 40
33.0
 40
33.0
 10
141.3872767857142
 20
-70.8041294642857
 30
0.0
 10
141.4907924107142
 20
-70.91657366071427
 30
0.0
 10
141.5424107142857
 20
-71.02455357142857
 30
0.0
 10
141.5424107142857
 20
-71.1283482142857
 30
0.0
 10
141.5424107142857
 20
-71.21819196428571
 30
0.0
 10
141.5125558035714
 20
-71.29352678571428
 30
0.0
 10
141.453125
 20
-71.35435267857143
 30
0.0
 10
141.3934151785714
 20
-71.41517857142857
 30
0.0
 10
141.3200334821428
 20
-71.44559151785713
 30
0.0
 10
141.2327008928571
 20
-71.44559151785713
 30
0.0
 10
141.1160714285714
 20
-71.44559151785713
 30
0.0
 10
140.9280133928571
 20
-71.38448660714285
 30
0.0
 10
140.66796875
 20
-71.26199776785714
 30
0.0
 10
140.66796875
 20
-71.26199776785714
 30
0.0
 10
140.46875
 20
-71.16824776785714
 30
0.0
 10
140.46875
 20
-71.16824776785714
 30
0.0
 10
140.3141741071428
 20
-71.09598214285714
 30
0.0
 10
140.1891741071428
 20
-71.05970982142856
 30
0.0
 10
140.0934709821428
 20
-71.05970982142856
 30
0.0
 10
139.9709821428571
 20
-71.05970982142856
 30
0.0
 10
139.8727678571428
 20
-71.09542410714285
 30
0.0
 10
139.7982700892857
 20
-71.16685267857143
 30
0.0
 10
139.7240513392857
 20
-71.23800223214285
 30
0.0
 10
139.6869419642857
 20
-71.33231026785714
 30
0.0
 10
139.6869419642857
 20
-71.44949776785714
 30
0.0
 10
139.6869419642857
 20
-71.55943080357143
 30
0.0
 10
139.7201450892857
 20
-71.6484375
 30
0.0
 10
139.7862723214285
 20
-71.71651785714285
 30
0.0
 10
139.8523995535714
 20
-71.78459821428571
 30
0.0
 10
139.9391741071428
 20
-71.81863839285714
 30
0.0
 10
140.0465959821428
 20
-71.81863839285714
 30
0.0
 10
140.1456473214285
 20
-71.81863839285714
 30
0.0
 10
140.26171875
 20
-71.78683035714285
 30
0.0
 10
140.39453125
 20
-71.72293526785714
 30
0.0
 10
140.39453125
 20
-71.72293526785714
 30
0.0
 10
140.4737723214285
 20
-71.68470982142856
 30
0.0
 10
140.4737723214285
 20
-71.68470982142856
 30
0.0
 10
140.6046316964285
 20
-71.62165178571427
 30
0.0
 10
140.701171875
 20
-71.59012276785714
 30
0.0
 10
140.7628348214285
 20
-71.59012276785714
 30
0.0
 10
140.8627232142857
 20
-71.59012276785714
 30
0.0
 10
140.94921875
 20
-71.62779017857143
 30
0.0
 10
141.0228794642857
 20
-71.70284598214284
 30
0.0
 10
141.0965401785714
 20
-71.77818080357143
 30
0.0
 10
141.1333705357143
 20
-71.86690848214285
 30
0.0
 10
141.1333705357143
 20
-71.96902901785714
 30
0.0
 10
141.1333705357143
 20
-72.07449776785714
 30
0.0
 10
141.0962611607143
 20
-72.1640625
 30
0.0
 10
141.0220424107142
 20
-72.23800223214285
 30
0.0
 10
140.9478236607142
 20
-72.31194196428571
 30
0.0
 10
140.8577008928571
 20
-72.34877232142856
 30
0.0
 10
140.7513950892857
 20
-72.34877232142856
 30
0.0
 10
140.6492745535714
 20
-72.34877232142856
 30
0.0
 10
140.5608258928571
 20
-72.3125
 30
0.0
 10
140.486328125
 20
-72.23939732142857
 30
0.0
 10
140.4118303571428
 20
-72.16657366071427
 30
0.0
 10
140.3744419642857
 20
-72.07979910714285
 30
0.0
 10
140.3744419642857
 20
-71.97879464285714
 30
0.0
 10
140.3744419642857
 20
-71.94224330357143
 30
0.0
 10
140.3814174107143
 20
-71.90206473214285
 30
0.0
 10
140.3950892857142
 20
-71.85770089285714
 30
0.0
 10
140.2603236607142
 20
-71.92801339285714
 30
0.0
 10
140.1411830357143
 20
-71.96316964285713
 30
0.0
 10
140.0376674107143
 20
-71.96316964285713
 30
0.0
 10
139.9029017857142
 20
-71.96316964285713
 30
0.0
 10
139.7907366071428
 20
-71.91462053571427
 30
0.0
 10
139.701171875
 20
-71.81724330357143
 30
0.0
 10
139.6116071428571
 20
-71.71986607142857
 30
0.0
 10
139.5669642857143
 20
-71.59765625
 30
0.0
 10
139.5669642857143
 20
-71.45033482142856
 30
0.0
 10
139.5669642857143
 20
-71.2890625
 30
0.0
 10
139.6143973214285
 20
-71.15959821428571
 30
0.0
 10
139.708984375
 20
-71.06194196428571
 30
0.0
 10
139.8038504464285
 20
-70.96428571428571
 30
0.0
 10
139.9294084821428
 20
-70.91517857142857
 30
0.0
 10
140.0864955357143
 20
-70.91517857142857
 30
0.0
 10
140.1646205357143
 20
-70.91517857142857
 30
0.0
 10
140.2318638392857
 20
-70.92354910714284
 30
0.0
 10
140.2885044642857
 20
-70.93973214285714
 30
0.0
 10
140.3451450892857
 20
-70.95591517857143
 30
0.0
 10
140.4386160714285
 20
-70.99441964285714
 30
0.0
 10
140.5689174107143
 20
-71.05496651785713
 30
0.0
 10
140.5689174107143
 20
-71.05496651785713
 30
0.0
 10
140.7154017857143
 20
-71.12220982142857
 30
0.0
 10
140.7154017857143
 20
-71.12220982142857
 30
0.0
 10
140.9743303571428
 20
-71.2421875
 30
0.0
 10
141.1420200892857
 20
-71.30189732142857
 30
0.0
 10
141.2181919642857
 20
-71.30189732142857
 30
0.0
 10
141.2742745535714
 20
-71.30189732142857
 30
0.0
 10
141.3203125
 20
-71.28515625
 30
0.0
 10
141.3565848214285
 20
-71.25167410714285
 30
0.0
 10
141.392578125
 20
-71.21819196428571
 30
0.0
 10
141.4107142857143
 20
-71.17550223214284
 30
0.0
 10
141.4107142857143
 20
-71.12332589285713
 30
0.0
 10
141.4107142857143
 20
-71.05496651785713
 30
0.0
 10
141.3719308035714
 20
-70.97684151785713
 30
0.0
 10
141.2943638392857
 20
-70.88895089285713
 30
0.0
 10
141.2943638392857
 20
-70.88895089285713
 30
0.0
 10
141.3872767857142
 20
-70.8041294642857
 30
0.0
 10
141.3872767857142
 20
-70.8041294642857
 30
0.0
  0
SPLINE
  5
9D
330
70
100
AcDbEntity
  8
Cipher2
 62
   250
420
  2301728
370
    18
100
AcDbSpline
210
0.0
220
0.0
230
1.0
 70
     9
 71
     3
 72
    29
 73
    25
 74
     0
 42
0.0000000001
 43
0.0000000001
 40
0.0
 40
0.0
 40
0.0
 40
0.0
 40
1.0
 40
1.0
 40
1.0
 40
2.0
 40
2.0
 40
2.0
 40
3.0
 40
3.0
 40
3.0
 40
4.0
 40
4.0
 40
4.0
 40
5.0
 40
5.0
 40
5.0
 40
6.0
 40
6.0
 40
6.0
 40
7.0
 40
7.0
 40
7.0
 40
8.0
 40
8.0
 40
8.0
 40
8.0
 10
140.7525111607142
 20
-70.05859375
 30
0.0
 10
140.8292410714285
 20
-70.05859375
 30
0.0
 10
140.8939732142857
 20
-70.03292410714284
 30
0.0
 10
140.9464285714285
 20
-69.98186383928571
 30
0.0
 10
140.9986049107143
 20
-69.93080357142857
 30
0.0
 10
141.0248325892857
 20
-69.86774553571428
 30
0.0
 10
141.0248325892857
 20
-69.79296875
 30
0.0
 10
141.0248325892857
 20
-69.7201450892857
 30
0.0
 10
140.9986049107143
 20
-69.65764508928571
 30
0.0
 10
140.9458705357143
 20
-69.60602678571428
 30
0.0
 10
140.8931361607143
 20
-69.5541294642857
 30
0.0
 10
140.8292410714285
 20
-69.52845982142857
 30
0.0
 10
140.7544642857143
 20
-69.52845982142857
 30
0.0
 10
140.6782924107143
 20
-69.52845982142857
 30
0.0
 10
140.6138392857142
 20
-69.5541294642857
 30
0.0
 10
140.5616629464285
 20
-69.60546875
 30
0.0
 10
140.5092075892857
 20
-69.65680803571427
 30
0.0
 10
140.4829799107143
 20
-69.7201450892857
 30
0.0
 10
140.4829799107143
 20
-69.794921875
 30
0.0
 10
140.4829799107143
 20
-69.86774553571428
 30
0.0
 10
140.5092075892857
 20
-69.92996651785714
 30
0.0
 10
140.5619419642857
 20
-69.98158482142857
 30
0.0
 10
140.6146763392857
 20
-70.03292410714284
 30
0.0
 10
140.6782924107143
 20
-70.05859375
 30
0.0
 10
140.7525111607142
 20
-70.05859375
 30
0.0
  0
SPLINE
  5
9E
330
70
100
AcDbEntity
  8
Cipher2
 62
   250
420
  2301728
370
    18
100
AcDbSpline
210
0.0
220
0.0
230
1.0
 70
     9
 71
     3
 72
   104
 73
   100
 74
     0
 42
0.0000000001
 43
0.0000000001
 40
0.0
 40
0.0
 40
0.0
 40
0.0
 40
1.0
 40
1.0
 40
1.0
 40
2.0
 40
2.0
 40
2.0
 40
3.0
 40
3.0
 40
3.0
 40
4.0
 40
4.0
 40
4.0
 40
5.0
 40
5.0
 40
5.0
 40
6.0
 40
6.0
 40
6.0
 40
7.0
 40
7.0
 40
7.0
 40
8.0
 40
8.0
 40
8.0
 40
9.0
 40
9.0
 40
9.0
 40
10.0
 40
10.0
 40
10.0
 40
11.0
 40
11.0
 40
11.0
 40
12.0
 40
12.0
 40
12.0
 40
13.0
 40
13.0
 40
13.0
 40
14.0
 40
14.0
 40
14.0
 40
15.0
 40
15.0
 40
15.0
 40
16.0
 40
16.0
 40
16.0
 40
17.0
 40
17.0
 40
17.0
 40
18.0
 40
18.0
 40
18.0
 40
19.0
 40
19.0
 40
19.0
 40
20.0
 40
20.0
 40
20.0
 40
21.0
 40
21.0
 40
21.0
 40
22.0
 40
22.0
 40
22.0
 40
23.0
 40
23.0
 40
23.0
 40
24.0
 40
24.0
 40
24.0
 40
25.0
 40
25.0
 40
25.0
 40
26.0
 40
26.0
 40
26.0
 40
27.0
 40
27.0
 40
27.0
 40
28.0
 40
28.0
 40
28.0
 40
29.0
 40
29.0
 40
29.0
 40
30.0
 40
30.0
 40
30.0
 40
31.0
 40
31.0
 40
31.0
 40
32.0
 40
32.0
 40
32.0
 40
33.0
 40
33.0
 40
33.0
 40
33.0
 10
141.3872767857142
 20
-68.62220982142857
 30
0.0
 10
141.4907924107142
 20
-68.73465401785714
 30
0.0
 10
141.5424107142857
 20
-68.84263392857143
 30
0.0
 10
141.5424107142857
 20
-68.94642857142857
 30
0.0
 10
141.5424107142857
 20
-69.03627232142857
 30
0.0
 10
141.5125558035714
 20
-69.11160714285713
 30
0.0
 10
141.453125
 20
-69.17243303571428
 30
0.0
 10
141.3934151785714
 20
-69.23325892857143
 30
0.0
 10
141.3200334821428
 20
-69.263671875
 30
0.0
 10
141.2327008928571
 20
-69.263671875
 30
0.0
 10
141.1160714285714
 20
-69.263671875
 30
0.0
 10
140.9280133928571
 20
-69.2025669642857
 30
0.0
 10
140.66796875
 20
-69.080078125
 30
0.0
 10
140.66796875
 20
-69.080078125
 30
0.0
 10
140.46875
 20
-68.986328125
 30
0.0
 10
140.46875
 20
-68.986328125
 30
0.0
 10
140.3141741071428
 20
-68.9140625
 30
0.0
 10
140.1891741071428
 20
-68.87779017857143
 30
0.0
 10
140.0934709821428
 20
-68.87779017857143
 30
0.0
 10
139.9709821428571
 20
-68.87779017857143
 30
0.0
 10
139.8727678571428
 20
-68.91350446428571
 30
0.0
 10
139.7982700892857
 20
-68.98493303571427
 30
0.0
 10
139.7240513392857
 20
-69.0560825892857
 30
0.0
 10
139.6869419642857
 20
-69.150390625
 30
0.0
 10
139.6869419642857
 20
-69.267578125
 30
0.0
 10
139.6869419642857
 20
-69.37751116071428
 30
0.0
 10
139.7201450892857
 20
-69.46651785714284
 30
0.0
 10
139.7862723214285
 20
-69.5345982142857
 30
0.0
 10
139.8523995535714
 20
-69.60267857142857
 30
0.0
 10
139.9391741071428
 20
-69.63671875
 30
0.0
 10
140.0465959821428
 20
-69.63671875
 30
0.0
 10
140.1456473214285
 20
-69.63671875
 30
0.0
 10
140.26171875
 20
-69.6049107142857
 30
0.0
 10
140.39453125
 20
-69.541015625
 30
0.0
 10
140.39453125
 20
-69.541015625
 30
0.0
 10
140.4737723214285
 20
-69.50279017857143
 30
0.0
 10
140.4737723214285
 20
-69.50279017857143
 30
0.0
 10
140.6046316964285
 20
-69.43973214285714
 30
0.0
 10
140.701171875
 20
-69.408203125
 30
0.0
 10
140.7628348214285
 20
-69.408203125
 30
0.0
 10
140.8627232142857
 20
-69.408203125
 30
0.0
 10
140.94921875
 20
-69.44587053571428
 30
0.0
 10
141.0228794642857
 20
-69.52092633928571
 30
0.0
 10
141.0965401785714
 20
-69.59626116071428
 30
0.0
 10
141.1333705357143
 20
-69.68498883928571
 30
0.0
 10
141.1333705357143
 20
-69.787109375
 30
0.0
 10
141.1333705357143
 20
-69.892578125
 30
0.0
 10
141.0962611607143
 20
-69.98214285714285
 30
0.0
 10
141.0220424107142
 20
-70.05608258928571
 30
0.0
 10
140.9478236607142
 20
-70.13002232142857
 30
0.0
 10
140.8577008928571
 20
-70.16685267857143
 30
0.0
 10
140.7513950892857
 20
-70.16685267857143
 30
0.0
 10
140.6492745535714
 20
-70.16685267857143
 30
0.0
 10
140.5608258928571
 20
-70.13058035714284
 30
0.0
 10
140.486328125
 20
-70.05747767857143
 30
0.0
 10
140.4118303571428
 20
-69.98465401785714
 30
0.0
 10
140.3744419642857
 20
-69.8978794642857
 30
0.0
 10
140.3744419642857
 20
-69.796875
 30
0.0
 10
140.3744419642857
 20
-69.76032366071428
 30
0.0
 10
140.3814174107143
 20
-69.7201450892857
 30
0.0
 10
140.3950892857142
 20
-69.67578125
 30
0.0
 10
140.2603236607142
 20
-69.74609375
 30
0.0
 10
140.1411830357143
 20
-69.78125
 30
0.0
 10
140.0376674107143
 20
-69.78125
 30
0.0
 10
139.9029017857142
 20
-69.78125
 30
0.0
 10
139.7907366071428
 20
-69.73270089285714
 30
0.0
 10
139.701171875
 20
-69.63532366071428
 30
0.0
 10
139.6116071428571
 20
-69.53794642857143
 30
0.0
 10
139.5669642857143
 20
-69.41573660714285
 30
0.0
 10
139.5669642857143
 20
-69.26841517857143
 30
0.0
 10
139.5669642857143
 20
-69.10714285714284
 30
0.0
 10
139.6143973214285
 20
-68.97767857142857
 30
0.0
 10
139.708984375
 20
-68.88002232142857
 30
0.0
 10
139.8038504464285
 20
-68.78236607142857
 30
0.0
 10
139.9294084821428
 20
-68.73325892857143
 30
0.0
 10
140.0864955357143
 20
-68.73325892857143
 30
0.0
 10
140.1646205357143
 20
-68.73325892857143
 30
0.0
 10
140.2318638392857
 20
-68.74162946428571
 30
0.0
 10
140.2885044642857
 20
-68.7578125
 30
0.0
 10
140.3451450892857
 20
-68.77399553571428
 30
0.0
 10
140.4386160714285
 20
-68.8125
 30
0.0
 10
140.5689174107143
 20
-68.873046875
 30
0.0
 10
140.5689174107143
 20
-68.873046875
 30
0.0
 10
140.7154017857143
 20
-68.94029017857143
 30
0.0
 10
140.7154017857143
 20
-68.94029017857143
 30
0.0
 10
140.9743303571428
 20
-69.06026785714285
 30
0.0
 10
141.1420200892857
 20
-69.11997767857143
 30
0.0
 10
141.2181919642857
 20
-69.11997767857143
 30
0.0
 10
141.2742745535714
 20
-69.11997767857143
 30
0.0
 10
141.3203125
 20
-69.10323660714285
 30
0.0
 10
141.3565848214285
 20
-69.06975446428571
 30
0.0
 10
141.392578125
 20
-69.03627232142857
 30
0.0
 10
141.4107142857143
 20
-68.99358258928571
 30
0.0
 10
141.4107142857143
 20
-68.94140625
 30
0.0
 10
141.4107142857143
 20
-68.873046875
 30
0.0
 10
141.3719308035714
 20
-68.794921875
 30
0.0
 10
141.2943638392857
 20
-68.70703125
 30
0.0
 10
141.2943638392857
 20
-68.70703125
 30
0.0
 10
141.3872767857142
 20
-68.62220982142857
 30
0.0
 10
141.3872767857142
 20
-68.62220982142857
 30
0.0
  0
LWPOLYLINE
  5
9F
330
70
100
AcDbEntity
  8
Cipher2
 62
   250
420
  2301728
370
    18
100
AcDbPolyline
 90
       20
 70
     0
 43
0.0
 10
139.9047619047617
 20
-85.51587301587279
 10
140.0952380952382
 20
-85.32142857142831
 10
140.25
 20
-85.24206349206334
 10
140.4105747767857
 20
-85.21428571428545
 10
140.5
 20
-85.21428571428545
 10
140.6071428571428
 20
-85.23412698412695
 10
140.7023809523811
 20
-85.25396825396819
 10
140.8253968253967
 20
-85.33730158730135
 10
140.9285714285714
 20
-85.44444444444421
 10
141.0
 20
-85.56746031746012
 10
141.0317460317461
 20
-85.70634920634907
 10
141.059523809524
 20
-85.94047619047602
 10
141.0158730158728
 20
-85.94047619047602
 10
141.0
 20
-85.7261904761903
 10
140.9246031746032
 20
-85.57738095238061
 10
140.7976190476188
 20
-85.44444444444421
 10
140.6150793650792
 20
-85.33333333333315
 10
140.4444444444442
 20
-85.31349206349192
 10
140.3333333333331
 20
-85.31349206349192
 10
140.0873015873013
 20
-85.39913504464285
  0
LWPOLYLINE
  5
A0
330
70
100
AcDbEntity
  8
Cipher2
 62
   250
420
  2301728
370
    18
100
AcDbPolyline
 90
        7
 70
     0
 43
0.0
 10
139.8928571428571
 20
-76.16936383928571
 10
140.2380022321428
 20
-76.16936383928571
 10
140.701171875
 20
-75.95238095238086
 10
141.0753968253967
 20
-75.67063492063477
 10
141.2420634920636
 20
-75.48015873015849
 10
141.3650793650792
 20
-75.21031746031725
 10
141.3928571428571
 20
-75.05952380952372
  0
LWPOLYLINE
  5
A1
330
70
100
AcDbEntity
  8
Cipher2
 62
   250
420
  2301728
370
    18
100
AcDbPolyline
 90
        6
 70
     0
 43
0.0
 10
140.5158730158728
 20
-76.4779575892857
 10
140.701171875
 20
-76.58333333333316
 10
140.8197544642857
 20
-76.58333333333316
 10
140.940476190476
 20
-76.53064546130943
 10
141.0580357142857
 20
-76.41666666666657
 10
141.1079799107143
 20
-76.2222222222221
  0
LWPOLYLINE
  5
A2
330
70
100
AcDbEntity
  8
Cipher2
 62
   250
420
  2301728
370
    18
100
AcDbPolyline
 90
        3
 70
     0
 43
0.0
 10
139.8199433343512
 20
-74.5251973771184
 10
139.9523809523811
 20
-74.43253968253962
 10
140.0317460317461
 20
-74.43253968253962
  0
LWPOLYLINE
  5
A3
330
70
100
AcDbEntity
  8
Cipher2
 62
   250
420
  2301728
370
    18
100
AcDbPolyline
 90
        4
 70
     0
 43
0.0
 10
140.6785714285714
 20
-74.5251973771184
 10
140.7420634920636
 20
-74.45634920634906
 10
140.8119264632935
 20
-74.40873015872992
 10
140.9642857142857
 20
-74.40873015872992
  0
LWPOLYLINE
  5
A4
330
70
100
AcDbEntity
  8
Cipher2
 62
   250
420
  2301728
370
    18
100
AcDbPolyline
 90
        4
 70
     0
 43
0.0
 10
139.7460317460318
 20
-75.73809523809514
 10
139.861111111111
 20
-75.67857142857116
 10
139.9780970982142
 20
-75.67857142857116
 10
140.0714285714285
 20
-75.75837053571428
  0
LWPOLYLINE
  5
A5
330
70
100
AcDbEntity
  8
Cipher2
 62
   250
420
  2301728
370
    18
100
AcDbPolyline
 90
       11
 70
     0
 43
0.0
 10
140.1388888888889
 20
-73.43650793650782
 10
140.4105747767857
 20
-73.13095238095229
 10
140.6984126984124
 20
-73.39522879464285
 10
140.4186507936507
 20
-73.64682539682533
 10
140.190476190476
 20
-73.43650793650782
 10
140.4105747767857
 20
-73.26190476190459
 10
140.5793650793649
 20
-73.38888888888894
 10
140.4484126984124
 20
-73.53571428571402
 10
140.3214285714285
 20
-73.44841269841267
 10
140.4186507936507
 20
-73.37301587301563
 10
140.5039682539682
 20
-73.42063492063477
  0
ENDSEC
  0
SECTION
  2
OBJECTS
  0
DICTIONARY
  5
C
330
0
100
AcDbDictionary
281
     1
  3
ACAD_COLOR
350
63
  3
ACAD_DETAILVIEWSTYLE
350
6A
  3
ACAD_GROUP
350
D
  3
ACAD_LAYOUT
350
62
  3
ACAD_MATERIAL
350
10
  3
ACAD_MLEADERSTYLE
350
66
  3
ACAD_MLINESTYLE
350
5F
  3
ACAD_PLOTSETTINGS
350
61
  3
ACAD_PLOTSTYLENAME
350
E
  3
ACAD_SCALELIST
350
42
  3
ACAD_SECTIONVIEWSTYLE
350
68
  3
ACAD_TABLESTYLE
350
64
  3
ACAD_VISUALSTYLE
350
29
  3
ACDB_RECOMPOSE_DATA
350
BE
  3
AcDbVariableDictionary
350
B6
  0
DICTIONARY
  5
63
102
{ACAD_REACTORS
330
C
102
}
330
C
100
AcDbDictionary
281
     1
  0
DICTIONARY
  5
6A
102
{ACAD_REACTORS
330
C
102
}
330
C
100
AcDbDictionary
281
     1
  3
Imperial24
350
6B
  0
DICTIONARY
  5
D
102
{ACAD_REACTORS
330
C
102
}
330
C
100
AcDbDictionary
281
     1
  0
DICTIONARY
  5
62
102
{ACAD_REACTORS
330
C
102
}
330
C
100
AcDbDictionary
281
     1
  3
Layout1
350
6F
  3
Layout2
350
77
  3
Model
350
73
  0
DICTIONARY
  5
10
102
{ACAD_REACTORS
330
C
102
}
330
C
100
AcDbDictionary
281
     1
  3
ByBlock
350
19
  3
ByLayer
350
11
  3
Global
350
21
  0
DICTIONARY
  5
66
102
{ACAD_REACTORS
330
C
102
}
330
C
100
AcDbDictionary
281
     1
  3
Standard
350
67
  0
DICTIONARY
  5
5F
102
{ACAD_REACTORS
330
C
102
}
330
C
100
AcDbDictionary
281
     1
  3
Standard
350
60
  0
DICTIONARY
  5
61
102
{ACAD_REACTORS
330
C
102
}
330
C
100
AcDbDictionary
281
     1
  0
ACDBDICTIONARYWDFLT
  5
E
102
{ACAD_REACTORS
330
C
102
}
330
C
100
AcDbDictionary
281
     1
  3
Normal
350
F
100
AcDbDictionaryWithDefault
340
F
  0
DICTIONARY
  5
42
102
{ACAD_REACTORS
330
C
102
}
330
C
100
AcDbDictionary
281
     1
  3
A0
350
43
  3
A1
350
44
  3
A2
350
45
  3
A3
350
46
  3
A4
350
47
  3
A5
350
48
  3
A6
350
49
  3
A7
350
4A
  3
A8
350
4B
  3
A9
350
4C
  3
B0
350
4D
  3
B1
350
4E
  3
B2
350
4F
  3
B3
350
50
  3
B4
350
51
  3
B5
350
52
  3
B6
350
53
  0
DICTIONARY
  5
68
102
{ACAD_REACTORS
330
C
102
}
330
C
100
AcDbDictionary
281
     1
  3
Imperial24
350
69
  0
DICTIONARY
  5
64
102
{ACAD_REACTORS
330
C
102
}
330
C
100
AcDbDictionary
281
     1
  3
Standard
350
65
  0
DICTIONARY
  5
29
102
{ACAD_REACTORS
330
C
102
}
330
C
100
AcDbDictionary
281
     1
  3
2dWireframe
350
2F
  3
Basic
350
2E
  3
Brighten
350
35
  3
ColorChange
350
39
  3
Conceptual
350
32
  3
Dim
350
34
  3
EdgeColorOff
350
41
  3
Facepattern
350
38
  3
Flat
350
2A
  3
FlatWithEdges
350
2B
  3
Gouraud
350
2C
  3
GouraudWithEdges
350
2D
  3
Hidden
350
31
  3
JitterOff
350
3F
  3
Linepattern
350
37
  3
OverhangOff
350
40
  3
Realistic
350
33
  3
Shaded
350
3E
  3
Shaded with edges
350
3D
  3
Shades of Gray
350
3A
  3
Sketchy
350
3B
  3
Thicken
350
36
  3
Wireframe
350
30
  3
X-Ray
350
3C
  0
XRECORD
  5
BE
102
{ACAD_REACTORS
330
C
102
}
330
C
100
AcDbXrecord
280
     1
 90
        1
330
65
  0
DICTIONARY
  5
B6
102
{ACAD_REACTORS
330
C
102
}
330
C
100
AcDbDictionary
281
     1
  3
CANNOSCALE
350
BB
  3
CMLEADERSTYLE
350
B8
  3
CTABLESTYLE
350
B7
  3
CVIEWDETAILSTYLE
350
B9
  3
CVIEWSECTIONSTYLE
350
BA
  0
ACDBDETAILVIEWSTYLE
  5
6B
102
{ACAD_XDICTIONARY
360
C1
102
}
102
{ACAD_REACTORS
330
6A
102
}
330
6A
100
AcDbModelDocViewStyle
 70
     0
  3
Imperial24
290
     0
100
AcDbDetailViewStyle
 70
     0
 71
     0
 90
        3
 71
     1
340
55
 62
   256
 40
0.24
340
0
 62
   256
 40
0.24
300

 40
0.36
280
     3
 71
     2
340
5D
 90
       25
 62
   256
 71
     3
340
55
 62
   256
 40
0.24
 90
        1
 40
0.75
 90
        1
300
%<\AcVar ViewType \f "%tc1">% %<\AcVar ViewDetailId>%\PSCALE %<\AcVar ViewScale \f "%sn">%
 71
     4
340
5D
 90
       25
 62
   256
340
5D
 90
       25
 62
   256
280
     0
  0
LAYOUT
  5
6F
102
{ACAD_REACTORS
330
62
102
}
330
62
100
AcDbPlotSettings
  1

  2

  4

  6

 40
0.0
 41
0.0
 42
0.0
 43
0.0
 44
0.0
 45
0.0
 46
0.0
 47
0.0
 48
0.0
 49
0.0
140
0.0
141
0.0
142
1.0
143
1.0
 70
   688
 72
     0
 73
     0
 74
     5
  7

 75
    16
147
1.0
 76
     0
 77
     2
 78
   300
148
0.0
149
0.0
100
AcDbLayout
  1
Layout1
 70
     1
 71
     1
 10
0.0
 20
0.0
 11
12.0
 21
9.0
 12
0.0
 22
0.0
 32
0.0
 14
0.0
 24
0.0
 34
0.0
 15
0.0
 25
0.0
 35
0.0
146
0.0
 13
0.0
 23
0.0
 33
0.0
 16
1.0
 26
0.0
 36
0.0
 17
0.0
 27
1.0
 37
0.0
 76
     0
330
6C
  0
LAYOUT
  5
77
102
{ACAD_REACTORS
330
62
102
}
330
62
100
AcDbPlotSettings
  1

  2

  4

  6

 40
0.0
 41
0.0
 42
0.0
 43
0.0
 44
0.0
 45
0.0
 46
0.0
 47
0.0
 48
0.0
 49
0.0
140
0.0
141
0.0
142
1.0
143
1.0
 70
   688
 72
     0
 73
     0
 74
     5
  7

 75
    16
147
1.0
 76
     0
 77
     2
 78
   300
148
0.0
149
0.0
100
AcDbLayout
  1
Layout2
 70
     1
 71
     2
 10
0.0
 20
0.0
 11
12.0
 21
9.0
 12
0.0
 22
0.0
 32
0.0
 14
0.0
 24
0.0
 34
0.0
 15
0.0
 25
0.0
 35
0.0
146
0.0
 13
0.0
 23
0.0
 33
0.0
 16
1.0
 26
0.0
 36
0.0
 17
0.0
 27
1.0
 37
0.0
 76
     0
330
74
  0
LAYOUT
  5
73
102
{ACAD_REACTORS
330
62
102
}
330
62
100
AcDbPlotSettings
  1

  2

  4

  6

 40
0.0
 41
0.0
 42
0.0
 43
0.0
 44
0.0
 45
0.0
 46
0.0
 47
0.0
 48
0.0
 49
0.0
140
0.0
141
0.0
142
1.0
143
1.0
 70
  1712
 72
     0
 73
     0
 74
     0
  7

 75
     0
147
1.0
 76
     0
 77
     2
 78
   300
148
0.0
149
0.0
100
AcDbLayout
  1
Model
 70
     1
 71
     0
 10
0.0
 20
0.0
 11
12.0
 21
9.0
 12
0.0
 22
0.0
 32
0.0
 14
0.0
 24
0.0
 34
0.0
 15
0.0
 25
0.0
 35
0.0
146
0.0
 13
0.0
 23
0.0
 33
0.0
 16
1.0
 26
0.0
 36
0.0
 17
0.0
 27
1.0
 37
0.0
 76
     0
330
70
  0
MATERIAL
  5
19
102
{ACAD_XDICTIONARY
360
1A
102
}
102
{ACAD_REACTORS
330
10
102
}
330
10
100
AcDbMaterial
  1
ByBlock
 72
     0
 43
0.0208333333333333
 43
0.0
 43
0.0
 43
0.0
 43
0.0
 43
0.0208333333333333
 43
0.0
 43
0.0
 43
0.0
 43
0.0
 43
1.0
 43
0.0
 43
0.0
 43
0.0
 43
0.0
 43
1.0
 77
     0
 47
0.0208333333333333
 47
0.0
 47
0.0
 47
0.0
 47
0.0
 47
0.0208333333333333
 47
0.0
 47
0.0
 47
0.0
 47
0.0
 47
1.0
 47
0.0
 47
0.0
 47
0.0
 47
0.0
 47
1.0
171
     0
 49
0.0208333333333333
 49
0.0
 49
0.0
 49
0.0
 49
0.0
 49
0.0208333333333333
 49
0.0
 49
0.0
 49
0.0
 49
0.0
 49
1.0
 49
0.0
 49
0.0
 49
0.0
 49
0.0
 49
1.0
175
     0
142
0.0208333333333333
142
0.0
142
0.0
142
0.0
142
0.0
142
0.0208333333333333
142
0.0
142
0.0
142
0.0
142
0.0
142
1.0
142
0.0
142
0.0
142
0.0
142
0.0
142
1.0
179
     0
144
0.0208333333333333
144
0.0
144
0.0
144
0.0
144
0.0
144
0.0208333333333333
144
0.0
144
0.0
144
0.0
144
0.0
144
1.0
144
0.0
144
0.0
144
0.0
144
0.0
144
1.0
147
0.0208333333333333
147
0.0
147
0.0
147
0.0
147
0.0
147
0.0208333333333333
147
0.0
147
0.0
147
0.0
147
0.0
147
1.0
147
0.0
147
0.0
147
0.0
147
0.0
147
1.0
  0
MATERIAL
  5
11
102
{ACAD_XDICTIONARY
360
12
102
}
102
{ACAD_REACTORS
330
10
102
}
330
10
100
AcDbMaterial
  1
ByLayer
 72
     0
 43
0.0208333333333333
 43
0.0
 43
0.0
 43
0.0
 43
0.0
 43
0.0208333333333333
 43
0.0
 43
0.0
 43
0.0
 43
0.0
 43
1.0
 43
0.0
 43
0.0
 43
0.0
 43
0.0
 43
1.0
 77
     0
 47
0.0208333333333333
 47
0.0
 47
0.0
 47
0.0
 47
0.0
 47
0.0208333333333333
 47
0.0
 47
0.0
 47
0.0
 47
0.0
 47
1.0
 47
0.0
 47
0.0
 47
0.0
 47
0.0
 47
1.0
171
     0
 49
0.0208333333333333
 49
0.0
 49
0.0
 49
0.0
 49
0.0
 49
0.0208333333333333
 49
0.0
 49
0.0
 49
0.0
 49
0.0
 49
1.0
 49
0.0
 49
0.0
 49
0.0
 49
0.0
 49
1.0
175
     0
142
0.0208333333333333
142
0.0
142
0.0
142
0.0
142
0.0
142
0.0208333333333333
142
0.0
142
0.0
142
0.0
142
0.0
142
1.0
142
0.0
142
0.0
142
0.0
142
0.0
142
1.0
179
     0
144
0.0208333333333333
144
0.0
144
0.0
144
0.0
144
0.0
144
0.0208333333333333
144
0.0
144
0.0
144
0.0
144
0.0
144
1.0
144
0.0
144
0.0
144
0.0
144
0.0
144
1.0
147
0.0208333333333333
147
0.0
147
0.0
147
0.0
147
0.0
147
0.0208333333333333
147
0.0
147
0.0
147
0.0
147
0.0
147
1.0
147
0.0
147
0.0
147
0.0
147
0.0
147
1.0
  0
MATERIAL
  5
21
102
{ACAD_XDICTIONARY
360
22
102
}
102
{ACAD_REACTORS
330
10
102
}
330
10
100
AcDbMaterial
  1
Global
 72
     0
 43
0.0208333333333333
 43
0.0
 43
0.0
 43
0.0
 43
0.0
 43
0.0208333333333333
 43
0.0
 43
0.0
 43
0.0
 43
0.0
 43
1.0
 43
0.0
 43
0.0
 43
0.0
 43
0.0
 43
1.0
 77
     0
 47
0.0208333333333333
 47
0.0
 47
0.0
 47
0.0
 47
0.0
 47
0.0208333333333333
 47
0.0
 47
0.0
 47
0.0
 47
0.0
 47
1.0
 47
0.0
 47
0.0
 47
0.0
 47
0.0
 47
1.0
171
     0
 49
0.0208333333333333
 49
0.0
 49
0.0
 49
0.0
 49
0.0
 49
0.0208333333333333
 49
0.0
 49
0.0
 49
0.0
 49
0.0
 49
1.0
 49
0.0
 49
0.0
 49
0.0
 49
0.0
 49
1.0
175
     0
142
0.0208333333333333
142
0.0
142
0.0
142
0.0
142
0.0
142
0.0208333333333333
142
0.0
142
0.0
142
0.0
142
0.0
142
1.0
142
0.0
142
0.0
142
0.0
142
0.0
142
1.0
179
     0
144
0.0208333333333333
144
0.0
144
0.0
144
0.0
144
0.0
144
0.0208333333333333
144
0.0
144
0.0
144
0.0
144
0.0
144
1.0
144
0.0
144
0.0
144
0.0
144
0.0
144
1.0
147
0.0208333333333333
147
0.0
147
0.0
147
0.0
147
0.0
147
0.0208333333333333
147
0.0
147
0.0
147
0.0
147
0.0
147
1.0
147
0.0
147
0.0
147
0.0
147
0.0
147
1.0
  0
MLEADERSTYLE
  5
67
102
{ACAD_REACTORS
330
66
102
}
330
66
100
AcDbMLeaderStyle
179
     2
170
     2
171
     1
172
     0
 90
        2
 40
0.0
 41
0.0
173
     1
 91
-1056964608
340
5B
 92
       -2
290
     1
 42
0.09
291
     1
 43
0.36
  3
Standard
 44
0.18
300

342
55
174
     1
178
     6
175
     1
176
     0
 93
-1056964608
 45
0.18
292
     0
297
     0
 46
0.18
 94
-1056964608
 47
1.0
 49
1.0
140
1.0
293
     1
141
0.0
294
     1
177
     0
142
1.0
295
     0
296
     0
143
0.125
271
     0
272
     9
273
     9
298
     1
  0
MLINESTYLE
  5
60
102
{ACAD_REACTORS
330
5F
102
}
330
5F
100
AcDbMlineStyle
  2
STANDARD
 70
     0
  3

 62
   256
 51
90.0
 52
90.0
 71
     2
 49
0.5
 62
   256
  6
BYLAYER
 49
-0.5
 62
   256
  6
BYLAYER
  0
ACDBPLACEHOLDER
  5
F
102
{ACAD_REACTORS
330
E
102
}
330
E
  0
SCALE
  5
43
102
{ACAD_REACTORS
330
42
102
}
330
42
100
AcDbScale
 70
     0
300
1:1
140
1.0
141
1.0
290
     1
  0
SCALE
  5
44
102
{ACAD_REACTORS
330
42
102
}
330
42
100
AcDbScale
 70
     0
300
1/128" = 1'-0"
140
0.0078125
141
12.0
290
     0
  0
SCALE
  5
45
102
{ACAD_REACTORS
330
42
102
}
330
42
100
AcDbScale
 70
     0
300
1/64" = 1'-0"
140
0.015625
141
12.0
290
     0
  0
SCALE
  5
46
102
{ACAD_REACTORS
330
42
102
}
330
42
100
AcDbScale
 70
     0
300
1/32" = 1'-0"
140
0.03125
141
12.0
290
     0
  0
SCALE
  5
47
102
{ACAD_REACTORS
330
42
102
}
330
42
100
AcDbScale
 70
     0
300
1/16" = 1'-0"
140
0.0625
141
12.0
290
     0
  0
SCALE
  5
48
102
{ACAD_REACTORS
330
42
102
}
330
42
100
AcDbScale
 70
     0
300
3/32" = 1'-0"
140
0.09375
141
12.0
290
     0
  0
SCALE
  5
49
102
{ACAD_REACTORS
330
42
102
}
330
42
100
AcDbScale
 70
     0
300
1/8" = 1'-0"
140
0.125
141
12.0
290
     0
  0
SCALE
  5
4A
102
{ACAD_REACTORS
330
42
102
}
330
42
100
AcDbScale
 70
     0
300
3/16" = 1'-0"
140
0.1875
141
12.0
290
     0
  0
SCALE
  5
4B
102
{ACAD_REACTORS
330
42
102
}
330
42
100
AcDbScale
 70
     0
300
1/4" = 1'-0"
140
0.25
141
12.0
290
     0
  0
SCALE
  5
4C
102
{ACAD_REACTORS
330
42
102
}
330
42
100
AcDbScale
 70
     0
300
3/8" = 1'-0"
140
0.375
141
12.0
290
     0
  0
SCALE
  5
4D
102
{ACAD_REACTORS
330
42
102
}
330
42
100
AcDbScale
 70
     0
300
1/2" = 1'-0"
140
0.5
141
12.0
290
     0
  0
SCALE
  5
4E
102
{ACAD_REACTORS
330
42
102
}
330
42
100
AcDbScale
 70
     0
300
3/4" = 1'-0"
140
0.75
141
12.0
290
     0
  0
SCALE
  5
4F
102
{ACAD_REACTORS
330
42
102
}
330
42
100
AcDbScale
 70
     0
300
1" = 1'-0"
140
1.0
141
12.0
290
     0
  0
SCALE
  5
50
102
{ACAD_REACTORS
330
42
102
}
330
42
100
AcDbScale
 70
     0
300
1-1/2" = 1'-0"
140
1.5
141
12.0
290
     0
  0
SCALE
  5
51
102
{ACAD_REACTORS
330
42
102
}
330
42
100
AcDbScale
 70
     0
300
3" = 1'-0"
140
3.0
141
12.0
290
     0
  0
SCALE
  5
52
102
{ACAD_REACTORS
330
42
102
}
330
42
100
AcDbScale
 70
     0
300
6" = 1'-0"
140
6.0
141
12.0
290
     0
  0
SCALE
  5
53
102
{ACAD_REACTORS
330
42
102
}
330
42
100
AcDbScale
 70
     0
300
1'-0" = 1'-0"
140
12.0
141
12.0
290
     0
  0
ACDBSECTIONVIEWSTYLE
  5
69
102
{ACAD_XDICTIONARY
360
BF
102
}
102
{ACAD_REACTORS
330
68
102
}
330
68
100
AcDbModelDocViewStyle
 70
     0
  3
Imperial24
290
     0
100
AcDbSectionViewStyle
 70
     0
 71
     0
 90
       78
 71
     1
340
55
 62
   256
 40
0.24
340
0
340
0
 62
   256
 40
0.24
300
I, O, Q, S, X, Z
 40
0.48
 90
        3
 40
0.18
 90
        1
 71
     2
340
5D
 90
       25
 62
   256
340
5D
 90
       50
 62
   256
 40
0.24
 40
0.0
 40
0.24
 71
     3
340
55
 62
   256
 40
0.24
 90
        1
 40
0.75
 90
        1
300
%<\AcVar ViewType \f "%tc1">% %<\AcVar ViewSectionStartId>%-%<\AcVar ViewSectionEndId>%\PSCALE %<\AcVar ViewScale \f "%sn">%
 71
     4
 62
   256
 62
   257
300
ANSI31
 40
1.0
 90
        0
290
     0
290
     0
 90
        6
 40
0.0
 40
1.570796326794896
 40
0.2617993877991494
 40
1.308996938995747
 40
-0.2617993877991494
 40
1.832595714594046
  0
TABLESTYLE
  5
65
102
{ACAD_XDICTIONARY
360
BC
102
}
102
{ACAD_REACTORS
330
64
102
}
330
64
100
AcDbTableStyle
280
     0
  3
Standard
 70
     0
 71
     0
 40
0.06
 41
0.06
280
     0
281
     0
  7
Standard
140
0.18
170
     2
 62
     0
 63
     7
283
     0
 90
      512
 91
        0
  1

274
    -2
284
     1
 64
     0
275
    -2
285
     1
 65
     0
276
    -2
286
     1
 66
     0
277
    -2
287
     1
 67
     0
278
    -2
288
     1
 68
     0
279
    -2
289
     1
 69
     0
  7
Standard
140
0.25
170
     5
 62
     0
 63
     7
283
     0
 90
      512
 91
        0
  1

274
    -2
284
     1
 64
     0
275
    -2
285
     1
 65
     0
276
    -2
286
     1
 66
     0
277
    -2
287
     1
 67
     0
278
    -2
288
     1
 68
     0
279
    -2
289
     1
 69
     0
  7
Standard
140
0.18
170
     5
 62
     0
 63
     7
283
     0
 90
      512
 91
        0
  1

274
    -2
284
     1
 64
     0
275
    -2
285
     1
 65
     0
276
    -2
286
     1
 66
     0
277
    -2
287
     1
 67
     0
278
    -2
288
     1
 68
     0
279
    -2
289
     1
 69
     0
  0
VISUALSTYLE
  5
2F
102
{ACAD_REACTORS
330
29
102
}
330
29
100
AcDbVisualStyle
  2
2dWireframe
 70
     4
177
     3
291
     0
 70
    58
 90
        0
176
     1
 90
        2
176
     1
 90
        0
176
     1
 90
        0
176
     1
 40
0.6
176
     1
 40
30.0
176
     1
 62
     7
420
 16777215
176
     1
 90
        1
176
     1
 90
        4
176
     1
 62
     7
176
     1
 62
   257
176
     1
 90
        1
176
     1
 90
        1
176
     1
 40
1.0
176
     1
 90
        0
176
     1
 62
   257
176
     1
 40
1.0
176
     1
 90
        1
176
     1
 90
        6
176
     1
 90
        2
176
     1
 62
     7
176
     1
 90
        5
176
     1
 90
        0
176
     1
 90
        0
176
     1
290
     0
176
     1
 90
        1
176
     1
 40
0.0
176
     1
 90
        0
176
     1
290
     1
176
     1
290
     1
176
     1
290
     0
176
     1
290
     0
176
     1
290
     0
176
     1
290
     0
176
     1
290
     0
176
     1
290
     0
176
     1
290
     0
176
     1
 90
       50
176
     1
 40
0.0
176
     1
 40
1.0
176
     1
 90
        0
176
     1
 62
    18
420
        0
176
     1
 90
       50
176
     1
 90
        3
176
     1
 62
     5
420
      255
176
     1
290
     0
176
     1
 90
       50
176
     1
 90
       50
176
     1
 90
       50
176
     1
290
     0
176
     1
 90
       50
176
     1
 62
   256
176
     0
 40
1.0
176
     0
 90
        2
176
     1
  1
strokes_ogs.tif
176
     1
290
     0
176
     1
 40
1.0
176
     1
 40
1.0
176
     1
1001
ACAD
1000
AcDbSavedByObjectVersion
1070
     0
  0
VISUALSTYLE
  5
2E
102
{ACAD_REACTORS
330
29
102
}
330
29
100
AcDbVisualStyle
  2
Basic
 70
     7
177
     3
291
     1
 70
    58
 90
        1
176
     1
 90
        0
176
     1
 90
        1
176
     1
 90
        0
176
     1
 40
0.6
176
     1
 40
30.0
176
     1
 62
     7
420
 16777215
176
     1
 90
        0
176
     1
 90
        4
176
     1
 62
     7
176
     1
 62
   257
176
     1
 90
        1
176
     1
 90
        1
176
     1
 40
1.0
176
     1
 90
        8
176
     1
 62
     7
176
     1
 40
1.0
176
     1
 90
        1
176
     1
 90
        6
176
     1
 90
        2
176
     1
 62
     7
176
     1
 90
        5
176
     1
 90
        0
176
     1
 90
        0
176
     1
290
     0
176
     1
 90
        1
176
     1
 40
0.0
176
     1
 90
        0
176
     1
290
     0
176
     1
290
     1
176
     1
290
     1
176
     1
290
     0
176
     1
290
     0
176
     1
290
     0
176
     1
290
     0
176
     1
290
     0
176
     1
290
     0
176
     1
 90
       50
176
     1
 40
0.0
176
     1
 40
1.0
176
     1
 90
        0
176
     1
 62
    18
420
        0
176
     1
 90
       50
176
     1
 90
        3
176
     1
 62
     5
420
      255
176
     1
290
     0
176
     1
 90
       50
176
     1
 90
       50
176
     1
 90
       50
176
     1
290
     0
176
     1
 90
       50
176
     1
 62
   256
176
     0
 40
1.0
176
     0
 90
        2
176
     1
  1
strokes_ogs.tif
176
     1
290
     0
176
     1
 40
1.0
176
     1
 40
1.0
176
     1
1001
ACAD
1000
AcDbSavedByObjectVersion
1070
     0
  0
VISUALSTYLE
  5
35
102
{ACAD_REACTORS
330
29
102
}
330
29
100
AcDbVisualStyle
  2
Brighten
 70
    12
177
     3
291
     1
 70
    58
 90
        2
176
     1
 90
        2
176
     1
 90
        0
176
     1
 90
        0
176
     1
 40
0.6
176
     1
 40
30.0
176
     1
 62
     7
420
 16777215
176
     1
 90
        1
176
     1
 90
        4
176
     1
 62
     7
176
     1
 62
   257
176
     1
 90
        1
176
     1
 90
        1
176
     1
 40
1.0
176
     1
 90
        8
176
     1
 62
     7
176
     1
 40
1.0
176
     1
 90
        1
176
     1
 90
        6
176
     1
 90
        2
176
     1
 62
     7
176
     1
 90
        5
176
     1
 90
        0
176
     1
 90
        0
176
     1
290
     0
176
     1
 90
        1
176
     1
 40
50.0
176
     1
 90
        0
176
     1
290
     0
176
     1
290
     1
176
     1
290
     1
176
     1
290
     0
176
     1
290
     0
176
     1
290
     0
176
     1
290
     0
176
     1
290
     0
176
     1
290
     0
176
     1
 90
       50
176
     1
 40
0.0
176
     1
 40
1.0
176
     1
 90
        0
176
     1
 62
    18
420
        0
176
     1
 90
       50
176
     1
 90
        3
176
     1
 62
     5
420
      255
176
     1
290
     0
176
     1
 90
       50
176
     1
 90
       50
176
     1
 90
       50
176
     1
290
     0
176
     1
 90
       50
176
     1
 62
   256
176
     0
 40
1.0
176
     0
 90
        2
176
     1
  1
strokes_ogs.tif
176
     1
290
     0
176
     1
 40
1.0
176
     1
 40
1.0
176
     1
1001
ACAD
1000
AcDbSavedByObjectVersion
1070
     0
  0
VISUALSTYLE
  5
39
102
{ACAD_REACTORS
330
29
102
}
330
29
100
AcDbVisualStyle
  2
ColorChange
 70
    16
177
     3
291
     1
 70
    58
 90
        2
176
     1
 90
        2
176
     1
 90
        3
176
     1
 90
        0
176
     1
 40
0.6
176
     1
 40
30.0
176
     1
 62
     8
420
  8421504
176
     1
 90
        1
176
     1
 90
        4
176
     1
 62
     7
176
     1
 62
   257
176
     1
 90
        1
176
     1
 90
        1
176
     1
 40
1.0
176
     1
 90
        8
176
     1
 62
     8
420
  8421504
176
     1
 40
1.0
176
     1
 90
        1
176
     1
 90
        6
176
     1
 90
        2
176
     1
 62
     7
176
     1
 90
        5
176
     1
 90
        0
176
     1
 90
        0
176
     1
290
     0
176
     1
 90
        1
176
     1
 40
0.0
176
     1
 90
        0
176
     1
290
     0
176
     1
290
     1
176
     1
290
     1
176
     1
290
     0
176
     1
290
     0
176
     1
290
     0
176
     1
290
     0
176
     1
290
     0
176
     1
290
     0
176
     1
 90
       50
176
     1
 40
0.0
176
     1
 40
1.0
176
     1
 90
        0
176
     1
 62
    18
420
        0
176
     1
 90
       50
176
     1
 90
        3
176
     1
 62
     5
420
      255
176
     1
290
     0
176
     1
 90
       50
176
     1
 90
       50
176
     1
 90
       50
176
     1
290
     0
176
     1
 90
       50
176
     1
 62
   256
176
     0
 40
1.0
176
     0
 90
        2
176
     1
  1
strokes_ogs.tif
176
     1
290
     0
176
     1
 40
1.0
176
     1
 40
1.0
176
     1
1001
ACAD
1000
AcDbSavedByObjectVersion
1070
     0
  0
VISUALSTYLE
  5
32
102
{ACAD_REACTORS
330
29
102
}
330
29
100
AcDbVisualStyle
  2
Conceptual
 70
     9
177
     3
291
     0
 70
    58
 90
        3
176
     1
 90
        2
176
     1
 90
        0
176
     1
 90
        0
176
     1
 40
0.6
176
     1
 40
30.0
176
     1
 62
     7
420
 16777215
176
     1
 90
        2
176
     1
 90
        2
176
     1
 62
     7
176
     1
 62
   257
176
     1
 90
        1
176
     1
 90
        1
176
     1
 40
179.0
176
     1
 90
        8
176
     1
 62
     7
176
     1
 40
1.0
176
     1
 90
        1
176
     1
 90
        6
176
     1
 90
        2
176
     1
 62
     7
176
     1
 90
        3
176
     1
 90
        0
176
     1
 90
        0
176
     1
290
     0
176
     1
 90
        1
176
     1
 40
0.0
176
     1
 90
        0
176
     1
290
     0
176
     1
290
     1
176
     1
290
     1
176
     1
290
     0
176
     1
290
     0
176
     1
290
     0
176
     1
290
     0
176
     1
290
     0
176
     1
290
     0
176
     1
 90
       50
176
     1
 40
0.0
176
     1
 40
1.0
176
     1
 90
        0
176
     1
 62
    18
420
        0
176
     1
 90
       50
176
     1
 90
        3
176
     1
 62
     5
420
      255
176
     1
290
     0
176
     1
 90
       50
176
     1
 90
       50
176
     1
 90
       50
176
     1
290
     0
176
     1
 90
       50
176
     1
 62
   256
176
     0
 40
1.0
176
     0
 90
        2
176
     1
  1
strokes_ogs.tif
176
     1
290
     0
176
     1
 40
1.0
176
     1
 40
1.0
176
     1
1001
ACAD
1000
AcDbSavedByObjectVersion
1070
     0
  0
VISUALSTYLE
  5
34
102
{ACAD_REACTORS
330
29
102
}
330
29
100
AcDbVisualStyle
  2
Dim
 70
    11
177
     3
291
     1
 70
    58
 90
        2
176
     1
 90
        2
176
     1
 90
        0
176
     1
 90
        0
176
     1
 40
0.6
176
     1
 40
30.0
176
     1
 62
     7
420
 16777215
176
     1
 90
        1
176
     1
 90
        4
176
     1
 62
     7
176
     1
 62
   257
176
     1
 90
        1
176
     1
 90
        1
176
     1
 40
1.0
176
     1
 90
        8
176
     1
 62
     7
176
     1
 40
1.0
176
     1
 90
        1
176
     1
 90
        6
176
     1
 90
        2
176
     1
 62
     7
176
     1
 90
        5
176
     1
 90
        0
176
     1
 90
        0
176
     1
290
     0
176
     1
 90
        1
176
     1
 40
-50.0
176
     1
 90
        0
176
     1
290
     0
176
     1
290
     1
176
     1
290
     1
176
     1
290
     0
176
     1
290
     0
176
     1
290
     0
176
     1
290
     0
176
     1
290
     0
176
     1
290
     0
176
     1
 90
       50
176
     1
 40
0.0
176
     1
 40
1.0
176
     1
 90
        0
176
     1
 62
    18
420
        0
176
     1
 90
       50
176
     1
 90
        3
176
     1
 62
     5
420
      255
176
     1
290
     0
176
     1
 90
       50
176
     1
 90
       50
176
     1
 90
       50
176
     1
290
     0
176
     1
 90
       50
176
     1
 62
   256
176
     0
 40
1.0
176
     0
 90
        2
176
     1
  1
strokes_ogs.tif
176
     1
290
     0
176
     1
 40
1.0
176
     1
 40
1.0
176
     1
1001
ACAD
1000
AcDbSavedByObjectVersion
1070
     0
  0
VISUALSTYLE
  5
41
102
{ACAD_REACTORS
330
29
102
}
330
29
100
AcDbVisualStyle
  2
EdgeColorOff
 70
    22
177
     3
291
     1
 70
    58
 90
        2
176
     0
 90
        2
176
     0
 90
        0
176
     0
 90
        0
176
     0
 40
0.6
176
     0
 40
30.0
176
     0
 62
     7
420
 16777215
176
     0
 90
        1
176
     0
 90
        4
176
     0
 62
     7
176
     0
 62
   257
176
     0
 90
        1
176
     0
 90
        1
176
     0
 40
1.0
176
     0
 90
        8
176
     2
 62
     7
176
     0
 40
1.0
176
     0
 90
        1
176
     0
 90
        6
176
     0
 90
        2
176
     0
 62
     7
176
     0
 90
        5
176
     0
 90
        0
176
     0
 90
        0
176
     0
290
     0
176
     0
 90
        1
176
     0
 40
0.0
176
     0
 90
        0
176
     0
290
     0
176
     0
290
     1
176
     0
290
     1
176
     0
290
     0
176
     0
290
     0
176
     0
290
     0
176
     0
290
     0
176
     0
290
     0
176
     0
290
     0
176
     0
 90
       50
176
     0
 40
0.0
176
     0
 40
1.0
176
     0
 90
        0
176
     0
 62
    18
420
        0
176
     0
 90
       50
176
     0
 90
        3
176
     0
 62
     5
420
      255
176
     0
290
     0
176
     0
 90
       50
176
     0
 90
       50
176
     0
 90
       50
176
     0
290
     0
176
     0
 90
       50
176
     0
 62
   256
176
     0
 40
1.0
176
     0
 90
        2
176
     0
  1
strokes_ogs.tif
176
     0
290
     0
176
     0
 40
1.0
176
     0
 40
1.0
176
     0
1001
ACAD
1000
AcDbSavedByObjectVersion
1070
     0
  0
VISUALSTYLE
  5
38
102
{ACAD_REACTORS
330
29
102
}
330
29
100
AcDbVisualStyle
  2
Facepattern
 70
    15
177
     3
291
     1
 70
    58
 90
        2
176
     1
 90
        2
176
     1
 90
        0
176
     1
 90
        0
176
     1
 40
0.6
176
     1
 40
30.0
176
     1
 62
     7
420
 16777215
176
     1
 90
        1
176
     1
 90
        4
176
     1
 62
     7
176
     1
 62
   257
176
     1
 90
        1
176
     1
 90
        1
176
     1
 40
1.0
176
     1
 90
        8
176
     1
 62
     7
176
     1
 40
1.0
176
     1
 90
        1
176
     1
 90
        6
176
     1
 90
        2
176
     1
 62
     7
176
     1
 90
        5
176
     1
 90
        0
176
     1
 90
        0
176
     1
290
     0
176
     1
 90
        1
176
     1
 40
0.0
176
     1
 90
        0
176
     1
290
     0
176
     1
290
     1
176
     1
290
     1
176
     1
290
     0
176
     1
290
     0
176
     1
290
     0
176
     1
290
     0
176
     1
290
     0
176
     1
290
     0
176
     1
 90
       50
176
     1
 40
0.0
176
     1
 40
1.0
176
     1
 90
        0
176
     1
 62
    18
420
        0
176
     1
 90
       50
176
     1
 90
        3
176
     1
 62
     5
420
      255
176
     1
290
     0
176
     1
 90
       50
176
     1
 90
       50
176
     1
 90
       50
176
     1
290
     0
176
     1
 90
       50
176
     1
 62
   256
176
     0
 40
1.0
176
     0
 90
        2
176
     1
  1
strokes_ogs.tif
176
     1
290
     0
176
     1
 40
1.0
176
     1
 40
1.0
176
     1
1001
ACAD
1000
AcDbSavedByObjectVersion
1070
     0
  0
VISUALSTYLE
  5
2A
102
{ACAD_REACTORS
330
29
102
}
330
29
100
AcDbVisualStyle
  2
Flat
 70
     0
177
     3
291
     1
 70
    58
 90
        2
176
     1
 90
        1
176
     1
 90
        1
176
     1
 90
        2
176
     1
 40
0.6
176
     1
 40
30.0
176
     1
 62
     7
420
 16777215
176
     1
 90
        0
176
     1
 90
        0
176
     1
 62
     7
176
     1
 62
   257
176
     1
 90
        1
176
     1
 90
        1
176
     1
 40
1.0
176
     1
 90
        8
176
     1
 62
     7
176
     1
 40
1.0
176
     1
 90
        1
176
     1
 90
        6
176
     1
 90
        2
176
     1
 62
     7
176
     1
 90
        5
176
     1
 90
        0
176
     1
 90
        0
176
     1
290
     0
176
     1
 90
       13
176
     1
 40
0.0
176
     1
 90
        0
176
     1
290
     0
176
     1
290
     1
176
     1
290
     1
176
     1
290
     0
176
     1
290
     0
176
     1
290
     0
176
     1
290
     0
176
     1
290
     0
176
     1
290
     0
176
     1
 90
       50
176
     1
 40
0.0
176
     1
 40
1.0
176
     1
 90
        0
176
     1
 62
    18
420
        0
176
     1
 90
       50
176
     1
 90
        3
176
     1
 62
     5
420
      255
176
     1
290
     0
176
     1
 90
       50
176
     1
 90
       50
176
     1
 90
       50
176
     1
290
     0
176
     1
 90
       50
176
     1
 62
   256
176
     0
 40
1.0
176
     0
 90
        2
176
     1
  1
strokes_ogs.tif
176
     1
290
     0
176
     1
 40
1.0
176
     1
 40
1.0
176
     1
1001
ACAD
1000
AcDbSavedByObjectVersion
1070
     0
  0
VISUALSTYLE
  5
2B
102
{ACAD_REACTORS
330
29
102
}
330
29
100
AcDbVisualStyle
  2
FlatWithEdges
 70
     1
177
     3
291
     1
 70
    58
 90
        2
176
     1
 90
        1
176
     1
 90
        1
176
     1
 90
        2
176
     1
 40
0.6
176
     1
 40
30.0
176
     1
 62
     7
420
 16777215
176
     1
 90
        1
176
     1
 90
        0
176
     1
 62
     7
176
     1
 62
   257
176
     1
 90
        1
176
     1
 90
        1
176
     1
 40
1.0
176
     1
 90
        0
176
     1
 62
   257
176
     1
 40
1.0
176
     1
 90
        1
176
     1
 90
        6
176
     1
 90
        2
176
     1
 62
     7
176
     1
 90
        5
176
     1
 90
        0
176
     1
 90
        0
176
     1
290
     0
176
     1
 90
       13
176
     1
 40
0.0
176
     1
 90
        0
176
     1
290
     0
176
     1
290
     1
176
     1
290
     1
176
     1
290
     0
176
     1
290
     0
176
     1
290
     0
176
     1
290
     0
176
     1
290
     0
176
     1
290
     0
176
     1
 90
       50
176
     1
 40
0.0
176
     1
 40
1.0
176
     1
 90
        0
176
     1
 62
    18
420
        0
176
     1
 90
       50
176
     1
 90
        3
176
     1
 62
     5
420
      255
176
     1
290
     0
176
     1
 90
       50
176
     1
 90
       50
176
     1
 90
       50
176
     1
290
     0
176
     1
 90
       50
176
     1
 62
   256
176
     0
 40
1.0
176
     0
 90
        2
176
     1
  1
strokes_ogs.tif
176
     1
290
     0
176
     1
 40
1.0
176
     1
 40
1.0
176
     1
1001
ACAD
1000
AcDbSavedByObjectVersion
1070
     0
  0
VISUALSTYLE
  5
2C
102
{ACAD_REACTORS
330
29
102
}
330
29
100
AcDbVisualStyle
  2
Gouraud
 70
     2
177
     3
291
     1
 70
    58
 90
        2
176
     1
 90
        2
176
     1
 90
        1
176
     1
 90
        2
176
     1
 40
0.6
176
     1
 40
30.0
176
     1
 62
     7
420
 16777215
176
     1
 90
        0
176
     1
 90
        0
176
     1
 62
     7
176
     1
 62
   257
176
     1
 90
        1
176
     1
 90
        1
176
     1
 40
1.0
176
     1
 90
        0
176
     1
 62
     7
176
     1
 40
1.0
176
     1
 90
        1
176
     1
 90
        6
176
     1
 90
        2
176
     1
 62
     7
176
     1
 90
        5
176
     1
 90
        0
176
     1
 90
        0
176
     1
290
     0
176
     1
 90
       13
176
     1
 40
0.0
176
     1
 90
        0
176
     1
290
     0
176
     1
290
     1
176
     1
290
     1
176
     1
290
     0
176
     1
290
     0
176
     1
290
     0
176
     1
290
     0
176
     1
290
     0
176
     1
290
     0
176
     1
 90
       50
176
     1
 40
0.0
176
     1
 40
1.0
176
     1
 90
        0
176
     1
 62
    18
420
        0
176
     1
 90
       50
176
     1
 90
        3
176
     1
 62
     5
420
      255
176
     1
290
     0
176
     1
 90
       50
176
     1
 90
       50
176
     1
 90
       50
176
     1
290
     0
176
     1
 90
       50
176
     1
 62
   256
176
     0
 40
1.0
176
     0
 90
        2
176
     1
  1
strokes_ogs.tif
176
     1
290
     0
176
     1
 40
1.0
176
     1
 40
1.0
176
     1
1001
ACAD
1000
AcDbSavedByObjectVersion
1070
     0
  0
VISUALSTYLE
  5
2D
102
{ACAD_REACTORS
330
29
102
}
330
29
100
AcDbVisualStyle
  2
GouraudWithEdges
 70
     3
177
     3
291
     1
 70
    58
 90
        2
176
     1
 90
        2
176
     1
 90
        1
176
     1
 90
        2
176
     1
 40
0.6
176
     1
 40
30.0
176
     1
 62
     7
420
 16777215
176
     1
 90
        1
176
     1
 90
        0
176
     1
 62
     7
176
     1
 62
   257
176
     1
 90
        1
176
     1
 90
        1
176
     1
 40
1.0
176
     1
 90
        0
176
     1
 62
   257
176
     1
 40
1.0
176
     1
 90
        1
176
     1
 90
        6
176
     1
 90
        2
176
     1
 62
     7
176
     1
 90
        5
176
     1
 90
        0
176
     1
 90
        0
176
     1
290
     0
176
     1
 90
       13
176
     1
 40
0.0
176
     1
 90
        0
176
     1
290
     0
176
     1
290
     1
176
     1
290
     1
176
     1
290
     0
176
     1
290
     0
176
     1
290
     0
176
     1
290
     0
176
     1
290
     0
176
     1
290
     0
176
     1
 90
       50
176
     1
 40
0.0
176
     1
 40
1.0
176
     1
 90
        0
176
     1
 62
    18
420
        0
176
     1
 90
       50
176
     1
 90
        3
176
     1
 62
     5
420
      255
176
     1
290
     0
176
     1
 90
       50
176
     1
 90
       50
176
     1
 90
       50
176
     1
290
     0
176
     1
 90
       50
176
     1
 62
   256
176
     0
 40
1.0
176
     0
 90
        2
176
     1
  1
strokes_ogs.tif
176
     1
290
     0
176
     1
 40
1.0
176
     1
 40
1.0
176
     1
1001
ACAD
1000
AcDbSavedByObjectVersion
1070
     0
  0
VISUALSTYLE
  5
31
102
{ACAD_REACTORS
330
29
102
}
330
29
100
AcDbVisualStyle
  2
Hidden
 70
     6
177
     3
291
     0
 70
    58
 90
        1
176
     1
 90
        2
176
     1
 90
        2
176
     1
 90
        0
176
     1
 40
0.6
176
     1
 40
30.0
176
     1
 62
     7
420
 16777215
176
     1
 90
        2
176
     1
 90
        2
176
     1
 62
     7
176
     1
 62
   257
176
     1
 90
        2
176
     1
 90
        1
176
     1
 40
40.0
176
     1
 90
        0
176
     1
 62
   257
176
     1
 40
1.0
176
     1
 90
        1
176
     1
 90
        6
176
     1
 90
        2
176
     1
 62
     7
176
     1
 90
        3
176
     1
 90
        0
176
     1
 90
        0
176
     1
290
     0
176
     1
 90
        1
176
     1
 40
0.0
176
     1
 90
        0
176
     1
290
     0
176
     1
290
     1
176
     1
290
     1
176
     1
290
     0
176
     1
290
     0
176
     1
290
     0
176
     1
290
     0
176
     1
290
     0
176
     1
290
     0
176
     1
 90
       50
176
     1
 40
0.0
176
     1
 40
1.0
176
     1
 90
        0
176
     1
 62
    18
420
        0
176
     1
 90
       50
176
     1
 90
        3
176
     1
 62
     5
420
      255
176
     1
290
     0
176
     1
 90
       50
176
     1
 90
       50
176
     1
 90
       50
176
     1
290
     0
176
     1
 90
       50
176
     1
 62
   256
176
     0
 40
1.0
176
     0
 90
        2
176
     1
  1
strokes_ogs.tif
176
     1
290
     0
176
     1
 40
1.0
176
     1
 40
1.0
176
     1
1001
ACAD
1000
AcDbSavedByObjectVersion
1070
     0
  0
VISUALSTYLE
  5
3F
102
{ACAD_REACTORS
330
29
102
}
330
29
100
AcDbVisualStyle
  2
JitterOff
 70
    20
177
     3
291
     1
 70
    58
 90
        2
176
     0
 90
        2
176
     0
 90
        0
176
     0
 90
        0
176
     0
 40
0.6
176
     0
 40
30.0
176
     0
 62
     7
420
 16777215
176
     0
 90
        1
176
     0
 90
        4
176
     0
 62
     7
176
     0
 62
   257
176
     0
 90
        1
176
     0
 90
        1
176
     0
 40
1.0
176
     0
 90
       10
176
     2
 62
     7
176
     0
 40
1.0
176
     0
 90
        1
176
     0
 90
        6
176
     0
 90
        2
176
     0
 62
     7
176
     0
 90
        5
176
     0
 90
        0
176
     0
 90
        0
176
     0
290
     0
176
     0
 90
        1
176
     0
 40
0.0
176
     0
 90
        0
176
     0
290
     0
176
     0
290
     1
176
     0
290
     1
176
     0
290
     0
176
     0
290
     0
176
     0
290
     0
176
     0
290
     0
176
     0
290
     0
176
     0
290
     0
176
     0
 90
       50
176
     0
 40
0.0
176
     0
 40
1.0
176
     0
 90
        0
176
     0
 62
    18
420
        0
176
     0
 90
       50
176
     0
 90
        3
176
     0
 62
     5
420
      255
176
     0
290
     0
176
     0
 90
       50
176
     0
 90
       50
176
     0
 90
       50
176
     0
290
     0
176
     0
 90
       50
176
     0
 62
   256
176
     0
 40
1.0
176
     0
 90
        2
176
     0
  1
strokes_ogs.tif
176
     0
290
     0
176
     0
 40
1.0
176
     0
 40
1.0
176
     0
1001
ACAD
1000
AcDbSavedByObjectVersion
1070
     0
  0
VISUALSTYLE
  5
37
102
{ACAD_REACTORS
330
29
102
}
330
29
100
AcDbVisualStyle
  2
Linepattern
 70
    14
177
     3
291
     1
 70
    58
 90
        2
176
     1
 90
        2
176
     1
 90
        0
176
     1
 90
        0
176
     1
 40
0.6
176
     1
 40
30.0
176
     1
 62
     7
420
 16777215
176
     1
 90
        1
176
     1
 90
        4
176
     1
 62
     7
176
     1
 62
   257
176
     1
 90
        7
176
     1
 90
        7
176
     1
 40
1.0
176
     1
 90
        8
176
     1
 62
     7
176
     1
 40
1.0
176
     1
 90
        1
176
     1
 90
        6
176
     1
 90
        2
176
     1
 62
     7
176
     1
 90
        5
176
     1
 90
        0
176
     1
 90
        0
176
     1
290
     0
176
     1
 90
        1
176
     1
 40
0.0
176
     1
 90
        0
176
     1
290
     0
176
     1
290
     1
176
     1
290
     1
176
     1
290
     0
176
     1
290
     0
176
     1
290
     0
176
     1
290
     0
176
     1
290
     0
176
     1
290
     0
176
     1
 90
       50
176
     1
 40
0.0
176
     1
 40
1.0
176
     1
 90
        0
176
     1
 62
    18
420
        0
176
     1
 90
       50
176
     1
 90
        3
176
     1
 62
     5
420
      255
176
     1
290
     0
176
     1
 90
       50
176
     1
 90
       50
176
     1
 90
       50
176
     1
290
     0
176
     1
 90
       50
176
     1
 62
   256
176
     0
 40
1.0
176
     0
 90
        2
176
     1
  1
strokes_ogs.tif
176
     1
290
     0
176
     1
 40
1.0
176
     1
 40
1.0
176
     1
1001
ACAD
1000
AcDbSavedByObjectVersion
1070
     0
  0
VISUALSTYLE
  5
40
102
{ACAD_REACTORS
330
29
102
}
330
29
100
AcDbVisualStyle
  2
OverhangOff
 70
    21
177
     3
291
     1
 70
    58
 90
        2
176
     0
 90
        2
176
     0
 90
        0
176
     0
 90
        0
176
     0
 40
0.6
176
     0
 40
30.0
176
     0
 62
     7
420
 16777215
176
     0
 90
        1
176
     0
 90
        4
176
     0
 62
     7
176
     0
 62
   257
176
     0
 90
        1
176
     0
 90
        1
176
     0
 40
1.0
176
     0
 90
        9
176
     2
 62
     7
176
     0
 40
1.0
176
     0
 90
        1
176
     0
 90
        6
176
     0
 90
        2
176
     0
 62
     7
176
     0
 90
        5
176
     0
 90
        0
176
     0
 90
        0
176
     0
290
     0
176
     0
 90
        1
176
     0
 40
0.0
176
     0
 90
        0
176
     0
290
     0
176
     0
290
     1
176
     0
290
     1
176
     0
290
     0
176
     0
290
     0
176
     0
290
     0
176
     0
290
     0
176
     0
290
     0
176
     0
290
     0
176
     0
 90
       50
176
     0
 40
0.0
176
     0
 40
1.0
176
     0
 90
        0
176
     0
 62
    18
420
        0
176
     0
 90
       50
176
     0
 90
        3
176
     0
 62
     5
420
      255
176
     0
290
     0
176
     0
 90
       50
176
     0
 90
       50
176
     0
 90
       50
176
     0
290
     0
176
     0
 90
       50
176
     0
 62
   256
176
     0
 40
1.0
176
     0
 90
        2
176
     0
  1
strokes_ogs.tif
176
     0
290
     0
176
     0
 40
1.0
176
     0
 40
1.0
176
     0
1001
ACAD
1000
AcDbSavedByObjectVersion
1070
     0
  0
VISUALSTYLE
  5
33
102
{ACAD_REACTORS
330
29
102
}
330
29
100
AcDbVisualStyle
  2
Realistic
 70
     8
177
     3
291
     0
 70
    58
 90
        2
176
     1
 90
        3
176
     1
 90
        0
176
     1
 90
        2
176
     1
 40
0.6
176
     1
 40
30.0
176
     1
 62
     7
420
 16777215
176
     1
 90
        0
176
     1
 90
        0
176
     1
 62
     7
176
     1
 62
   257
176
     1
 90
        1
176
     1
 90
        1
176
     1
 40
1.0
176
     1
 90
        8
176
     1
 62
   257
176
     1
 40
1.0
176
     1
 90
        1
176
     1
 90
        6
176
     1
 90
        2
176
     1
 62
     7
176
     1
 90
        3
176
     1
 90
        0
176
     1
 90
        0
176
     1
290
     0
176
     1
 90
       13
176
     1
 40
0.0
176
     1
 90
        0
176
     1
290
     0
176
     1
290
     1
176
     1
290
     1
176
     1
290
     0
176
     1
290
     0
176
     1
290
     0
176
     1
290
     0
176
     1
290
     0
176
     1
290
     0
176
     1
 90
       50
176
     1
 40
0.0
176
     1
 40
1.0
176
     1
 90
        0
176
     1
 62
    18
420
        0
176
     1
 90
       50
176
     1
 90
        3
176
     1
 62
     5
420
      255
176
     1
290
     0
176
     1
 90
       50
176
     1
 90
       50
176
     1
 90
       50
176
     1
290
     0
176
     1
 90
       50
176
     1
 62
   256
176
     0
 40
1.0
176
     0
 90
        2
176
     1
  1
strokes_ogs.tif
176
     1
290
     0
176
     1
 40
1.0
176
     1
 40
1.0
176
     1
1001
ACAD
1000
AcDbSavedByObjectVersion
1070
     0
  0
VISUALSTYLE
  5
3E
102
{ACAD_REACTORS
330
29
102
}
330
29
100
AcDbVisualStyle
  2
Shaded
 70
    27
177
     3
291
     0
 70
    58
 90
        2
176
     1
 90
        2
176
     1
 90
        1
176
     1
 90
        2
176
     1
 40
0.6
176
     1
 40
30.0
176
     1
 62
     7
420
 16777215
176
     1
 90
        0
176
     1
 90
        4
176
     1
 62
     7
176
     1
 62
   257
176
     1
 90
        1
176
     1
 90
        1
176
     1
 40
1.0
176
     1
 90
        8
176
     1
 62
   257
176
     1
 40
1.0
176
     1
 90
        1
176
     1
 90
        6
176
     1
 90
        2
176
     1
 62
     8
420
  7895160
176
     1
 90
        3
176
     1
 90
        0
176
     1
 90
        0
176
     1
290
     0
176
     1
 90
        5
176
     1
 40
0.0
176
     1
 90
        0
176
     1
290
     0
176
     1
290
     1
176
     1
290
     1
176
     1
290
     0
176
     1
290
     0
176
     1
290
     0
176
     1
290
     0
176
     1
290
     0
176
     1
290
     0
176
     1
 90
       50
176
     1
 40
0.0
176
     1
 40
1.0
176
     1
 90
        0
176
     1
 62
    18
420
        0
176
     1
 90
       50
176
     1
 90
        3
176
     1
 62
     5
420
      255
176
     1
290
     0
176
     1
 90
       50
176
     1
 90
       50
176
     1
 90
       50
176
     1
290
     0
176
     1
 90
       50
176
     1
 62
   256
176
     0
 40
1.0
176
     0
 90
        2
176
     1
  1
strokes_ogs.tif
176
     1
290
     0
176
     1
 40
1.0
176
     1
 40
1.0
176
     1
1001
ACAD
1000
AcDbSavedByObjectVersion
1070
     0
  0
VISUALSTYLE
  5
3D
102
{ACAD_REACTORS
330
29
102
}
330
29
100
AcDbVisualStyle
  2
Shaded with edges
 70
    26
177
     3
291
     0
 70
    58
 90
        2
176
     1
 90
        2
176
     1
 90
        1
176
     1
 90
        2
176
     1
 40
0.6
176
     1
 40
30.0
176
     1
 62
     7
420
 16777215
176
     1
 90
        1
176
     1
 90
        2
176
     1
 62
     7
176
     1
 62
   257
176
     1
 90
        2
176
     1
 90
        1
176
     1
 40
1.0
176
     1
 90
        8
176
     1
 62
   257
176
     1
 40
1.0
176
     1
 90
        1
176
     1
 90
        6
176
     1
 90
        2
176
     1
 62
     7
176
     1
 90
        3
176
     1
 90
        0
176
     1
 90
        0
176
     1
290
     0
176
     1
 90
        5
176
     1
 40
0.0
176
     1
 90
        0
176
     1
290
     0
176
     1
290
     1
176
     1
290
     1
176
     1
290
     0
176
     1
290
     0
176
     1
290
     0
176
     1
290
     0
176
     1
290
     0
176
     1
290
     0
176
     1
 90
       50
176
     1
 40
0.0
176
     1
 40
1.0
176
     1
 90
        0
176
     1
 62
    18
420
        0
176
     1
 90
       50
176
     1
 90
        3
176
     1
 62
     5
420
      255
176
     1
290
     0
176
     1
 90
       50
176
     1
 90
       50
176
     1
 90
       50
176
     1
290
     0
176
     1
 90
       50
176
     1
 62
   256
176
     0
 40
1.0
176
     0
 90
        2
176
     1
  1
strokes_ogs.tif
176
     1
290
     0
176
     1
 40
1.0
176
     1
 40
1.0
176
     1
1001
ACAD
1000
AcDbSavedByObjectVersion
1070
     0
  0
VISUALSTYLE
  5
3A
102
{ACAD_REACTORS
330
29
102
}
330
29
100
AcDbVisualStyle
  2
Shades of Gray
 70
    23
177
     3
291
     0
 70
    58
 90
        2
176
     1
 90
        2
176
     1
 90
        3
176
     1
 90
        0
176
     1
 40
0.6
176
     1
 40
30.0
176
     1
 62
     7
420
 16777215
176
     1
 90
        2
176
     1
 90
        2
176
     1
 62
     7
176
     1
 62
     7
176
     1
 90
        1
176
     1
 90
        1
176
     1
 40
40.0
176
     1
 90
        8
176
     1
 62
     7
176
     1
 40
1.0
176
     1
 90
        1
176
     1
 90
        6
176
     1
 90
        2
176
     1
 62
     7
176
     1
 90
        3
176
     1
 90
        0
176
     1
 90
        0
176
     1
290
     0
176
     1
 90
        1
176
     1
 40
0.0
176
     1
 90
        0
176
     1
290
     0
176
     1
290
     1
176
     1
290
     1
176
     1
290
     0
176
     1
290
     0
176
     1
290
     0
176
     1
290
     0
176
     1
290
     0
176
     1
290
     0
176
     1
 90
       50
176
     1
 40
0.0
176
     1
 40
1.0
176
     1
 90
        0
176
     1
 62
    18
420
        0
176
     1
 90
       50
176
     1
 90
        3
176
     1
 62
     5
420
      255
176
     1
290
     0
176
     1
 90
       50
176
     1
 90
       50
176
     1
 90
       50
176
     1
290
     0
176
     1
 90
       50
176
     1
 62
   256
176
     0
 40
1.0
176
     0
 90
        2
176
     1
  1
strokes_ogs.tif
176
     1
290
     0
176
     1
 40
1.0
176
     1
 40
1.0
176
     1
1001
ACAD
1000
AcDbSavedByObjectVersion
1070
     0
  0
VISUALSTYLE
  5
3B
102
{ACAD_REACTORS
330
29
102
}
330
29
100
AcDbVisualStyle
  2
Sketchy
 70
    24
177
     3
291
     0
 70
    58
 90
        1
176
     1
 90
        2
176
     1
 90
        2
176
     1
 90
        0
176
     1
 40
0.6
176
     1
 40
30.0
176
     1
 62
     7
420
 16777215
176
     1
 90
        2
176
     1
 90
        2
176
     1
 62
     7
176
     1
 62
     7
176
     1
 90
        1
176
     1
 90
        1
176
     1
 40
40.0
176
     1
 90
       11
176
     1
 62
     7
176
     1
 40
1.0
176
     1
 90
        1
176
     1
 90
        6
176
     1
 90
        2
176
     1
 62
     7
176
     1
 90
        6
176
     1
 90
        0
176
     1
 90
        0
176
     1
290
     0
176
     1
 90
        1
176
     1
 40
0.0
176
     1
 90
        0
176
     1
290
     0
176
     1
290
     1
176
     1
290
     1
176
     1
290
     0
176
     1
290
     0
176
     1
290
     0
176
     1
290
     0
176
     1
290
     0
176
     1
290
     0
176
     1
 90
       50
176
     1
 40
0.0
176
     1
 40
1.0
176
     1
 90
        0
176
     1
 62
    18
420
        0
176
     1
 90
       50
176
     1
 90
        3
176
     1
 62
     5
420
      255
176
     1
290
     0
176
     1
 90
       50
176
     1
 90
       50
176
     1
 90
       50
176
     1
290
     0
176
     1
 90
       50
176
     1
 62
   256
176
     0
 40
1.0
176
     0
 90
        2
176
     1
  1
strokes_ogs.tif
176
     1
290
     0
176
     1
 40
1.0
176
     1
 40
1.0
176
     1
1001
ACAD
1000
AcDbSavedByObjectVersion
1070
     0
  0
VISUALSTYLE
  5
36
102
{ACAD_REACTORS
330
29
102
}
330
29
100
AcDbVisualStyle
  2
Thicken
 70
    13
177
     3
291
     1
 70
    58
 90
        2
176
     1
 90
        2
176
     1
 90
        0
176
     1
 90
        0
176
     1
 40
0.6
176
     1
 40
30.0
176
     1
 62
     7
420
 16777215
176
     1
 90
        1
176
     1
 90
        4
176
     1
 62
     7
176
     1
 62
   257
176
     1
 90
        1
176
     1
 90
        1
176
     1
 40
1.0
176
     1
 90
       12
176
     1
 62
     7
176
     1
 40
1.0
176
     1
 90
        1
176
     1
 90
        6
176
     1
 90
        2
176
     1
 62
     7
176
     1
 90
        5
176
     1
 90
        0
176
     1
 90
        0
176
     1
290
     0
176
     1
 90
        1
176
     1
 40
0.0
176
     1
 90
        0
176
     1
290
     0
176
     1
290
     1
176
     1
290
     1
176
     1
290
     0
176
     1
290
     0
176
     1
290
     0
176
     1
290
     0
176
     1
290
     0
176
     1
290
     0
176
     1
 90
       50
176
     1
 40
0.0
176
     1
 40
1.0
176
     1
 90
        0
176
     1
 62
    18
420
        0
176
     1
 90
       50
176
     1
 90
        3
176
     1
 62
     5
420
      255
176
     1
290
     0
176
     1
 90
       50
176
     1
 90
       50
176
     1
 90
       50
176
     1
290
     0
176
     1
 90
       50
176
     1
 62
   256
176
     0
 40
1.0
176
     0
 90
        2
176
     1
  1
strokes_ogs.tif
176
     1
290
     0
176
     1
 40
1.0
176
     1
 40
1.0
176
     1
1001
ACAD
1000
AcDbSavedByObjectVersion
1070
     0
  0
VISUALSTYLE
  5
30
102
{ACAD_REACTORS
330
29
102
}
330
29
100
AcDbVisualStyle
  2
Wireframe
 70
     5
177
     3
291
     0
 70
    58
 90
        0
176
     1
 90
        2
176
     1
 90
        0
176
     1
 90
        0
176
     1
 40
0.6
176
     1
 40
30.0
176
     1
 62
     7
420
 16777215
176
     1
 90
        1
176
     1
 90
        4
176
     1
 62
     7
176
     1
 62
   257
176
     1
 90
        1
176
     1
 90
        1
176
     1
 40
1.0
176
     1
 90
        0
176
     1
 62
   257
176
     1
 40
1.0
176
     1
 90
        1
176
     1
 90
        6
176
     1
 90
        2
176
     1
 62
     7
176
     1
 90
        3
176
     1
 90
        0
176
     1
 90
        0
176
     1
290
     0
176
     1
 90
        1
176
     1
 40
0.0
176
     1
 90
        0
176
     1
290
     0
176
     1
290
     1
176
     1
290
     1
176
     1
290
     0
176
     1
290
     0
176
     1
290
     0
176
     1
290
     0
176
     1
290
     0
176
     1
290
     0
176
     1
 90
       50
176
     1
 40
0.0
176
     1
 40
1.0
176
     1
 90
        0
176
     1
 62
    18
420
        0
176
     1
 90
       50
176
     1
 90
        3
176
     1
 62
     5
420
      255
176
     1
290
     0
176
     1
 90
       50
176
     1
 90
       50
176
     1
 90
       50
176
     1
290
     0
176
     1
 90
       50
176
     1
 62
   256
176
     0
 40
1.0
176
     0
 90
        2
176
     1
  1
strokes_ogs.tif
176
     1
290
     0
176
     1
 40
1.0
176
     1
 40
1.0
176
     1
1001
ACAD
1000
AcDbSavedByObjectVersion
1070
     0
  0
VISUALSTYLE
  5
3C
102
{ACAD_REACTORS
330
29
102
}
330
29
100
AcDbVisualStyle
  2
X-Ray
 70
    25
177
     3
291
     0
 70
    58
 90
        2
176
     1
 90
        2
176
     1
 90
        1
176
     1
 90
        1
176
     1
 40
0.5
176
     1
 40
30.0
176
     1
 62
     7
420
 16777215
176
     1
 90
        1
176
     1
 90
        0
176
     1
 62
     7
176
     1
 62
   257
176
     1
 90
        1
176
     1
 90
        1
176
     1
 40
1.0
176
     1
 90
        8
176
     1
 62
     7
176
     1
 40
1.0
176
     1
 90
        1
176
     1
 90
        6
176
     1
 90
        2
176
     1
 62
     7
176
     1
 90
        3
176
     1
 90
        0
176
     1
 90
        0
176
     1
290
     0
176
     1
 90
       13
176
     1
 40
0.0
176
     1
 90
        0
176
     1
290
     0
176
     1
290
     1
176
     1
290
     1
176
     1
290
     0
176
     1
290
     0
176
     1
290
     0
176
     1
290
     0
176
     1
290
     0
176
     1
290
     0
176
     1
 90
       50
176
     1
 40
0.0
176
     1
 40
1.0
176
     1
 90
        0
176
     1
 62
    18
420
        0
176
     1
 90
       50
176
     1
 90
        3
176
     1
 62
     5
420
      255
176
     1
290
     0
176
     1
 90
       50
176
     1
 90
       50
176
     1
 90
       50
176
     1
290
     0
176
     1
 90
       50
176
     1
 62
   256
176
     0
 40
1.0
176
     0
 90
        2
176
     1
  1
strokes_ogs.tif
176
     1
290
     0
176
     1
 40
1.0
176
     1
 40
1.0
176
     1
1001
ACAD
1000
AcDbSavedByObjectVersion
1070
     0
  0
DICTIONARYVAR
  5
BB
102
{ACAD_REACTORS
330
B6
102
}
330
B6
100
DictionaryVariables
280
     0
  1
1:1
  0
DICTIONARYVAR
  5
B8
102
{ACAD_REACTORS
330
B6
102
}
330
B6
100
DictionaryVariables
280
     0
  1
STANDARD
  0
DICTIONARYVAR
  5
B7
102
{ACAD_REACTORS
330
B6
102
}
330
B6
100
DictionaryVariables
280
     0
  1
STANDARD
  0
DICTIONARYVAR
  5
B9
102
{ACAD_REACTORS
330
B6
102
}
330
B6
100
DictionaryVariables
280
     0
  1
Imperial24
  0
DICTIONARYVAR
  5
BA
102
{ACAD_REACTORS
330
B6
102
}
330
B6
100
DictionaryVariables
280
     0
  1
Imperial24
  0
DICTIONARY
  5
C1
330
6B
100
AcDbDictionary
280
     1
281
     1
  3
ACAD_XREC_ROUNDTRIP
360
C2
  0
DICTIONARY
  5
1A
330
19
100
AcDbDictionary
280
     1
281
     1
  3
BUMPTILE
360
1C
  3
DIFFUSETILE
360
1B
  3
OPACITYTILE
360
1F
  3
REFLECTIONTILE
360
1E
  3
REFRACTIONTILE
360
20
  3
SPECULARTILE
360
1D
  0
DICTIONARY
  5
12
330
11
100
AcDbDictionary
280
     1
281
     1
  3
BUMPTILE
360
14
  3
DIFFUSETILE
360
13
  3
OPACITYTILE
360
17
  3
REFLECTIONTILE
360
16
  3
REFRACTIONTILE
360
18
  3
SPECULARTILE
360
15
  0
DICTIONARY
  5
22
330
21
100
AcDbDictionary
280
     1
281
     1
  3
BUMPTILE
360
24
  3
DIFFUSETILE
360
23
  3
OPACITYTILE
360
27
  3
REFLECTIONTILE
360
26
  3
REFRACTIONTILE
360
28
  3
SPECULARTILE
360
25
  0
DICTIONARY
  5
BF
330
69
100
AcDbDictionary
280
     1
281
     1
  3
ACAD_XREC_ROUNDTRIP
360
C0
  0
DICTIONARY
  5
BC
330
65
100
AcDbDictionary
280
     1
281
     1
  3
ACAD_ROUNDTRIP_2008_TABLESTYLE_CELLSTYLEMAP
360
BD
  0
XRECORD
  5
C2
102
{ACAD_REACTORS
330
C1
102
}
330
C1
100
AcDbXrecord
280
     1
102
DISPLAYNAME
  1
Imperial24
102
FLAGS
 90
        0
  0
XRECORD
  5
1C
102
{ACAD_REACTORS
330
1A
102
}
330
1A
100
AcDbXrecord
280
     1
270
     1
271
     1
  0
XRECORD
  5
1B
102
{ACAD_REACTORS
330
1A
102
}
330
1A
100
AcDbXrecord
280
     1
270
     1
271
     1
  0
XRECORD
  5
1F
102
{ACAD_REACTORS
330
1A
102
}
330
1A
100
AcDbXrecord
280
     1
270
     1
271
     1
  0
XRECORD
  5
1E
102
{ACAD_REACTORS
330
1A
102
}
330
1A
100
AcDbXrecord
280
     1
270
     1
271
     1
  0
XRECORD
  5
20
102
{ACAD_REACTORS
330
1A
102
}
330
1A
100
AcDbXrecord
280
     1
270
     1
271
     1
  0
XRECORD
  5
1D
102
{ACAD_REACTORS
330
1A
102
}
330
1A
100
AcDbXrecord
280
     1
270
     1
271
     1
  0
XRECORD
  5
14
102
{ACAD_REACTORS
330
12
102
}
330
12
100
AcDbXrecord
280
     1
270
     1
271
     1
  0
XRECORD
  5
13
102
{ACAD_REACTORS
330
12
102
}
330
12
100
AcDbXrecord
280
     1
270
     1
271
     1
  0
XRECORD
  5
17
102
{ACAD_REACTORS
330
12
102
}
330
12
100
AcDbXrecord
280
     1
270
     1
271
     1
  0
XRECORD
  5
16
102
{ACAD_REACTORS
330
12
102
}
330
12
100
AcDbXrecord
280
     1
270
     1
271
     1
  0
XRECORD
  5
18
102
{ACAD_REACTORS
330
12
102
}
330
12
100
AcDbXrecord
280
     1
270
     1
271
     1
  0
XRECORD
  5
15
102
{ACAD_REACTORS
330
12
102
}
330
12
100
AcDbXrecord
280
     1
270
     1
271
     1
  0
XRECORD
  5
24
102
{ACAD_REACTORS
330
22
102
}
330
22
100
AcDbXrecord
280
     1
270
     1
271
     1
  0
XRECORD
  5
23
102
{ACAD_REACTORS
330
22
102
}
330
22
100
AcDbXrecord
280
     1
270
     1
271
     1
  0
XRECORD
  5
27
102
{ACAD_REACTORS
330
22
102
}
330
22
100
AcDbXrecord
280
     1
270
     1
271
     1
  0
XRECORD
  5
26
102
{ACAD_REACTORS
330
22
102
}
330
22
100
AcDbXrecord
280
     1
270
     1
271
     1
  0
XRECORD
  5
28
102
{ACAD_REACTORS
330
22
102
}
330
22
100
AcDbXrecord
280
     1
270
     1
271
     1
  0
XRECORD
  5
25
102
{ACAD_REACTORS
330
22
102
}
330
22
100
AcDbXrecord
280
     1
270
     1
271
     1
  0
XRECORD
  5
C0
102
{ACAD_REACTORS
330
BF
102
}
330
BF
100
AcDbXrecord
280
     1
102
DISPLAYNAME
  1
Imperial24
102
FLAGS
 90
        0
  0
CELLSTYLEMAP
  5
BD
102
{ACAD_REACTORS
330
BC
102
}
330
BC
100
AcDbCellStyleMap
 90
        3
300
CELLSTYLE
  1
TABLEFORMAT_BEGIN
 90
        5
170
     1
 91
        0
 92
    32768
 62
   257
 93
        1
300
CONTENTFORMAT
  1
CONTENTFORMAT_BEGIN
 90
        0
 91
        0
 92
      512
 93
        0
300

 40
0.0
140
1.0
 94
        5
 62
     0
340
55
144
0.25
309
CONTENTFORMAT_END
171
     0
 94
        0
309
TABLEFORMAT_END
  1
CELLSTYLE_BEGIN
 90
        1
 91
        1
300
_TITLE
309
CELLSTYLE_END
300
CELLSTYLE
  1
TABLEFORMAT_BEGIN
 90
        5
170
     1
 91
        0
 92
        0
 62
   257
 93
        1
300
CONTENTFORMAT
  1
CONTENTFORMAT_BEGIN
 90
        0
 91
        0
 92
      512
 93
        0
300

 40
0.0
140
1.0
 94
        5
 62
     0
340
55
144
0.18
309
CONTENTFORMAT_END
171
     0
 94
        0
309
TABLEFORMAT_END
  1
CELLSTYLE_BEGIN
 90
        2
 91
        1
300
_HEADER
309
CELLSTYLE_END
300
CELLSTYLE
  1
TABLEFORMAT_BEGIN
 90
        5
170
     1
 91
        0
 92
        0
 62
   257
 93
        1
300
CONTENTFORMAT
  1
CONTENTFORMAT_BEGIN
 90
        0
 91
        0
 92
      512
 93
        0
300

 40
0.0
140
1.0
 94
        2
 62
     0
340
55
144
0.18
309
CONTENTFORMAT_END
171
     0
 94
        0
309
TABLEFORMAT_END
  1
CELLSTYLE_BEGIN
 90
        3
 91
        2
300
_DATA
309
CELLSTYLE_END
  0
ENDSEC
  0
EOF
