  0
SECTION
  2
HEADER
  9
$ACADVER
  1
AC1032
  9
$ACADMAINTVER
 90
      228
  9
$DWGCODEPAGE
  3
ANSI_1252
  9
$REQUIREDVERSIONS
160
                 0
  9
$INSBASE
 10
0.0
 20
0.0
 30
0.0
  9
$EXTMIN
 10
1.000000000000000E+20
 20
1.000000000000000E+20
 30
1.000000000000000E+20
  9
$EXTMAX
 10
-1.000000000000000E+20
 20
-1.000000000000000E+20
 30
-1.000000000000000E+20
  9
$LIMMIN
 10
0.0
 20
0.0
  9
$LIMMAX
 10
12.0
 20
9.0
  9
$ORTHOMODE
 70
     0
  9
$REGENMODE
 70
     1
  9
$FILLMODE
 70
     1
  9
$QTEXTMODE
 70
     0
  9
$MIRRTEXT
 70
     0
  9
$LTSCALE
 40
1.0
  9
$ATTMODE
 70
     1
  9
$TEXTSIZE
 40
0.2
  9
$TRACEWID
 40
0.05
  9
$TEXTSTYLE
  7
Standard
  9
$CLAYER
  8
0
  9
$CELTYPE
  6
ByLayer
  9
$CECOLOR
 62
   256
  9
$CELTSCALE
 40
1.0
  9
$DISPSILH
 70
     0
  9
$DIMSCALE
 40
1.0
  9
$DIMASZ
 40
0.18
  9
$DIMEXO
 40
0.0625
  9
$DIMDLI
 40
0.38
  9
$DIMRND
 40
0.0
  9
$DIMDLE
 40
0.0
  9
$DIMEXE
 40
0.18
  9
$DIMTP
 40
0.0
  9
$DIMTM
 40
0.0
  9
$DIMTXT
 40
0.18
  9
$DIMCEN
 40
0.09
  9
$DIMTSZ
 40
0.0
  9
$DIMTOL
 70
     0
  9
$DIMLIM
 70
     0
  9
$DIMTIH
 70
     1
  9
$DIMTOH
 70
     1
  9
$DIMSE1
 70
     0
  9
$DIMSE2
 70
     0
  9
$DIMTAD
 70
     0
  9
$DIMZIN
 70
     0
  9
$DIMBLK
  1

  9
$DIMASO
 70
     1
  9
$DIMSHO
 70
     1
  9
$DIMPOST
  1

  9
$DIMAPOST
  1

  9
$DIMALT
 70
     0
  9
$DIMALTD
 70
     2
  9
$DIMALTF
 40
25.4
  9
$DIMLFAC
 40
1.0
  9
$DIMTOFL
 70
     0
  9
$DIMTVP
 40
0.0
  9
$DIMTIX
 70
     0
  9
$DIMSOXD
 70
     0
  9
$DIMSAH
 70
     0
  9
$DIMBLK1
  1

  9
$DIMBLK2
  1

  9
$DIMSTYLE
  2
Standard
  9
$DIMCLRD
 70
     0
  9
$DIMCLRE
 70
     0
  9
$DIMCLRT
 70
     0
  9
$DIMTFAC
 40
1.0
  9
$DIMGAP
 40
0.09
  9
$DIMJUST
 70
     0
  9
$DIMSD1
 70
     0
  9
$DIMSD2
 70
     0
  9
$DIMTOLJ
 70
     1
  9
$DIMTZIN
 70
     0
  9
$DIMALTZ
 70
     0
  9
$DIMALTTZ
 70
     0
  9
$DIMUPT
 70
     0
  9
$DIMDEC
 70
     4
  9
$DIMTDEC
 70
     4
  9
$DIMALTU
 70
     2
  9
$DIMALTTD
 70
     2
  9
$DIMTXSTY
  7
Standard
  9
$DIMAUNIT
 70
     0
  9
$DIMADEC
 70
     0
  9
$DIMALTRND
 40
0.0
  9
$DIMAZIN
 70
     0
  9
$DIMDSEP
 70
    46
  9
$DIMATFIT
 70
     3
  9
$DIMFRAC
 70
     0
  9
$DIMLDRBLK
  1

  9
$DIMLUNIT
 70
     2
  9
$DIMLWD
 70
    -2
  9
$DIMLWE
 70
    -2
  9
$DIMTMOVE
 70
     0
  9
$DIMFXL
 40
1.0
  9
$DIMFXLON
 70
     0
  9
$DIMJOGANG
 40
0.7853981633974483
  9
$DIMTFILL
 70
     0
  9
$DIMTFILLCLR
 70
     0
  9
$DIMARCSYM
 70
     0
  9
$DIMLTYPE
  6

  9
$DIMLTEX1
  6

  9
$DIMLTEX2
  6

  9
$DIMTXTDIRECTION
 70
     0
  9
$LUNITS
 70
     2
  9
$LUPREC
 70
     4
  9
$SKETCHINC
 40
0.1
  9
$FILLETRAD
 40
0.0
  9
$AUNITS
 70
     0
  9
$AUPREC
 70
     0
  9
$MENU
  1
.
  9
$ELEVATION
 40
0.0
  9
$PELEVATION
 40
0.0
  9
$THICKNESS
 40
0.0
  9
$LIMCHECK
 70
     0
  9
$CHAMFERA
 40
0.0
  9
$CHAMFERB
 40
0.0
  9
$CHAMFERC
 40
0.0
  9
$CHAMFERD
 40
0.0
  9
$SKPOLY
 70
     0
  9
$TDCREATE
 40
2460098.681527778
  9
$TDUCREATE
 40
2460098.889861111
  9
$TDUPDATE
 40
2460098.681527778
  9
$TDUUPDATE
 40
2460098.889861111
  9
$TDINDWG
 40
0.0000000000
  9
$TDUSRTIMER
 40
0.0000000000
  9
$USRTIMER
 70
     1
  9
$ANGBASE
 50
0.0
  9
$ANGDIR
 70
     0
  9
$PDMODE
 70
     0
  9
$PDSIZE
 40
0.0
  9
$PLINEWID
 40
0.0
  9
$SPLFRAME
 70
     0
  9
$SPLINETYPE
 70
     6
  9
$SPLINESEGS
 70
     8
  9
$HANDSEED
  5
B2
  9
$SURFTAB1
 70
     6
  9
$SURFTAB2
 70
     6
  9
$SURFTYPE
 70
     6
  9
$SURFU
 70
     6
  9
$SURFV
 70
     6
  9
$UCSBASE
  2

  9
$UCSNAME
  2

  9
$UCSORG
 10
0.0
 20
0.0
 30
0.0
  9
$UCSXDIR
 10
1.0
 20
0.0
 30
0.0
  9
$UCSYDIR
 10
0.0
 20
1.0
 30
0.0
  9
$UCSORTHOREF
  2

  9
$UCSORTHOVIEW
 70
     0
  9
$UCSORGTOP
 10
0.0
 20
0.0
 30
0.0
  9
$UCSORGBOTTOM
 10
0.0
 20
0.0
 30
0.0
  9
$UCSORGLEFT
 10
0.0
 20
0.0
 30
0.0
  9
$UCSORGRIGHT
 10
0.0
 20
0.0
 30
0.0
  9
$UCSORGFRONT
 10
0.0
 20
0.0
 30
0.0
  9
$UCSORGBACK
 10
0.0
 20
0.0
 30
0.0
  9
$PUCSBASE
  2

  9
$PUCSNAME
  2

  9
$PUCSORG
 10
0.0
 20
0.0
 30
0.0
  9
$PUCSXDIR
 10
1.0
 20
0.0
 30
0.0
  9
$PUCSYDIR
 10
0.0
 20
1.0
 30
0.0
  9
$PUCSORTHOREF
  2

  9
$PUCSORTHOVIEW
 70
     0
  9
$PUCSORGTOP
 10
0.0
 20
0.0
 30
0.0
  9
$PUCSORGBOTTOM
 10
0.0
 20
0.0
 30
0.0
  9
$PUCSORGLEFT
 10
0.0
 20
0.0
 30
0.0
  9
$PUCSORGRIGHT
 10
0.0
 20
0.0
 30
0.0
  9
$PUCSORGFRONT
 10
0.0
 20
0.0
 30
0.0
  9
$PUCSORGBACK
 10
0.0
 20
0.0
 30
0.0
  9
$USERI1
 70
     0
  9
$USERI2
 70
     0
  9
$USERI3
 70
     0
  9
$USERI4
 70
     0
  9
$USERI5
 70
     0
  9
$USERR1
 40
0.0
  9
$USERR2
 40
0.0
  9
$USERR3
 40
0.0
  9
$USERR4
 40
0.0
  9
$USERR5
 40
0.0
  9
$WORLDVIEW
 70
     1
  9
$SHADEDGE
 70
     3
  9
$SHADEDIF
 70
    70
  9
$TILEMODE
 70
     1
  9
$MAXACTVP
 70
    64
  9
$PINSBASE
 10
0.0
 20
0.0
 30
0.0
  9
$PLIMCHECK
 70
     0
  9
$PEXTMIN
 10
1.000000000000000E+20
 20
1.000000000000000E+20
 30
1.000000000000000E+20
  9
$PEXTMAX
 10
-1.000000000000000E+20
 20
-1.000000000000000E+20
 30
-1.000000000000000E+20
  9
$PLIMMIN
 10
0.0
 20
0.0
  9
$PLIMMAX
 10
12.0
 20
9.0
  9
$UNITMODE
 70
     0
  9
$VISRETAIN
 70
     1
  9
$PLINEGEN
 70
     0
  9
$PSLTSCALE
 70
     1
  9
$TREEDEPTH
 70
  3020
  9
$CMLSTYLE
  2
Standard
  9
$CMLJUST
 70
     0
  9
$CMLSCALE
 40
1.0
  9
$PROXYGRAPHICS
 70
     1
  9
$MEASUREMENT
 70
     0
  9
$CELWEIGHT
370
    -1
  9
$ENDCAPS
280
     0
  9
$JOINSTYLE
280
     0
  9
$LWDISPLAY
290
     1
  9
$INSUNITS
 70
     0
  9
$HYPERLINKBASE
  1

  9
$STYLESHEET
  1

  9
$XEDIT
290
     1
  9
$CEPSNTYPE
380
     0
  9
$PSTYLEMODE
290
     1
  9
$FINGERPRINTGUID
  2
{595C9B74-FD7E-3F43-8810-53F7506BE2A4}
  9
$VERSIONGUID
  2
{645122F9-260B-0D43-B65E-570BBE6C8B6D}
  9
$EXTNAMES
290
     1
  9
$PSVPSCALE
 40
0.0
  9
$OLESTARTUP
290
     0
  9
$SORTENTS
280
   127
  9
$INDEXCTL
280
     0
  9
$HIDETEXT
280
     1
  9
$XCLIPFRAME
280
     2
  9
$HALOGAP
280
     0
  9
$OBSCOLOR
 70
   257
  9
$OBSLTYPE
280
     0
  9
$INTERSECTIONDISPLAY
280
     0
  9
$INTERSECTIONCOLOR
 70
   257
  9
$DIMASSOC
280
     2
  9
$PROJECTNAME
  1

  9
$CAMERADISPLAY
290
     0
  9
$LENSLENGTH
 40
50.0
  9
$CAMERAHEIGHT
 40
0.0
  9
$STEPSPERSEC
 40
2.0
  9
$STEPSIZE
 40
6.0
  9
$3DDWFPREC
 40
2.0
  9
$PSOLWIDTH
 40
0.25
  9
$PSOLHEIGHT
 40
4.0
  9
$LOFTANG1
 40
1.570796326794896
  9
$LOFTANG2
 40
1.570796326794896
  9
$LOFTMAG1
 40
0.0
  9
$LOFTMAG2
 40
0.0
  9
$LOFTPARAM
 70
     7
  9
$LOFTNORMALS
280
     1
  9
$LATITUDE
 40
37.795
  9
$LONGITUDE
 40
-122.394
  9
$NORTHDIRECTION
 40
0.0
  9
$TIMEZONE
 70
 -8000
  9
$LIGHTGLYPHDISPLAY
280
     1
  9
$TILEMODELIGHTSYNCH
280
     1
  9
$CMATERIAL
347
11
  9
$SOLIDHIST
280
     0
  9
$SHOWHIST
280
     1
  9
$DWFFRAME
280
     2
  9
$DGNFRAME
280
     0
  9
$REALWORLDSCALE
290
     1
  9
$INTERFERECOLOR
 62
     1
  9
$INTERFEREOBJVS
345
33
  9
$INTERFEREVPVS
346
30
  9
$CSHADOW
280
     0
  9
$SHADOWPLANELOCATION
 40
0.0
  0
ENDSEC
  0
SECTION
  2
CLASSES
  0
CLASS
  1
ACDBDICTIONARYWDFLT
  2
AcDbDictionaryWithDefault
  3
ObjectDBX Classes
 90
        0
 91
        1
280
     0
281
     0
  0
CLASS
  1
MATERIAL
  2
AcDbMaterial
  3
ObjectDBX Classes
 90
     1153
 91
        3
280
     0
281
     0
  0
CLASS
  1
VISUALSTYLE
  2
AcDbVisualStyle
  3
ObjectDBX Classes
 90
     4095
 91
       24
280
     0
281
     0
  0
CLASS
  1
SCALE
  2
AcDbScale
  3
ObjectDBX Classes
 90
     1153
 91
       17
280
     0
281
     0
  0
CLASS
  1
TABLESTYLE
  2
AcDbTableStyle
  3
ObjectDBX Classes
 90
     4095
 91
        1
280
     0
281
     0
  0
CLASS
  1
MLEADERSTYLE
  2
AcDbMLeaderStyle
  3
ACDB_MLEADERSTYLE_CLASS
 90
     4095
 91
        1
280
     0
281
     0
  0
CLASS
  1
ACDBSECTIONVIEWSTYLE
  2
AcDbSectionViewStyle
  3
ObjectDBX Classes
 90
     1025
 91
        1
280
     0
281
     0
  0
CLASS
  1
ACDBDETAILVIEWSTYLE
  2
AcDbDetailViewStyle
  3
ObjectDBX Classes
 90
     1025
 91
        1
280
     0
281
     0
  0
CLASS
  1
DICTIONARYVAR
  2
AcDbDictionaryVar
  3
ObjectDBX Classes
 90
        0
 91
        5
280
     0
281
     0
  0
CLASS
  1
CELLSTYLEMAP
  2
AcDbCellStyleMap
  3
ObjectDBX Classes
 90
     1152
 91
        1
280
     0
281
     0
  0
ENDSEC
  0
SECTION
  2
TABLES
  0
TABLE
  2
VPORT
  5
8
330
0
100
AcDbSymbolTable
 70
     1
  0
VPORT
  5
57
330
8
100
AcDbSymbolTableRecord
100
AcDbViewportTableRecord
  2
*Active
 70
     0
 10
0.0
 20
0.0
 11
1.0
 21
1.0
 12
0.0
 22
0.0
 13
0.0
 23
0.0
 14
1.0
 24
1.0
 15
0.0
 25
0.0
 16
0.0
 26
0.0
 36
1.0
 17
91.48398420022189
 27
-113.1428571428571
 37
0.0
 40
230.8114285714286
 41
0.8740893652337257
 42
50.0
 43
0.0
 44
0.0
 50
0.0
 51
0.0
 71
     0
 72
   100
 73
     1
 74
     1
 75
     0
 76
     0
 77
     0
 78
     0
281
     0
 65
     1
110
0.0
120
0.0
130
0.0
111
1.0
121
0.0
131
0.0
112
0.0
122
1.0
132
0.0
 79
     0
146
0.0
 60
     3
 61
     5
292
     1
282
     1
141
0.0
142
0.0
 63
   250
421
  3355443
  0
ENDTAB
  0
TABLE
  2
LTYPE
  5
5
330
0
100
AcDbSymbolTable
 70
     1
  0
LTYPE
  5
5B
330
5
100
AcDbSymbolTableRecord
100
AcDbLinetypeTableRecord
  2
ByBlock
 70
     0
  3

 72
    65
 73
     0
 40
0.0
  0
LTYPE
  5
5C
330
5
100
AcDbSymbolTableRecord
100
AcDbLinetypeTableRecord
  2
ByLayer
 70
     0
  3

 72
    65
 73
     0
 40
0.0
  0
LTYPE
  5
5D
330
5
100
AcDbSymbolTableRecord
100
AcDbLinetypeTableRecord
  2
Continuous
 70
     0
  3
Solid line
 72
    65
 73
     0
 40
0.0
  0
ENDTAB
  0
TABLE
  2
LAYER
  5
2
330
0
100
AcDbSymbolTable
 70
    23
  0
LAYER
  5
54
330
2
100
AcDbSymbolTableRecord
100
AcDbLayerTableRecord
  2
0
 70
     0
 62
     7
  6
Continuous
370
    -3
390
F
347
21
348
0
  0
LAYER
  5
78
330
2
100
AcDbSymbolTableRecord
100
AcDbLayerTableRecord
  2
Background
 70
     4
 62
     7
  6
Continuous
370
     0
390
F
347
21
348
0
  0
LAYER
  5
79
330
2
100
AcDbSymbolTableRecord
100
AcDbLayerTableRecord
  2
reference1
 70
     5
 62
     7
  6
Continuous
370
     0
390
F
347
21
348
0
  0
LAYER
  5
7A
330
2
100
AcDbSymbolTableRecord
100
AcDbLayerTableRecord
  2
reference2
 70
     5
 62
     7
  6
Continuous
370
     0
390
F
347
21
348
0
  0
LAYER
  5
7B
330
2
100
AcDbSymbolTableRecord
100
AcDbLayerTableRecord
  2
Title-path
 70
     5
 62
     7
  6
Continuous
370
     0
390
F
347
21
348
0
  0
LAYER
  5
7C
330
2
100
AcDbSymbolTableRecord
100
AcDbLayerTableRecord
  2
Title-font
 70
     5
 62
     7
  6
Continuous
370
     0
390
F
347
21
348
0
  0
LAYER
  5
7D
330
2
100
AcDbSymbolTableRecord
100
AcDbLayerTableRecord
  2
Panel-path
 70
     5
 62
     7
  6
Continuous
370
     0
390
F
347
21
348
0
  0
LAYER
  5
7E
330
2
100
AcDbSymbolTableRecord
100
AcDbLayerTableRecord
  2
Panel-font
 70
     5
 62
     7
  6
Continuous
370
     0
390
F
347
21
348
0
  0
LAYER
  5
7F
330
2
100
AcDbSymbolTableRecord
100
AcDbLayerTableRecord
  2
EdgeTop
 70
     0
 62
     7
  6
Continuous
370
     0
390
F
347
21
348
0
  0
LAYER
  5
81
330
2
100
AcDbSymbolTableRecord
100
AcDbLayerTableRecord
  2
VoidB-Flame
 70
     5
 62
     7
  6
Continuous
370
     0
390
F
347
21
348
0
  0
LAYER
  5
82
330
2
100
AcDbSymbolTableRecord
100
AcDbLayerTableRecord
  2
Flames
 70
     4
 62
     7
  6
Continuous
370
     0
390
F
347
21
348
0
  0
LAYER
  5
83
330
2
100
AcDbSymbolTableRecord
100
AcDbLayerTableRecord
  2
VoidB-Lightning
 70
     5
 62
     7
  6
Continuous
370
     0
390
F
347
21
348
0
  0
LAYER
  5
84
330
2
100
AcDbSymbolTableRecord
100
AcDbLayerTableRecord
  2
Lightning
 70
     4
 62
     7
  6
Continuous
370
     0
390
F
347
21
348
0
  0
LAYER
  5
85
330
2
100
AcDbSymbolTableRecord
100
AcDbLayerTableRecord
  2
Delorean
 70
     4
 62
     7
  6
Continuous
370
     0
390
F
347
21
348
0
  0
LAYER
  5
86
330
2
100
AcDbSymbolTableRecord
100
AcDbLayerTableRecord
  2
VoidB-Title
 70
     5
 62
     7
  6
Continuous
370
     0
390
F
347
21
348
0
  0
LAYER
  5
87
330
2
100
AcDbSymbolTableRecord
100
AcDbLayerTableRecord
  2
Title-path-fill
 70
     4
 62
     7
  6
Continuous
370
     0
390
F
347
21
348
0
  0
LAYER
  5
88
330
2
100
AcDbSymbolTableRecord
100
AcDbLayerTableRecord
  2
ClockTower
 70
     4
 62
     7
  6
Continuous
370
     0
390
F
347
21
348
0
  0
LAYER
  5
89
330
2
100
AcDbSymbolTableRecord
100
AcDbLayerTableRecord
  2
Panel-path-fill
 70
     4
 62
     7
  6
Continuous
370
     0
390
F
347
21
348
0
  0
LAYER
  5
8A
330
2
100
AcDbSymbolTableRecord
100
AcDbLayerTableRecord
  2
VoidF-Delorean
 70
     5
 62
     7
  6
Continuous
370
     0
390
F
347
21
348
0
  0
LAYER
  5
8B
330
2
100
AcDbSymbolTableRecord
100
AcDbLayerTableRecord
  2
VoidF-Flame
 70
     4
 62
     7
  6
Continuous
370
     0
390
F
347
21
348
0
  0
LAYER
  5
8C
330
2
100
AcDbSymbolTableRecord
100
AcDbLayerTableRecord
  2
VoidF-Lightning
 70
     0
 62
     7
  6
Continuous
370
     0
390
F
347
21
348
0
  0
LAYER
  5
A7
330
2
100
AcDbSymbolTableRecord
100
AcDbLayerTableRecord
  2
VoidF-Title
 70
     5
 62
     7
  6
Continuous
370
     0
390
F
347
21
348
0
  0
LAYER
  5
A8
330
2
100
AcDbSymbolTableRecord
100
AcDbLayerTableRecord
  2
LED-Placement
 70
     5
 62
     7
  6
Continuous
370
     0
390
F
347
21
348
0
  0
ENDTAB
  0
TABLE
  2
STYLE
  5
3
330
0
100
AcDbSymbolTable
 70
     2
  0
STYLE
  5
55
330
3
100
AcDbSymbolTableRecord
100
AcDbTextStyleTableRecord
  2
Standard
 70
     0
 40
0.0
 41
1.0
 50
0.0
 71
     0
 42
0.2
  3
txt
  4

  0
STYLE
  5
5A
330
3
100
AcDbSymbolTableRecord
100
AcDbTextStyleTableRecord
  2
Annotative
 70
     0
 40
0.0
 41
1.0
 50
0.0
 71
     0
 42
0.2
  3
txt
  4

1001
AcadAnnotative
1000
AnnotativeData
1002
{
1070
     1
1070
     1
1002
}
  0
ENDTAB
  0
TABLE
  2
VIEW
  5
6
330
0
100
AcDbSymbolTable
 70
     0
  0
ENDTAB
  0
TABLE
  2
UCS
  5
7
330
0
100
AcDbSymbolTable
 70
     0
  0
ENDTAB
  0
TABLE
  2
APPID
  5
9
330
0
100
AcDbSymbolTable
 70
     2
  0
APPID
  5
56
330
9
100
AcDbSymbolTableRecord
100
AcDbRegAppTableRecord
  2
ACAD
 70
     0
  0
APPID
  5
5E
330
9
100
AcDbSymbolTableRecord
100
AcDbRegAppTableRecord
  2
AcadAnnotative
 70
     0
  0
ENDTAB
  0
TABLE
  2
DIMSTYLE
  5
A
330
0
100
AcDbSymbolTable
 70
     2
100
AcDbDimStyleTable
 71
     0
  0
DIMSTYLE
105
58
330
A
100
AcDbSymbolTableRecord
100
AcDbDimStyleTableRecord
  2
Standard
 70
     0
340
55
  0
DIMSTYLE
105
59
330
A
100
AcDbSymbolTableRecord
100
AcDbDimStyleTableRecord
  2
Annotative
 70
     0
340
55
1001
AcadAnnotative
1000
AnnotativeData
1002
{
1070
     1
1070
     1
1002
}
  0
ENDTAB
  0
TABLE
  2
BLOCK_RECORD
  5
1
330
0
100
AcDbSymbolTable
 70
     1
  0
BLOCK_RECORD
  5
70
330
1
100
AcDbSymbolTableRecord
100
AcDbBlockTableRecord
  2
*Model_Space
340
73
 70
     0
280
     1
281
     0
  0
BLOCK_RECORD
  5
6C
330
1
100
AcDbSymbolTableRecord
100
AcDbBlockTableRecord
  2
*Paper_Space
340
6F
 70
     0
280
     1
281
     0
  0
BLOCK_RECORD
  5
74
330
1
100
AcDbSymbolTableRecord
100
AcDbBlockTableRecord
  2
*Paper_Space0
340
77
 70
     0
280
     1
281
     0
  0
ENDTAB
  0
ENDSEC
  0
SECTION
  2
BLOCKS
  0
BLOCK
  5
71
330
70
100
AcDbEntity
  8
0
100
AcDbBlockBegin
  2
*Model_Space
 70
     0
 10
0.0
 20
0.0
 30
0.0
  3
*Model_Space
  1

  0
ENDBLK
  5
72
330
70
100
AcDbEntity
  8
0
100
AcDbBlockEnd
  0
BLOCK
  5
6D
330
6C
100
AcDbEntity
 67
     1
  8
0
100
AcDbBlockBegin
  2
*Paper_Space
 70
     0
 10
0.0
 20
0.0
 30
0.0
  3
*Paper_Space
  1

  0
ENDBLK
  5
6E
330
6C
100
AcDbEntity
 67
     1
  8
0
100
AcDbBlockEnd
  0
BLOCK
  5
75
330
74
100
AcDbEntity
 67
     1
  8
0
100
AcDbBlockBegin
  2
*Paper_Space0
 70
     0
 10
0.0
 20
0.0
 30
0.0
  3
*Paper_Space0
  1

  0
ENDBLK
  5
76
330
74
100
AcDbEntity
 67
     1
  8
0
100
AcDbBlockEnd
  0
ENDSEC
  0
SECTION
  2
ENTITIES
  0
LWPOLYLINE
  5
80
330
70
100
AcDbEntity
  8
EdgeTop
 62
   250
420
  2301728
370
    35
100
AcDbPolyline
 90
        8
 70
     1
 43
0.0
 10
142.8571428571428
 20
-91.42857142857142
 10
142.8571428571428
 20
-34.28571428571429
 10
131.4285714285714
 20
-22.85714285714286
 10
17.14285714285714
 20
-22.85714285714286
 10
5.714285714285713
 20
-34.28571428571429
 10
5.714285714285713
 20
-91.42857142857142
 10
17.14285714285714
 20
-102.8571428571428
 10
131.4285714285714
 20
-102.8571428571428
  0
LWPOLYLINE
  5
8D
330
70
100
AcDbEntity
  8
VoidF-Lightning
 62
   165
420
  4286384
370
     9
100
AcDbPolyline
 90
       57
 70
     1
 43
0.0
 10
99.75892857142858
 20
-60.53962053571428
 10
100.10546875
 20
-59.87165178571428
 10
99.46763392857143
 20
-58.73158482142857
 10
99.09095982142858
 20
-58.67131696428571
 10
99.16127232142857
 20
-58.05859375
 10
98.79464285714284
 20
-57.14453125
 10
99.15625
 20
-56.71763392857142
 10
99.00558035714285
 20
-55.07533482142857
 10
99.07589285714285
 20
-54.97991071428571
 10
99.21651785714285
 20
-55.70814732142856
 10
99.23158482142858
 20
-56.39620535714286
 10
99.47767857142856
 20
-56.6171875
 10
99.25167410714285
 20
-57.70703125
 10
99.63337053571429
 20
-57.73716517857142
 10
99.59821428571428
 20
-58.40011160714285
 10
100.3063616071428
 20
-58.68638392857143
 10
100.2059151785714
 20
-59.54520089285714
 10
100.6830357142857
 20
-59.60044642857142
 10
101.3510044642857
 20
-58.94754464285714
 10
101.2254464285714
 20
-57.69698660714285
 10
100.6177455357142
 20
-57.17466517857142
 10
100.5825892857143
 20
-56.44642857142857
 10
101.3761160714286
 20
-55.66796875
 10
101.3861607142857
 20
-55.08035714285714
 10
101.8030133928571
 20
-55.19587053571428
 10
101.8532366071428
 20
-55.16071428571429
 10
102.0340401785714
 20
-53.65401785714285
 10
102.7321402619106
 20
-52.85044642857142
 10
102.6266741071428
 20
-53.453125
 10
102.2047991071428
 20
-54.35714285714285
 10
102.42578125
 20
-54.7689732142857
 10
101.5719866071428
 20
-55.79352678571428
 10
101.7979910714285
 20
-56.265625
 10
101.2154017857143
 20
-56.66238839285714
 10
102.0993303571428
 20
-57.75223214285714
 10
101.8532366071428
 20
-58.18917410714285
 10
102.07421875
 20
-58.67131696428571
 10
101.1551339285714
 20
-59.74609375
 10
101.4012276785714
 20
-59.9921875
 10
102.9933035714285
 20
-59.5
 10
103.1690848214285
 20
-59.82142857142857
 10
104.3844866071428
 20
-59.32924107142857
 10
104.5452008928571
 20
-58.8119419642857
 10
105.2834821428571
 20
-58.5859375
 10
105.37890625
 20
-57.37555803571428
 10
105.9162946428571
 20
-56.75279017857143
 10
105.94140625
 20
-57.30524553571428
 10
105.5496651785714
 20
-57.98325892857143
 10
105.5747767857142
 20
-58.91741071428571
 10
104.8465401785714
 20
-59.19363839285714
 10
104.6858258928571
 20
-60.02232142857142
 10
104.0881696428571
 20
-59.90680803571429
 10
102.7020089285714
 20
-60.57979910714285
 10
101.265625
 20
-60.57979910714285
 10
100.5223214285714
 20
-61.52901785714285
 10
100.3415178571428
 20
-61.06194196428571
 10
100.0853794642857
 20
-61.36328125
  0
HATCH
  5
8E
330
70
100
AcDbEntity
  8
VoidF-Lightning
 62
   133
420
  5358833
440
 33554687
100
AcDbHatch
 10
0.0
 20
0.0
 30
0.0
210
0.0
220
0.0
230
1.0
  2
SOLID
 70
     1
 71
     1
 91
        1
 92
        1
 93
       57
 72
     1
 10
99.75892857142858
 20
-60.53962053571428
 11
100.10546875
 21
-59.87165178571428
 72
     1
 10
100.10546875
 20
-59.87165178571428
 11
99.46763392857143
 21
-58.73158482142857
 72
     1
 10
99.46763392857143
 20
-58.73158482142857
 11
99.09095982142858
 21
-58.67131696428571
 72
     1
 10
99.09095982142858
 20
-58.67131696428571
 11
99.16127232142857
 21
-58.05859375
 72
     1
 10
99.16127232142857
 20
-58.05859375
 11
98.79464285714284
 21
-57.14453125
 72
     1
 10
98.79464285714284
 20
-57.14453125
 11
99.15625
 21
-56.71763392857142
 72
     1
 10
99.15625
 20
-56.71763392857142
 11
99.00558035714285
 21
-55.07533482142857
 72
     1
 10
99.00558035714285
 20
-55.07533482142857
 11
99.07589285714285
 21
-54.97991071428571
 72
     1
 10
99.07589285714285
 20
-54.97991071428571
 11
99.21651785714285
 21
-55.70814732142856
 72
     1
 10
99.21651785714285
 20
-55.70814732142856
 11
99.23158482142858
 21
-56.39620535714286
 72
     1
 10
99.23158482142858
 20
-56.39620535714286
 11
99.47767857142856
 21
-56.6171875
 72
     1
 10
99.47767857142856
 20
-56.6171875
 11
99.25167410714285
 21
-57.70703125
 72
     1
 10
99.25167410714285
 20
-57.70703125
 11
99.63337053571429
 21
-57.73716517857142
 72
     1
 10
99.63337053571429
 20
-57.73716517857142
 11
99.59821428571428
 21
-58.40011160714285
 72
     1
 10
99.59821428571428
 20
-58.40011160714285
 11
100.3063616071428
 21
-58.68638392857143
 72
     1
 10
100.3063616071428
 20
-58.68638392857143
 11
100.2059151785714
 21
-59.54520089285714
 72
     1
 10
100.2059151785714
 20
-59.54520089285714
 11
100.6830357142857
 21
-59.60044642857142
 72
     1
 10
100.6830357142857
 20
-59.60044642857142
 11
101.3510044642857
 21
-58.94754464285714
 72
     1
 10
101.3510044642857
 20
-58.94754464285714
 11
101.2254464285714
 21
-57.69698660714285
 72
     1
 10
101.2254464285714
 20
-57.69698660714285
 11
100.6177455357142
 21
-57.17466517857142
 72
     1
 10
100.6177455357142
 20
-57.17466517857142
 11
100.5825892857143
 21
-56.44642857142857
 72
     1
 10
100.5825892857143
 20
-56.44642857142857
 11
101.3761160714286
 21
-55.66796875
 72
     1
 10
101.3761160714286
 20
-55.66796875
 11
101.3861607142857
 21
-55.08035714285714
 72
     1
 10
101.3861607142857
 20
-55.08035714285714
 11
101.8030133928571
 21
-55.19587053571428
 72
     1
 10
101.8030133928571
 20
-55.19587053571428
 11
101.8532366071428
 21
-55.16071428571429
 72
     1
 10
101.8532366071428
 20
-55.16071428571429
 11
102.0340401785714
 21
-53.65401785714285
 72
     1
 10
102.0340401785714
 20
-53.65401785714285
 11
102.7321402619106
 21
-52.85044642857142
 72
     1
 10
102.7321402619106
 20
-52.85044642857142
 11
102.6266741071428
 21
-53.453125
 72
     1
 10
102.6266741071428
 20
-53.453125
 11
102.2047991071428
 21
-54.35714285714285
 72
     1
 10
102.2047991071428
 20
-54.35714285714285
 11
102.42578125
 21
-54.7689732142857
 72
     1
 10
102.42578125
 20
-54.7689732142857
 11
101.5719866071428
 21
-55.79352678571428
 72
     1
 10
101.5719866071428
 20
-55.79352678571428
 11
101.7979910714285
 21
-56.265625
 72
     1
 10
101.7979910714285
 20
-56.265625
 11
101.2154017857143
 21
-56.66238839285714
 72
     1
 10
101.2154017857143
 20
-56.66238839285714
 11
102.0993303571428
 21
-57.75223214285714
 72
     1
 10
102.0993303571428
 20
-57.75223214285714
 11
101.8532366071428
 21
-58.18917410714285
 72
     1
 10
101.8532366071428
 20
-58.18917410714285
 11
102.07421875
 21
-58.67131696428571
 72
     1
 10
102.07421875
 20
-58.67131696428571
 11
101.1551339285714
 21
-59.74609375
 72
     1
 10
101.1551339285714
 20
-59.74609375
 11
101.4012276785714
 21
-59.9921875
 72
     1
 10
101.4012276785714
 20
-59.9921875
 11
102.9933035714285
 21
-59.5
 72
     1
 10
102.9933035714285
 20
-59.5
 11
103.1690848214285
 21
-59.82142857142857
 72
     1
 10
103.1690848214285
 20
-59.82142857142857
 11
104.3844866071428
 21
-59.32924107142857
 72
     1
 10
104.3844866071428
 20
-59.32924107142857
 11
104.5452008928571
 21
-58.8119419642857
 72
     1
 10
104.5452008928571
 20
-58.8119419642857
 11
105.2834821428571
 21
-58.5859375
 72
     1
 10
105.2834821428571
 20
-58.5859375
 11
105.37890625
 21
-57.37555803571428
 72
     1
 10
105.37890625
 20
-57.37555803571428
 11
105.9162946428571
 21
-56.75279017857143
 72
     1
 10
105.9162946428571
 20
-56.75279017857143
 11
105.94140625
 21
-57.30524553571428
 72
     1
 10
105.94140625
 20
-57.30524553571428
 11
105.5496651785714
 21
-57.98325892857143
 72
     1
 10
105.5496651785714
 20
-57.98325892857143
 11
105.5747767857142
 21
-58.91741071428571
 72
     1
 10
105.5747767857142
 20
-58.91741071428571
 11
104.8465401785714
 21
-59.19363839285714
 72
     1
 10
104.8465401785714
 20
-59.19363839285714
 11
104.6858258928571
 21
-60.02232142857142
 72
     1
 10
104.6858258928571
 20
-60.02232142857142
 11
104.0881696428571
 21
-59.90680803571429
 72
     1
 10
104.0881696428571
 20
-59.90680803571429
 11
102.7020089285714
 21
-60.57979910714285
 72
     1
 10
102.7020089285714
 20
-60.57979910714285
 11
101.265625
 21
-60.57979910714285
 72
     1
 10
101.265625
 20
-60.57979910714285
 11
100.5223214285714
 21
-61.52901785714285
 72
     1
 10
100.5223214285714
 20
-61.52901785714285
 11
100.3415178571428
 21
-61.06194196428571
 72
     1
 10
100.3415178571428
 20
-61.06194196428571
 11
100.0853794642857
 21
-61.36328125
 72
     1
 10
100.0853794642857
 20
-61.36328125
 11
99.75892857142858
 21
-60.53962053571428
 97
        1
330
8D
 75
     2
 76
     1
 98
        1
 10
0.0
 20
0.0
450
        0
451
        0
460
0.0
461
0.0
452
        0
462
0.0
453
        0
470

  0
LWPOLYLINE
  5
8F
330
70
100
AcDbEntity
  8
VoidF-Lightning
 62
   165
420
  4286384
370
     9
100
AcDbPolyline
 90
       22
 70
     1
 43
0.0
 10
108.33203125
 20
-63.43247767857143
 10
108.2767857142857
 20
-63.01060267857142
 10
108.2818080357142
 20
-62.3275669642857
 10
109.0200892857142
 20
-61.97098214285714
 10
109.0100446428571
 20
-61.08203125
 10
109.4068080357142
 20
-61.12723214285714
 10
109.3716517857143
 20
-60.6953125
 10
109.2159598214285
 20
-59.74107142857143
 10
109.3816964285714
 20
-59.67075892857142
 10
109.4319196428571
 20
-59.60546875
 10
109.4118303571428
 20
-59.0580357142857
 10
109.4771205357143
 20
-58.95758928571428
 10
109.5725446428571
 20
-60.23828125
 10
109.9642857142857
 20
-61.16238839285713
 10
109.4369419642857
 20
-62.00111607142857
 10
109.7767857142857
 20
-63.34040178571428
 10
109.5959821428571
 20
-63.6752232142857
 10
109.5089285714285
 20
-63.26339285714285
 10
109.4185267857143
 20
-62.359375
 10
109.3482142857143
 20
-62.27901785714285
 10
109.2678543825189
 20
-62.35602678571428
 10
108.7053571428571
 20
-63.11607142857142
  0
HATCH
  5
90
330
70
100
AcDbEntity
  8
VoidF-Lightning
 62
   133
420
  5358833
440
 33554687
100
AcDbHatch
 10
0.0
 20
0.0
 30
0.0
210
0.0
220
0.0
230
1.0
  2
SOLID
 70
     1
 71
     1
 91
        1
 92
        1
 93
       22
 72
     1
 10
108.33203125
 20
-63.43247767857143
 11
108.2767857142857
 21
-63.01060267857142
 72
     1
 10
108.2767857142857
 20
-63.01060267857142
 11
108.2818080357142
 21
-62.3275669642857
 72
     1
 10
108.2818080357142
 20
-62.3275669642857
 11
109.0200892857142
 21
-61.97098214285714
 72
     1
 10
109.0200892857142
 20
-61.97098214285714
 11
109.0100446428571
 21
-61.08203125
 72
     1
 10
109.0100446428571
 20
-61.08203125
 11
109.4068080357142
 21
-61.12723214285714
 72
     1
 10
109.4068080357142
 20
-61.12723214285714
 11
109.3716517857143
 21
-60.6953125
 72
     1
 10
109.3716517857143
 20
-60.6953125
 11
109.2159598214285
 21
-59.74107142857143
 72
     1
 10
109.2159598214285
 20
-59.74107142857143
 11
109.3816964285714
 21
-59.67075892857142
 72
     1
 10
109.3816964285714
 20
-59.67075892857142
 11
109.4319196428571
 21
-59.60546875
 72
     1
 10
109.4319196428571
 20
-59.60546875
 11
109.4118303571428
 21
-59.0580357142857
 72
     1
 10
109.4118303571428
 20
-59.0580357142857
 11
109.4771205357143
 21
-58.95758928571428
 72
     1
 10
109.4771205357143
 20
-58.95758928571428
 11
109.5725446428571
 21
-60.23828125
 72
     1
 10
109.5725446428571
 20
-60.23828125
 11
109.9642857142857
 21
-61.16238839285713
 72
     1
 10
109.9642857142857
 20
-61.16238839285713
 11
109.4369419642857
 21
-62.00111607142857
 72
     1
 10
109.4369419642857
 20
-62.00111607142857
 11
109.7767857142857
 21
-63.34040178571428
 72
     1
 10
109.7767857142857
 20
-63.34040178571428
 11
109.5959821428571
 21
-63.6752232142857
 72
     1
 10
109.5959821428571
 20
-63.6752232142857
 11
109.5089285714285
 21
-63.26339285714285
 72
     1
 10
109.5089285714285
 20
-63.26339285714285
 11
109.4185267857143
 21
-62.359375
 72
     1
 10
109.4185267857143
 20
-62.359375
 11
109.3482142857143
 21
-62.27901785714285
 72
     1
 10
109.3482142857143
 20
-62.27901785714285
 11
109.2678543825189
 21
-62.35602678571428
 72
     1
 10
109.2678543825189
 20
-62.35602678571428
 11
108.7053571428571
 21
-63.11607142857142
 72
     1
 10
108.7053571428571
 20
-63.11607142857142
 11
108.33203125
 21
-63.43247767857143
 97
        1
330
8F
 75
     2
 76
     1
 98
        1
 10
0.0
 20
0.0
450
        0
451
        0
460
0.0
461
0.0
452
        0
462
0.0
453
        0
470

  0
LWPOLYLINE
  5
91
330
70
100
AcDbEntity
  8
VoidF-Lightning
 62
   165
420
  4286384
370
     9
100
AcDbPolyline
 90
      140
 70
     1
 43
0.0
 10
114.9430803571428
 20
-64.98102678571427
 10
115.2912946428571
 20
-64.74665178571427
 10
115.3214285714285
 20
-64.62611607142857
 10
115.6261160714285
 20
-64.88058035714285
 10
115.6830357142857
 20
-64.8470982142857
 10
116.0613839285714
 20
-63.90290178571429
 10
116.0747767857142
 20
-63.22321428571428
 10
117.7857142857142
 20
-63.109375
 10
118.5089285714285
 20
-62.61049107142857
 10
117.5479910714285
 20
-61.7734375
 10
117.8325892857142
 20
-61.26450892857143
 10
117.5454799107143
 20
-60.26841517857143
 10
117.3169642857142
 20
-59.6029575892857
 10
117.2290736607143
 20
-59.45479910714285
 10
116.4631696428571
 20
-59.5150669642857
 10
115.9458705357143
 20
-59.26143973214285
 10
115.8529575892857
 20
-59.26897321428571
 10
114.4994419642857
 20
-59.77371651785714
 10
114.185546875
 20
-59.73353794642857
 10
114.5094866071428
 20
-59.58286830357142
 10
114.7279575892857
 20
-59.37193080357142
 10
115.2427455357142
 20
-59.33426339285714
 10
115.7700892857143
 20
-59.10072544642857
 10
116.5987723214285
 20
-59.34933035714285
 10
117.2391183035714
 20
-59.20870535714286
 10
117.3044084821428
 20
-59.25892857142857
 10
117.4249441964285
 20
-59.49246651785713
 10
117.630859375
 20
-60.03738839285714
 10
117.7890625
 20
-60.5521763392857
 10
118.1456473214286
 20
-60.89620535714285
 10
118.2209821428571
 20
-61.28041294642857
 10
118.0100446428571
 20
-61.50139508928571
 10
118.0125558035714
 20
-61.54157366071428
 10
118.3666294642857
 20
-62.10909598214286
 10
118.7232142857143
 20
-62.01618303571429
 10
119.107421875
 20
-62.25474330357142
 10
119.353515625
 20
-62.31501116071428
 10
119.4690290178571
 20
-61.94838169642856
 10
119.5945870535714
 20
-61.521484375
 10
120.0842633928571
 20
-61.31305803571429
 10
120.0415736607143
 20
-60.94642857142857
 10
120.1947544642857
 20
-60.92885044642857
 10
120.6316964285714
 20
-60.78571428571429
 10
121.5231584821428
 20
-60.49944196428571
 10
122.1157924107143
 20
-60.3060825892857
 10
122.6481584821428
 20
-59.90680803571429
 10
122.9469866071428
 20
-59.8666294642857
 10
122.660711187044
 20
-60.07003348214285
 10
122.552734375
 20
-60.43917410714286
 10
122.0530133928571
 20
-60.39146205357142
 10
121.7843191964286
 20
-60.46930803571428
 10
121.357421875
 20
-60.80078125
 10
120.4709821428571
 20
-61.02176339285714
 10
120.07421875
 20
-61.61690848214285
 10
120.3303571428571
 20
-62.97042410714285
 10
120.2525111607142
 20
-64.1556919642857
 10
120.6593191964286
 20
-65.107421875
 10
120.6392299107142
 20
-65.94363839285714
 10
121.1715959821428
 20
-65.76534598214284
 10
120.8627232142857
 20
-66.78487723214285
 10
120.9054129464286
 20
-66.82756696428571
 10
121.3071986607143
 20
-66.56138392857143
 10
122.3041294642857
 20
-65.82059151785713
 10
123.203125
 20
-66.23995535714285
 10
123.2366071428571
 20
-66.21316964285714
 10
123.3069196428571
 20
-65.23883928571428
 10
124.7566964285714
 20
-65.41629464285714
 10
126.0892825290024
 20
-64.48214285714285
 10
126.2433035714285
 20
-63.58816964285714
 10
127.2209821428571
 20
-63.18638392857142
 10
127.8504464285714
 20
-62.30915178571429
 10
128.5200892857143
 20
-62.23549107142857
 10
128.4564732142857
 20
-62.36272321428571
 10
127.9542410714285
 20
-62.48995535714286
 10
127.8839285714285
 20
-62.52678571428571
 10
127.3850446428571
 20
-63.37723214285714
 10
126.5446428571428
 20
-63.83258928571429
 10
126.3236607142857
 20
-64.68638392857143
 10
126.9029017857143
 20
-65.37946428571427
 10
126.9330357142857
 20
-66.04575892857143
 10
126.9631696428571
 20
-66.06919642857143
 10
127.8973214285714
 20
-65.76450892857143
 10
128.2555803571428
 20
-66.09263392857143
 10
129.1595982142857
 20
-65.65736607142857
 10
129.9363839285714
 20
-65.97879464285714
 10
130.6495535714285
 20
-65.98214285714284
 10
130.6763392857142
 20
-66.015625
 10
129.8694196428571
 20
-66.203125
 10
129.1629464285714
 20
-65.80803571428571
 10
128.1283482142857
 20
-66.29017857142857
 10
127.7801339285714
 20
-65.98214285714284
 10
126.9497767857143
 20
-66.27678571428571
 10
126.1729910714285
 20
-64.69977678571428
 10
126.1227678571428
 20
-64.703125
 10
125.6473214285714
 20
-65.05133928571428
 10
125.1953125
 20
-65.7377232142857
 10
124.3950892857142
 20
-65.56361607142857
 10
123.6149553571428
 20
-65.67745535714284
 10
123.7890625
 20
-66.53459821428571
 10
122.5435267857142
 20
-66.63839285714285
 10
122.2120535714285
 20
-67.13392857142856
 10
121.7700892857143
 20
-66.80915178571428
 10
121.0368303571428
 20
-67.4252232142857
 10
120.8895089285714
 20
-68.078125
 10
119.4330357142857
 20
-68.62723214285714
 10
118.6529017857143
 20
-69.36886160714284
 10
118.5022321428571
 20
-69.361328125
 10
119.2505580357142
 20
-68.49748883928571
 10
119.2254464285714
 20
-68.41713169642857
 10
118.4921875
 20
-68.52511160714285
 10
118.4620535714286
 20
-68.45731026785713
 10
118.9065290178571
 20
-68.29157366071427
 10
118.8663504464285
 20
-68.21121651785714
 10
117.9974888392857
 20
-68.19112723214285
 10
118.0552455357142
 20
-68.10574776785713
 10
118.3264508928571
 20
-67.97265625
 10
119.3786272321428
 20
-67.80440848214285
 10
120.2299107142857
 20
-67.19921875
 10
119.8180803571428
 20
-66.73465401785714
 10
120.5262276785714
 20
-66.29268973214284
 10
120.5161830357142
 20
-66.25
 10
119.7703683035714
 20
-65.78041294642857
 10
120.162109375
 20
-65.13253348214284
 10
119.6046316964285
 20
-64.55245535714285
 10
120.0239955357143
 20
-63.35463169642856
 10
120.0516183035714
 20
-63.103515625
 10
119.9787946428571
 20
-62.998046875
 10
119.2681361607142
 20
-62.85239955357142
 10
119.23046875
 20
-62.85993303571428
 10
117.8895089285714
 20
-63.560546875
 10
116.6414620535714
 20
-63.736328125
 10
116.9176897321428
 20
-64.40931919642856
 10
116.453125
 20
-64.66043526785714
 10
116.2522321428571
 20
-65.65485491071427
 10
115.9609375
 20
-65.69503348214285
 10
116.1467633928571
 20
-65.31333705357143
 10
116.3049665178571
 20
-65.00697544642857
 10
116.2823660714285
 20
-64.92912946428571
 10
115.0418526785714
 20
-65.39620535714284
 10
114.9765625
 20
-65.24553571428571
  0
HATCH
  5
92
330
70
100
AcDbEntity
  8
VoidF-Lightning
 62
   133
420
  5358833
440
 33554687
100
AcDbHatch
 10
0.0
 20
0.0
 30
0.0
210
0.0
220
0.0
230
1.0
  2
SOLID
 70
     1
 71
     1
 91
        1
 92
        1
 93
      140
 72
     1
 10
114.9430803571428
 20
-64.98102678571427
 11
115.2912946428571
 21
-64.74665178571427
 72
     1
 10
115.2912946428571
 20
-64.74665178571427
 11
115.3214285714285
 21
-64.62611607142857
 72
     1
 10
115.3214285714285
 20
-64.62611607142857
 11
115.6261160714285
 21
-64.88058035714285
 72
     1
 10
115.6261160714285
 20
-64.88058035714285
 11
115.6830357142857
 21
-64.8470982142857
 72
     1
 10
115.6830357142857
 20
-64.8470982142857
 11
116.0613839285714
 21
-63.90290178571429
 72
     1
 10
116.0613839285714
 20
-63.90290178571429
 11
116.0747767857142
 21
-63.22321428571428
 72
     1
 10
116.0747767857142
 20
-63.22321428571428
 11
117.7857142857142
 21
-63.109375
 72
     1
 10
117.7857142857142
 20
-63.109375
 11
118.5089285714285
 21
-62.61049107142857
 72
     1
 10
118.5089285714285
 20
-62.61049107142857
 11
117.5479910714285
 21
-61.7734375
 72
     1
 10
117.5479910714285
 20
-61.7734375
 11
117.8325892857142
 21
-61.26450892857143
 72
     1
 10
117.8325892857142
 20
-61.26450892857143
 11
117.5454799107143
 21
-60.26841517857143
 72
     1
 10
117.5454799107143
 20
-60.26841517857143
 11
117.3169642857142
 21
-59.6029575892857
 72
     1
 10
117.3169642857142
 20
-59.6029575892857
 11
117.2290736607143
 21
-59.45479910714285
 72
     1
 10
117.2290736607143
 20
-59.45479910714285
 11
116.4631696428571
 21
-59.5150669642857
 72
     1
 10
116.4631696428571
 20
-59.5150669642857
 11
115.9458705357143
 21
-59.26143973214285
 72
     1
 10
115.9458705357143
 20
-59.26143973214285
 11
115.8529575892857
 21
-59.26897321428571
 72
     1
 10
115.8529575892857
 20
-59.26897321428571
 11
114.4994419642857
 21
-59.77371651785714
 72
     1
 10
114.4994419642857
 20
-59.77371651785714
 11
114.185546875
 21
-59.73353794642857
 72
     1
 10
114.185546875
 20
-59.73353794642857
 11
114.5094866071428
 21
-59.58286830357142
 72
     1
 10
114.5094866071428
 20
-59.58286830357142
 11
114.7279575892857
 21
-59.37193080357142
 72
     1
 10
114.7279575892857
 20
-59.37193080357142
 11
115.2427455357142
 21
-59.33426339285714
 72
     1
 10
115.2427455357142
 20
-59.33426339285714
 11
115.7700892857143
 21
-59.10072544642857
 72
     1
 10
115.7700892857143
 20
-59.10072544642857
 11
116.5987723214285
 21
-59.34933035714285
 72
     1
 10
116.5987723214285
 20
-59.34933035714285
 11
117.2391183035714
 21
-59.20870535714286
 72
     1
 10
117.2391183035714
 20
-59.20870535714286
 11
117.3044084821428
 21
-59.25892857142857
 72
     1
 10
117.3044084821428
 20
-59.25892857142857
 11
117.4249441964285
 21
-59.49246651785713
 72
     1
 10
117.4249441964285
 20
-59.49246651785713
 11
117.630859375
 21
-60.03738839285714
 72
     1
 10
117.630859375
 20
-60.03738839285714
 11
117.7890625
 21
-60.5521763392857
 72
     1
 10
117.7890625
 20
-60.5521763392857
 11
118.1456473214286
 21
-60.89620535714285
 72
     1
 10
118.1456473214286
 20
-60.89620535714285
 11
118.2209821428571
 21
-61.28041294642857
 72
     1
 10
118.2209821428571
 20
-61.28041294642857
 11
118.0100446428571
 21
-61.50139508928571
 72
     1
 10
118.0100446428571
 20
-61.50139508928571
 11
118.0125558035714
 21
-61.54157366071428
 72
     1
 10
118.0125558035714
 20
-61.54157366071428
 11
118.3666294642857
 21
-62.10909598214286
 72
     1
 10
118.3666294642857
 20
-62.10909598214286
 11
118.7232142857143
 21
-62.01618303571429
 72
     1
 10
118.7232142857143
 20
-62.01618303571429
 11
119.107421875
 21
-62.25474330357142
 72
     1
 10
119.107421875
 20
-62.25474330357142
 11
119.353515625
 21
-62.31501116071428
 72
     1
 10
119.353515625
 20
-62.31501116071428
 11
119.4690290178571
 21
-61.94838169642856
 72
     1
 10
119.4690290178571
 20
-61.94838169642856
 11
119.5945870535714
 21
-61.521484375
 72
     1
 10
119.5945870535714
 20
-61.521484375
 11
120.0842633928571
 21
-61.31305803571429
 72
     1
 10
120.0842633928571
 20
-61.31305803571429
 11
120.0415736607143
 21
-60.94642857142857
 72
     1
 10
120.0415736607143
 20
-60.94642857142857
 11
120.1947544642857
 21
-60.92885044642857
 72
     1
 10
120.1947544642857
 20
-60.92885044642857
 11
120.6316964285714
 21
-60.78571428571429
 72
     1
 10
120.6316964285714
 20
-60.78571428571429
 11
121.5231584821428
 21
-60.49944196428571
 72
     1
 10
121.5231584821428
 20
-60.49944196428571
 11
122.1157924107143
 21
-60.3060825892857
 72
     1
 10
122.1157924107143
 20
-60.3060825892857
 11
122.6481584821428
 21
-59.90680803571429
 72
     1
 10
122.6481584821428
 20
-59.90680803571429
 11
122.9469866071428
 21
-59.8666294642857
 72
     1
 10
122.9469866071428
 20
-59.8666294642857
 11
122.660711187044
 21
-60.07003348214285
 72
     1
 10
122.660711187044
 20
-60.07003348214285
 11
122.552734375
 21
-60.43917410714286
 72
     1
 10
122.552734375
 20
-60.43917410714286
 11
122.0530133928571
 21
-60.39146205357142
 72
     1
 10
122.0530133928571
 20
-60.39146205357142
 11
121.7843191964286
 21
-60.46930803571428
 72
     1
 10
121.7843191964286
 20
-60.46930803571428
 11
121.357421875
 21
-60.80078125
 72
     1
 10
121.357421875
 20
-60.80078125
 11
120.4709821428571
 21
-61.02176339285714
 72
     1
 10
120.4709821428571
 20
-61.02176339285714
 11
120.07421875
 21
-61.61690848214285
 72
     1
 10
120.07421875
 20
-61.61690848214285
 11
120.3303571428571
 21
-62.97042410714285
 72
     1
 10
120.3303571428571
 20
-62.97042410714285
 11
120.2525111607142
 21
-64.1556919642857
 72
     1
 10
120.2525111607142
 20
-64.1556919642857
 11
120.6593191964286
 21
-65.107421875
 72
     1
 10
120.6593191964286
 20
-65.107421875
 11
120.6392299107142
 21
-65.94363839285714
 72
     1
 10
120.6392299107142
 20
-65.94363839285714
 11
121.1715959821428
 21
-65.76534598214284
 72
     1
 10
121.1715959821428
 20
-65.76534598214284
 11
120.8627232142857
 21
-66.78487723214285
 72
     1
 10
120.8627232142857
 20
-66.78487723214285
 11
120.9054129464286
 21
-66.82756696428571
 72
     1
 10
120.9054129464286
 20
-66.82756696428571
 11
121.3071986607143
 21
-66.56138392857143
 72
     1
 10
121.3071986607143
 20
-66.56138392857143
 11
122.3041294642857
 21
-65.82059151785713
 72
     1
 10
122.3041294642857
 20
-65.82059151785713
 11
123.203125
 21
-66.23995535714285
 72
     1
 10
123.203125
 20
-66.23995535714285
 11
123.2366071428571
 21
-66.21316964285714
 72
     1
 10
123.2366071428571
 20
-66.21316964285714
 11
123.3069196428571
 21
-65.23883928571428
 72
     1
 10
123.3069196428571
 20
-65.23883928571428
 11
124.7566964285714
 21
-65.41629464285714
 72
     1
 10
124.7566964285714
 20
-65.41629464285714
 11
126.0892825290024
 21
-64.48214285714285
 72
     1
 10
126.0892825290024
 20
-64.48214285714285
 11
126.2433035714285
 21
-63.58816964285714
 72
     1
 10
126.2433035714285
 20
-63.58816964285714
 11
127.2209821428571
 21
-63.18638392857142
 72
     1
 10
127.2209821428571
 20
-63.18638392857142
 11
127.8504464285714
 21
-62.30915178571429
 72
     1
 10
127.8504464285714
 20
-62.30915178571429
 11
128.5200892857143
 21
-62.23549107142857
 72
     1
 10
128.5200892857143
 20
-62.23549107142857
 11
128.4564732142857
 21
-62.36272321428571
 72
     1
 10
128.4564732142857
 20
-62.36272321428571
 11
127.9542410714285
 21
-62.48995535714286
 72
     1
 10
127.9542410714285
 20
-62.48995535714286
 11
127.8839285714285
 21
-62.52678571428571
 72
     1
 10
127.8839285714285
 20
-62.52678571428571
 11
127.3850446428571
 21
-63.37723214285714
 72
     1
 10
127.3850446428571
 20
-63.37723214285714
 11
126.5446428571428
 21
-63.83258928571429
 72
     1
 10
126.5446428571428
 20
-63.83258928571429
 11
126.3236607142857
 21
-64.68638392857143
 72
     1
 10
126.3236607142857
 20
-64.68638392857143
 11
126.9029017857143
 21
-65.37946428571427
 72
     1
 10
126.9029017857143
 20
-65.37946428571427
 11
126.9330357142857
 21
-66.04575892857143
 72
     1
 10
126.9330357142857
 20
-66.04575892857143
 11
126.9631696428571
 21
-66.06919642857143
 72
     1
 10
126.9631696428571
 20
-66.06919642857143
 11
127.8973214285714
 21
-65.76450892857143
 72
     1
 10
127.8973214285714
 20
-65.76450892857143
 11
128.2555803571428
 21
-66.09263392857143
 72
     1
 10
128.2555803571428
 20
-66.09263392857143
 11
129.1595982142857
 21
-65.65736607142857
 72
     1
 10
129.1595982142857
 20
-65.65736607142857
 11
129.9363839285714
 21
-65.97879464285714
 72
     1
 10
129.9363839285714
 20
-65.97879464285714
 11
130.6495535714285
 21
-65.98214285714284
 72
     1
 10
130.6495535714285
 20
-65.98214285714284
 11
130.6763392857142
 21
-66.015625
 72
     1
 10
130.6763392857142
 20
-66.015625
 11
129.8694196428571
 21
-66.203125
 72
     1
 10
129.8694196428571
 20
-66.203125
 11
129.1629464285714
 21
-65.80803571428571
 72
     1
 10
129.1629464285714
 20
-65.80803571428571
 11
128.1283482142857
 21
-66.29017857142857
 72
     1
 10
128.1283482142857
 20
-66.29017857142857
 11
127.7801339285714
 21
-65.98214285714284
 72
     1
 10
127.7801339285714
 20
-65.98214285714284
 11
126.9497767857143
 21
-66.27678571428571
 72
     1
 10
126.9497767857143
 20
-66.27678571428571
 11
126.1729910714285
 21
-64.69977678571428
 72
     1
 10
126.1729910714285
 20
-64.69977678571428
 11
126.1227678571428
 21
-64.703125
 72
     1
 10
126.1227678571428
 20
-64.703125
 11
125.6473214285714
 21
-65.05133928571428
 72
     1
 10
125.6473214285714
 20
-65.05133928571428
 11
125.1953125
 21
-65.7377232142857
 72
     1
 10
125.1953125
 20
-65.7377232142857
 11
124.3950892857142
 21
-65.56361607142857
 72
     1
 10
124.3950892857142
 20
-65.56361607142857
 11
123.6149553571428
 21
-65.67745535714284
 72
     1
 10
123.6149553571428
 20
-65.67745535714284
 11
123.7890625
 21
-66.53459821428571
 72
     1
 10
123.7890625
 20
-66.53459821428571
 11
122.5435267857142
 21
-66.63839285714285
 72
     1
 10
122.5435267857142
 20
-66.63839285714285
 11
122.2120535714285
 21
-67.13392857142856
 72
     1
 10
122.2120535714285
 20
-67.13392857142856
 11
121.7700892857143
 21
-66.80915178571428
 72
     1
 10
121.7700892857143
 20
-66.80915178571428
 11
121.0368303571428
 21
-67.4252232142857
 72
     1
 10
121.0368303571428
 20
-67.4252232142857
 11
120.8895089285714
 21
-68.078125
 72
     1
 10
120.8895089285714
 20
-68.078125
 11
119.4330357142857
 21
-68.62723214285714
 72
     1
 10
119.4330357142857
 20
-68.62723214285714
 11
118.6529017857143
 21
-69.36886160714284
 72
     1
 10
118.6529017857143
 20
-69.36886160714284
 11
118.5022321428571
 21
-69.361328125
 72
     1
 10
118.5022321428571
 20
-69.361328125
 11
119.2505580357142
 21
-68.49748883928571
 72
     1
 10
119.2505580357142
 20
-68.49748883928571
 11
119.2254464285714
 21
-68.41713169642857
 72
     1
 10
119.2254464285714
 20
-68.41713169642857
 11
118.4921875
 21
-68.52511160714285
 72
     1
 10
118.4921875
 20
-68.52511160714285
 11
118.4620535714286
 21
-68.45731026785713
 72
     1
 10
118.4620535714286
 20
-68.45731026785713
 11
118.9065290178571
 21
-68.29157366071427
 72
     1
 10
118.9065290178571
 20
-68.29157366071427
 11
118.8663504464285
 21
-68.21121651785714
 72
     1
 10
118.8663504464285
 20
-68.21121651785714
 11
117.9974888392857
 21
-68.19112723214285
 72
     1
 10
117.9974888392857
 20
-68.19112723214285
 11
118.0552455357142
 21
-68.10574776785713
 72
     1
 10
118.0552455357142
 20
-68.10574776785713
 11
118.3264508928571
 21
-67.97265625
 72
     1
 10
118.3264508928571
 20
-67.97265625
 11
119.3786272321428
 21
-67.80440848214285
 72
     1
 10
119.3786272321428
 20
-67.80440848214285
 11
120.2299107142857
 21
-67.19921875
 72
     1
 10
120.2299107142857
 20
-67.19921875
 11
119.8180803571428
 21
-66.73465401785714
 72
     1
 10
119.8180803571428
 20
-66.73465401785714
 11
120.5262276785714
 21
-66.29268973214284
 72
     1
 10
120.5262276785714
 20
-66.29268973214284
 11
120.5161830357142
 21
-66.25
 72
     1
 10
120.5161830357142
 20
-66.25
 11
119.7703683035714
 21
-65.78041294642857
 72
     1
 10
119.7703683035714
 20
-65.78041294642857
 11
120.162109375
 21
-65.13253348214284
 72
     1
 10
120.162109375
 20
-65.13253348214284
 11
119.6046316964285
 21
-64.55245535714285
 72
     1
 10
119.6046316964285
 20
-64.55245535714285
 11
120.0239955357143
 21
-63.35463169642856
 72
     1
 10
120.0239955357143
 20
-63.35463169642856
 11
120.0516183035714
 21
-63.103515625
 72
     1
 10
120.0516183035714
 20
-63.103515625
 11
119.9787946428571
 21
-62.998046875
 72
     1
 10
119.9787946428571
 20
-62.998046875
 11
119.2681361607142
 21
-62.85239955357142
 72
     1
 10
119.2681361607142
 20
-62.85239955357142
 11
119.23046875
 21
-62.85993303571428
 72
     1
 10
119.23046875
 20
-62.85993303571428
 11
117.8895089285714
 21
-63.560546875
 72
     1
 10
117.8895089285714
 20
-63.560546875
 11
116.6414620535714
 21
-63.736328125
 72
     1
 10
116.6414620535714
 20
-63.736328125
 11
116.9176897321428
 21
-64.40931919642856
 72
     1
 10
116.9176897321428
 20
-64.40931919642856
 11
116.453125
 21
-64.66043526785714
 72
     1
 10
116.453125
 20
-64.66043526785714
 11
116.2522321428571
 21
-65.65485491071427
 72
     1
 10
116.2522321428571
 20
-65.65485491071427
 11
115.9609375
 21
-65.69503348214285
 72
     1
 10
115.9609375
 20
-65.69503348214285
 11
116.1467633928571
 21
-65.31333705357143
 72
     1
 10
116.1467633928571
 20
-65.31333705357143
 11
116.3049665178571
 21
-65.00697544642857
 72
     1
 10
116.3049665178571
 20
-65.00697544642857
 11
116.2823660714285
 21
-64.92912946428571
 72
     1
 10
116.2823660714285
 20
-64.92912946428571
 11
115.0418526785714
 21
-65.39620535714284
 72
     1
 10
115.0418526785714
 20
-65.39620535714284
 11
114.9765625
 21
-65.24553571428571
 72
     1
 10
114.9765625
 20
-65.24553571428571
 11
114.9430803571428
 21
-64.98102678571427
 97
        1
330
91
 75
     2
 76
     1
 98
        1
 10
0.0
 20
0.0
450
        0
451
        0
460
0.0
461
0.0
452
        0
462
0.0
453
        0
470

  0
LWPOLYLINE
  5
93
330
70
100
AcDbEntity
  8
VoidF-Lightning
 62
   165
420
  4286384
370
     9
100
AcDbPolyline
 90
       71
 70
     1
 43
0.0
 10
114.7254464285714
 20
-75.9330357142857
 10
115.046875
 20
-75.56138392857143
 10
115.2075892857143
 20
-75.11941964285714
 10
116.3125
 20
-74.90848214285714
 10
117.5580357142857
 20
-74.08482142857143
 10
119.5669642857142
 20
-74.43136160714285
 10
120.8526785714285
 20
-73.7734375
 10
120.84765625
 20
-72.76395089285713
 10
121.1590401785714
 20
-72.02064732142857
 10
122.7912946428571
 20
-71.59877232142857
 10
122.9821397503526
 20
-70.04185267857143
 10
123.0574776785714
 20
-68.61049107142857
 10
123.1478794642857
 20
-68.63560267857143
 10
123.16796875
 20
-69.14787946428571
 10
123.3989955357142
 20
-69.44921875
 10
123.2784598214285
 20
-70.57421875
 10
123.3337053571428
 20
-70.62444196428571
 10
124.9659598214285
 20
-69.95145089285713
 10
125.4681919642857
 20
-70.71986607142857
 10
126.0758928571428
 20
-70.95591517857143
 10
126.5530133928571
 20
-70.19252232142857
 10
126.5731026785714
 20
-69.19308035714284
 10
126.2667410714285
 20
-67.88727678571428
 10
126.3420758928571
 20
-67.8671875
 10
126.4977678571428
 20
-68.078125
 10
126.82421875
 20
-69.23325892857143
 10
126.9397321428571
 20
-70.14229910714284
 10
127.0803571428571
 20
-70.08705357142857
 10
128.2254464285714
 20
-69.2734375
 10
129.14453125
 20
-69.16796875
 10
130.12890625
 20
-69.69029017857143
 10
130.1841517857142
 20
-69.67522321428571
 10
130.4001116071428
 20
-67.84207589285713
 10
132.2935267857143
 20
-67.8671875
 10
131.7209821428571
 20
-66.42578125
 10
131.921875
 20
-65.78794642857143
 10
132.5396205357143
 20
-65.50669642857143
 10
133.3934151785714
 20
-64.79854910714284
 10
133.4135044642857
 20
-64.82366071428571
 10
132.0022321428571
 20
-66.22488839285714
 10
132.7907366071428
 20
-67.92243303571428
 10
132.80078125
 20
-67.96261160714284
 10
130.8018973214285
 20
-67.94252232142857
 10
130.3900669642857
 20
-69.60993303571427
 10
131.6155133928571
 20
-70.08705357142857
 10
133.9910714285714
 20
-69.87109375
 10
133.9358258928571
 20
-69.97154017857143
 10
132.5747767857142
 20
-70.26785714285714
 10
131.1735491071428
 20
-70.10212053571428
 10
130.4905133928571
 20
-69.69029017857143
 10
130.0184151785714
 20
-70.12974330357143
 10
129.4006696428571
 20
-69.52957589285714
 10
128.8708147321428
 20
-69.87109375
 10
128.4539620535714
 20
-69.67271205357143
 10
127.3113839285714
 20
-70.40094866071427
 10
126.1888950892857
 20
-71.13169642857143
 10
124.7123325892857
 20
-70.6595982142857
 10
123.765625
 20
-71.013671875
 10
123.0750558035714
 20
-71.98046875
 10
121.9475446428571
 20
-72.19893973214285
 10
121.3071986607143
 20
-73.89899553571428
 10
121.0611049107143
 20
-74.56947544642857
 10
117.5848214285714
 20
-75.16964285714284
 10
115.6143973214285
 20
-77.02790178571428
 10
115.4235491071428
 20
-77.06808035714285
 10
114.6400669642857
 20
-77.02287946428571
 10
115.8152901785714
 20
-75.8125
 10
115.50390625
 20
-75.47600446428571
 10
115.43359375
 20
-75.49107142857143
 10
115.1222098214286
 20
-75.7572544642857
 10
114.8309151785714
 20
-75.9330357142857
  0
HATCH
  5
94
330
70
100
AcDbEntity
  8
VoidF-Lightning
 62
   133
420
  5358833
440
 33554687
100
AcDbHatch
 10
0.0
 20
0.0
 30
0.0
210
0.0
220
0.0
230
1.0
  2
SOLID
 70
     1
 71
     1
 91
        1
 92
        1
 93
       71
 72
     1
 10
114.7254464285714
 20
-75.9330357142857
 11
115.046875
 21
-75.56138392857143
 72
     1
 10
115.046875
 20
-75.56138392857143
 11
115.2075892857143
 21
-75.11941964285714
 72
     1
 10
115.2075892857143
 20
-75.11941964285714
 11
116.3125
 21
-74.90848214285714
 72
     1
 10
116.3125
 20
-74.90848214285714
 11
117.5580357142857
 21
-74.08482142857143
 72
     1
 10
117.5580357142857
 20
-74.08482142857143
 11
119.5669642857142
 21
-74.43136160714285
 72
     1
 10
119.5669642857142
 20
-74.43136160714285
 11
120.8526785714285
 21
-73.7734375
 72
     1
 10
120.8526785714285
 20
-73.7734375
 11
120.84765625
 21
-72.76395089285713
 72
     1
 10
120.84765625
 20
-72.76395089285713
 11
121.1590401785714
 21
-72.02064732142857
 72
     1
 10
121.1590401785714
 20
-72.02064732142857
 11
122.7912946428571
 21
-71.59877232142857
 72
     1
 10
122.7912946428571
 20
-71.59877232142857
 11
122.9821397503526
 21
-70.04185267857143
 72
     1
 10
122.9821397503526
 20
-70.04185267857143
 11
123.0574776785714
 21
-68.61049107142857
 72
     1
 10
123.0574776785714
 20
-68.61049107142857
 11
123.1478794642857
 21
-68.63560267857143
 72
     1
 10
123.1478794642857
 20
-68.63560267857143
 11
123.16796875
 21
-69.14787946428571
 72
     1
 10
123.16796875
 20
-69.14787946428571
 11
123.3989955357142
 21
-69.44921875
 72
     1
 10
123.3989955357142
 20
-69.44921875
 11
123.2784598214285
 21
-70.57421875
 72
     1
 10
123.2784598214285
 20
-70.57421875
 11
123.3337053571428
 21
-70.62444196428571
 72
     1
 10
123.3337053571428
 20
-70.62444196428571
 11
124.9659598214285
 21
-69.95145089285713
 72
     1
 10
124.9659598214285
 20
-69.95145089285713
 11
125.4681919642857
 21
-70.71986607142857
 72
     1
 10
125.4681919642857
 20
-70.71986607142857
 11
126.0758928571428
 21
-70.95591517857143
 72
     1
 10
126.0758928571428
 20
-70.95591517857143
 11
126.5530133928571
 21
-70.19252232142857
 72
     1
 10
126.5530133928571
 20
-70.19252232142857
 11
126.5731026785714
 21
-69.19308035714284
 72
     1
 10
126.5731026785714
 20
-69.19308035714284
 11
126.2667410714285
 21
-67.88727678571428
 72
     1
 10
126.2667410714285
 20
-67.88727678571428
 11
126.3420758928571
 21
-67.8671875
 72
     1
 10
126.3420758928571
 20
-67.8671875
 11
126.4977678571428
 21
-68.078125
 72
     1
 10
126.4977678571428
 20
-68.078125
 11
126.82421875
 21
-69.23325892857143
 72
     1
 10
126.82421875
 20
-69.23325892857143
 11
126.9397321428571
 21
-70.14229910714284
 72
     1
 10
126.9397321428571
 20
-70.14229910714284
 11
127.0803571428571
 21
-70.08705357142857
 72
     1
 10
127.0803571428571
 20
-70.08705357142857
 11
128.2254464285714
 21
-69.2734375
 72
     1
 10
128.2254464285714
 20
-69.2734375
 11
129.14453125
 21
-69.16796875
 72
     1
 10
129.14453125
 20
-69.16796875
 11
130.12890625
 21
-69.69029017857143
 72
     1
 10
130.12890625
 20
-69.69029017857143
 11
130.1841517857142
 21
-69.67522321428571
 72
     1
 10
130.1841517857142
 20
-69.67522321428571
 11
130.4001116071428
 21
-67.84207589285713
 72
     1
 10
130.4001116071428
 20
-67.84207589285713
 11
132.2935267857143
 21
-67.8671875
 72
     1
 10
132.2935267857143
 20
-67.8671875
 11
131.7209821428571
 21
-66.42578125
 72
     1
 10
131.7209821428571
 20
-66.42578125
 11
131.921875
 21
-65.78794642857143
 72
     1
 10
131.921875
 20
-65.78794642857143
 11
132.5396205357143
 21
-65.50669642857143
 72
     1
 10
132.5396205357143
 20
-65.50669642857143
 11
133.3934151785714
 21
-64.79854910714284
 72
     1
 10
133.3934151785714
 20
-64.79854910714284
 11
133.4135044642857
 21
-64.82366071428571
 72
     1
 10
133.4135044642857
 20
-64.82366071428571
 11
132.0022321428571
 21
-66.22488839285714
 72
     1
 10
132.0022321428571
 20
-66.22488839285714
 11
132.7907366071428
 21
-67.92243303571428
 72
     1
 10
132.7907366071428
 20
-67.92243303571428
 11
132.80078125
 21
-67.96261160714284
 72
     1
 10
132.80078125
 20
-67.96261160714284
 11
130.8018973214285
 21
-67.94252232142857
 72
     1
 10
130.8018973214285
 20
-67.94252232142857
 11
130.3900669642857
 21
-69.60993303571427
 72
     1
 10
130.3900669642857
 20
-69.60993303571427
 11
131.6155133928571
 21
-70.08705357142857
 72
     1
 10
131.6155133928571
 20
-70.08705357142857
 11
133.9910714285714
 21
-69.87109375
 72
     1
 10
133.9910714285714
 20
-69.87109375
 11
133.9358258928571
 21
-69.97154017857143
 72
     1
 10
133.9358258928571
 20
-69.97154017857143
 11
132.5747767857142
 21
-70.26785714285714
 72
     1
 10
132.5747767857142
 20
-70.26785714285714
 11
131.1735491071428
 21
-70.10212053571428
 72
     1
 10
131.1735491071428
 20
-70.10212053571428
 11
130.4905133928571
 21
-69.69029017857143
 72
     1
 10
130.4905133928571
 20
-69.69029017857143
 11
130.0184151785714
 21
-70.12974330357143
 72
     1
 10
130.0184151785714
 20
-70.12974330357143
 11
129.4006696428571
 21
-69.52957589285714
 72
     1
 10
129.4006696428571
 20
-69.52957589285714
 11
128.8708147321428
 21
-69.87109375
 72
     1
 10
128.8708147321428
 20
-69.87109375
 11
128.4539620535714
 21
-69.67271205357143
 72
     1
 10
128.4539620535714
 20
-69.67271205357143
 11
127.3113839285714
 21
-70.40094866071427
 72
     1
 10
127.3113839285714
 20
-70.40094866071427
 11
126.1888950892857
 21
-71.13169642857143
 72
     1
 10
126.1888950892857
 20
-71.13169642857143
 11
124.7123325892857
 21
-70.6595982142857
 72
     1
 10
124.7123325892857
 20
-70.6595982142857
 11
123.765625
 21
-71.013671875
 72
     1
 10
123.765625
 20
-71.013671875
 11
123.0750558035714
 21
-71.98046875
 72
     1
 10
123.0750558035714
 20
-71.98046875
 11
121.9475446428571
 21
-72.19893973214285
 72
     1
 10
121.9475446428571
 20
-72.19893973214285
 11
121.3071986607143
 21
-73.89899553571428
 72
     1
 10
121.3071986607143
 20
-73.89899553571428
 11
121.0611049107143
 21
-74.56947544642857
 72
     1
 10
121.0611049107143
 20
-74.56947544642857
 11
117.5848214285714
 21
-75.16964285714284
 72
     1
 10
117.5848214285714
 20
-75.16964285714284
 11
115.6143973214285
 21
-77.02790178571428
 72
     1
 10
115.6143973214285
 20
-77.02790178571428
 11
115.4235491071428
 21
-77.06808035714285
 72
     1
 10
115.4235491071428
 20
-77.06808035714285
 11
114.6400669642857
 21
-77.02287946428571
 72
     1
 10
114.6400669642857
 20
-77.02287946428571
 11
115.8152901785714
 21
-75.8125
 72
     1
 10
115.8152901785714
 20
-75.8125
 11
115.50390625
 21
-75.47600446428571
 72
     1
 10
115.50390625
 20
-75.47600446428571
 11
115.43359375
 21
-75.49107142857143
 72
     1
 10
115.43359375
 20
-75.49107142857143
 11
115.1222098214286
 21
-75.7572544642857
 72
     1
 10
115.1222098214286
 20
-75.7572544642857
 11
114.8309151785714
 21
-75.9330357142857
 72
     1
 10
114.8309151785714
 20
-75.9330357142857
 11
114.7254464285714
 21
-75.9330357142857
 97
        1
330
93
 75
     2
 76
     1
 98
        1
 10
0.0
 20
0.0
450
        0
451
        0
460
0.0
461
0.0
452
        0
462
0.0
453
        0
470

  0
LWPOLYLINE
  5
95
330
70
100
AcDbEntity
  8
VoidF-Lightning
 62
   165
420
  4286384
370
     9
100
AcDbPolyline
 90
       79
 70
     1
 43
0.0
 10
111.9933035714286
 20
-81.44252232142857
 10
112.2042410714285
 20
-81.10100446428571
 10
112.41015625
 20
-80.69921875
 10
112.515625
 20
-80.40792410714285
 10
112.6010044642857
 20
-80.05133928571428
 10
113.0530133928571
 20
-80.00613839285714
 10
113.46484375
 20
-79.88560267857143
 10
114.0775669642857
 20
-79.64453125
 10
114.5597098214286
 20
-79.3984375
 10
115.1222098214286
 20
-79.15736607142857
 10
115.4838169642857
 20
-78.95647321428571
 10
115.64453125
 20
-78.80078125
 10
115.8856026785714
 20
-78.61495535714285
 10
116.6138392857142
 20
-78.53459821428571
 10
116.8348214285714
 20
-77.75111607142857
 10
117.5630580357142
 20
-77.65569196428571
 10
118.2059151785714
 20
-77.10825892857143
 10
118.8588169642857
 20
-76.99274553571427
 10
118.8939732142857
 20
-77.88671875
 10
119.0145089285714
 20
-77.87165178571427
 10
120.0842633928571
 20
-77.32421875
 10
120.4006696428571
 20
-76.71651785714285
 10
120.8928571428571
 20
-76.80189732142856
 10
121.0435267857143
 20
-76.02845982142857
 10
121.7064732142857
 20
-75.62667410714285
 10
122.5954241071428
 20
-74.74274553571428
 10
122.7511160714285
 20
-73.98939732142856
 10
123.2935267857143
 20
-73.94419642857143
 10
123.9213169642857
 20
-73.29129464285713
 10
124.0368303571428
 20
-73.25613839285714
 10
123.8962053571428
 20
-73.70814732142857
 10
123.5094866071428
 20
-74.10993303571427
 10
122.8816964285714
 20
-74.24553571428571
 10
122.4146205357143
 20
-75.38560267857143
 10
121.6010044642857
 20
-75.94308035714284
 10
121.2946428571428
 20
-76.75669642857143
 10
121.8822544642857
 20
-77.03292410714285
 10
122.2438616071428
 20
-77.54017857142857
 10
123.0373883928571
 20
-77.77622767857143
 10
123.0876116071428
 20
-77.75111607142857
 10
123.4090401785714
 20
-76.44029017857143
 10
123.7706473214285
 20
-75.71707589285714
 10
124.4536830357143
 20
-75.57142857142856
 10
125.4832589285714
 20
-75.88783482142857
 10
125.4983258928571
 20
-73.84877232142857
 10
130.8722098214285
 20
-73.11049107142856
 10
130.8018973214285
 20
-73.20591517857143
 10
128.7126116071428
 20
-73.87890625
 10
125.7845982142857
 20
-73.97935267857143
 10
125.9654017857142
 20
-75.40066964285713
 10
126.1813616071428
 20
-75.77232142857143
 10
125.4029017857142
 20
-76.27455357142856
 10
124.0167410714285
 20
-75.80747767857143
 10
123.9514508928571
 20
-75.87276785714284
 10
123.6852678571428
 20
-77.66071428571428
 10
125.8297991071428
 20
-77.95703125
 10
127.1958705357143
 20
-76.92745535714284
 10
128.0797991071428
 20
-77.08816964285714
 10
128.3660714285714
 20
-76.25948660714285
 10
128.8381696428571
 20
-76.36997767857143
 10
129.8928571428571
 20
-75.26004464285714
 10
130.0083705357143
 20
-75.23493303571427
 10
129.1947544642857
 20
-76.22433035714284
 10
129.14453125
 20
-76.68136160714285
 10
128.0797991071428
 20
-77.35435267857143
 10
126.7890625
 20
-77.56529017857143
 10
125.83984375
 20
-78.43917410714285
 10
124.3683035714285
 20
-78.0424107142857
 10
122.2840401785714
 20
-78.39899553571427
 10
121.9123883928571
 20
-77.64564732142857
 10
120.7472098214285
 20
-77.20368303571428
 10
119.9737723214285
 20
-78.01227678571428
 10
118.2661830357143
 20
-78.47935267857143
 10
117.8141741071428
 20
-78.09765625
 10
115.4436383928571
 20
-79.74497767857143
 10
115.4386160714286
 20
-79.81026785714284
 10
115.7700892857143
 20
-80.62890624999999
 10
113.46484375
 20
-81.54296875
 10
113.1333705357143
 20
-81.46261160714285
  0
HATCH
  5
96
330
70
100
AcDbEntity
  8
VoidF-Lightning
 62
   133
420
  5358833
440
 33554687
100
AcDbHatch
 10
0.0
 20
0.0
 30
0.0
210
0.0
220
0.0
230
1.0
  2
SOLID
 70
     1
 71
     1
 91
        1
 92
        1
 93
       79
 72
     1
 10
111.9933035714286
 20
-81.44252232142857
 11
112.2042410714285
 21
-81.10100446428571
 72
     1
 10
112.2042410714285
 20
-81.10100446428571
 11
112.41015625
 21
-80.69921875
 72
     1
 10
112.41015625
 20
-80.69921875
 11
112.515625
 21
-80.40792410714285
 72
     1
 10
112.515625
 20
-80.40792410714285
 11
112.6010044642857
 21
-80.05133928571428
 72
     1
 10
112.6010044642857
 20
-80.05133928571428
 11
113.0530133928571
 21
-80.00613839285714
 72
     1
 10
113.0530133928571
 20
-80.00613839285714
 11
113.46484375
 21
-79.88560267857143
 72
     1
 10
113.46484375
 20
-79.88560267857143
 11
114.0775669642857
 21
-79.64453125
 72
     1
 10
114.0775669642857
 20
-79.64453125
 11
114.5597098214286
 21
-79.3984375
 72
     1
 10
114.5597098214286
 20
-79.3984375
 11
115.1222098214286
 21
-79.15736607142857
 72
     1
 10
115.1222098214286
 20
-79.15736607142857
 11
115.4838169642857
 21
-78.95647321428571
 72
     1
 10
115.4838169642857
 20
-78.95647321428571
 11
115.64453125
 21
-78.80078125
 72
     1
 10
115.64453125
 20
-78.80078125
 11
115.8856026785714
 21
-78.61495535714285
 72
     1
 10
115.8856026785714
 20
-78.61495535714285
 11
116.6138392857142
 21
-78.53459821428571
 72
     1
 10
116.6138392857142
 20
-78.53459821428571
 11
116.8348214285714
 21
-77.75111607142857
 72
     1
 10
116.8348214285714
 20
-77.75111607142857
 11
117.5630580357142
 21
-77.65569196428571
 72
     1
 10
117.5630580357142
 20
-77.65569196428571
 11
118.2059151785714
 21
-77.10825892857143
 72
     1
 10
118.2059151785714
 20
-77.10825892857143
 11
118.8588169642857
 21
-76.99274553571427
 72
     1
 10
118.8588169642857
 20
-76.99274553571427
 11
118.8939732142857
 21
-77.88671875
 72
     1
 10
118.8939732142857
 20
-77.88671875
 11
119.0145089285714
 21
-77.87165178571427
 72
     1
 10
119.0145089285714
 20
-77.87165178571427
 11
120.0842633928571
 21
-77.32421875
 72
     1
 10
120.0842633928571
 20
-77.32421875
 11
120.4006696428571
 21
-76.71651785714285
 72
     1
 10
120.4006696428571
 20
-76.71651785714285
 11
120.8928571428571
 21
-76.80189732142856
 72
     1
 10
120.8928571428571
 20
-76.80189732142856
 11
121.0435267857143
 21
-76.02845982142857
 72
     1
 10
121.0435267857143
 20
-76.02845982142857
 11
121.7064732142857
 21
-75.62667410714285
 72
     1
 10
121.7064732142857
 20
-75.62667410714285
 11
122.5954241071428
 21
-74.74274553571428
 72
     1
 10
122.5954241071428
 20
-74.74274553571428
 11
122.7511160714285
 21
-73.98939732142856
 72
     1
 10
122.7511160714285
 20
-73.98939732142856
 11
123.2935267857143
 21
-73.94419642857143
 72
     1
 10
123.2935267857143
 20
-73.94419642857143
 11
123.9213169642857
 21
-73.29129464285713
 72
     1
 10
123.9213169642857
 20
-73.29129464285713
 11
124.0368303571428
 21
-73.25613839285714
 72
     1
 10
124.0368303571428
 20
-73.25613839285714
 11
123.8962053571428
 21
-73.70814732142857
 72
     1
 10
123.8962053571428
 20
-73.70814732142857
 11
123.5094866071428
 21
-74.10993303571427
 72
     1
 10
123.5094866071428
 20
-74.10993303571427
 11
122.8816964285714
 21
-74.24553571428571
 72
     1
 10
122.8816964285714
 20
-74.24553571428571
 11
122.4146205357143
 21
-75.38560267857143
 72
     1
 10
122.4146205357143
 20
-75.38560267857143
 11
121.6010044642857
 21
-75.94308035714284
 72
     1
 10
121.6010044642857
 20
-75.94308035714284
 11
121.2946428571428
 21
-76.75669642857143
 72
     1
 10
121.2946428571428
 20
-76.75669642857143
 11
121.8822544642857
 21
-77.03292410714285
 72
     1
 10
121.8822544642857
 20
-77.03292410714285
 11
122.2438616071428
 21
-77.54017857142857
 72
     1
 10
122.2438616071428
 20
-77.54017857142857
 11
123.0373883928571
 21
-77.77622767857143
 72
     1
 10
123.0373883928571
 20
-77.77622767857143
 11
123.0876116071428
 21
-77.75111607142857
 72
     1
 10
123.0876116071428
 20
-77.75111607142857
 11
123.4090401785714
 21
-76.44029017857143
 72
     1
 10
123.4090401785714
 20
-76.44029017857143
 11
123.7706473214285
 21
-75.71707589285714
 72
     1
 10
123.7706473214285
 20
-75.71707589285714
 11
124.4536830357143
 21
-75.57142857142856
 72
     1
 10
124.4536830357143
 20
-75.57142857142856
 11
125.4832589285714
 21
-75.88783482142857
 72
     1
 10
125.4832589285714
 20
-75.88783482142857
 11
125.4983258928571
 21
-73.84877232142857
 72
     1
 10
125.4983258928571
 20
-73.84877232142857
 11
130.8722098214285
 21
-73.11049107142856
 72
     1
 10
130.8722098214285
 20
-73.11049107142856
 11
130.8018973214285
 21
-73.20591517857143
 72
     1
 10
130.8018973214285
 20
-73.20591517857143
 11
128.7126116071428
 21
-73.87890625
 72
     1
 10
128.7126116071428
 20
-73.87890625
 11
125.7845982142857
 21
-73.97935267857143
 72
     1
 10
125.7845982142857
 20
-73.97935267857143
 11
125.9654017857142
 21
-75.40066964285713
 72
     1
 10
125.9654017857142
 20
-75.40066964285713
 11
126.1813616071428
 21
-75.77232142857143
 72
     1
 10
126.1813616071428
 20
-75.77232142857143
 11
125.4029017857142
 21
-76.27455357142856
 72
     1
 10
125.4029017857142
 20
-76.27455357142856
 11
124.0167410714285
 21
-75.80747767857143
 72
     1
 10
124.0167410714285
 20
-75.80747767857143
 11
123.9514508928571
 21
-75.87276785714284
 72
     1
 10
123.9514508928571
 20
-75.87276785714284
 11
123.6852678571428
 21
-77.66071428571428
 72
     1
 10
123.6852678571428
 20
-77.66071428571428
 11
125.8297991071428
 21
-77.95703125
 72
     1
 10
125.8297991071428
 20
-77.95703125
 11
127.1958705357143
 21
-76.92745535714284
 72
     1
 10
127.1958705357143
 20
-76.92745535714284
 11
128.0797991071428
 21
-77.08816964285714
 72
     1
 10
128.0797991071428
 20
-77.08816964285714
 11
128.3660714285714
 21
-76.25948660714285
 72
     1
 10
128.3660714285714
 20
-76.25948660714285
 11
128.8381696428571
 21
-76.36997767857143
 72
     1
 10
128.8381696428571
 20
-76.36997767857143
 11
129.8928571428571
 21
-75.26004464285714
 72
     1
 10
129.8928571428571
 20
-75.26004464285714
 11
130.0083705357143
 21
-75.23493303571427
 72
     1
 10
130.0083705357143
 20
-75.23493303571427
 11
129.1947544642857
 21
-76.22433035714284
 72
     1
 10
129.1947544642857
 20
-76.22433035714284
 11
129.14453125
 21
-76.68136160714285
 72
     1
 10
129.14453125
 20
-76.68136160714285
 11
128.0797991071428
 21
-77.35435267857143
 72
     1
 10
128.0797991071428
 20
-77.35435267857143
 11
126.7890625
 21
-77.56529017857143
 72
     1
 10
126.7890625
 20
-77.56529017857143
 11
125.83984375
 21
-78.43917410714285
 72
     1
 10
125.83984375
 20
-78.43917410714285
 11
124.3683035714285
 21
-78.0424107142857
 72
     1
 10
124.3683035714285
 20
-78.0424107142857
 11
122.2840401785714
 21
-78.39899553571427
 72
     1
 10
122.2840401785714
 20
-78.39899553571427
 11
121.9123883928571
 21
-77.64564732142857
 72
     1
 10
121.9123883928571
 20
-77.64564732142857
 11
120.7472098214285
 21
-77.20368303571428
 72
     1
 10
120.7472098214285
 20
-77.20368303571428
 11
119.9737723214285
 21
-78.01227678571428
 72
     1
 10
119.9737723214285
 20
-78.01227678571428
 11
118.2661830357143
 21
-78.47935267857143
 72
     1
 10
118.2661830357143
 20
-78.47935267857143
 11
117.8141741071428
 21
-78.09765625
 72
     1
 10
117.8141741071428
 20
-78.09765625
 11
115.4436383928571
 21
-79.74497767857143
 72
     1
 10
115.4436383928571
 20
-79.74497767857143
 11
115.4386160714286
 21
-79.81026785714284
 72
     1
 10
115.4386160714286
 20
-79.81026785714284
 11
115.7700892857143
 21
-80.62890624999999
 72
     1
 10
115.7700892857143
 20
-80.62890624999999
 11
113.46484375
 21
-81.54296875
 72
     1
 10
113.46484375
 20
-81.54296875
 11
113.1333705357143
 21
-81.46261160714285
 72
     1
 10
113.1333705357143
 20
-81.46261160714285
 11
111.9933035714286
 21
-81.44252232142857
 97
        1
330
95
 75
     2
 76
     1
 98
        1
 10
0.0
 20
0.0
450
        0
451
        0
460
0.0
461
0.0
452
        0
462
0.0
453
        0
470

  0
LWPOLYLINE
  5
97
330
70
100
AcDbEntity
  8
VoidF-Lightning
 62
   165
420
  4286384
370
     9
100
AcDbPolyline
 90
       20
 70
     1
 43
0.0
 10
114.4391741071428
 20
-81.69363839285713
 10
115.9659598214285
 20
-81.12109375000001
 10
116.734375
 20
-81.77399553571428
 10
117.8392827374149
 20
-80.80468749999999
 10
118.0803571428571
 20
-81.23660714285714
 10
118.2561383928571
 20
-81.26171875
 10
119.9185267857143
 20
-82.24107142857143
 10
120.0139508928571
 20
-82.7533482142857
 10
120.0792410714285
 20
-82.76841517857143
 10
120.7522321428571
 20
-82.71819196428571
 10
120.9095982142857
 20
-83.40290178571427
 10
120.8627232142857
 20
-83.59040178571428
 10
120.5848214285714
 20
-82.9642857142857
 10
120.0993303571428
 20
-83.078125
 10
119.7979910714285
 20
-82.90066964285713
 10
119.4397321428571
 20
-82.12053571428571
 10
117.5848214285714
 20
-81.66852678571428
 10
116.8515625
 20
-82.2845982142857
 10
116.3125
 20
-81.85267857142857
 10
115.6629464285714
 20
-82.34821428571427
  0
HATCH
  5
98
330
70
100
AcDbEntity
  8
VoidF-Lightning
 62
   133
420
  5358833
440
 33554687
100
AcDbHatch
 10
0.0
 20
0.0
 30
0.0
210
0.0
220
0.0
230
1.0
  2
SOLID
 70
     1
 71
     1
 91
        1
 92
        1
 93
       20
 72
     1
 10
114.4391741071428
 20
-81.69363839285713
 11
115.9659598214285
 21
-81.12109375000001
 72
     1
 10
115.9659598214285
 20
-81.12109375000001
 11
116.734375
 21
-81.77399553571428
 72
     1
 10
116.734375
 20
-81.77399553571428
 11
117.8392827374149
 21
-80.80468749999999
 72
     1
 10
117.8392827374149
 20
-80.80468749999999
 11
118.0803571428571
 21
-81.23660714285714
 72
     1
 10
118.0803571428571
 20
-81.23660714285714
 11
118.2561383928571
 21
-81.26171875
 72
     1
 10
118.2561383928571
 20
-81.26171875
 11
119.9185267857143
 21
-82.24107142857143
 72
     1
 10
119.9185267857143
 20
-82.24107142857143
 11
120.0139508928571
 21
-82.7533482142857
 72
     1
 10
120.0139508928571
 20
-82.7533482142857
 11
120.0792410714285
 21
-82.76841517857143
 72
     1
 10
120.0792410714285
 20
-82.76841517857143
 11
120.7522321428571
 21
-82.71819196428571
 72
     1
 10
120.7522321428571
 20
-82.71819196428571
 11
120.9095982142857
 21
-83.40290178571427
 72
     1
 10
120.9095982142857
 20
-83.40290178571427
 11
120.8627232142857
 21
-83.59040178571428
 72
     1
 10
120.8627232142857
 20
-83.59040178571428
 11
120.5848214285714
 21
-82.9642857142857
 72
     1
 10
120.5848214285714
 20
-82.9642857142857
 11
120.0993303571428
 21
-83.078125
 72
     1
 10
120.0993303571428
 20
-83.078125
 11
119.7979910714285
 21
-82.90066964285713
 72
     1
 10
119.7979910714285
 20
-82.90066964285713
 11
119.4397321428571
 21
-82.12053571428571
 72
     1
 10
119.4397321428571
 20
-82.12053571428571
 11
117.5848214285714
 21
-81.66852678571428
 72
     1
 10
117.5848214285714
 20
-81.66852678571428
 11
116.8515625
 21
-82.2845982142857
 72
     1
 10
116.8515625
 20
-82.2845982142857
 11
116.3125
 21
-81.85267857142857
 72
     1
 10
116.3125
 20
-81.85267857142857
 11
115.6629464285714
 21
-82.34821428571427
 72
     1
 10
115.6629464285714
 20
-82.34821428571427
 11
114.4391741071428
 21
-81.69363839285713
 97
        1
330
97
 75
     2
 76
     1
 98
        1
 10
0.0
 20
0.0
450
        0
451
        0
460
0.0
461
0.0
452
        0
462
0.0
453
        0
470

  0
LWPOLYLINE
  5
99
330
70
100
AcDbEntity
  8
VoidF-Lightning
 62
   165
420
  4286384
370
     9
100
AcDbPolyline
 90
       75
 70
     1
 43
0.0
 10
111.109375
 20
-83.49414062500001
 10
111.7195870535714
 20
-83.423828125
 10
112.4026227678571
 20
-83.36607142857143
 10
112.8696986607143
 20
-83.24553571428571
 10
113.3526785714285
 20
-84.00892857142856
 10
113.453125
 20
-83.96874999999999
 10
114.0625
 20
-83.30580357142856
 10
114.3169642857142
 20
-83.39955357142857
 10
114.8995535714286
 20
-83.15178571428571
 10
115.8236607142857
 20
-83.33258928571428
 10
115.7834821428571
 20
-83.37946428571427
 10
115.421875
 20
-83.41294642857143
 10
115.09375
 20
-83.6875
 10
114.1897321428571
 20
-83.64732142857143
 10
113.0379464285714
 20
-84.44419642857143
 10
112.796875
 20
-83.93526785714284
 10
112.4017857142857
 20
-84.25669642857142
 10
111.953125
 20
-83.84821428571427
 10
111.8526785714285
 20
-83.9017857142857
 10
111.6316964285714
 20
-84.93973214285714
 10
111.2481092436974
 20
-85.03088235294127
 10
111.144117647059
 20
-85.89873949579823
 10
111.2433035714285
 20
-86.00446428571428
 10
111.8125
 20
-85.97098214285713
 10
112.234375
 20
-86.39285714285714
 10
112.328125
 20
-86.39285714285714
 10
113.4732142857143
 20
-85.53571428571428
 10
114.4174107142857
 20
-86.25223214285714
 10
114.3102678571428
 20
-86.27232142857144
 10
113.9017857142857
 20
-86.19866071428571
 10
113.4397321428571
 20
-85.890625
 10
113.3660714285714
 20
-85.90401785714284
 10
112.9776785714285
 20
-86.41964285714285
 10
112.0133928571428
 20
-86.65401785714285
 10
112.2276785714285
 20
-87.38392857142857
 10
113.640625
 20
-88.4955357142857
 10
114.7321399587651
 20
-88.17410714285713
 10
113.6941964285714
 20
-88.75
 10
113.7678542688393
 20
-89.24553571428571
 10
112.8772321428571
 20
-90.66517857142857
 10
112.8102678571428
 20
-90.71875
 10
112.234375
 20
-90.109375
 10
111.2433035714285
 20
-90.21651785714285
 10
110.3928571428571
 20
-89.11830357142857
 10
109.6361607142857
 20
-89.43973214285714
 10
109.6830357142857
 20
-90.32366071428571
 10
109.2745535714285
 20
-91.50223214285714
 10
108.7053571428571
 20
-91.79017857142858
 10
109.3616071428571
 20
-90.74553571428571
 10
108.8995535714285
 20
-90.484375
 10
109.3749972369551
 20
-89.85491071428571
 10
109.0200892857142
 20
-89.56696428571428
 10
109.9174107142857
 20
-88.81026785714285
 10
110.0245535714285
 20
-88.16071428571428
 10
110.6339285714285
 20
-88.58258928571428
 10
110.9553571428571
 20
-89.29910714285714
 10
111.5446428571428
 20
-89.89508928571428
 10
111.5982142857143
 20
-89.89508928571428
 10
112.0267857142857
 20
-89.60044642857143
 10
112.8303571428571
 20
-90.390625
 10
112.8646763392857
 20
-90.37472098214285
 10
113.4547991071428
 20
-89.49581473214285
 10
113.0555245535714
 20
-89.19949776785713
 10
113.3342633928571
 20
-88.77511160714284
 10
112.0862165178571
 20
-87.55970982142857
 10
111.4684709821428
 20
-87.45424107142858
 10
111.2525111607143
 20
-87.11774553571428
 10
111.6316964285714
 20
-86.76869419642857
 10
111.1395089285714
 20
-86.13337053571427
 10
110.705078125
 20
-86.01785714285714
 10
110.5795200892857
 20
-85.72154017857142
 10
111.0265066964285
 20
-85.48046875
 10
111.2776227678571
 20
-84.53627232142856
 10
110.93359375
 20
-83.67745535714284
 10
110.9587053571428
 20
-83.49665178571427
  0
HATCH
  5
9A
330
70
100
AcDbEntity
  8
VoidF-Lightning
 62
   133
420
  5358833
440
 33554687
100
AcDbHatch
 10
0.0
 20
0.0
 30
0.0
210
0.0
220
0.0
230
1.0
  2
SOLID
 70
     1
 71
     1
 91
        1
 92
        1
 93
       75
 72
     1
 10
111.109375
 20
-83.49414062500001
 11
111.7195870535714
 21
-83.423828125
 72
     1
 10
111.7195870535714
 20
-83.423828125
 11
112.4026227678571
 21
-83.36607142857143
 72
     1
 10
112.4026227678571
 20
-83.36607142857143
 11
112.8696986607143
 21
-83.24553571428571
 72
     1
 10
112.8696986607143
 20
-83.24553571428571
 11
113.3526785714285
 21
-84.00892857142856
 72
     1
 10
113.3526785714285
 20
-84.00892857142856
 11
113.453125
 21
-83.96874999999999
 72
     1
 10
113.453125
 20
-83.96874999999999
 11
114.0625
 21
-83.30580357142856
 72
     1
 10
114.0625
 20
-83.30580357142856
 11
114.3169642857142
 21
-83.39955357142857
 72
     1
 10
114.3169642857142
 20
-83.39955357142857
 11
114.8995535714286
 21
-83.15178571428571
 72
     1
 10
114.8995535714286
 20
-83.15178571428571
 11
115.8236607142857
 21
-83.33258928571428
 72
     1
 10
115.8236607142857
 20
-83.33258928571428
 11
115.7834821428571
 21
-83.37946428571427
 72
     1
 10
115.7834821428571
 20
-83.37946428571427
 11
115.421875
 21
-83.41294642857143
 72
     1
 10
115.421875
 20
-83.41294642857143
 11
115.09375
 21
-83.6875
 72
     1
 10
115.09375
 20
-83.6875
 11
114.1897321428571
 21
-83.64732142857143
 72
     1
 10
114.1897321428571
 20
-83.64732142857143
 11
113.0379464285714
 21
-84.44419642857143
 72
     1
 10
113.0379464285714
 20
-84.44419642857143
 11
112.796875
 21
-83.93526785714284
 72
     1
 10
112.796875
 20
-83.93526785714284
 11
112.4017857142857
 21
-84.25669642857142
 72
     1
 10
112.4017857142857
 20
-84.25669642857142
 11
111.953125
 21
-83.84821428571427
 72
     1
 10
111.953125
 20
-83.84821428571427
 11
111.8526785714285
 21
-83.9017857142857
 72
     1
 10
111.8526785714285
 20
-83.9017857142857
 11
111.6316964285714
 21
-84.93973214285714
 72
     1
 10
111.6316964285714
 20
-84.93973214285714
 11
111.2481092436974
 21
-85.03088235294127
 72
     1
 10
111.2481092436974
 20
-85.03088235294127
 11
111.144117647059
 21
-85.89873949579823
 72
     1
 10
111.144117647059
 20
-85.89873949579823
 11
111.2433035714285
 21
-86.00446428571428
 72
     1
 10
111.2433035714285
 20
-86.00446428571428
 11
111.8125
 21
-85.97098214285713
 72
     1
 10
111.8125
 20
-85.97098214285713
 11
112.234375
 21
-86.39285714285714
 72
     1
 10
112.234375
 20
-86.39285714285714
 11
112.328125
 21
-86.39285714285714
 72
     1
 10
112.328125
 20
-86.39285714285714
 11
113.4732142857143
 21
-85.53571428571428
 72
     1
 10
113.4732142857143
 20
-85.53571428571428
 11
114.4174107142857
 21
-86.25223214285714
 72
     1
 10
114.4174107142857
 20
-86.25223214285714
 11
114.3102678571428
 21
-86.27232142857144
 72
     1
 10
114.3102678571428
 20
-86.27232142857144
 11
113.9017857142857
 21
-86.19866071428571
 72
     1
 10
113.9017857142857
 20
-86.19866071428571
 11
113.4397321428571
 21
-85.890625
 72
     1
 10
113.4397321428571
 20
-85.890625
 11
113.3660714285714
 21
-85.90401785714284
 72
     1
 10
113.3660714285714
 20
-85.90401785714284
 11
112.9776785714285
 21
-86.41964285714285
 72
     1
 10
112.9776785714285
 20
-86.41964285714285
 11
112.0133928571428
 21
-86.65401785714285
 72
     1
 10
112.0133928571428
 20
-86.65401785714285
 11
112.2276785714285
 21
-87.38392857142857
 72
     1
 10
112.2276785714285
 20
-87.38392857142857
 11
113.640625
 21
-88.4955357142857
 72
     1
 10
113.640625
 20
-88.4955357142857
 11
114.7321399587651
 21
-88.17410714285713
 72
     1
 10
114.7321399587651
 20
-88.17410714285713
 11
113.6941964285714
 21
-88.75
 72
     1
 10
113.6941964285714
 20
-88.75
 11
113.7678542688393
 21
-89.24553571428571
 72
     1
 10
113.7678542688393
 20
-89.24553571428571
 11
112.8772321428571
 21
-90.66517857142857
 72
     1
 10
112.8772321428571
 20
-90.66517857142857
 11
112.8102678571428
 21
-90.71875
 72
     1
 10
112.8102678571428
 20
-90.71875
 11
112.234375
 21
-90.109375
 72
     1
 10
112.234375
 20
-90.109375
 11
111.2433035714285
 21
-90.21651785714285
 72
     1
 10
111.2433035714285
 20
-90.21651785714285
 11
110.3928571428571
 21
-89.11830357142857
 72
     1
 10
110.3928571428571
 20
-89.11830357142857
 11
109.6361607142857
 21
-89.43973214285714
 72
     1
 10
109.6361607142857
 20
-89.43973214285714
 11
109.6830357142857
 21
-90.32366071428571
 72
     1
 10
109.6830357142857
 20
-90.32366071428571
 11
109.2745535714285
 21
-91.50223214285714
 72
     1
 10
109.2745535714285
 20
-91.50223214285714
 11
108.7053571428571
 21
-91.79017857142858
 72
     1
 10
108.7053571428571
 20
-91.79017857142858
 11
109.3616071428571
 21
-90.74553571428571
 72
     1
 10
109.3616071428571
 20
-90.74553571428571
 11
108.8995535714285
 21
-90.484375
 72
     1
 10
108.8995535714285
 20
-90.484375
 11
109.3749972369551
 21
-89.85491071428571
 72
     1
 10
109.3749972369551
 20
-89.85491071428571
 11
109.0200892857142
 21
-89.56696428571428
 72
     1
 10
109.0200892857142
 20
-89.56696428571428
 11
109.9174107142857
 21
-88.81026785714285
 72
     1
 10
109.9174107142857
 20
-88.81026785714285
 11
110.0245535714285
 21
-88.16071428571428
 72
     1
 10
110.0245535714285
 20
-88.16071428571428
 11
110.6339285714285
 21
-88.58258928571428
 72
     1
 10
110.6339285714285
 20
-88.58258928571428
 11
110.9553571428571
 21
-89.29910714285714
 72
     1
 10
110.9553571428571
 20
-89.29910714285714
 11
111.5446428571428
 21
-89.89508928571428
 72
     1
 10
111.5446428571428
 20
-89.89508928571428
 11
111.5982142857143
 21
-89.89508928571428
 72
     1
 10
111.5982142857143
 20
-89.89508928571428
 11
112.0267857142857
 21
-89.60044642857143
 72
     1
 10
112.0267857142857
 20
-89.60044642857143
 11
112.8303571428571
 21
-90.390625
 72
     1
 10
112.8303571428571
 20
-90.390625
 11
112.8646763392857
 21
-90.37472098214285
 72
     1
 10
112.8646763392857
 20
-90.37472098214285
 11
113.4547991071428
 21
-89.49581473214285
 72
     1
 10
113.4547991071428
 20
-89.49581473214285
 11
113.0555245535714
 21
-89.19949776785713
 72
     1
 10
113.0555245535714
 20
-89.19949776785713
 11
113.3342633928571
 21
-88.77511160714284
 72
     1
 10
113.3342633928571
 20
-88.77511160714284
 11
112.0862165178571
 21
-87.55970982142857
 72
     1
 10
112.0862165178571
 20
-87.55970982142857
 11
111.4684709821428
 21
-87.45424107142858
 72
     1
 10
111.4684709821428
 20
-87.45424107142858
 11
111.2525111607143
 21
-87.11774553571428
 72
     1
 10
111.2525111607143
 20
-87.11774553571428
 11
111.6316964285714
 21
-86.76869419642857
 72
     1
 10
111.6316964285714
 20
-86.76869419642857
 11
111.1395089285714
 21
-86.13337053571427
 72
     1
 10
111.1395089285714
 20
-86.13337053571427
 11
110.705078125
 21
-86.01785714285714
 72
     1
 10
110.705078125
 20
-86.01785714285714
 11
110.5795200892857
 21
-85.72154017857142
 72
     1
 10
110.5795200892857
 20
-85.72154017857142
 11
111.0265066964285
 21
-85.48046875
 72
     1
 10
111.0265066964285
 20
-85.48046875
 11
111.2776227678571
 21
-84.53627232142856
 72
     1
 10
111.2776227678571
 20
-84.53627232142856
 11
110.93359375
 21
-83.67745535714284
 72
     1
 10
110.93359375
 20
-83.67745535714284
 11
110.9587053571428
 21
-83.49665178571427
 72
     1
 10
110.9587053571428
 20
-83.49665178571427
 11
111.109375
 21
-83.49414062500001
 97
        1
330
99
 75
     2
 76
     1
 98
        1
 10
0.0
 20
0.0
450
        0
451
        0
460
0.0
461
0.0
452
        0
462
0.0
453
        0
470

  0
LWPOLYLINE
  5
9B
330
70
100
AcDbEntity
  8
VoidF-Lightning
 62
   165
420
  4286384
370
     9
100
AcDbPolyline
 90
       41
 70
     1
 43
0.0
 10
113.9168526785714
 20
-84.40569196428571
 10
116.13671875
 20
-86.02287946428571
 10
115.6194196428571
 20
-86.80636160714284
 10
116.0463169642857
 20
-87.34877232142856
 10
116.0915178571428
 20
-88.20758928571427
 10
116.4280133928571
 20
-88.64453125
 10
116.5435267857143
 20
-90.41741071428571
 10
116.9704241071428
 20
-90.75892857142857
 10
116.9402901785714
 20
-91.95926339285714
 10
117.2366071428571
 20
-92.13002232142857
 10
117.2165178571428
 20
-93.42075892857142
 10
117.5931919642857
 20
-92.13002232142857
 10
117.1863839285714
 20
-91.97433035714285
 10
117.33203125
 20
-90.60323660714285
 10
116.9854910714285
 20
-90.54296875
 10
116.2120535714285
 20
-87.34375
 10
116.2271205357143
 20
-87.27845982142858
 10
116.3175223214286
 20
-87.28850446428571
 10
117.89453125
 20
-89.11160714285713
 10
118.2310267857143
 20
-88.78515625
 10
118.8286830357142
 20
-89.38783482142858
 10
118.9341517857142
 20
-89.22712053571428
 10
119.8683035714285
 20
-89.38783482142858
 10
120.14453125
 20
-90.07589285714285
 10
121.4302455357143
 20
-89.97544642857143
 10
122.95703125
 20
-90.54296875
 10
122.9118303571428
 20
-90.38727678571428
 10
121.3147321428571
 20
-89.83984375
 10
120.2952008928571
 20
-89.89508928571428
 10
119.9787946428571
 20
-89.2572544642857
 10
118.9693080357143
 20
-89.09654017857143
 10
118.2511160714285
 20
-88.4135044642857
 10
117.8794642857142
 20
-88.80524553571428
 10
117.2215401785714
 20
-88.06696428571427
 10
116.1116071428571
 20
-86.79129464285713
 10
115.9734933035714
 20
-86.63309151785714
 10
116.34765625
 20
-86.09821428571427
 10
116.0011160714286
 20
-85.20675223214285
 10
115.29296875
 20
-85.13141741071427
 10
114.4944196428571
 20
-84.78236607142857
 10
114.080078125
 20
-84.26255580357143
  0
HATCH
  5
9C
330
70
100
AcDbEntity
  8
VoidF-Lightning
 62
   133
420
  5358833
440
 33554687
100
AcDbHatch
 10
0.0
 20
0.0
 30
0.0
210
0.0
220
0.0
230
1.0
  2
SOLID
 70
     1
 71
     1
 91
        1
 92
        1
 93
       41
 72
     1
 10
113.9168526785714
 20
-84.40569196428571
 11
116.13671875
 21
-86.02287946428571
 72
     1
 10
116.13671875
 20
-86.02287946428571
 11
115.6194196428571
 21
-86.80636160714284
 72
     1
 10
115.6194196428571
 20
-86.80636160714284
 11
116.0463169642857
 21
-87.34877232142856
 72
     1
 10
116.0463169642857
 20
-87.34877232142856
 11
116.0915178571428
 21
-88.20758928571427
 72
     1
 10
116.0915178571428
 20
-88.20758928571427
 11
116.4280133928571
 21
-88.64453125
 72
     1
 10
116.4280133928571
 20
-88.64453125
 11
116.5435267857143
 21
-90.41741071428571
 72
     1
 10
116.5435267857143
 20
-90.41741071428571
 11
116.9704241071428
 21
-90.75892857142857
 72
     1
 10
116.9704241071428
 20
-90.75892857142857
 11
116.9402901785714
 21
-91.95926339285714
 72
     1
 10
116.9402901785714
 20
-91.95926339285714
 11
117.2366071428571
 21
-92.13002232142857
 72
     1
 10
117.2366071428571
 20
-92.13002232142857
 11
117.2165178571428
 21
-93.42075892857142
 72
     1
 10
117.2165178571428
 20
-93.42075892857142
 11
117.5931919642857
 21
-92.13002232142857
 72
     1
 10
117.5931919642857
 20
-92.13002232142857
 11
117.1863839285714
 21
-91.97433035714285
 72
     1
 10
117.1863839285714
 20
-91.97433035714285
 11
117.33203125
 21
-90.60323660714285
 72
     1
 10
117.33203125
 20
-90.60323660714285
 11
116.9854910714285
 21
-90.54296875
 72
     1
 10
116.9854910714285
 20
-90.54296875
 11
116.2120535714285
 21
-87.34375
 72
     1
 10
116.2120535714285
 20
-87.34375
 11
116.2271205357143
 21
-87.27845982142858
 72
     1
 10
116.2271205357143
 20
-87.27845982142858
 11
116.3175223214286
 21
-87.28850446428571
 72
     1
 10
116.3175223214286
 20
-87.28850446428571
 11
117.89453125
 21
-89.11160714285713
 72
     1
 10
117.89453125
 20
-89.11160714285713
 11
118.2310267857143
 21
-88.78515625
 72
     1
 10
118.2310267857143
 20
-88.78515625
 11
118.8286830357142
 21
-89.38783482142858
 72
     1
 10
118.8286830357142
 20
-89.38783482142858
 11
118.9341517857142
 21
-89.22712053571428
 72
     1
 10
118.9341517857142
 20
-89.22712053571428
 11
119.8683035714285
 21
-89.38783482142858
 72
     1
 10
119.8683035714285
 20
-89.38783482142858
 11
120.14453125
 21
-90.07589285714285
 72
     1
 10
120.14453125
 20
-90.07589285714285
 11
121.4302455357143
 21
-89.97544642857143
 72
     1
 10
121.4302455357143
 20
-89.97544642857143
 11
122.95703125
 21
-90.54296875
 72
     1
 10
122.95703125
 20
-90.54296875
 11
122.9118303571428
 21
-90.38727678571428
 72
     1
 10
122.9118303571428
 20
-90.38727678571428
 11
121.3147321428571
 21
-89.83984375
 72
     1
 10
121.3147321428571
 20
-89.83984375
 11
120.2952008928571
 21
-89.89508928571428
 72
     1
 10
120.2952008928571
 20
-89.89508928571428
 11
119.9787946428571
 21
-89.2572544642857
 72
     1
 10
119.9787946428571
 20
-89.2572544642857
 11
118.9693080357143
 21
-89.09654017857143
 72
     1
 10
118.9693080357143
 20
-89.09654017857143
 11
118.2511160714285
 21
-88.4135044642857
 72
     1
 10
118.2511160714285
 20
-88.4135044642857
 11
117.8794642857142
 21
-88.80524553571428
 72
     1
 10
117.8794642857142
 20
-88.80524553571428
 11
117.2215401785714
 21
-88.06696428571427
 72
     1
 10
117.2215401785714
 20
-88.06696428571427
 11
116.1116071428571
 21
-86.79129464285713
 72
     1
 10
116.1116071428571
 20
-86.79129464285713
 11
115.9734933035714
 21
-86.63309151785714
 72
     1
 10
115.9734933035714
 20
-86.63309151785714
 11
116.34765625
 21
-86.09821428571427
 72
     1
 10
116.34765625
 20
-86.09821428571427
 11
116.0011160714286
 21
-85.20675223214285
 72
     1
 10
116.0011160714286
 20
-85.20675223214285
 11
115.29296875
 21
-85.13141741071427
 72
     1
 10
115.29296875
 20
-85.13141741071427
 11
114.4944196428571
 21
-84.78236607142857
 72
     1
 10
114.4944196428571
 20
-84.78236607142857
 11
114.080078125
 21
-84.26255580357143
 72
     1
 10
114.080078125
 20
-84.26255580357143
 11
113.9168526785714
 21
-84.40569196428571
 97
        1
330
9B
 75
     2
 76
     1
 98
        1
 10
0.0
 20
0.0
450
        0
451
        0
460
0.0
461
0.0
452
        0
462
0.0
453
        0
470

  0
LWPOLYLINE
  5
9D
330
70
100
AcDbEntity
  8
VoidF-Lightning
 62
   165
420
  4286384
370
     9
100
AcDbPolyline
 90
       67
 70
     1
 43
0.0
 10
108.296875
 20
-83.95870535714285
 10
107.9553571428571
 20
-85.48549107142857
 10
107.7092633928571
 20
-87.57979910714285
 10
108.0859375
 20
-87.87109375
 10
107.2672991071428
 20
-88.66462053571428
 10
106.8856026785714
 20
-89.50837053571428
 10
107.2170758928571
 20
-89.93526785714285
 10
106.6395089285714
 20
-90.90457589285714
 10
106.3180803571428
 20
-91.60770089285714
 10
105.3035687683794
 20
-91.85379464285714
 10
103.90234375
 20
-91.28125
 10
103.1238839285714
 20
-91.95424107142857
 10
103.3599330357142
 20
-93.3203125
 10
103.19921875
 20
-93.8627232142857
 10
102.3956473214285
 20
-94.11886160714285
 10
103.1489955357143
 20
-93.59151785714285
 10
102.9933035714285
 20
-92.43638392857141
 10
102.7170758928571
 20
-92.07979910714284
 10
102.9681919642857
 20
-91.47209821428571
 10
103.7767857142857
 20
-90.8392857142857
 10
105.1930803571428
 20
-91.57254464285713
 10
106.2276785714285
 20
-91.31640625000001
 10
106.7299107142857
 20
-90.1713169642857
 10
106.3733258928571
 20
-89.66908482142857
 10
106.6696428571428
 20
-88.95089285714284
 10
105.34375
 20
-86.88169642857143
 10
104.1735491071428
 20
-87.38392857142857
 10
103.0083705357142
 20
-87.04743303571428
 10
102.7672991071428
 20
-88.08203125
 10
101.7377232142857
 20
-88.47879464285714
 10
101.6573660714285
 20
-91.3666294642857
 10
101.1400669642857
 20
-91.57254464285713
 10
101.1049107142857
 20
-92.10993303571427
 10
99.17131696428571
 20
-92.07477678571427
 10
98.0814732142857
 20
-91.81361607142857
 10
97.51395089285715
 20
-91.99441964285714
 10
97.12220982142858
 20
-90.3470982142857
 10
97.046875
 20
-90.33203125
 10
95.36941964285714
 20
-91.70312499999999
 10
95.27901785714284
 20
-91.76339285714284
 10
93.48102678571427
 20
-91.41685267857143
 10
94.82700892857142
 20
-91.44196428571428
 10
95.01785474250416
 20
-91.11049107142857
 10
95.57533482142856
 20
-91.21595982142856
 10
96.90625
 20
-89.90513392857144
 10
97.13727678571428
 20
-90.15122767857143
 10
97.50892857142858
 20
-90.07087053571428
 10
97.79017857142857
 20
-91.40680803571427
 10
99.11607142857143
 20
-91.77845982142857
 10
100.7885044642857
 20
-91.64285714285714
 10
100.7734375
 20
-91.26618303571428
 10
101.2857142857143
 20
-91.18582589285713
 10
101.37109375
 20
-87.92633928571428
 10
102.5463169642857
 20
-87.7103794642857
 10
102.77734375
 20
-86.60546874999999
 10
104.25390625
 20
-86.89174107142857
 10
105.4190848214285
 20
-86.48995535714284
 10
106.5239955357142
 20
-87.90122767857143
 10
106.5691964285714
 20
-87.86104910714284
 10
106.8956473214285
 20
-86.96707589285713
 10
107.3275669642857
 20
-87.21316964285714
 10
107.3627232142857
 20
-87.20814732142857
 10
107.7142857142857
 20
-85.76171875
 10
107.3526785714285
 20
-85.43024553571427
 10
107.3727678571428
 20
-84.40066964285714
 10
107.6590401785714
 20
-84.25
 10
108.0407366071428
 20
-84.05412946428571
  0
HATCH
  5
9E
330
70
100
AcDbEntity
  8
VoidF-Lightning
 62
   133
420
  5358833
440
 33554687
100
AcDbHatch
 10
0.0
 20
0.0
 30
0.0
210
0.0
220
0.0
230
1.0
  2
SOLID
 70
     1
 71
     1
 91
        1
 92
        1
 93
       67
 72
     1
 10
108.296875
 20
-83.95870535714285
 11
107.9553571428571
 21
-85.48549107142857
 72
     1
 10
107.9553571428571
 20
-85.48549107142857
 11
107.7092633928571
 21
-87.57979910714285
 72
     1
 10
107.7092633928571
 20
-87.57979910714285
 11
108.0859375
 21
-87.87109375
 72
     1
 10
108.0859375
 20
-87.87109375
 11
107.2672991071428
 21
-88.66462053571428
 72
     1
 10
107.2672991071428
 20
-88.66462053571428
 11
106.8856026785714
 21
-89.50837053571428
 72
     1
 10
106.8856026785714
 20
-89.50837053571428
 11
107.2170758928571
 21
-89.93526785714285
 72
     1
 10
107.2170758928571
 20
-89.93526785714285
 11
106.6395089285714
 21
-90.90457589285714
 72
     1
 10
106.6395089285714
 20
-90.90457589285714
 11
106.3180803571428
 21
-91.60770089285714
 72
     1
 10
106.3180803571428
 20
-91.60770089285714
 11
105.3035687683794
 21
-91.85379464285714
 72
     1
 10
105.3035687683794
 20
-91.85379464285714
 11
103.90234375
 21
-91.28125
 72
     1
 10
103.90234375
 20
-91.28125
 11
103.1238839285714
 21
-91.95424107142857
 72
     1
 10
103.1238839285714
 20
-91.95424107142857
 11
103.3599330357142
 21
-93.3203125
 72
     1
 10
103.3599330357142
 20
-93.3203125
 11
103.19921875
 21
-93.8627232142857
 72
     1
 10
103.19921875
 20
-93.8627232142857
 11
102.3956473214285
 21
-94.11886160714285
 72
     1
 10
102.3956473214285
 20
-94.11886160714285
 11
103.1489955357143
 21
-93.59151785714285
 72
     1
 10
103.1489955357143
 20
-93.59151785714285
 11
102.9933035714285
 21
-92.43638392857141
 72
     1
 10
102.9933035714285
 20
-92.43638392857141
 11
102.7170758928571
 21
-92.07979910714284
 72
     1
 10
102.7170758928571
 20
-92.07979910714284
 11
102.9681919642857
 21
-91.47209821428571
 72
     1
 10
102.9681919642857
 20
-91.47209821428571
 11
103.7767857142857
 21
-90.8392857142857
 72
     1
 10
103.7767857142857
 20
-90.8392857142857
 11
105.1930803571428
 21
-91.57254464285713
 72
     1
 10
105.1930803571428
 20
-91.57254464285713
 11
106.2276785714285
 21
-91.31640625000001
 72
     1
 10
106.2276785714285
 20
-91.31640625000001
 11
106.7299107142857
 21
-90.1713169642857
 72
     1
 10
106.7299107142857
 20
-90.1713169642857
 11
106.3733258928571
 21
-89.66908482142857
 72
     1
 10
106.3733258928571
 20
-89.66908482142857
 11
106.6696428571428
 21
-88.95089285714284
 72
     1
 10
106.6696428571428
 20
-88.95089285714284
 11
105.34375
 21
-86.88169642857143
 72
     1
 10
105.34375
 20
-86.88169642857143
 11
104.1735491071428
 21
-87.38392857142857
 72
     1
 10
104.1735491071428
 20
-87.38392857142857
 11
103.0083705357142
 21
-87.04743303571428
 72
     1
 10
103.0083705357142
 20
-87.04743303571428
 11
102.7672991071428
 21
-88.08203125
 72
     1
 10
102.7672991071428
 20
-88.08203125
 11
101.7377232142857
 21
-88.47879464285714
 72
     1
 10
101.7377232142857
 20
-88.47879464285714
 11
101.6573660714285
 21
-91.3666294642857
 72
     1
 10
101.6573660714285
 20
-91.3666294642857
 11
101.1400669642857
 21
-91.57254464285713
 72
     1
 10
101.1400669642857
 20
-91.57254464285713
 11
101.1049107142857
 21
-92.10993303571427
 72
     1
 10
101.1049107142857
 20
-92.10993303571427
 11
99.17131696428571
 21
-92.07477678571427
 72
     1
 10
99.17131696428571
 20
-92.07477678571427
 11
98.0814732142857
 21
-91.81361607142857
 72
     1
 10
98.0814732142857
 20
-91.81361607142857
 11
97.51395089285715
 21
-91.99441964285714
 72
     1
 10
97.51395089285715
 20
-91.99441964285714
 11
97.12220982142858
 21
-90.3470982142857
 72
     1
 10
97.12220982142858
 20
-90.3470982142857
 11
97.046875
 21
-90.33203125
 72
     1
 10
97.046875
 20
-90.33203125
 11
95.36941964285714
 21
-91.70312499999999
 72
     1
 10
95.36941964285714
 20
-91.70312499999999
 11
95.27901785714284
 21
-91.76339285714284
 72
     1
 10
95.27901785714284
 20
-91.76339285714284
 11
93.48102678571427
 21
-91.41685267857143
 72
     1
 10
93.48102678571427
 20
-91.41685267857143
 11
94.82700892857142
 21
-91.44196428571428
 72
     1
 10
94.82700892857142
 20
-91.44196428571428
 11
95.01785474250416
 21
-91.11049107142857
 72
     1
 10
95.01785474250416
 20
-91.11049107142857
 11
95.57533482142856
 21
-91.21595982142856
 72
     1
 10
95.57533482142856
 20
-91.21595982142856
 11
96.90625
 21
-89.90513392857144
 72
     1
 10
96.90625
 20
-89.90513392857144
 11
97.13727678571428
 21
-90.15122767857143
 72
     1
 10
97.13727678571428
 20
-90.15122767857143
 11
97.50892857142858
 21
-90.07087053571428
 72
     1
 10
97.50892857142858
 20
-90.07087053571428
 11
97.79017857142857
 21
-91.40680803571427
 72
     1
 10
97.79017857142857
 20
-91.40680803571427
 11
99.11607142857143
 21
-91.77845982142857
 72
     1
 10
99.11607142857143
 20
-91.77845982142857
 11
100.7885044642857
 21
-91.64285714285714
 72
     1
 10
100.7885044642857
 20
-91.64285714285714
 11
100.7734375
 21
-91.26618303571428
 72
     1
 10
100.7734375
 20
-91.26618303571428
 11
101.2857142857143
 21
-91.18582589285713
 72
     1
 10
101.2857142857143
 20
-91.18582589285713
 11
101.37109375
 21
-87.92633928571428
 72
     1
 10
101.37109375
 20
-87.92633928571428
 11
102.5463169642857
 21
-87.7103794642857
 72
     1
 10
102.5463169642857
 20
-87.7103794642857
 11
102.77734375
 21
-86.60546874999999
 72
     1
 10
102.77734375
 20
-86.60546874999999
 11
104.25390625
 21
-86.89174107142857
 72
     1
 10
104.25390625
 20
-86.89174107142857
 11
105.4190848214285
 21
-86.48995535714284
 72
     1
 10
105.4190848214285
 20
-86.48995535714284
 11
106.5239955357142
 21
-87.90122767857143
 72
     1
 10
106.5239955357142
 20
-87.90122767857143
 11
106.5691964285714
 21
-87.86104910714284
 72
     1
 10
106.5691964285714
 20
-87.86104910714284
 11
106.8956473214285
 21
-86.96707589285713
 72
     1
 10
106.8956473214285
 20
-86.96707589285713
 11
107.3275669642857
 21
-87.21316964285714
 72
     1
 10
107.3275669642857
 20
-87.21316964285714
 11
107.3627232142857
 21
-87.20814732142857
 72
     1
 10
107.3627232142857
 20
-87.20814732142857
 11
107.7142857142857
 21
-85.76171875
 72
     1
 10
107.7142857142857
 20
-85.76171875
 11
107.3526785714285
 21
-85.43024553571427
 72
     1
 10
107.3526785714285
 20
-85.43024553571427
 11
107.3727678571428
 21
-84.40066964285714
 72
     1
 10
107.3727678571428
 20
-84.40066964285714
 11
107.6590401785714
 21
-84.25
 72
     1
 10
107.6590401785714
 20
-84.25
 11
108.0407366071428
 21
-84.05412946428571
 72
     1
 10
108.0407366071428
 20
-84.05412946428571
 11
108.296875
 21
-83.95870535714285
 97
        1
330
9D
 75
     2
 76
     1
 98
        1
 10
0.0
 20
0.0
450
        0
451
        0
460
0.0
461
0.0
452
        0
462
0.0
453
        0
470

  0
LWPOLYLINE
  5
9F
330
70
100
AcDbEntity
  8
VoidF-Lightning
 62
   165
420
  4286384
370
     9
100
AcDbPolyline
 90
      120
 70
     1
 43
0.0
 10
106.1473214285714
 20
-82.984375
 10
105.8828125
 20
-82.13392857142856
 10
105.6450892857142
 20
-82.66294642857143
 10
105.484375
 20
-82.68303571428571
 10
105.1328125
 20
-82.24107142857143
 10
104.8816964285714
 20
-81.72879464285713
 10
104.828125
 20
-81.47433035714284
 10
104.7444196428571
 20
-81.47767857142858
 10
104.7008928571428
 20
-81.76227678571427
 10
104.6674107142857
 20
-82.27120535714284
 10
104.6640625
 20
-82.34151785714285
 10
104.5703125
 20
-82.38169642857142
 10
104.3861607142857
 20
-82.30133928571428
 10
103.9877232142857
 20
-82.03348214285714
 10
104.0513392857143
 20
-82.31138392857143
 10
103.7868303571428
 20
-82.47879464285714
 10
103.4988839285714
 20
-82.36160714285714
 10
102.4508928571428
 20
-82.2611607142857
 10
101.7025669642857
 20
-82.29631696428571
 10
102.1796875
 20
-82.51729910714285
 10
102.4559151785714
 20
-82.64787946428571
 10
103.12890625
 20
-82.94419642857143
 10
103.12890625
 20
-83.07477678571428
 10
102.8024553571428
 20
-83.08984374999999
 10
102.2449776785714
 20
-83.13504464285713
 10
101.8331473214285
 20
-83.1953125
 10
101.3309151785714
 20
-83.2806919642857
 10
102.0524553571428
 20
-83.5736607142857
 10
102.5915178571428
 20
-83.93861607142858
 10
102.5362723214285
 20
-84.04408482142857
 10
102.3337053571428
 20
-84.19977678571427
 10
102.1529017857143
 20
-84.33370535714285
 10
101.93359375
 20
-84.53125
 10
102.3973214285714
 20
-84.44419642857143
 10
102.7555803571428
 20
-84.39732142857144
 10
103.62109375
 20
-84.30524553571428
 10
103.7742745535714
 20
-84.28766741071427
 10
103.8420758928571
 20
-84.35044642857143
 10
103.8169642857142
 20
-84.54380580357144
 10
104.1233258928571
 20
-84.31026785714285
 10
104.4146205357143
 20
-84.02399553571427
 10
104.7912946428571
 20
-83.72265625
 10
105.0072544642857
 20
-83.60212053571428
 10
105.1227678571428
 20
-83.62220982142856
 10
105.1780133928571
 20
-83.72767857142857
 10
105.16796875
 20
-83.83816964285713
 10
105.1529017857143
 20
-84.09933035714285
 10
105.0022321428571
 20
-84.52120535714284
 10
105.3136160714285
 20
-84.31026785714285
 10
105.6752232142857
 20
-84.0189732142857
 10
106.0870535714286
 20
-83.59207589285714
 10
106.3180803571428
 20
-83.45145089285713
 10
106.43359375
 20
-83.44642857142856
 10
106.4787946428571
 20
-83.52678571428571
 10
106.3783482142857
 20
-84.49609374999999
 10
106.8152901785714
 20
-84.17466517857143
 10
107.5385044642857
 20
-83.73270089285714
 10
108.2014508928571
 20
-83.37109375
 10
108.68359375
 20
-83.18526785714285
 10
108.859375
 20
-83.15513392857143
 10
108.9547991071428
 20
-83.17522321428571
 10
109.0150669642857
 20
-83.2806919642857
 10
108.9547991071428
 20
-83.52678571428571
 10
108.7739955357142
 20
-84.13950892857142
 10
108.9347098214285
 20
-83.98883928571427
 10
109.28125
 20
-83.4765625
 10
109.5122767857143
 20
-83.25055803571428
 10
109.66796875
 20
-83.21037946428571
 10
109.8186383928571
 20
-83.21037946428571
 10
109.9793526785714
 20
-83.29073660714284
 10
110.1249972180085
 20
-83.45145089285713
 10
110.2806919642857
 20
-83.6674107142857
 10
110.3660714285714
 20
-83.77287946428571
 10
110.4765625
 20
-83.77287946428571
 10
110.4815848214286
 20
-83.50669642857143
 10
110.4966517857143
 20
-83.15513392857143
 10
110.546875
 20
-82.99441964285714
 10
110.7025669642857
 20
-82.97935267857143
 10
111.1746651785714
 20
-82.97433035714284
 10
111.5362723214285
 20
-82.9642857142857
 10
111.7974330357142
 20
-82.94921875
 10
111.8426339285714
 20
-82.91406249999999
 10
111.7472098214285
 20
-82.82366071428571
 10
111.3655133928571
 20
-82.75837053571427
 10
111.0189732142857
 20
-82.66294642857143
 10
110.8231026785714
 20
-82.56752232142856
 10
110.58203125
 20
-82.421875
 10
110.5719866071428
 20
-82.30133928571428
 10
110.7025669642857
 20
-82.24107142857143
 10
111.0239955357142
 20
-82.17075892857144
 10
111.3705357142857
 20
-82.12555803571428
 10
111.7572544642857
 20
-82.03515624999999
 10
112.0736607142857
 20
-81.94475446428571
 10
111.5764508928571
 20
-81.93470982142857
 10
111.07421875
 20
-81.92466517857143
 10
110.7477678571428
 20
-81.93470982142857
 10
110.5870535714285
 20
-81.7890625
 10
110.4514508928571
 20
-82.03013392857142
 10
110.3058035714285
 20
-82.40680803571427
 10
110.1249972180085
 20
-82.47209821428571
 10
109.87890625
 20
-82.10044642857143
 10
109.6981026785714
 20
-82.30636160714285
 10
109.52734375
 20
-82.54743303571428
 10
109.4168526785714
 20
-82.77845982142856
 10
109.3816964285714
 20
-82.83872767857143
 10
109.2410714285714
 20
-82.86383928571428
 10
108.9748883928571
 20
-82.58258928571427
 10
108.7589285714285
 20
-82.35658482142858
 10
108.6434151785714
 20
-82.46707589285714
 10
108.4274553571428
 20
-82.69810267857144
 10
108.2566964285714
 20
-82.89397321428571
 10
108.1662946428571
 20
-82.9642857142857
 10
107.98046875
 20
-82.92410714285713
 10
107.8297991071428
 20
-82.80357142857143
 10
107.76953125
 20
-82.62779017857143
 10
107.7494419642857
 20
-82.47209821428571
 10
107.4832589285714
 20
-82.51729910714285
 10
107.1166294642857
 20
-82.67801339285714
 10
106.7600446428571
 20
-82.83370535714285
 10
106.4737723214285
 20
-82.91908482142856
  0
HATCH
  5
A0
330
70
100
AcDbEntity
  8
VoidF-Lightning
 62
   133
420
  5358833
440
 33554687
100
AcDbHatch
 10
0.0
 20
0.0
 30
0.0
210
0.0
220
0.0
230
1.0
  2
SOLID
 70
     1
 71
     1
 91
        1
 92
        1
 93
      120
 72
     1
 10
106.1473214285714
 20
-82.984375
 11
105.8828125
 21
-82.13392857142856
 72
     1
 10
105.8828125
 20
-82.13392857142856
 11
105.6450892857142
 21
-82.66294642857143
 72
     1
 10
105.6450892857142
 20
-82.66294642857143
 11
105.484375
 21
-82.68303571428571
 72
     1
 10
105.484375
 20
-82.68303571428571
 11
105.1328125
 21
-82.24107142857143
 72
     1
 10
105.1328125
 20
-82.24107142857143
 11
104.8816964285714
 21
-81.72879464285713
 72
     1
 10
104.8816964285714
 20
-81.72879464285713
 11
104.828125
 21
-81.47433035714284
 72
     1
 10
104.828125
 20
-81.47433035714284
 11
104.7444196428571
 21
-81.47767857142858
 72
     1
 10
104.7444196428571
 20
-81.47767857142858
 11
104.7008928571428
 21
-81.76227678571427
 72
     1
 10
104.7008928571428
 20
-81.76227678571427
 11
104.6674107142857
 21
-82.27120535714284
 72
     1
 10
104.6674107142857
 20
-82.27120535714284
 11
104.6640625
 21
-82.34151785714285
 72
     1
 10
104.6640625
 20
-82.34151785714285
 11
104.5703125
 21
-82.38169642857142
 72
     1
 10
104.5703125
 20
-82.38169642857142
 11
104.3861607142857
 21
-82.30133928571428
 72
     1
 10
104.3861607142857
 20
-82.30133928571428
 11
103.9877232142857
 21
-82.03348214285714
 72
     1
 10
103.9877232142857
 20
-82.03348214285714
 11
104.0513392857143
 21
-82.31138392857143
 72
     1
 10
104.0513392857143
 20
-82.31138392857143
 11
103.7868303571428
 21
-82.47879464285714
 72
     1
 10
103.7868303571428
 20
-82.47879464285714
 11
103.4988839285714
 21
-82.36160714285714
 72
     1
 10
103.4988839285714
 20
-82.36160714285714
 11
102.4508928571428
 21
-82.2611607142857
 72
     1
 10
102.4508928571428
 20
-82.2611607142857
 11
101.7025669642857
 21
-82.29631696428571
 72
     1
 10
101.7025669642857
 20
-82.29631696428571
 11
102.1796875
 21
-82.51729910714285
 72
     1
 10
102.1796875
 20
-82.51729910714285
 11
102.4559151785714
 21
-82.64787946428571
 72
     1
 10
102.4559151785714
 20
-82.64787946428571
 11
103.12890625
 21
-82.94419642857143
 72
     1
 10
103.12890625
 20
-82.94419642857143
 11
103.12890625
 21
-83.07477678571428
 72
     1
 10
103.12890625
 20
-83.07477678571428
 11
102.8024553571428
 21
-83.08984374999999
 72
     1
 10
102.8024553571428
 20
-83.08984374999999
 11
102.2449776785714
 21
-83.13504464285713
 72
     1
 10
102.2449776785714
 20
-83.13504464285713
 11
101.8331473214285
 21
-83.1953125
 72
     1
 10
101.8331473214285
 20
-83.1953125
 11
101.3309151785714
 21
-83.2806919642857
 72
     1
 10
101.3309151785714
 20
-83.2806919642857
 11
102.0524553571428
 21
-83.5736607142857
 72
     1
 10
102.0524553571428
 20
-83.5736607142857
 11
102.5915178571428
 21
-83.93861607142858
 72
     1
 10
102.5915178571428
 20
-83.93861607142858
 11
102.5362723214285
 21
-84.04408482142857
 72
     1
 10
102.5362723214285
 20
-84.04408482142857
 11
102.3337053571428
 21
-84.19977678571427
 72
     1
 10
102.3337053571428
 20
-84.19977678571427
 11
102.1529017857143
 21
-84.33370535714285
 72
     1
 10
102.1529017857143
 20
-84.33370535714285
 11
101.93359375
 21
-84.53125
 72
     1
 10
101.93359375
 20
-84.53125
 11
102.3973214285714
 21
-84.44419642857143
 72
     1
 10
102.3973214285714
 20
-84.44419642857143
 11
102.7555803571428
 21
-84.39732142857144
 72
     1
 10
102.7555803571428
 20
-84.39732142857144
 11
103.62109375
 21
-84.30524553571428
 72
     1
 10
103.62109375
 20
-84.30524553571428
 11
103.7742745535714
 21
-84.28766741071427
 72
     1
 10
103.7742745535714
 20
-84.28766741071427
 11
103.8420758928571
 21
-84.35044642857143
 72
     1
 10
103.8420758928571
 20
-84.35044642857143
 11
103.8169642857142
 21
-84.54380580357144
 72
     1
 10
103.8169642857142
 20
-84.54380580357144
 11
104.1233258928571
 21
-84.31026785714285
 72
     1
 10
104.1233258928571
 20
-84.31026785714285
 11
104.4146205357143
 21
-84.02399553571427
 72
     1
 10
104.4146205357143
 20
-84.02399553571427
 11
104.7912946428571
 21
-83.72265625
 72
     1
 10
104.7912946428571
 20
-83.72265625
 11
105.0072544642857
 21
-83.60212053571428
 72
     1
 10
105.0072544642857
 20
-83.60212053571428
 11
105.1227678571428
 21
-83.62220982142856
 72
     1
 10
105.1227678571428
 20
-83.62220982142856
 11
105.1780133928571
 21
-83.72767857142857
 72
     1
 10
105.1780133928571
 20
-83.72767857142857
 11
105.16796875
 21
-83.83816964285713
 72
     1
 10
105.16796875
 20
-83.83816964285713
 11
105.1529017857143
 21
-84.09933035714285
 72
     1
 10
105.1529017857143
 20
-84.09933035714285
 11
105.0022321428571
 21
-84.52120535714284
 72
     1
 10
105.0022321428571
 20
-84.52120535714284
 11
105.3136160714285
 21
-84.31026785714285
 72
     1
 10
105.3136160714285
 20
-84.31026785714285
 11
105.6752232142857
 21
-84.0189732142857
 72
     1
 10
105.6752232142857
 20
-84.0189732142857
 11
106.0870535714286
 21
-83.59207589285714
 72
     1
 10
106.0870535714286
 20
-83.59207589285714
 11
106.3180803571428
 21
-83.45145089285713
 72
     1
 10
106.3180803571428
 20
-83.45145089285713
 11
106.43359375
 21
-83.44642857142856
 72
     1
 10
106.43359375
 20
-83.44642857142856
 11
106.4787946428571
 21
-83.52678571428571
 72
     1
 10
106.4787946428571
 20
-83.52678571428571
 11
106.3783482142857
 21
-84.49609374999999
 72
     1
 10
106.3783482142857
 20
-84.49609374999999
 11
106.8152901785714
 21
-84.17466517857143
 72
     1
 10
106.8152901785714
 20
-84.17466517857143
 11
107.5385044642857
 21
-83.73270089285714
 72
     1
 10
107.5385044642857
 20
-83.73270089285714
 11
108.2014508928571
 21
-83.37109375
 72
     1
 10
108.2014508928571
 20
-83.37109375
 11
108.68359375
 21
-83.18526785714285
 72
     1
 10
108.68359375
 20
-83.18526785714285
 11
108.859375
 21
-83.15513392857143
 72
     1
 10
108.859375
 20
-83.15513392857143
 11
108.9547991071428
 21
-83.17522321428571
 72
     1
 10
108.9547991071428
 20
-83.17522321428571
 11
109.0150669642857
 21
-83.2806919642857
 72
     1
 10
109.0150669642857
 20
-83.2806919642857
 11
108.9547991071428
 21
-83.52678571428571
 72
     1
 10
108.9547991071428
 20
-83.52678571428571
 11
108.7739955357142
 21
-84.13950892857142
 72
     1
 10
108.7739955357142
 20
-84.13950892857142
 11
108.9347098214285
 21
-83.98883928571427
 72
     1
 10
108.9347098214285
 20
-83.98883928571427
 11
109.28125
 21
-83.4765625
 72
     1
 10
109.28125
 20
-83.4765625
 11
109.5122767857143
 21
-83.25055803571428
 72
     1
 10
109.5122767857143
 20
-83.25055803571428
 11
109.66796875
 21
-83.21037946428571
 72
     1
 10
109.66796875
 20
-83.21037946428571
 11
109.8186383928571
 21
-83.21037946428571
 72
     1
 10
109.8186383928571
 20
-83.21037946428571
 11
109.9793526785714
 21
-83.29073660714284
 72
     1
 10
109.9793526785714
 20
-83.29073660714284
 11
110.1249972180085
 21
-83.45145089285713
 72
     1
 10
110.1249972180085
 20
-83.45145089285713
 11
110.2806919642857
 21
-83.6674107142857
 72
     1
 10
110.2806919642857
 20
-83.6674107142857
 11
110.3660714285714
 21
-83.77287946428571
 72
     1
 10
110.3660714285714
 20
-83.77287946428571
 11
110.4765625
 21
-83.77287946428571
 72
     1
 10
110.4765625
 20
-83.77287946428571
 11
110.4815848214286
 21
-83.50669642857143
 72
     1
 10
110.4815848214286
 20
-83.50669642857143
 11
110.4966517857143
 21
-83.15513392857143
 72
     1
 10
110.4966517857143
 20
-83.15513392857143
 11
110.546875
 21
-82.99441964285714
 72
     1
 10
110.546875
 20
-82.99441964285714
 11
110.7025669642857
 21
-82.97935267857143
 72
     1
 10
110.7025669642857
 20
-82.97935267857143
 11
111.1746651785714
 21
-82.97433035714284
 72
     1
 10
111.1746651785714
 20
-82.97433035714284
 11
111.5362723214285
 21
-82.9642857142857
 72
     1
 10
111.5362723214285
 20
-82.9642857142857
 11
111.7974330357142
 21
-82.94921875
 72
     1
 10
111.7974330357142
 20
-82.94921875
 11
111.8426339285714
 21
-82.91406249999999
 72
     1
 10
111.8426339285714
 20
-82.91406249999999
 11
111.7472098214285
 21
-82.82366071428571
 72
     1
 10
111.7472098214285
 20
-82.82366071428571
 11
111.3655133928571
 21
-82.75837053571427
 72
     1
 10
111.3655133928571
 20
-82.75837053571427
 11
111.0189732142857
 21
-82.66294642857143
 72
     1
 10
111.0189732142857
 20
-82.66294642857143
 11
110.8231026785714
 21
-82.56752232142856
 72
     1
 10
110.8231026785714
 20
-82.56752232142856
 11
110.58203125
 21
-82.421875
 72
     1
 10
110.58203125
 20
-82.421875
 11
110.5719866071428
 21
-82.30133928571428
 72
     1
 10
110.5719866071428
 20
-82.30133928571428
 11
110.7025669642857
 21
-82.24107142857143
 72
     1
 10
110.7025669642857
 20
-82.24107142857143
 11
111.0239955357142
 21
-82.17075892857144
 72
     1
 10
111.0239955357142
 20
-82.17075892857144
 11
111.3705357142857
 21
-82.12555803571428
 72
     1
 10
111.3705357142857
 20
-82.12555803571428
 11
111.7572544642857
 21
-82.03515624999999
 72
     1
 10
111.7572544642857
 20
-82.03515624999999
 11
112.0736607142857
 21
-81.94475446428571
 72
     1
 10
112.0736607142857
 20
-81.94475446428571
 11
111.5764508928571
 21
-81.93470982142857
 72
     1
 10
111.5764508928571
 20
-81.93470982142857
 11
111.07421875
 21
-81.92466517857143
 72
     1
 10
111.07421875
 20
-81.92466517857143
 11
110.7477678571428
 21
-81.93470982142857
 72
     1
 10
110.7477678571428
 20
-81.93470982142857
 11
110.5870535714285
 21
-81.7890625
 72
     1
 10
110.5870535714285
 20
-81.7890625
 11
110.4514508928571
 21
-82.03013392857142
 72
     1
 10
110.4514508928571
 20
-82.03013392857142
 11
110.3058035714285
 21
-82.40680803571427
 72
     1
 10
110.3058035714285
 20
-82.40680803571427
 11
110.1249972180085
 21
-82.47209821428571
 72
     1
 10
110.1249972180085
 20
-82.47209821428571
 11
109.87890625
 21
-82.10044642857143
 72
     1
 10
109.87890625
 20
-82.10044642857143
 11
109.6981026785714
 21
-82.30636160714285
 72
     1
 10
109.6981026785714
 20
-82.30636160714285
 11
109.52734375
 21
-82.54743303571428
 72
     1
 10
109.52734375
 20
-82.54743303571428
 11
109.4168526785714
 21
-82.77845982142856
 72
     1
 10
109.4168526785714
 20
-82.77845982142856
 11
109.3816964285714
 21
-82.83872767857143
 72
     1
 10
109.3816964285714
 20
-82.83872767857143
 11
109.2410714285714
 21
-82.86383928571428
 72
     1
 10
109.2410714285714
 20
-82.86383928571428
 11
108.9748883928571
 21
-82.58258928571427
 72
     1
 10
108.9748883928571
 20
-82.58258928571427
 11
108.7589285714285
 21
-82.35658482142858
 72
     1
 10
108.7589285714285
 20
-82.35658482142858
 11
108.6434151785714
 21
-82.46707589285714
 72
     1
 10
108.6434151785714
 20
-82.46707589285714
 11
108.4274553571428
 21
-82.69810267857144
 72
     1
 10
108.4274553571428
 20
-82.69810267857144
 11
108.2566964285714
 21
-82.89397321428571
 72
     1
 10
108.2566964285714
 20
-82.89397321428571
 11
108.1662946428571
 21
-82.9642857142857
 72
     1
 10
108.1662946428571
 20
-82.9642857142857
 11
107.98046875
 21
-82.92410714285713
 72
     1
 10
107.98046875
 20
-82.92410714285713
 11
107.8297991071428
 21
-82.80357142857143
 72
     1
 10
107.8297991071428
 20
-82.80357142857143
 11
107.76953125
 21
-82.62779017857143
 72
     1
 10
107.76953125
 20
-82.62779017857143
 11
107.7494419642857
 21
-82.47209821428571
 72
     1
 10
107.7494419642857
 20
-82.47209821428571
 11
107.4832589285714
 21
-82.51729910714285
 72
     1
 10
107.4832589285714
 20
-82.51729910714285
 11
107.1166294642857
 21
-82.67801339285714
 72
     1
 10
107.1166294642857
 20
-82.67801339285714
 11
106.7600446428571
 21
-82.83370535714285
 72
     1
 10
106.7600446428571
 20
-82.83370535714285
 11
106.4737723214285
 21
-82.91908482142856
 72
     1
 10
106.4737723214285
 20
-82.91908482142856
 11
106.1473214285714
 21
-82.984375
 97
        1
330
9F
 75
     2
 76
     1
 98
        1
 10
0.0
 20
0.0
450
        0
451
        0
460
0.0
461
0.0
452
        0
462
0.0
453
        0
470

  0
LWPOLYLINE
  5
A1
330
70
100
AcDbEntity
  8
VoidF-Lightning
 62
   165
420
  4286384
370
     9
100
AcDbPolyline
 90
      131
 70
     1
 43
0.0
 10
98.55356893889879
 20
-61.79520089285714
 10
99.28180803571429
 20
-60.65011160714285
 10
100.0150669642857
 20
-62.40290178571428
 10
100.0753348214285
 20
-62.38783482142856
 10
100.2410714285714
 20
-61.92075892857142
 10
100.8688616071428
 20
-63.40234375
 10
101.0848214285714
 20
-63.41238839285714
 10
101.2254464285714
 20
-63.3671875
 10
101.3560267857142
 20
-63.09598214285713
 10
101.5920758928571
 20
-62.33258928571428
 10
102.4659598214285
 20
-63.40234375
 10
102.5563616071428
 20
-63.41741071428571
 10
102.6467633928571
 20
-63.28683035714285
 10
103.0184151785714
 20
-62.40792410714285
 10
103.4402901785714
 20
-63.16127232142857
 10
103.4905133928571
 20
-63.16629464285714
 10
103.6160714285714
 20
-63.07589285714286
 10
104.2639508928571
 20
-61.86551339285713
 10
104.7310267857143
 20
-63.4375
 10
104.8415178571428
 20
-63.47767857142857
 10
104.9319196428571
 20
-63.4525669642857
 10
105.3839285714285
 20
-62.70424107142857
 10
105.4241071428571
 20
-62.65401785714285
 10
105.7354910714285
 20
-63.14118303571429
 10
105.80078125
 20
-63.17633928571428
 10
105.9112723214285
 20
-63.17633928571428
 10
106.5641741071428
 20
-62.57868303571428
 10
106.9609375
 20
-63.7890625
 10
107.0212053571428
 20
-63.86439732142857
 10
107.1618303571428
 20
-63.84933035714285
 10
107.8549107142857
 20
-63.50279017857142
 10
107.9151785714286
 20
-64.20591517857143
 10
108.0055803571428
 20
-64.25613839285714
 10
108.1361607142857
 20
-64.24107142857143
 10
108.61328125
 20
-63.89453125
 10
109.0652901785714
 20
-63.41238839285714
 10
109.2561383928571
 20
-64.25613839285714
 10
109.3683035714285
 20
-64.35491071428571
 10
109.6696428571428
 20
-64.33482142857143
 10
109.8169642857143
 20
-64.1875
 10
110.1249972180085
 20
-63.69866071428571
 10
110.4665178571428
 20
-64.25446428571428
 10
110.6071428571428
 20
-64.35491071428571
 10
110.6941964285714
 20
-64.34151785714284
 10
111.1897321428571
 20
-63.73214285714285
 10
111.2366071428571
 20
-63.70535714285714
 10
111.7254464285714
 20
-64.42857142857143
 10
111.7924107142857
 20
-64.45535714285714
 10
112.6495535714285
 20
-63.953125
 10
112.6428571428571
 20
-64.40178571428571
 10
112.6830357142857
 20
-64.64955357142857
 10
112.8102678571428
 20
-64.66964285714285
 10
112.9441964285714
 20
-64.609375
 10
113.7544642857142
 20
-64.26785714285713
 10
113.7477678571428
 20
-64.85044642857143
 10
113.8013392857142
 20
-64.93080357142857
 10
113.9553571428571
 20
-64.95758928571428
 10
114.2834821428571
 20
-65.00446428571428
 10
114.5044642857143
 20
-64.984375
 10
114.7103794642857
 20
-65.86328125
 10
114.8108258928571
 20
-65.86328125
 10
115.1573660714285
 20
-65.80803571428571
 10
115.3582589285714
 20
-65.74274553571427
 10
115.1272321428571
 20
-66.08426339285713
 10
115.1372767857143
 20
-66.20479910714284
 10
115.1975446428571
 20
-66.22991071428571
 10
115.6997767857143
 20
-66.17466517857143
 10
116.5334821428571
 20
-66.0390625
 10
115.99609375
 20
-66.52120535714285
 10
115.99609375
 20
-66.59151785714285
 10
116.1266741071428
 20
-66.63169642857143
 10
116.6439732142857
 20
-66.6166294642857
 10
116.6640625
 20
-67.01339285714285
 10
116.734375
 20
-67.09877232142857
 10
117.2918526785714
 20
-67.10379464285714
 10
116.7092633928571
 20
-67.66629464285713
 10
116.7645089285714
 20
-67.76171875
 10
117.5530133928571
 20
-67.88225446428571
 10
116.5636160714285
 20
-68.47488839285714
 10
116.6389508928571
 20
-68.61049107142857
 10
117.0859375
 20
-68.59040178571428
 10
116.8097098214285
 20
-68.77120535714285
 10
116.9151785714285
 20
-68.86662946428571
 10
117.2516741071428
 20
-68.97712053571428
 10
117.6886160714285
 20
-69.02232142857143
 10
118.0150669642857
 20
-68.98214285714285
 10
118.2712053571428
 20
-68.95200892857143
 10
117.8744419642857
 20
-69.40904017857143
 10
117.68359375
 20
-69.29352678571428
 10
117.3973214285714
 20
-69.17299107142857
 10
116.98046875
 20
-69.06752232142856
 10
116.6238839285714
 20
-68.93694196428571
 10
116.3275669642857
 20
-68.74107142857143
 10
116.1618303571428
 20
-68.55524553571427
 10
116.0463169642857
 20
-68.33928571428571
 10
116.0111607142857
 20
-68.09821428571428
 10
115.99609375
 20
-67.8470982142857
 10
115.9458705357143
 20
-67.59095982142857
 10
115.9056919642857
 20
-67.3197544642857
 10
115.8805803571428
 20
-66.97823660714284
 10
115.8102678571428
 20
-66.77232142857143
 10
115.609375
 20
-66.57142857142857
 10
115.3482142857143
 20
-66.42578125
 10
114.9313616071428
 20
-66.11439732142857
 10
114.3839285714285
 20
-65.83314732142857
 10
113.7410714285714
 20
-65.55189732142856
 10
113.1082589285714
 20
-65.34095982142857
 10
112.3900669642857
 20
-65.17522321428571
 10
111.578125
 20
-65.02790178571427
 10
109.9408482142857
 20
-64.78013392857143
 10
108.1194196428571
 20
-64.50892857142857
 10
105.8191964285714
 20
-64.1439732142857
 10
104.6004464285714
 20
-63.9765625
 10
103.6763392857142
 20
-63.91629464285713
 10
103.0904017857142
 20
-63.92633928571428
 10
102.0691964285714
 20
-63.95647321428571
 10
101.5736607142857
 20
-63.953125
 10
100.9743303571428
 20
-63.89285714285714
 10
100.6361607142857
 20
-63.82254464285714
 10
100.28125
 20
-63.76897321428571
 10
99.94308035714285
 20
-63.71875
 10
99.93638392857143
 20
-63.47767857142857
 10
99.86941964285714
 20
-62.90513392857143
 10
99.79241071428571
 20
-62.35602678571428
 10
99.70870535714285
 20
-62.10825892857142
 10
99.60825892857142
 20
-61.95089285714285
 10
99.50446428571428
 20
-61.8705357142857
 10
99.38727678571428
 20
-61.83705357142857
 10
99.2533482142857
 20
-61.82366071428571
 10
98.80217633928571
 20
-61.82784598214285
 10
98.59375
 20
-61.84040178571429
  0
HATCH
  5
A2
330
70
100
AcDbEntity
  8
VoidF-Lightning
 62
   133
420
  5358833
440
 33554687
100
AcDbHatch
 10
0.0
 20
0.0
 30
0.0
210
0.0
220
0.0
230
1.0
  2
SOLID
 70
     1
 71
     1
 91
        1
 92
        1
 93
      131
 72
     1
 10
98.55356893889879
 20
-61.79520089285714
 11
99.28180803571429
 21
-60.65011160714285
 72
     1
 10
99.28180803571429
 20
-60.65011160714285
 11
100.0150669642857
 21
-62.40290178571428
 72
     1
 10
100.0150669642857
 20
-62.40290178571428
 11
100.0753348214285
 21
-62.38783482142856
 72
     1
 10
100.0753348214285
 20
-62.38783482142856
 11
100.2410714285714
 21
-61.92075892857142
 72
     1
 10
100.2410714285714
 20
-61.92075892857142
 11
100.8688616071428
 21
-63.40234375
 72
     1
 10
100.8688616071428
 20
-63.40234375
 11
101.0848214285714
 21
-63.41238839285714
 72
     1
 10
101.0848214285714
 20
-63.41238839285714
 11
101.2254464285714
 21
-63.3671875
 72
     1
 10
101.2254464285714
 20
-63.3671875
 11
101.3560267857142
 21
-63.09598214285713
 72
     1
 10
101.3560267857142
 20
-63.09598214285713
 11
101.5920758928571
 21
-62.33258928571428
 72
     1
 10
101.5920758928571
 20
-62.33258928571428
 11
102.4659598214285
 21
-63.40234375
 72
     1
 10
102.4659598214285
 20
-63.40234375
 11
102.5563616071428
 21
-63.41741071428571
 72
     1
 10
102.5563616071428
 20
-63.41741071428571
 11
102.6467633928571
 21
-63.28683035714285
 72
     1
 10
102.6467633928571
 20
-63.28683035714285
 11
103.0184151785714
 21
-62.40792410714285
 72
     1
 10
103.0184151785714
 20
-62.40792410714285
 11
103.4402901785714
 21
-63.16127232142857
 72
     1
 10
103.4402901785714
 20
-63.16127232142857
 11
103.4905133928571
 21
-63.16629464285714
 72
     1
 10
103.4905133928571
 20
-63.16629464285714
 11
103.6160714285714
 21
-63.07589285714286
 72
     1
 10
103.6160714285714
 20
-63.07589285714286
 11
104.2639508928571
 21
-61.86551339285713
 72
     1
 10
104.2639508928571
 20
-61.86551339285713
 11
104.7310267857143
 21
-63.4375
 72
     1
 10
104.7310267857143
 20
-63.4375
 11
104.8415178571428
 21
-63.47767857142857
 72
     1
 10
104.8415178571428
 20
-63.47767857142857
 11
104.9319196428571
 21
-63.4525669642857
 72
     1
 10
104.9319196428571
 20
-63.4525669642857
 11
105.3839285714285
 21
-62.70424107142857
 72
     1
 10
105.3839285714285
 20
-62.70424107142857
 11
105.4241071428571
 21
-62.65401785714285
 72
     1
 10
105.4241071428571
 20
-62.65401785714285
 11
105.7354910714285
 21
-63.14118303571429
 72
     1
 10
105.7354910714285
 20
-63.14118303571429
 11
105.80078125
 21
-63.17633928571428
 72
     1
 10
105.80078125
 20
-63.17633928571428
 11
105.9112723214285
 21
-63.17633928571428
 72
     1
 10
105.9112723214285
 20
-63.17633928571428
 11
106.5641741071428
 21
-62.57868303571428
 72
     1
 10
106.5641741071428
 20
-62.57868303571428
 11
106.9609375
 21
-63.7890625
 72
     1
 10
106.9609375
 20
-63.7890625
 11
107.0212053571428
 21
-63.86439732142857
 72
     1
 10
107.0212053571428
 20
-63.86439732142857
 11
107.1618303571428
 21
-63.84933035714285
 72
     1
 10
107.1618303571428
 20
-63.84933035714285
 11
107.8549107142857
 21
-63.50279017857142
 72
     1
 10
107.8549107142857
 20
-63.50279017857142
 11
107.9151785714286
 21
-64.20591517857143
 72
     1
 10
107.9151785714286
 20
-64.20591517857143
 11
108.0055803571428
 21
-64.25613839285714
 72
     1
 10
108.0055803571428
 20
-64.25613839285714
 11
108.1361607142857
 21
-64.24107142857143
 72
     1
 10
108.1361607142857
 20
-64.24107142857143
 11
108.61328125
 21
-63.89453125
 72
     1
 10
108.61328125
 20
-63.89453125
 11
109.0652901785714
 21
-63.41238839285714
 72
     1
 10
109.0652901785714
 20
-63.41238839285714
 11
109.2561383928571
 21
-64.25613839285714
 72
     1
 10
109.2561383928571
 20
-64.25613839285714
 11
109.3683035714285
 21
-64.35491071428571
 72
     1
 10
109.3683035714285
 20
-64.35491071428571
 11
109.6696428571428
 21
-64.33482142857143
 72
     1
 10
109.6696428571428
 20
-64.33482142857143
 11
109.8169642857143
 21
-64.1875
 72
     1
 10
109.8169642857143
 20
-64.1875
 11
110.1249972180085
 21
-63.69866071428571
 72
     1
 10
110.1249972180085
 20
-63.69866071428571
 11
110.4665178571428
 21
-64.25446428571428
 72
     1
 10
110.4665178571428
 20
-64.25446428571428
 11
110.6071428571428
 21
-64.35491071428571
 72
     1
 10
110.6071428571428
 20
-64.35491071428571
 11
110.6941964285714
 21
-64.34151785714284
 72
     1
 10
110.6941964285714
 20
-64.34151785714284
 11
111.1897321428571
 21
-63.73214285714285
 72
     1
 10
111.1897321428571
 20
-63.73214285714285
 11
111.2366071428571
 21
-63.70535714285714
 72
     1
 10
111.2366071428571
 20
-63.70535714285714
 11
111.7254464285714
 21
-64.42857142857143
 72
     1
 10
111.7254464285714
 20
-64.42857142857143
 11
111.7924107142857
 21
-64.45535714285714
 72
     1
 10
111.7924107142857
 20
-64.45535714285714
 11
112.6495535714285
 21
-63.953125
 72
     1
 10
112.6495535714285
 20
-63.953125
 11
112.6428571428571
 21
-64.40178571428571
 72
     1
 10
112.6428571428571
 20
-64.40178571428571
 11
112.6830357142857
 21
-64.64955357142857
 72
     1
 10
112.6830357142857
 20
-64.64955357142857
 11
112.8102678571428
 21
-64.66964285714285
 72
     1
 10
112.8102678571428
 20
-64.66964285714285
 11
112.9441964285714
 21
-64.609375
 72
     1
 10
112.9441964285714
 20
-64.609375
 11
113.7544642857142
 21
-64.26785714285713
 72
     1
 10
113.7544642857142
 20
-64.26785714285713
 11
113.7477678571428
 21
-64.85044642857143
 72
     1
 10
113.7477678571428
 20
-64.85044642857143
 11
113.8013392857142
 21
-64.93080357142857
 72
     1
 10
113.8013392857142
 20
-64.93080357142857
 11
113.9553571428571
 21
-64.95758928571428
 72
     1
 10
113.9553571428571
 20
-64.95758928571428
 11
114.2834821428571
 21
-65.00446428571428
 72
     1
 10
114.2834821428571
 20
-65.00446428571428
 11
114.5044642857143
 21
-64.984375
 72
     1
 10
114.5044642857143
 20
-64.984375
 11
114.7103794642857
 21
-65.86328125
 72
     1
 10
114.7103794642857
 20
-65.86328125
 11
114.8108258928571
 21
-65.86328125
 72
     1
 10
114.8108258928571
 20
-65.86328125
 11
115.1573660714285
 21
-65.80803571428571
 72
     1
 10
115.1573660714285
 20
-65.80803571428571
 11
115.3582589285714
 21
-65.74274553571427
 72
     1
 10
115.3582589285714
 20
-65.74274553571427
 11
115.1272321428571
 21
-66.08426339285713
 72
     1
 10
115.1272321428571
 20
-66.08426339285713
 11
115.1372767857143
 21
-66.20479910714284
 72
     1
 10
115.1372767857143
 20
-66.20479910714284
 11
115.1975446428571
 21
-66.22991071428571
 72
     1
 10
115.1975446428571
 20
-66.22991071428571
 11
115.6997767857143
 21
-66.17466517857143
 72
     1
 10
115.6997767857143
 20
-66.17466517857143
 11
116.5334821428571
 21
-66.0390625
 72
     1
 10
116.5334821428571
 20
-66.0390625
 11
115.99609375
 21
-66.52120535714285
 72
     1
 10
115.99609375
 20
-66.52120535714285
 11
115.99609375
 21
-66.59151785714285
 72
     1
 10
115.99609375
 20
-66.59151785714285
 11
116.1266741071428
 21
-66.63169642857143
 72
     1
 10
116.1266741071428
 20
-66.63169642857143
 11
116.6439732142857
 21
-66.6166294642857
 72
     1
 10
116.6439732142857
 20
-66.6166294642857
 11
116.6640625
 21
-67.01339285714285
 72
     1
 10
116.6640625
 20
-67.01339285714285
 11
116.734375
 21
-67.09877232142857
 72
     1
 10
116.734375
 20
-67.09877232142857
 11
117.2918526785714
 21
-67.10379464285714
 72
     1
 10
117.2918526785714
 20
-67.10379464285714
 11
116.7092633928571
 21
-67.66629464285713
 72
     1
 10
116.7092633928571
 20
-67.66629464285713
 11
116.7645089285714
 21
-67.76171875
 72
     1
 10
116.7645089285714
 20
-67.76171875
 11
117.5530133928571
 21
-67.88225446428571
 72
     1
 10
117.5530133928571
 20
-67.88225446428571
 11
116.5636160714285
 21
-68.47488839285714
 72
     1
 10
116.5636160714285
 20
-68.47488839285714
 11
116.6389508928571
 21
-68.61049107142857
 72
     1
 10
116.6389508928571
 20
-68.61049107142857
 11
117.0859375
 21
-68.59040178571428
 72
     1
 10
117.0859375
 20
-68.59040178571428
 11
116.8097098214285
 21
-68.77120535714285
 72
     1
 10
116.8097098214285
 20
-68.77120535714285
 11
116.9151785714285
 21
-68.86662946428571
 72
     1
 10
116.9151785714285
 20
-68.86662946428571
 11
117.2516741071428
 21
-68.97712053571428
 72
     1
 10
117.2516741071428
 20
-68.97712053571428
 11
117.6886160714285
 21
-69.02232142857143
 72
     1
 10
117.6886160714285
 20
-69.02232142857143
 11
118.0150669642857
 21
-68.98214285714285
 72
     1
 10
118.0150669642857
 20
-68.98214285714285
 11
118.2712053571428
 21
-68.95200892857143
 72
     1
 10
118.2712053571428
 20
-68.95200892857143
 11
117.8744419642857
 21
-69.40904017857143
 72
     1
 10
117.8744419642857
 20
-69.40904017857143
 11
117.68359375
 21
-69.29352678571428
 72
     1
 10
117.68359375
 20
-69.29352678571428
 11
117.3973214285714
 21
-69.17299107142857
 72
     1
 10
117.3973214285714
 20
-69.17299107142857
 11
116.98046875
 21
-69.06752232142856
 72
     1
 10
116.98046875
 20
-69.06752232142856
 11
116.6238839285714
 21
-68.93694196428571
 72
     1
 10
116.6238839285714
 20
-68.93694196428571
 11
116.3275669642857
 21
-68.74107142857143
 72
     1
 10
116.3275669642857
 20
-68.74107142857143
 11
116.1618303571428
 21
-68.55524553571427
 72
     1
 10
116.1618303571428
 20
-68.55524553571427
 11
116.0463169642857
 21
-68.33928571428571
 72
     1
 10
116.0463169642857
 20
-68.33928571428571
 11
116.0111607142857
 21
-68.09821428571428
 72
     1
 10
116.0111607142857
 20
-68.09821428571428
 11
115.99609375
 21
-67.8470982142857
 72
     1
 10
115.99609375
 20
-67.8470982142857
 11
115.9458705357143
 21
-67.59095982142857
 72
     1
 10
115.9458705357143
 20
-67.59095982142857
 11
115.9056919642857
 21
-67.3197544642857
 72
     1
 10
115.9056919642857
 20
-67.3197544642857
 11
115.8805803571428
 21
-66.97823660714284
 72
     1
 10
115.8805803571428
 20
-66.97823660714284
 11
115.8102678571428
 21
-66.77232142857143
 72
     1
 10
115.8102678571428
 20
-66.77232142857143
 11
115.609375
 21
-66.57142857142857
 72
     1
 10
115.609375
 20
-66.57142857142857
 11
115.3482142857143
 21
-66.42578125
 72
     1
 10
115.3482142857143
 20
-66.42578125
 11
114.9313616071428
 21
-66.11439732142857
 72
     1
 10
114.9313616071428
 20
-66.11439732142857
 11
114.3839285714285
 21
-65.83314732142857
 72
     1
 10
114.3839285714285
 20
-65.83314732142857
 11
113.7410714285714
 21
-65.55189732142856
 72
     1
 10
113.7410714285714
 20
-65.55189732142856
 11
113.1082589285714
 21
-65.34095982142857
 72
     1
 10
113.1082589285714
 20
-65.34095982142857
 11
112.3900669642857
 21
-65.17522321428571
 72
     1
 10
112.3900669642857
 20
-65.17522321428571
 11
111.578125
 21
-65.02790178571427
 72
     1
 10
111.578125
 20
-65.02790178571427
 11
109.9408482142857
 21
-64.78013392857143
 72
     1
 10
109.9408482142857
 20
-64.78013392857143
 11
108.1194196428571
 21
-64.50892857142857
 72
     1
 10
108.1194196428571
 20
-64.50892857142857
 11
105.8191964285714
 21
-64.1439732142857
 72
     1
 10
105.8191964285714
 20
-64.1439732142857
 11
104.6004464285714
 21
-63.9765625
 72
     1
 10
104.6004464285714
 20
-63.9765625
 11
103.6763392857142
 21
-63.91629464285713
 72
     1
 10
103.6763392857142
 20
-63.91629464285713
 11
103.0904017857142
 21
-63.92633928571428
 72
     1
 10
103.0904017857142
 20
-63.92633928571428
 11
102.0691964285714
 21
-63.95647321428571
 72
     1
 10
102.0691964285714
 20
-63.95647321428571
 11
101.5736607142857
 21
-63.953125
 72
     1
 10
101.5736607142857
 20
-63.953125
 11
100.9743303571428
 21
-63.89285714285714
 72
     1
 10
100.9743303571428
 20
-63.89285714285714
 11
100.6361607142857
 21
-63.82254464285714
 72
     1
 10
100.6361607142857
 20
-63.82254464285714
 11
100.28125
 21
-63.76897321428571
 72
     1
 10
100.28125
 20
-63.76897321428571
 11
99.94308035714285
 21
-63.71875
 72
     1
 10
99.94308035714285
 20
-63.71875
 11
99.93638392857143
 21
-63.47767857142857
 72
     1
 10
99.93638392857143
 20
-63.47767857142857
 11
99.86941964285714
 21
-62.90513392857143
 72
     1
 10
99.86941964285714
 20
-62.90513392857143
 11
99.79241071428571
 21
-62.35602678571428
 72
     1
 10
99.79241071428571
 20
-62.35602678571428
 11
99.70870535714285
 21
-62.10825892857142
 72
     1
 10
99.70870535714285
 20
-62.10825892857142
 11
99.60825892857142
 21
-61.95089285714285
 72
     1
 10
99.60825892857142
 20
-61.95089285714285
 11
99.50446428571428
 21
-61.8705357142857
 72
     1
 10
99.50446428571428
 20
-61.8705357142857
 11
99.38727678571428
 21
-61.83705357142857
 72
     1
 10
99.38727678571428
 20
-61.83705357142857
 11
99.2533482142857
 21
-61.82366071428571
 72
     1
 10
99.2533482142857
 20
-61.82366071428571
 11
98.80217633928571
 21
-61.82784598214285
 72
     1
 10
98.80217633928571
 20
-61.82784598214285
 11
98.59375
 21
-61.84040178571429
 72
     1
 10
98.59375
 20
-61.84040178571429
 11
98.55356893889879
 21
-61.79520089285714
 97
        1
330
A1
 75
     2
 76
     1
 98
        1
 10
0.0
 20
0.0
450
        0
451
        0
460
0.0
461
0.0
452
        0
462
0.0
453
        0
470

  0
LWPOLYLINE
  5
A3
330
70
100
AcDbEntity
  8
VoidF-Lightning
 62
   165
420
  4286384
370
     9
100
AcDbPolyline
 90
       17
 70
     1
 43
0.0
 10
118.2678541551597
 20
-69.859375
 10
118.890625
 20
-69.89285714285713
 10
118.6897321428571
 20
-70.22767857142857
 10
119.4263392857143
 20
-70.89732142857143
 10
118.515625
 20
-71.23214285714285
 10
118.4955357142857
 20
-71.41294642857143
 10
119.4196428571428
 20
-71.95535714285714
 10
119.0044642857142
 20
-72.03571428571428
 10
118.421875
 20
-72.36383928571427
 10
118.75
 20
-73.17410714285713
 10
117.8125
 20
-72.97991071428571
 10
117.9732142857143
 20
-72.54464285714284
 10
118.0870535714285
 20
-72.12946428571427
 10
118.1674107142857
 20
-71.5267857142857
 10
118.2745535714285
 20
-71.11830357142856
 10
118.3749970095959
 20
-70.95089285714284
 10
118.3816964285714
 20
-70.50892857142857
  0
HATCH
  5
A4
330
70
100
AcDbEntity
  8
VoidF-Lightning
 62
   133
420
  5358833
440
 33554687
100
AcDbHatch
 10
0.0
 20
0.0
 30
0.0
210
0.0
220
0.0
230
1.0
  2
SOLID
 70
     1
 71
     1
 91
        1
 92
        1
 93
       17
 72
     1
 10
118.2678541551597
 20
-69.859375
 11
118.890625
 21
-69.89285714285713
 72
     1
 10
118.890625
 20
-69.89285714285713
 11
118.6897321428571
 21
-70.22767857142857
 72
     1
 10
118.6897321428571
 20
-70.22767857142857
 11
119.4263392857143
 21
-70.89732142857143
 72
     1
 10
119.4263392857143
 20
-70.89732142857143
 11
118.515625
 21
-71.23214285714285
 72
     1
 10
118.515625
 20
-71.23214285714285
 11
118.4955357142857
 21
-71.41294642857143
 72
     1
 10
118.4955357142857
 20
-71.41294642857143
 11
119.4196428571428
 21
-71.95535714285714
 72
     1
 10
119.4196428571428
 20
-71.95535714285714
 11
119.0044642857142
 21
-72.03571428571428
 72
     1
 10
119.0044642857142
 20
-72.03571428571428
 11
118.421875
 21
-72.36383928571427
 72
     1
 10
118.421875
 20
-72.36383928571427
 11
118.75
 21
-73.17410714285713
 72
     1
 10
118.75
 20
-73.17410714285713
 11
117.8125
 21
-72.97991071428571
 72
     1
 10
117.8125
 20
-72.97991071428571
 11
117.9732142857143
 21
-72.54464285714284
 72
     1
 10
117.9732142857143
 20
-72.54464285714284
 11
118.0870535714285
 21
-72.12946428571427
 72
     1
 10
118.0870535714285
 20
-72.12946428571427
 11
118.1674107142857
 21
-71.5267857142857
 72
     1
 10
118.1674107142857
 20
-71.5267857142857
 11
118.2745535714285
 21
-71.11830357142856
 72
     1
 10
118.2745535714285
 20
-71.11830357142856
 11
118.3749970095959
 21
-70.95089285714284
 72
     1
 10
118.3749970095959
 20
-70.95089285714284
 11
118.3816964285714
 21
-70.50892857142857
 72
     1
 10
118.3816964285714
 20
-70.50892857142857
 11
118.2678541551597
 21
-69.859375
 97
        1
330
A3
 75
     2
 76
     1
 98
        1
 10
0.0
 20
0.0
450
        0
451
        0
460
0.0
461
0.0
452
        0
462
0.0
453
        0
470

  0
LWPOLYLINE
  5
A5
330
70
100
AcDbEntity
  8
VoidF-Lightning
 62
   165
420
  4286384
370
     9
100
AcDbPolyline
 90
       25
 70
     1
 43
0.0
 10
112.84375
 20
-79.44196428571427
 10
114.2633928571428
 20
-78.89285714285714
 10
113.3928571428571
 20
-78.24330357142857
 10
113.265625
 20
-78.015625
 10
113.2522321428571
 20
-77.8549107142857
 10
113.6808035714286
 20
-77.76785714285714
 10
114.203125
 20
-77.72767857142857
 10
114.7857142857143
 20
-77.56026785714285
 10
114.0223214285714
 20
-77.46651785714284
 10
113.546875
 20
-77.25892857142857
 10
113.5133928571428
 20
-77.13839285714285
 10
113.921875
 20
-76.890625
 10
114.3504464285714
 20
-76.58258928571427
 10
113.5267857142857
 20
-76.68973214285713
 10
113.2455357142857
 20
-76.6830357142857
 10
113.2388392857142
 20
-76.55580357142857
 10
113.5133928571428
 20
-76.31473214285714
 10
114.0022321428571
 20
-75.859375
 10
114.3236607142857
 20
-75.51785714285713
 10
114.5714285714285
 20
-75.13616071428571
 10
113.7946428571428
 20
-75.45758928571427
 10
113.1785714285714
 20
-75.75223214285713
 10
113.1116071428571
 20
-76.97098214285714
 10
113.0513392857142
 20
-77.60044642857143
 10
112.9642857142857
 20
-78.58482142857143
  0
HATCH
  5
A6
330
70
100
AcDbEntity
  8
VoidF-Lightning
 62
   133
420
  5358833
440
 33554687
100
AcDbHatch
 10
0.0
 20
0.0
 30
0.0
210
0.0
220
0.0
230
1.0
  2
SOLID
 70
     1
 71
     1
 91
        1
 92
        1
 93
       25
 72
     1
 10
112.84375
 20
-79.44196428571427
 11
114.2633928571428
 21
-78.89285714285714
 72
     1
 10
114.2633928571428
 20
-78.89285714285714
 11
113.3928571428571
 21
-78.24330357142857
 72
     1
 10
113.3928571428571
 20
-78.24330357142857
 11
113.265625
 21
-78.015625
 72
     1
 10
113.265625
 20
-78.015625
 11
113.2522321428571
 21
-77.8549107142857
 72
     1
 10
113.2522321428571
 20
-77.8549107142857
 11
113.6808035714286
 21
-77.76785714285714
 72
     1
 10
113.6808035714286
 20
-77.76785714285714
 11
114.203125
 21
-77.72767857142857
 72
     1
 10
114.203125
 20
-77.72767857142857
 11
114.7857142857143
 21
-77.56026785714285
 72
     1
 10
114.7857142857143
 20
-77.56026785714285
 11
114.0223214285714
 21
-77.46651785714284
 72
     1
 10
114.0223214285714
 20
-77.46651785714284
 11
113.546875
 21
-77.25892857142857
 72
     1
 10
113.546875
 20
-77.25892857142857
 11
113.5133928571428
 21
-77.13839285714285
 72
     1
 10
113.5133928571428
 20
-77.13839285714285
 11
113.921875
 21
-76.890625
 72
     1
 10
113.921875
 20
-76.890625
 11
114.3504464285714
 21
-76.58258928571427
 72
     1
 10
114.3504464285714
 20
-76.58258928571427
 11
113.5267857142857
 21
-76.68973214285713
 72
     1
 10
113.5267857142857
 20
-76.68973214285713
 11
113.2455357142857
 21
-76.6830357142857
 72
     1
 10
113.2455357142857
 20
-76.6830357142857
 11
113.2388392857142
 21
-76.55580357142857
 72
     1
 10
113.2388392857142
 20
-76.55580357142857
 11
113.5133928571428
 21
-76.31473214285714
 72
     1
 10
113.5133928571428
 20
-76.31473214285714
 11
114.0022321428571
 21
-75.859375
 72
     1
 10
114.0022321428571
 20
-75.859375
 11
114.3236607142857
 21
-75.51785714285713
 72
     1
 10
114.3236607142857
 20
-75.51785714285713
 11
114.5714285714285
 21
-75.13616071428571
 72
     1
 10
114.5714285714285
 20
-75.13616071428571
 11
113.7946428571428
 21
-75.45758928571427
 72
     1
 10
113.7946428571428
 20
-75.45758928571427
 11
113.1785714285714
 21
-75.75223214285713
 72
     1
 10
113.1785714285714
 20
-75.75223214285713
 11
113.1116071428571
 21
-76.97098214285714
 72
     1
 10
113.1116071428571
 20
-76.97098214285714
 11
113.0513392857142
 21
-77.60044642857143
 72
     1
 10
113.0513392857142
 20
-77.60044642857143
 11
112.9642857142857
 21
-78.58482142857143
 72
     1
 10
112.9642857142857
 20
-78.58482142857143
 11
112.84375
 21
-79.44196428571427
 97
        1
330
A5
 75
     2
 76
     1
 98
        1
 10
0.0
 20
0.0
450
        0
451
        0
460
0.0
461
0.0
452
        0
462
0.0
453
        0
470

  0
ENDSEC
  0
SECTION
  2
OBJECTS
  0
DICTIONARY
  5
C
330
0
100
AcDbDictionary
281
     1
  3
ACAD_COLOR
350
63
  3
ACAD_DETAILVIEWSTYLE
350
6A
  3
ACAD_GROUP
350
D
  3
ACAD_LAYOUT
350
62
  3
ACAD_MATERIAL
350
10
  3
ACAD_MLEADERSTYLE
350
66
  3
ACAD_MLINESTYLE
350
5F
  3
ACAD_PLOTSETTINGS
350
61
  3
ACAD_PLOTSTYLENAME
350
E
  3
ACAD_SCALELIST
350
42
  3
ACAD_SECTIONVIEWSTYLE
350
68
  3
ACAD_TABLESTYLE
350
64
  3
ACAD_VISUALSTYLE
350
29
  3
ACDB_RECOMPOSE_DATA
350
B1
  3
AcDbVariableDictionary
350
A9
  0
DICTIONARY
  5
63
102
{ACAD_REACTORS
330
C
102
}
330
C
100
AcDbDictionary
281
     1
  0
DICTIONARY
  5
6A
102
{ACAD_REACTORS
330
C
102
}
330
C
100
AcDbDictionary
281
     1
  3
Imperial24
350
6B
  0
DICTIONARY
  5
D
102
{ACAD_REACTORS
330
C
102
}
330
C
100
AcDbDictionary
281
     1
  0
DICTIONARY
  5
62
102
{ACAD_REACTORS
330
C
102
}
330
C
100
AcDbDictionary
281
     1
  3
Layout1
350
6F
  3
Layout2
350
77
  3
Model
350
73
  0
DICTIONARY
  5
10
102
{ACAD_REACTORS
330
C
102
}
330
C
100
AcDbDictionary
281
     1
  3
ByBlock
350
19
  3
ByLayer
350
11
  3
Global
350
21
  0
DICTIONARY
  5
66
102
{ACAD_REACTORS
330
C
102
}
330
C
100
AcDbDictionary
281
     1
  3
Standard
350
67
  0
DICTIONARY
  5
5F
102
{ACAD_REACTORS
330
C
102
}
330
C
100
AcDbDictionary
281
     1
  3
Standard
350
60
  0
DICTIONARY
  5
61
102
{ACAD_REACTORS
330
C
102
}
330
C
100
AcDbDictionary
281
     1
  0
ACDBDICTIONARYWDFLT
  5
E
102
{ACAD_REACTORS
330
C
102
}
330
C
100
AcDbDictionary
281
     1
  3
Normal
350
F
100
AcDbDictionaryWithDefault
340
F
  0
DICTIONARY
  5
42
102
{ACAD_REACTORS
330
C
102
}
330
C
100
AcDbDictionary
281
     1
  3
A0
350
43
  3
A1
350
44
  3
A2
350
45
  3
A3
350
46
  3
A4
350
47
  3
A5
350
48
  3
A6
350
49
  3
A7
350
4A
  3
A8
350
4B
  3
A9
350
4C
  3
B0
350
4D
  3
B1
350
4E
  3
B2
350
4F
  3
B3
350
50
  3
B4
350
51
  3
B5
350
52
  3
B6
350
53
  0
DICTIONARY
  5
68
102
{ACAD_REACTORS
330
C
102
}
330
C
100
AcDbDictionary
281
     1
  3
Imperial24
350
69
  0
DICTIONARY
  5
64
102
{ACAD_REACTORS
330
C
102
}
330
C
100
AcDbDictionary
281
     1
  3
Standard
350
65
  0
DICTIONARY
  5
29
102
{ACAD_REACTORS
330
C
102
}
330
C
100
AcDbDictionary
281
     1
  3
2dWireframe
350
2F
  3
Basic
350
2E
  3
Brighten
350
35
  3
ColorChange
350
39
  3
Conceptual
350
32
  3
Dim
350
34
  3
EdgeColorOff
350
41
  3
Facepattern
350
38
  3
Flat
350
2A
  3
FlatWithEdges
350
2B
  3
Gouraud
350
2C
  3
GouraudWithEdges
350
2D
  3
Hidden
350
31
  3
JitterOff
350
3F
  3
Linepattern
350
37
  3
OverhangOff
350
40
  3
Realistic
350
33
  3
Shaded
350
3E
  3
Shaded with edges
350
3D
  3
Shades of Gray
350
3A
  3
Sketchy
350
3B
  3
Thicken
350
36
  3
Wireframe
350
30
  3
X-Ray
350
3C
  0
XRECORD
  5
B1
102
{ACAD_REACTORS
330
C
102
}
330
C
100
AcDbXrecord
280
     1
 90
        1
330
65
  0
DICTIONARY
  5
A9
102
{ACAD_REACTORS
330
C
102
}
330
C
100
AcDbDictionary
281
     1
  3
CANNOSCALE
350
AE
  3
CMLEADERSTYLE
350
AB
  3
CTABLESTYLE
350
AA
  3
CVIEWDETAILSTYLE
350
AC
  3
CVIEWSECTIONSTYLE
350
AD
  0
ACDBDETAILVIEWSTYLE
  5
6B
102
{ACAD_REACTORS
330
6A
102
}
330
6A
100
AcDbModelDocViewStyle
 70
     0
  3
Imperial24
290
     1
300
Imperial24
 90
        0
100
AcDbDetailViewStyle
 70
     0
 71
     0
 90
        3
 71
     1
340
55
 62
   256
 40
0.24
340
0
 62
   256
 40
0.24
300

 40
0.36
280
     3
 71
     2
340
5D
 90
       25
 62
   256
 71
     3
340
55
 62
   256
 40
0.24
 90
        1
 40
0.75
 90
        1
300
%<\AcVar ViewType \f "%tc1">% %<\AcVar ViewDetailId>%\PSCALE %<\AcVar ViewScale \f "%sn">%
 71
     4
340
5D
 90
       25
 62
   256
340
5D
 90
       25
 62
   256
280
     0
  0
LAYOUT
  5
6F
102
{ACAD_REACTORS
330
62
102
}
330
62
100
AcDbPlotSettings
  1

  2

  4

  6

 40
0.0
 41
0.0
 42
0.0
 43
0.0
 44
0.0
 45
0.0
 46
0.0
 47
0.0
 48
0.0
 49
0.0
140
0.0
141
0.0
142
1.0
143
1.0
 70
   688
 72
     0
 73
     0
 74
     5
  7

 75
    16
147
1.0
 76
     0
 77
     2
 78
   300
148
0.0
149
0.0
100
AcDbLayout
  1
Layout1
 70
     1
 71
     1
 10
0.0
 20
0.0
 11
12.0
 21
9.0
 12
0.0
 22
0.0
 32
0.0
 14
0.0
 24
0.0
 34
0.0
 15
0.0
 25
0.0
 35
0.0
146
0.0
 13
0.0
 23
0.0
 33
0.0
 16
1.0
 26
0.0
 36
0.0
 17
0.0
 27
1.0
 37
0.0
 76
     0
330
6C
  0
LAYOUT
  5
77
102
{ACAD_REACTORS
330
62
102
}
330
62
100
AcDbPlotSettings
  1

  2

  4

  6

 40
0.0
 41
0.0
 42
0.0
 43
0.0
 44
0.0
 45
0.0
 46
0.0
 47
0.0
 48
0.0
 49
0.0
140
0.0
141
0.0
142
1.0
143
1.0
 70
   688
 72
     0
 73
     0
 74
     5
  7

 75
    16
147
1.0
 76
     0
 77
     2
 78
   300
148
0.0
149
0.0
100
AcDbLayout
  1
Layout2
 70
     1
 71
     2
 10
0.0
 20
0.0
 11
12.0
 21
9.0
 12
0.0
 22
0.0
 32
0.0
 14
0.0
 24
0.0
 34
0.0
 15
0.0
 25
0.0
 35
0.0
146
0.0
 13
0.0
 23
0.0
 33
0.0
 16
1.0
 26
0.0
 36
0.0
 17
0.0
 27
1.0
 37
0.0
 76
     0
330
74
  0
LAYOUT
  5
73
102
{ACAD_REACTORS
330
62
102
}
330
62
100
AcDbPlotSettings
  1

  2

  4

  6

 40
0.0
 41
0.0
 42
0.0
 43
0.0
 44
0.0
 45
0.0
 46
0.0
 47
0.0
 48
0.0
 49
0.0
140
0.0
141
0.0
142
1.0
143
1.0
 70
  1712
 72
     0
 73
     0
 74
     0
  7

 75
     0
147
1.0
 76
     0
 77
     2
 78
   300
148
0.0
149
0.0
100
AcDbLayout
  1
Model
 70
     1
 71
     0
 10
0.0
 20
0.0
 11
12.0
 21
9.0
 12
0.0
 22
0.0
 32
0.0
 14
0.0
 24
0.0
 34
0.0
 15
0.0
 25
0.0
 35
0.0
146
0.0
 13
0.0
 23
0.0
 33
0.0
 16
1.0
 26
0.0
 36
0.0
 17
0.0
 27
1.0
 37
0.0
 76
     0
330
70
  0
MATERIAL
  5
19
102
{ACAD_XDICTIONARY
360
1A
102
}
102
{ACAD_REACTORS
330
10
102
}
330
10
100
AcDbMaterial
  1
ByBlock
 72
     0
 43
0.0208333333333333
 43
0.0
 43
0.0
 43
0.0
 43
0.0
 43
0.0208333333333333
 43
0.0
 43
0.0
 43
0.0
 43
0.0
 43
1.0
 43
0.0
 43
0.0
 43
0.0
 43
0.0
 43
1.0
 77
     0
 47
0.0208333333333333
 47
0.0
 47
0.0
 47
0.0
 47
0.0
 47
0.0208333333333333
 47
0.0
 47
0.0
 47
0.0
 47
0.0
 47
1.0
 47
0.0
 47
0.0
 47
0.0
 47
0.0
 47
1.0
171
     0
 49
0.0208333333333333
 49
0.0
 49
0.0
 49
0.0
 49
0.0
 49
0.0208333333333333
 49
0.0
 49
0.0
 49
0.0
 49
0.0
 49
1.0
 49
0.0
 49
0.0
 49
0.0
 49
0.0
 49
1.0
175
     0
142
0.0208333333333333
142
0.0
142
0.0
142
0.0
142
0.0
142
0.0208333333333333
142
0.0
142
0.0
142
0.0
142
0.0
142
1.0
142
0.0
142
0.0
142
0.0
142
0.0
142
1.0
179
     0
144
0.0208333333333333
144
0.0
144
0.0
144
0.0
144
0.0
144
0.0208333333333333
144
0.0
144
0.0
144
0.0
144
0.0
144
1.0
144
0.0
144
0.0
144
0.0
144
0.0
144
1.0
147
0.0208333333333333
147
0.0
147
0.0
147
0.0
147
0.0
147
0.0208333333333333
147
0.0
147
0.0
147
0.0
147
0.0
147
1.0
147
0.0
147
0.0
147
0.0
147
0.0
147
1.0
  0
MATERIAL
  5
11
102
{ACAD_XDICTIONARY
360
12
102
}
102
{ACAD_REACTORS
330
10
102
}
330
10
100
AcDbMaterial
  1
ByLayer
 72
     0
 43
0.0208333333333333
 43
0.0
 43
0.0
 43
0.0
 43
0.0
 43
0.0208333333333333
 43
0.0
 43
0.0
 43
0.0
 43
0.0
 43
1.0
 43
0.0
 43
0.0
 43
0.0
 43
0.0
 43
1.0
 77
     0
 47
0.0208333333333333
 47
0.0
 47
0.0
 47
0.0
 47
0.0
 47
0.0208333333333333
 47
0.0
 47
0.0
 47
0.0
 47
0.0
 47
1.0
 47
0.0
 47
0.0
 47
0.0
 47
0.0
 47
1.0
171
     0
 49
0.0208333333333333
 49
0.0
 49
0.0
 49
0.0
 49
0.0
 49
0.0208333333333333
 49
0.0
 49
0.0
 49
0.0
 49
0.0
 49
1.0
 49
0.0
 49
0.0
 49
0.0
 49
0.0
 49
1.0
175
     0
142
0.0208333333333333
142
0.0
142
0.0
142
0.0
142
0.0
142
0.0208333333333333
142
0.0
142
0.0
142
0.0
142
0.0
142
1.0
142
0.0
142
0.0
142
0.0
142
0.0
142
1.0
179
     0
144
0.0208333333333333
144
0.0
144
0.0
144
0.0
144
0.0
144
0.0208333333333333
144
0.0
144
0.0
144
0.0
144
0.0
144
1.0
144
0.0
144
0.0
144
0.0
144
0.0
144
1.0
147
0.0208333333333333
147
0.0
147
0.0
147
0.0
147
0.0
147
0.0208333333333333
147
0.0
147
0.0
147
0.0
147
0.0
147
1.0
147
0.0
147
0.0
147
0.0
147
0.0
147
1.0
  0
MATERIAL
  5
21
102
{ACAD_XDICTIONARY
360
22
102
}
102
{ACAD_REACTORS
330
10
102
}
330
10
100
AcDbMaterial
  1
Global
 72
     0
 43
0.0208333333333333
 43
0.0
 43
0.0
 43
0.0
 43
0.0
 43
0.0208333333333333
 43
0.0
 43
0.0
 43
0.0
 43
0.0
 43
1.0
 43
0.0
 43
0.0
 43
0.0
 43
0.0
 43
1.0
 77
     0
 47
0.0208333333333333
 47
0.0
 47
0.0
 47
0.0
 47
0.0
 47
0.0208333333333333
 47
0.0
 47
0.0
 47
0.0
 47
0.0
 47
1.0
 47
0.0
 47
0.0
 47
0.0
 47
0.0
 47
1.0
171
     0
 49
0.0208333333333333
 49
0.0
 49
0.0
 49
0.0
 49
0.0
 49
0.0208333333333333
 49
0.0
 49
0.0
 49
0.0
 49
0.0
 49
1.0
 49
0.0
 49
0.0
 49
0.0
 49
0.0
 49
1.0
175
     0
142
0.0208333333333333
142
0.0
142
0.0
142
0.0
142
0.0
142
0.0208333333333333
142
0.0
142
0.0
142
0.0
142
0.0
142
1.0
142
0.0
142
0.0
142
0.0
142
0.0
142
1.0
179
     0
144
0.0208333333333333
144
0.0
144
0.0
144
0.0
144
0.0
144
0.0208333333333333
144
0.0
144
0.0
144
0.0
144
0.0
144
1.0
144
0.0
144
0.0
144
0.0
144
0.0
144
1.0
147
0.0208333333333333
147
0.0
147
0.0
147
0.0
147
0.0
147
0.0208333333333333
147
0.0
147
0.0
147
0.0
147
0.0
147
1.0
147
0.0
147
0.0
147
0.0
147
0.0
147
1.0
  0
MLEADERSTYLE
  5
67
102
{ACAD_REACTORS
330
66
102
}
330
66
100
AcDbMLeaderStyle
179
     2
170
     2
171
     1
172
     0
 90
        2
 40
0.0
 41
0.0
173
     1
 91
-1056964608
340
5B
 92
       -2
290
     1
 42
0.09
291
     1
 43
0.36
  3
Standard
 44
0.18
300

342
55
174
     1
178
     6
175
     1
176
     0
 93
-1056964608
 45
0.18
292
     0
297
     0
 46
0.18
 94
-1056964608
 47
1.0
 49
1.0
140
1.0
293
     1
141
0.0
294
     1
177
     0
142
1.0
295
     1
296
     0
143
0.125
271
     0
272
     9
273
     9
298
     1
  0
MLINESTYLE
  5
60
102
{ACAD_REACTORS
330
5F
102
}
330
5F
100
AcDbMlineStyle
  2
STANDARD
 70
     0
  3

 62
   256
 51
90.0
 52
90.0
 71
     2
 49
0.5
 62
   256
  6
BYLAYER
 49
-0.5
 62
   256
  6
BYLAYER
  0
ACDBPLACEHOLDER
  5
F
102
{ACAD_REACTORS
330
E
102
}
330
E
  0
SCALE
  5
43
102
{ACAD_REACTORS
330
42
102
}
330
42
100
AcDbScale
 70
     0
300
1:1
140
1.0
141
1.0
290
     1
  0
SCALE
  5
44
102
{ACAD_REACTORS
330
42
102
}
330
42
100
AcDbScale
 70
     0
300
1/128" = 1'-0"
140
0.0078125
141
12.0
290
     0
  0
SCALE
  5
45
102
{ACAD_REACTORS
330
42
102
}
330
42
100
AcDbScale
 70
     0
300
1/64" = 1'-0"
140
0.015625
141
12.0
290
     0
  0
SCALE
  5
46
102
{ACAD_REACTORS
330
42
102
}
330
42
100
AcDbScale
 70
     0
300
1/32" = 1'-0"
140
0.03125
141
12.0
290
     0
  0
SCALE
  5
47
102
{ACAD_REACTORS
330
42
102
}
330
42
100
AcDbScale
 70
     0
300
1/16" = 1'-0"
140
0.0625
141
12.0
290
     0
  0
SCALE
  5
48
102
{ACAD_REACTORS
330
42
102
}
330
42
100
AcDbScale
 70
     0
300
3/32" = 1'-0"
140
0.09375
141
12.0
290
     0
  0
SCALE
  5
49
102
{ACAD_REACTORS
330
42
102
}
330
42
100
AcDbScale
 70
     0
300
1/8" = 1'-0"
140
0.125
141
12.0
290
     0
  0
SCALE
  5
4A
102
{ACAD_REACTORS
330
42
102
}
330
42
100
AcDbScale
 70
     0
300
3/16" = 1'-0"
140
0.1875
141
12.0
290
     0
  0
SCALE
  5
4B
102
{ACAD_REACTORS
330
42
102
}
330
42
100
AcDbScale
 70
     0
300
1/4" = 1'-0"
140
0.25
141
12.0
290
     0
  0
SCALE
  5
4C
102
{ACAD_REACTORS
330
42
102
}
330
42
100
AcDbScale
 70
     0
300
3/8" = 1'-0"
140
0.375
141
12.0
290
     0
  0
SCALE
  5
4D
102
{ACAD_REACTORS
330
42
102
}
330
42
100
AcDbScale
 70
     0
300
1/2" = 1'-0"
140
0.5
141
12.0
290
     0
  0
SCALE
  5
4E
102
{ACAD_REACTORS
330
42
102
}
330
42
100
AcDbScale
 70
     0
300
3/4" = 1'-0"
140
0.75
141
12.0
290
     0
  0
SCALE
  5
4F
102
{ACAD_REACTORS
330
42
102
}
330
42
100
AcDbScale
 70
     0
300
1" = 1'-0"
140
1.0
141
12.0
290
     0
  0
SCALE
  5
50
102
{ACAD_REACTORS
330
42
102
}
330
42
100
AcDbScale
 70
     0
300
1-1/2" = 1'-0"
140
1.5
141
12.0
290
     0
  0
SCALE
  5
51
102
{ACAD_REACTORS
330
42
102
}
330
42
100
AcDbScale
 70
     0
300
3" = 1'-0"
140
3.0
141
12.0
290
     0
  0
SCALE
  5
52
102
{ACAD_REACTORS
330
42
102
}
330
42
100
AcDbScale
 70
     0
300
6" = 1'-0"
140
6.0
141
12.0
290
     0
  0
SCALE
  5
53
102
{ACAD_REACTORS
330
42
102
}
330
42
100
AcDbScale
 70
     0
300
1'-0" = 1'-0"
140
12.0
141
12.0
290
     0
  0
ACDBSECTIONVIEWSTYLE
  5
69
102
{ACAD_REACTORS
330
68
102
}
330
68
100
AcDbModelDocViewStyle
 70
     0
  3
Imperial24
290
     1
300
Imperial24
 90
        0
100
AcDbSectionViewStyle
 70
     0
 71
     0
 90
       78
 71
     1
340
55
 62
   256
 40
0.24
340
0
340
0
 62
   256
 40
0.24
300
I, O, Q, S, X, Z
 40
0.48
 90
        3
 40
0.18
 90
        1
 71
     2
340
5D
 90
       25
 62
   256
340
5D
 90
       50
 62
   256
 40
0.24
 40
0.0
 40
0.24
 71
     3
340
55
 62
   256
 40
0.24
 90
        1
 40
0.75
 90
        1
300
%<\AcVar ViewType \f "%tc1">% %<\AcVar ViewSectionStartId>%-%<\AcVar ViewSectionEndId>%\PSCALE %<\AcVar ViewScale \f "%sn">%
 71
     4
 62
   256
 62
   257
300
ANSI31
 40
1.0
 90
        0
290
     0
290
     0
 90
        6
 40
0.0
 40
1.570796326794896
 40
0.2617993877991494
 40
1.308996938995747
 40
-0.2617993877991494
 40
1.832595714594046
  0
TABLESTYLE
  5
65
102
{ACAD_XDICTIONARY
360
AF
102
}
102
{ACAD_REACTORS
330
64
102
}
330
64
100
AcDbTableStyle
280
     0
  3
Standard
 70
     0
 71
     0
 40
0.06
 41
0.06
280
     0
281
     0
  7
Standard
140
0.18
170
     2
 62
     0
 63
     7
283
     0
 90
      512
 91
        0
  1

274
    -2
284
     1
 64
     0
275
    -2
285
     1
 65
     0
276
    -2
286
     1
 66
     0
277
    -2
287
     1
 67
     0
278
    -2
288
     1
 68
     0
279
    -2
289
     1
 69
     0
  7
Standard
140
0.25
170
     5
 62
     0
 63
     7
283
     0
 90
      512
 91
        0
  1

274
    -2
284
     1
 64
     0
275
    -2
285
     1
 65
     0
276
    -2
286
     1
 66
     0
277
    -2
287
     1
 67
     0
278
    -2
288
     1
 68
     0
279
    -2
289
     1
 69
     0
  7
Standard
140
0.18
170
     5
 62
     0
 63
     7
283
     0
 90
      512
 91
        0
  1

274
    -2
284
     1
 64
     0
275
    -2
285
     1
 65
     0
276
    -2
286
     1
 66
     0
277
    -2
287
     1
 67
     0
278
    -2
288
     1
 68
     0
279
    -2
289
     1
 69
     0
  0
VISUALSTYLE
  5
2F
102
{ACAD_REACTORS
330
29
102
}
330
29
100
AcDbVisualStyle
  2
2dWireframe
 70
     4
177
     3
291
     0
 70
    58
 90
        0
176
     1
 90
        2
176
     1
 90
        0
176
     1
 90
        0
176
     1
 40
0.6
176
     1
 40
30.0
176
     1
 62
     7
420
 16777215
176
     1
 90
        1
176
     1
 90
        4
176
     1
 62
     7
176
     1
 62
   257
176
     1
 90
        1
176
     1
 90
        1
176
     1
 40
1.0
176
     1
 90
        0
176
     1
 62
   257
176
     1
 40
1.0
176
     1
 90
        1
176
     1
 90
        6
176
     1
 90
        2
176
     1
 62
     7
176
     1
 90
        5
176
     1
 90
        0
176
     1
 90
        0
176
     1
290
     0
176
     1
 90
        1
176
     1
 40
0.0
176
     1
 90
        0
176
     1
290
     1
176
     1
290
     1
176
     1
290
     0
176
     1
290
     0
176
     1
290
     0
176
     1
290
     0
176
     1
290
     0
176
     1
290
     0
176
     1
290
     0
176
     1
 90
       50
176
     1
 40
0.0
176
     1
 40
1.0
176
     1
 90
        0
176
     1
 62
    18
420
        0
176
     1
 90
       50
176
     1
 90
        3
176
     1
 62
     5
420
      255
176
     1
290
     0
176
     1
 90
       50
176
     1
 90
       50
176
     1
 90
       50
176
     1
290
     0
176
     1
 90
       50
176
     1
 62
   256
176
     0
 40
1.0
176
     0
 90
        2
176
     1
  1
strokes_ogs.tif
176
     1
290
     0
176
     1
 40
1.0
176
     1
 40
1.0
176
     1
  0
VISUALSTYLE
  5
2E
102
{ACAD_REACTORS
330
29
102
}
330
29
100
AcDbVisualStyle
  2
Basic
 70
     7
177
     3
291
     1
 70
    58
 90
        1
176
     1
 90
        0
176
     1
 90
        1
176
     1
 90
        0
176
     1
 40
0.6
176
     1
 40
30.0
176
     1
 62
     7
420
 16777215
176
     1
 90
        0
176
     1
 90
        4
176
     1
 62
     7
176
     1
 62
   257
176
     1
 90
        1
176
     1
 90
        1
176
     1
 40
1.0
176
     1
 90
        8
176
     1
 62
     7
176
     1
 40
1.0
176
     1
 90
        1
176
     1
 90
        6
176
     1
 90
        2
176
     1
 62
     7
176
     1
 90
        5
176
     1
 90
        0
176
     1
 90
        0
176
     1
290
     0
176
     1
 90
        1
176
     1
 40
0.0
176
     1
 90
        0
176
     1
290
     0
176
     1
290
     1
176
     1
290
     1
176
     1
290
     0
176
     1
290
     0
176
     1
290
     0
176
     1
290
     0
176
     1
290
     0
176
     1
290
     0
176
     1
 90
       50
176
     1
 40
0.0
176
     1
 40
1.0
176
     1
 90
        0
176
     1
 62
    18
420
        0
176
     1
 90
       50
176
     1
 90
        3
176
     1
 62
     5
420
      255
176
     1
290
     0
176
     1
 90
       50
176
     1
 90
       50
176
     1
 90
       50
176
     1
290
     0
176
     1
 90
       50
176
     1
 62
   256
176
     0
 40
1.0
176
     0
 90
        2
176
     1
  1
strokes_ogs.tif
176
     1
290
     0
176
     1
 40
1.0
176
     1
 40
1.0
176
     1
  0
VISUALSTYLE
  5
35
102
{ACAD_REACTORS
330
29
102
}
330
29
100
AcDbVisualStyle
  2
Brighten
 70
    12
177
     3
291
     1
 70
    58
 90
        2
176
     1
 90
        2
176
     1
 90
        0
176
     1
 90
        0
176
     1
 40
0.6
176
     1
 40
30.0
176
     1
 62
     7
420
 16777215
176
     1
 90
        1
176
     1
 90
        4
176
     1
 62
     7
176
     1
 62
   257
176
     1
 90
        1
176
     1
 90
        1
176
     1
 40
1.0
176
     1
 90
        8
176
     1
 62
     7
176
     1
 40
1.0
176
     1
 90
        1
176
     1
 90
        6
176
     1
 90
        2
176
     1
 62
     7
176
     1
 90
        5
176
     1
 90
        0
176
     1
 90
        0
176
     1
290
     0
176
     1
 90
        1
176
     1
 40
50.0
176
     1
 90
        0
176
     1
290
     0
176
     1
290
     1
176
     1
290
     1
176
     1
290
     0
176
     1
290
     0
176
     1
290
     0
176
     1
290
     0
176
     1
290
     0
176
     1
290
     0
176
     1
 90
       50
176
     1
 40
0.0
176
     1
 40
1.0
176
     1
 90
        0
176
     1
 62
    18
420
        0
176
     1
 90
       50
176
     1
 90
        3
176
     1
 62
     5
420
      255
176
     1
290
     0
176
     1
 90
       50
176
     1
 90
       50
176
     1
 90
       50
176
     1
290
     0
176
     1
 90
       50
176
     1
 62
   256
176
     0
 40
1.0
176
     0
 90
        2
176
     1
  1
strokes_ogs.tif
176
     1
290
     0
176
     1
 40
1.0
176
     1
 40
1.0
176
     1
  0
VISUALSTYLE
  5
39
102
{ACAD_REACTORS
330
29
102
}
330
29
100
AcDbVisualStyle
  2
ColorChange
 70
    16
177
     3
291
     1
 70
    58
 90
        2
176
     1
 90
        2
176
     1
 90
        3
176
     1
 90
        0
176
     1
 40
0.6
176
     1
 40
30.0
176
     1
 62
     8
420
  8421504
176
     1
 90
        1
176
     1
 90
        4
176
     1
 62
     7
176
     1
 62
   257
176
     1
 90
        1
176
     1
 90
        1
176
     1
 40
1.0
176
     1
 90
        8
176
     1
 62
     8
420
  8421504
176
     1
 40
1.0
176
     1
 90
        1
176
     1
 90
        6
176
     1
 90
        2
176
     1
 62
     7
176
     1
 90
        5
176
     1
 90
        0
176
     1
 90
        0
176
     1
290
     0
176
     1
 90
        1
176
     1
 40
0.0
176
     1
 90
        0
176
     1
290
     0
176
     1
290
     1
176
     1
290
     1
176
     1
290
     0
176
     1
290
     0
176
     1
290
     0
176
     1
290
     0
176
     1
290
     0
176
     1
290
     0
176
     1
 90
       50
176
     1
 40
0.0
176
     1
 40
1.0
176
     1
 90
        0
176
     1
 62
    18
420
        0
176
     1
 90
       50
176
     1
 90
        3
176
     1
 62
     5
420
      255
176
     1
290
     0
176
     1
 90
       50
176
     1
 90
       50
176
     1
 90
       50
176
     1
290
     0
176
     1
 90
       50
176
     1
 62
   256
176
     0
 40
1.0
176
     0
 90
        2
176
     1
  1
strokes_ogs.tif
176
     1
290
     0
176
     1
 40
1.0
176
     1
 40
1.0
176
     1
  0
VISUALSTYLE
  5
32
102
{ACAD_REACTORS
330
29
102
}
330
29
100
AcDbVisualStyle
  2
Conceptual
 70
     9
177
     3
291
     0
 70
    58
 90
        3
176
     1
 90
        2
176
     1
 90
        0
176
     1
 90
        0
176
     1
 40
0.6
176
     1
 40
30.0
176
     1
 62
     7
420
 16777215
176
     1
 90
        2
176
     1
 90
        2
176
     1
 62
     7
176
     1
 62
   257
176
     1
 90
        1
176
     1
 90
        1
176
     1
 40
179.0
176
     1
 90
        8
176
     1
 62
     7
176
     1
 40
1.0
176
     1
 90
        1
176
     1
 90
        6
176
     1
 90
        2
176
     1
 62
     7
176
     1
 90
        3
176
     1
 90
        0
176
     1
 90
        0
176
     1
290
     0
176
     1
 90
        1
176
     1
 40
0.0
176
     1
 90
        0
176
     1
290
     0
176
     1
290
     1
176
     1
290
     1
176
     1
290
     0
176
     1
290
     0
176
     1
290
     0
176
     1
290
     0
176
     1
290
     0
176
     1
290
     0
176
     1
 90
       50
176
     1
 40
0.0
176
     1
 40
1.0
176
     1
 90
        0
176
     1
 62
    18
420
        0
176
     1
 90
       50
176
     1
 90
        3
176
     1
 62
     5
420
      255
176
     1
290
     0
176
     1
 90
       50
176
     1
 90
       50
176
     1
 90
       50
176
     1
290
     0
176
     1
 90
       50
176
     1
 62
   256
176
     0
 40
1.0
176
     0
 90
        2
176
     1
  1
strokes_ogs.tif
176
     1
290
     0
176
     1
 40
1.0
176
     1
 40
1.0
176
     1
  0
VISUALSTYLE
  5
34
102
{ACAD_REACTORS
330
29
102
}
330
29
100
AcDbVisualStyle
  2
Dim
 70
    11
177
     3
291
     1
 70
    58
 90
        2
176
     1
 90
        2
176
     1
 90
        0
176
     1
 90
        0
176
     1
 40
0.6
176
     1
 40
30.0
176
     1
 62
     7
420
 16777215
176
     1
 90
        1
176
     1
 90
        4
176
     1
 62
     7
176
     1
 62
   257
176
     1
 90
        1
176
     1
 90
        1
176
     1
 40
1.0
176
     1
 90
        8
176
     1
 62
     7
176
     1
 40
1.0
176
     1
 90
        1
176
     1
 90
        6
176
     1
 90
        2
176
     1
 62
     7
176
     1
 90
        5
176
     1
 90
        0
176
     1
 90
        0
176
     1
290
     0
176
     1
 90
        1
176
     1
 40
-50.0
176
     1
 90
        0
176
     1
290
     0
176
     1
290
     1
176
     1
290
     1
176
     1
290
     0
176
     1
290
     0
176
     1
290
     0
176
     1
290
     0
176
     1
290
     0
176
     1
290
     0
176
     1
 90
       50
176
     1
 40
0.0
176
     1
 40
1.0
176
     1
 90
        0
176
     1
 62
    18
420
        0
176
     1
 90
       50
176
     1
 90
        3
176
     1
 62
     5
420
      255
176
     1
290
     0
176
     1
 90
       50
176
     1
 90
       50
176
     1
 90
       50
176
     1
290
     0
176
     1
 90
       50
176
     1
 62
   256
176
     0
 40
1.0
176
     0
 90
        2
176
     1
  1
strokes_ogs.tif
176
     1
290
     0
176
     1
 40
1.0
176
     1
 40
1.0
176
     1
  0
VISUALSTYLE
  5
41
102
{ACAD_REACTORS
330
29
102
}
330
29
100
AcDbVisualStyle
  2
EdgeColorOff
 70
    22
177
     3
291
     1
 70
    58
 90
        2
176
     0
 90
        2
176
     0
 90
        0
176
     0
 90
        0
176
     0
 40
0.6
176
     0
 40
30.0
176
     0
 62
     7
420
 16777215
176
     0
 90
        1
176
     0
 90
        4
176
     0
 62
     7
176
     0
 62
   257
176
     0
 90
        1
176
     0
 90
        1
176
     0
 40
1.0
176
     0
 90
        8
176
     2
 62
     7
176
     0
 40
1.0
176
     0
 90
        1
176
     0
 90
        6
176
     0
 90
        2
176
     0
 62
     7
176
     0
 90
        5
176
     0
 90
        0
176
     0
 90
        0
176
     0
290
     0
176
     0
 90
        1
176
     0
 40
0.0
176
     0
 90
        0
176
     0
290
     0
176
     0
290
     1
176
     0
290
     1
176
     0
290
     0
176
     0
290
     0
176
     0
290
     0
176
     0
290
     0
176
     0
290
     0
176
     0
290
     0
176
     0
 90
       50
176
     0
 40
0.0
176
     0
 40
1.0
176
     0
 90
        0
176
     0
 62
    18
420
        0
176
     0
 90
       50
176
     0
 90
        3
176
     0
 62
     5
420
      255
176
     0
290
     0
176
     0
 90
       50
176
     0
 90
       50
176
     0
 90
       50
176
     0
290
     0
176
     0
 90
       50
176
     0
 62
   256
176
     0
 40
1.0
176
     0
 90
        2
176
     0
  1
strokes_ogs.tif
176
     0
290
     0
176
     0
 40
1.0
176
     0
 40
1.0
176
     0
  0
VISUALSTYLE
  5
38
102
{ACAD_REACTORS
330
29
102
}
330
29
100
AcDbVisualStyle
  2
Facepattern
 70
    15
177
     3
291
     1
 70
    58
 90
        2
176
     1
 90
        2
176
     1
 90
        0
176
     1
 90
        0
176
     1
 40
0.6
176
     1
 40
30.0
176
     1
 62
     7
420
 16777215
176
     1
 90
        1
176
     1
 90
        4
176
     1
 62
     7
176
     1
 62
   257
176
     1
 90
        1
176
     1
 90
        1
176
     1
 40
1.0
176
     1
 90
        8
176
     1
 62
     7
176
     1
 40
1.0
176
     1
 90
        1
176
     1
 90
        6
176
     1
 90
        2
176
     1
 62
     7
176
     1
 90
        5
176
     1
 90
        0
176
     1
 90
        0
176
     1
290
     0
176
     1
 90
        1
176
     1
 40
0.0
176
     1
 90
        0
176
     1
290
     0
176
     1
290
     1
176
     1
290
     1
176
     1
290
     0
176
     1
290
     0
176
     1
290
     0
176
     1
290
     0
176
     1
290
     0
176
     1
290
     0
176
     1
 90
       50
176
     1
 40
0.0
176
     1
 40
1.0
176
     1
 90
        0
176
     1
 62
    18
420
        0
176
     1
 90
       50
176
     1
 90
        3
176
     1
 62
     5
420
      255
176
     1
290
     0
176
     1
 90
       50
176
     1
 90
       50
176
     1
 90
       50
176
     1
290
     0
176
     1
 90
       50
176
     1
 62
   256
176
     0
 40
1.0
176
     0
 90
        2
176
     1
  1
strokes_ogs.tif
176
     1
290
     0
176
     1
 40
1.0
176
     1
 40
1.0
176
     1
  0
VISUALSTYLE
  5
2A
102
{ACAD_REACTORS
330
29
102
}
330
29
100
AcDbVisualStyle
  2
Flat
 70
     0
177
     3
291
     1
 70
    58
 90
        2
176
     1
 90
        1
176
     1
 90
        1
176
     1
 90
        2
176
     1
 40
0.6
176
     1
 40
30.0
176
     1
 62
     7
420
 16777215
176
     1
 90
        0
176
     1
 90
        0
176
     1
 62
     7
176
     1
 62
   257
176
     1
 90
        1
176
     1
 90
        1
176
     1
 40
1.0
176
     1
 90
        8
176
     1
 62
     7
176
     1
 40
1.0
176
     1
 90
        1
176
     1
 90
        6
176
     1
 90
        2
176
     1
 62
     7
176
     1
 90
        5
176
     1
 90
        0
176
     1
 90
        0
176
     1
290
     0
176
     1
 90
       13
176
     1
 40
0.0
176
     1
 90
        0
176
     1
290
     0
176
     1
290
     1
176
     1
290
     1
176
     1
290
     0
176
     1
290
     0
176
     1
290
     0
176
     1
290
     0
176
     1
290
     0
176
     1
290
     0
176
     1
 90
       50
176
     1
 40
0.0
176
     1
 40
1.0
176
     1
 90
        0
176
     1
 62
    18
420
        0
176
     1
 90
       50
176
     1
 90
        3
176
     1
 62
     5
420
      255
176
     1
290
     0
176
     1
 90
       50
176
     1
 90
       50
176
     1
 90
       50
176
     1
290
     0
176
     1
 90
       50
176
     1
 62
   256
176
     0
 40
1.0
176
     0
 90
        2
176
     1
  1
strokes_ogs.tif
176
     1
290
     0
176
     1
 40
1.0
176
     1
 40
1.0
176
     1
  0
VISUALSTYLE
  5
2B
102
{ACAD_REACTORS
330
29
102
}
330
29
100
AcDbVisualStyle
  2
FlatWithEdges
 70
     1
177
     3
291
     1
 70
    58
 90
        2
176
     1
 90
        1
176
     1
 90
        1
176
     1
 90
        2
176
     1
 40
0.6
176
     1
 40
30.0
176
     1
 62
     7
420
 16777215
176
     1
 90
        1
176
     1
 90
        0
176
     1
 62
     7
176
     1
 62
   257
176
     1
 90
        1
176
     1
 90
        1
176
     1
 40
1.0
176
     1
 90
        0
176
     1
 62
   257
176
     1
 40
1.0
176
     1
 90
        1
176
     1
 90
        6
176
     1
 90
        2
176
     1
 62
     7
176
     1
 90
        5
176
     1
 90
        0
176
     1
 90
        0
176
     1
290
     0
176
     1
 90
       13
176
     1
 40
0.0
176
     1
 90
        0
176
     1
290
     0
176
     1
290
     1
176
     1
290
     1
176
     1
290
     0
176
     1
290
     0
176
     1
290
     0
176
     1
290
     0
176
     1
290
     0
176
     1
290
     0
176
     1
 90
       50
176
     1
 40
0.0
176
     1
 40
1.0
176
     1
 90
        0
176
     1
 62
    18
420
        0
176
     1
 90
       50
176
     1
 90
        3
176
     1
 62
     5
420
      255
176
     1
290
     0
176
     1
 90
       50
176
     1
 90
       50
176
     1
 90
       50
176
     1
290
     0
176
     1
 90
       50
176
     1
 62
   256
176
     0
 40
1.0
176
     0
 90
        2
176
     1
  1
strokes_ogs.tif
176
     1
290
     0
176
     1
 40
1.0
176
     1
 40
1.0
176
     1
  0
VISUALSTYLE
  5
2C
102
{ACAD_REACTORS
330
29
102
}
330
29
100
AcDbVisualStyle
  2
Gouraud
 70
     2
177
     3
291
     1
 70
    58
 90
        2
176
     1
 90
        2
176
     1
 90
        1
176
     1
 90
        2
176
     1
 40
0.6
176
     1
 40
30.0
176
     1
 62
     7
420
 16777215
176
     1
 90
        0
176
     1
 90
        0
176
     1
 62
     7
176
     1
 62
   257
176
     1
 90
        1
176
     1
 90
        1
176
     1
 40
1.0
176
     1
 90
        0
176
     1
 62
     7
176
     1
 40
1.0
176
     1
 90
        1
176
     1
 90
        6
176
     1
 90
        2
176
     1
 62
     7
176
     1
 90
        5
176
     1
 90
        0
176
     1
 90
        0
176
     1
290
     0
176
     1
 90
       13
176
     1
 40
0.0
176
     1
 90
        0
176
     1
290
     0
176
     1
290
     1
176
     1
290
     1
176
     1
290
     0
176
     1
290
     0
176
     1
290
     0
176
     1
290
     0
176
     1
290
     0
176
     1
290
     0
176
     1
 90
       50
176
     1
 40
0.0
176
     1
 40
1.0
176
     1
 90
        0
176
     1
 62
    18
420
        0
176
     1
 90
       50
176
     1
 90
        3
176
     1
 62
     5
420
      255
176
     1
290
     0
176
     1
 90
       50
176
     1
 90
       50
176
     1
 90
       50
176
     1
290
     0
176
     1
 90
       50
176
     1
 62
   256
176
     0
 40
1.0
176
     0
 90
        2
176
     1
  1
strokes_ogs.tif
176
     1
290
     0
176
     1
 40
1.0
176
     1
 40
1.0
176
     1
  0
VISUALSTYLE
  5
2D
102
{ACAD_REACTORS
330
29
102
}
330
29
100
AcDbVisualStyle
  2
GouraudWithEdges
 70
     3
177
     3
291
     1
 70
    58
 90
        2
176
     1
 90
        2
176
     1
 90
        1
176
     1
 90
        2
176
     1
 40
0.6
176
     1
 40
30.0
176
     1
 62
     7
420
 16777215
176
     1
 90
        1
176
     1
 90
        0
176
     1
 62
     7
176
     1
 62
   257
176
     1
 90
        1
176
     1
 90
        1
176
     1
 40
1.0
176
     1
 90
        0
176
     1
 62
   257
176
     1
 40
1.0
176
     1
 90
        1
176
     1
 90
        6
176
     1
 90
        2
176
     1
 62
     7
176
     1
 90
        5
176
     1
 90
        0
176
     1
 90
        0
176
     1
290
     0
176
     1
 90
       13
176
     1
 40
0.0
176
     1
 90
        0
176
     1
290
     0
176
     1
290
     1
176
     1
290
     1
176
     1
290
     0
176
     1
290
     0
176
     1
290
     0
176
     1
290
     0
176
     1
290
     0
176
     1
290
     0
176
     1
 90
       50
176
     1
 40
0.0
176
     1
 40
1.0
176
     1
 90
        0
176
     1
 62
    18
420
        0
176
     1
 90
       50
176
     1
 90
        3
176
     1
 62
     5
420
      255
176
     1
290
     0
176
     1
 90
       50
176
     1
 90
       50
176
     1
 90
       50
176
     1
290
     0
176
     1
 90
       50
176
     1
 62
   256
176
     0
 40
1.0
176
     0
 90
        2
176
     1
  1
strokes_ogs.tif
176
     1
290
     0
176
     1
 40
1.0
176
     1
 40
1.0
176
     1
  0
VISUALSTYLE
  5
31
102
{ACAD_REACTORS
330
29
102
}
330
29
100
AcDbVisualStyle
  2
Hidden
 70
     6
177
     3
291
     0
 70
    58
 90
        1
176
     1
 90
        2
176
     1
 90
        2
176
     1
 90
        0
176
     1
 40
0.6
176
     1
 40
30.0
176
     1
 62
     7
420
 16777215
176
     1
 90
        2
176
     1
 90
        2
176
     1
 62
     7
176
     1
 62
   257
176
     1
 90
        2
176
     1
 90
        1
176
     1
 40
40.0
176
     1
 90
        0
176
     1
 62
   257
176
     1
 40
1.0
176
     1
 90
        1
176
     1
 90
        6
176
     1
 90
        2
176
     1
 62
     7
176
     1
 90
        3
176
     1
 90
        0
176
     1
 90
        0
176
     1
290
     0
176
     1
 90
        1
176
     1
 40
0.0
176
     1
 90
        0
176
     1
290
     0
176
     1
290
     1
176
     1
290
     1
176
     1
290
     0
176
     1
290
     0
176
     1
290
     0
176
     1
290
     0
176
     1
290
     0
176
     1
290
     0
176
     1
 90
       50
176
     1
 40
0.0
176
     1
 40
1.0
176
     1
 90
        0
176
     1
 62
    18
420
        0
176
     1
 90
       50
176
     1
 90
        3
176
     1
 62
     5
420
      255
176
     1
290
     0
176
     1
 90
       50
176
     1
 90
       50
176
     1
 90
       50
176
     1
290
     0
176
     1
 90
       50
176
     1
 62
   256
176
     0
 40
1.0
176
     0
 90
        2
176
     1
  1
strokes_ogs.tif
176
     1
290
     0
176
     1
 40
1.0
176
     1
 40
1.0
176
     1
  0
VISUALSTYLE
  5
3F
102
{ACAD_REACTORS
330
29
102
}
330
29
100
AcDbVisualStyle
  2
JitterOff
 70
    20
177
     3
291
     1
 70
    58
 90
        2
176
     0
 90
        2
176
     0
 90
        0
176
     0
 90
        0
176
     0
 40
0.6
176
     0
 40
30.0
176
     0
 62
     7
420
 16777215
176
     0
 90
        1
176
     0
 90
        4
176
     0
 62
     7
176
     0
 62
   257
176
     0
 90
        1
176
     0
 90
        1
176
     0
 40
1.0
176
     0
 90
       10
176
     2
 62
     7
176
     0
 40
1.0
176
     0
 90
        1
176
     0
 90
        6
176
     0
 90
        2
176
     0
 62
     7
176
     0
 90
        5
176
     0
 90
        0
176
     0
 90
        0
176
     0
290
     0
176
     0
 90
        1
176
     0
 40
0.0
176
     0
 90
        0
176
     0
290
     0
176
     0
290
     1
176
     0
290
     1
176
     0
290
     0
176
     0
290
     0
176
     0
290
     0
176
     0
290
     0
176
     0
290
     0
176
     0
290
     0
176
     0
 90
       50
176
     0
 40
0.0
176
     0
 40
1.0
176
     0
 90
        0
176
     0
 62
    18
420
        0
176
     0
 90
       50
176
     0
 90
        3
176
     0
 62
     5
420
      255
176
     0
290
     0
176
     0
 90
       50
176
     0
 90
       50
176
     0
 90
       50
176
     0
290
     0
176
     0
 90
       50
176
     0
 62
   256
176
     0
 40
1.0
176
     0
 90
        2
176
     0
  1
strokes_ogs.tif
176
     0
290
     0
176
     0
 40
1.0
176
     0
 40
1.0
176
     0
  0
VISUALSTYLE
  5
37
102
{ACAD_REACTORS
330
29
102
}
330
29
100
AcDbVisualStyle
  2
Linepattern
 70
    14
177
     3
291
     1
 70
    58
 90
        2
176
     1
 90
        2
176
     1
 90
        0
176
     1
 90
        0
176
     1
 40
0.6
176
     1
 40
30.0
176
     1
 62
     7
420
 16777215
176
     1
 90
        1
176
     1
 90
        4
176
     1
 62
     7
176
     1
 62
   257
176
     1
 90
        7
176
     1
 90
        7
176
     1
 40
1.0
176
     1
 90
        8
176
     1
 62
     7
176
     1
 40
1.0
176
     1
 90
        1
176
     1
 90
        6
176
     1
 90
        2
176
     1
 62
     7
176
     1
 90
        5
176
     1
 90
        0
176
     1
 90
        0
176
     1
290
     0
176
     1
 90
        1
176
     1
 40
0.0
176
     1
 90
        0
176
     1
290
     0
176
     1
290
     1
176
     1
290
     1
176
     1
290
     0
176
     1
290
     0
176
     1
290
     0
176
     1
290
     0
176
     1
290
     0
176
     1
290
     0
176
     1
 90
       50
176
     1
 40
0.0
176
     1
 40
1.0
176
     1
 90
        0
176
     1
 62
    18
420
        0
176
     1
 90
       50
176
     1
 90
        3
176
     1
 62
     5
420
      255
176
     1
290
     0
176
     1
 90
       50
176
     1
 90
       50
176
     1
 90
       50
176
     1
290
     0
176
     1
 90
       50
176
     1
 62
   256
176
     0
 40
1.0
176
     0
 90
        2
176
     1
  1
strokes_ogs.tif
176
     1
290
     0
176
     1
 40
1.0
176
     1
 40
1.0
176
     1
  0
VISUALSTYLE
  5
40
102
{ACAD_REACTORS
330
29
102
}
330
29
100
AcDbVisualStyle
  2
OverhangOff
 70
    21
177
     3
291
     1
 70
    58
 90
        2
176
     0
 90
        2
176
     0
 90
        0
176
     0
 90
        0
176
     0
 40
0.6
176
     0
 40
30.0
176
     0
 62
     7
420
 16777215
176
     0
 90
        1
176
     0
 90
        4
176
     0
 62
     7
176
     0
 62
   257
176
     0
 90
        1
176
     0
 90
        1
176
     0
 40
1.0
176
     0
 90
        9
176
     2
 62
     7
176
     0
 40
1.0
176
     0
 90
        1
176
     0
 90
        6
176
     0
 90
        2
176
     0
 62
     7
176
     0
 90
        5
176
     0
 90
        0
176
     0
 90
        0
176
     0
290
     0
176
     0
 90
        1
176
     0
 40
0.0
176
     0
 90
        0
176
     0
290
     0
176
     0
290
     1
176
     0
290
     1
176
     0
290
     0
176
     0
290
     0
176
     0
290
     0
176
     0
290
     0
176
     0
290
     0
176
     0
290
     0
176
     0
 90
       50
176
     0
 40
0.0
176
     0
 40
1.0
176
     0
 90
        0
176
     0
 62
    18
420
        0
176
     0
 90
       50
176
     0
 90
        3
176
     0
 62
     5
420
      255
176
     0
290
     0
176
     0
 90
       50
176
     0
 90
       50
176
     0
 90
       50
176
     0
290
     0
176
     0
 90
       50
176
     0
 62
   256
176
     0
 40
1.0
176
     0
 90
        2
176
     0
  1
strokes_ogs.tif
176
     0
290
     0
176
     0
 40
1.0
176
     0
 40
1.0
176
     0
  0
VISUALSTYLE
  5
33
102
{ACAD_REACTORS
330
29
102
}
330
29
100
AcDbVisualStyle
  2
Realistic
 70
     8
177
     3
291
     0
 70
    58
 90
        2
176
     1
 90
        3
176
     1
 90
        0
176
     1
 90
        2
176
     1
 40
0.6
176
     1
 40
30.0
176
     1
 62
     7
420
 16777215
176
     1
 90
        0
176
     1
 90
        0
176
     1
 62
     7
176
     1
 62
   257
176
     1
 90
        1
176
     1
 90
        1
176
     1
 40
1.0
176
     1
 90
        8
176
     1
 62
   257
176
     1
 40
1.0
176
     1
 90
        1
176
     1
 90
        6
176
     1
 90
        2
176
     1
 62
     7
176
     1
 90
        3
176
     1
 90
        0
176
     1
 90
        0
176
     1
290
     0
176
     1
 90
       13
176
     1
 40
0.0
176
     1
 90
        0
176
     1
290
     0
176
     1
290
     1
176
     1
290
     1
176
     1
290
     0
176
     1
290
     0
176
     1
290
     0
176
     1
290
     0
176
     1
290
     0
176
     1
290
     0
176
     1
 90
       50
176
     1
 40
0.0
176
     1
 40
1.0
176
     1
 90
        0
176
     1
 62
    18
420
        0
176
     1
 90
       50
176
     1
 90
        3
176
     1
 62
     5
420
      255
176
     1
290
     0
176
     1
 90
       50
176
     1
 90
       50
176
     1
 90
       50
176
     1
290
     0
176
     1
 90
       50
176
     1
 62
   256
176
     0
 40
1.0
176
     0
 90
        2
176
     1
  1
strokes_ogs.tif
176
     1
290
     0
176
     1
 40
1.0
176
     1
 40
1.0
176
     1
  0
VISUALSTYLE
  5
3E
102
{ACAD_REACTORS
330
29
102
}
330
29
100
AcDbVisualStyle
  2
Shaded
 70
    27
177
     3
291
     0
 70
    58
 90
        2
176
     1
 90
        2
176
     1
 90
        1
176
     1
 90
        2
176
     1
 40
0.6
176
     1
 40
30.0
176
     1
 62
     7
420
 16777215
176
     1
 90
        0
176
     1
 90
        4
176
     1
 62
     7
176
     1
 62
   257
176
     1
 90
        1
176
     1
 90
        1
176
     1
 40
1.0
176
     1
 90
        8
176
     1
 62
   257
176
     1
 40
1.0
176
     1
 90
        1
176
     1
 90
        6
176
     1
 90
        2
176
     1
 62
     8
420
  7895160
176
     1
 90
        3
176
     1
 90
        0
176
     1
 90
        0
176
     1
290
     0
176
     1
 90
        5
176
     1
 40
0.0
176
     1
 90
        0
176
     1
290
     0
176
     1
290
     1
176
     1
290
     1
176
     1
290
     0
176
     1
290
     0
176
     1
290
     0
176
     1
290
     0
176
     1
290
     0
176
     1
290
     0
176
     1
 90
       50
176
     1
 40
0.0
176
     1
 40
1.0
176
     1
 90
        0
176
     1
 62
    18
420
        0
176
     1
 90
       50
176
     1
 90
        3
176
     1
 62
     5
420
      255
176
     1
290
     0
176
     1
 90
       50
176
     1
 90
       50
176
     1
 90
       50
176
     1
290
     0
176
     1
 90
       50
176
     1
 62
   256
176
     0
 40
1.0
176
     0
 90
        2
176
     1
  1
strokes_ogs.tif
176
     1
290
     0
176
     1
 40
1.0
176
     1
 40
1.0
176
     1
  0
VISUALSTYLE
  5
3D
102
{ACAD_REACTORS
330
29
102
}
330
29
100
AcDbVisualStyle
  2
Shaded with edges
 70
    26
177
     3
291
     0
 70
    58
 90
        2
176
     1
 90
        2
176
     1
 90
        1
176
     1
 90
        2
176
     1
 40
0.6
176
     1
 40
30.0
176
     1
 62
     7
420
 16777215
176
     1
 90
        1
176
     1
 90
        2
176
     1
 62
     7
176
     1
 62
   257
176
     1
 90
        2
176
     1
 90
        1
176
     1
 40
1.0
176
     1
 90
        8
176
     1
 62
   257
176
     1
 40
1.0
176
     1
 90
        1
176
     1
 90
        6
176
     1
 90
        2
176
     1
 62
     7
176
     1
 90
        3
176
     1
 90
        0
176
     1
 90
        0
176
     1
290
     0
176
     1
 90
        5
176
     1
 40
0.0
176
     1
 90
        0
176
     1
290
     0
176
     1
290
     1
176
     1
290
     1
176
     1
290
     0
176
     1
290
     0
176
     1
290
     0
176
     1
290
     0
176
     1
290
     0
176
     1
290
     0
176
     1
 90
       50
176
     1
 40
0.0
176
     1
 40
1.0
176
     1
 90
        0
176
     1
 62
    18
420
        0
176
     1
 90
       50
176
     1
 90
        3
176
     1
 62
     5
420
      255
176
     1
290
     0
176
     1
 90
       50
176
     1
 90
       50
176
     1
 90
       50
176
     1
290
     0
176
     1
 90
       50
176
     1
 62
   256
176
     0
 40
1.0
176
     0
 90
        2
176
     1
  1
strokes_ogs.tif
176
     1
290
     0
176
     1
 40
1.0
176
     1
 40
1.0
176
     1
  0
VISUALSTYLE
  5
3A
102
{ACAD_REACTORS
330
29
102
}
330
29
100
AcDbVisualStyle
  2
Shades of Gray
 70
    23
177
     3
291
     0
 70
    58
 90
        2
176
     1
 90
        2
176
     1
 90
        3
176
     1
 90
        0
176
     1
 40
0.6
176
     1
 40
30.0
176
     1
 62
     7
420
 16777215
176
     1
 90
        2
176
     1
 90
        2
176
     1
 62
     7
176
     1
 62
     7
176
     1
 90
        1
176
     1
 90
        1
176
     1
 40
40.0
176
     1
 90
        8
176
     1
 62
     7
176
     1
 40
1.0
176
     1
 90
        1
176
     1
 90
        6
176
     1
 90
        2
176
     1
 62
     7
176
     1
 90
        3
176
     1
 90
        0
176
     1
 90
        0
176
     1
290
     0
176
     1
 90
        1
176
     1
 40
0.0
176
     1
 90
        0
176
     1
290
     0
176
     1
290
     1
176
     1
290
     1
176
     1
290
     0
176
     1
290
     0
176
     1
290
     0
176
     1
290
     0
176
     1
290
     0
176
     1
290
     0
176
     1
 90
       50
176
     1
 40
0.0
176
     1
 40
1.0
176
     1
 90
        0
176
     1
 62
    18
420
        0
176
     1
 90
       50
176
     1
 90
        3
176
     1
 62
     5
420
      255
176
     1
290
     0
176
     1
 90
       50
176
     1
 90
       50
176
     1
 90
       50
176
     1
290
     0
176
     1
 90
       50
176
     1
 62
   256
176
     0
 40
1.0
176
     0
 90
        2
176
     1
  1
strokes_ogs.tif
176
     1
290
     0
176
     1
 40
1.0
176
     1
 40
1.0
176
     1
  0
VISUALSTYLE
  5
3B
102
{ACAD_REACTORS
330
29
102
}
330
29
100
AcDbVisualStyle
  2
Sketchy
 70
    24
177
     3
291
     0
 70
    58
 90
        1
176
     1
 90
        2
176
     1
 90
        2
176
     1
 90
        0
176
     1
 40
0.6
176
     1
 40
30.0
176
     1
 62
     7
420
 16777215
176
     1
 90
        2
176
     1
 90
        2
176
     1
 62
     7
176
     1
 62
     7
176
     1
 90
        1
176
     1
 90
        1
176
     1
 40
40.0
176
     1
 90
       11
176
     1
 62
     7
176
     1
 40
1.0
176
     1
 90
        1
176
     1
 90
        6
176
     1
 90
        2
176
     1
 62
     7
176
     1
 90
        6
176
     1
 90
        0
176
     1
 90
        0
176
     1
290
     0
176
     1
 90
        1
176
     1
 40
0.0
176
     1
 90
        0
176
     1
290
     0
176
     1
290
     1
176
     1
290
     1
176
     1
290
     0
176
     1
290
     0
176
     1
290
     0
176
     1
290
     0
176
     1
290
     0
176
     1
290
     0
176
     1
 90
       50
176
     1
 40
0.0
176
     1
 40
1.0
176
     1
 90
        0
176
     1
 62
    18
420
        0
176
     1
 90
       50
176
     1
 90
        3
176
     1
 62
     5
420
      255
176
     1
290
     0
176
     1
 90
       50
176
     1
 90
       50
176
     1
 90
       50
176
     1
290
     0
176
     1
 90
       50
176
     1
 62
   256
176
     0
 40
1.0
176
     0
 90
        2
176
     1
  1
strokes_ogs.tif
176
     1
290
     0
176
     1
 40
1.0
176
     1
 40
1.0
176
     1
  0
VISUALSTYLE
  5
36
102
{ACAD_REACTORS
330
29
102
}
330
29
100
AcDbVisualStyle
  2
Thicken
 70
    13
177
     3
291
     1
 70
    58
 90
        2
176
     1
 90
        2
176
     1
 90
        0
176
     1
 90
        0
176
     1
 40
0.6
176
     1
 40
30.0
176
     1
 62
     7
420
 16777215
176
     1
 90
        1
176
     1
 90
        4
176
     1
 62
     7
176
     1
 62
   257
176
     1
 90
        1
176
     1
 90
        1
176
     1
 40
1.0
176
     1
 90
       12
176
     1
 62
     7
176
     1
 40
1.0
176
     1
 90
        1
176
     1
 90
        6
176
     1
 90
        2
176
     1
 62
     7
176
     1
 90
        5
176
     1
 90
        0
176
     1
 90
        0
176
     1
290
     0
176
     1
 90
        1
176
     1
 40
0.0
176
     1
 90
        0
176
     1
290
     0
176
     1
290
     1
176
     1
290
     1
176
     1
290
     0
176
     1
290
     0
176
     1
290
     0
176
     1
290
     0
176
     1
290
     0
176
     1
290
     0
176
     1
 90
       50
176
     1
 40
0.0
176
     1
 40
1.0
176
     1
 90
        0
176
     1
 62
    18
420
        0
176
     1
 90
       50
176
     1
 90
        3
176
     1
 62
     5
420
      255
176
     1
290
     0
176
     1
 90
       50
176
     1
 90
       50
176
     1
 90
       50
176
     1
290
     0
176
     1
 90
       50
176
     1
 62
   256
176
     0
 40
1.0
176
     0
 90
        2
176
     1
  1
strokes_ogs.tif
176
     1
290
     0
176
     1
 40
1.0
176
     1
 40
1.0
176
     1
  0
VISUALSTYLE
  5
30
102
{ACAD_REACTORS
330
29
102
}
330
29
100
AcDbVisualStyle
  2
Wireframe
 70
     5
177
     3
291
     0
 70
    58
 90
        0
176
     1
 90
        2
176
     1
 90
        0
176
     1
 90
        0
176
     1
 40
0.6
176
     1
 40
30.0
176
     1
 62
     7
420
 16777215
176
     1
 90
        1
176
     1
 90
        4
176
     1
 62
     7
176
     1
 62
   257
176
     1
 90
        1
176
     1
 90
        1
176
     1
 40
1.0
176
     1
 90
        0
176
     1
 62
   257
176
     1
 40
1.0
176
     1
 90
        1
176
     1
 90
        6
176
     1
 90
        2
176
     1
 62
     7
176
     1
 90
        3
176
     1
 90
        0
176
     1
 90
        0
176
     1
290
     0
176
     1
 90
        1
176
     1
 40
0.0
176
     1
 90
        0
176
     1
290
     0
176
     1
290
     1
176
     1
290
     1
176
     1
290
     0
176
     1
290
     0
176
     1
290
     0
176
     1
290
     0
176
     1
290
     0
176
     1
290
     0
176
     1
 90
       50
176
     1
 40
0.0
176
     1
 40
1.0
176
     1
 90
        0
176
     1
 62
    18
420
        0
176
     1
 90
       50
176
     1
 90
        3
176
     1
 62
     5
420
      255
176
     1
290
     0
176
     1
 90
       50
176
     1
 90
       50
176
     1
 90
       50
176
     1
290
     0
176
     1
 90
       50
176
     1
 62
   256
176
     0
 40
1.0
176
     0
 90
        2
176
     1
  1
strokes_ogs.tif
176
     1
290
     0
176
     1
 40
1.0
176
     1
 40
1.0
176
     1
  0
VISUALSTYLE
  5
3C
102
{ACAD_REACTORS
330
29
102
}
330
29
100
AcDbVisualStyle
  2
X-Ray
 70
    25
177
     3
291
     0
 70
    58
 90
        2
176
     1
 90
        2
176
     1
 90
        1
176
     1
 90
        1
176
     1
 40
0.5
176
     1
 40
30.0
176
     1
 62
     7
420
 16777215
176
     1
 90
        1
176
     1
 90
        0
176
     1
 62
     7
176
     1
 62
   257
176
     1
 90
        1
176
     1
 90
        1
176
     1
 40
1.0
176
     1
 90
        8
176
     1
 62
     7
176
     1
 40
1.0
176
     1
 90
        1
176
     1
 90
        6
176
     1
 90
        2
176
     1
 62
     7
176
     1
 90
        3
176
     1
 90
        0
176
     1
 90
        0
176
     1
290
     0
176
     1
 90
       13
176
     1
 40
0.0
176
     1
 90
        0
176
     1
290
     0
176
     1
290
     1
176
     1
290
     1
176
     1
290
     0
176
     1
290
     0
176
     1
290
     0
176
     1
290
     0
176
     1
290
     0
176
     1
290
     0
176
     1
 90
       50
176
     1
 40
0.0
176
     1
 40
1.0
176
     1
 90
        0
176
     1
 62
    18
420
        0
176
     1
 90
       50
176
     1
 90
        3
176
     1
 62
     5
420
      255
176
     1
290
     0
176
     1
 90
       50
176
     1
 90
       50
176
     1
 90
       50
176
     1
290
     0
176
     1
 90
       50
176
     1
 62
   256
176
     0
 40
1.0
176
     0
 90
        2
176
     1
  1
strokes_ogs.tif
176
     1
290
     0
176
     1
 40
1.0
176
     1
 40
1.0
176
     1
  0
DICTIONARYVAR
  5
AE
102
{ACAD_REACTORS
330
A9
102
}
330
A9
100
DictionaryVariables
280
     0
  1
1:1
  0
DICTIONARYVAR
  5
AB
102
{ACAD_REACTORS
330
A9
102
}
330
A9
100
DictionaryVariables
280
     0
  1
STANDARD
  0
DICTIONARYVAR
  5
AA
102
{ACAD_REACTORS
330
A9
102
}
330
A9
100
DictionaryVariables
280
     0
  1
STANDARD
  0
DICTIONARYVAR
  5
AC
102
{ACAD_REACTORS
330
A9
102
}
330
A9
100
DictionaryVariables
280
     0
  1
Imperial24
  0
DICTIONARYVAR
  5
AD
102
{ACAD_REACTORS
330
A9
102
}
330
A9
100
DictionaryVariables
280
     0
  1
Imperial24
  0
DICTIONARY
  5
1A
330
19
100
AcDbDictionary
280
     1
281
     1
  3
BUMPTILE
360
1C
  3
DIFFUSETILE
360
1B
  3
OPACITYTILE
360
1F
  3
REFLECTIONTILE
360
1E
  3
REFRACTIONTILE
360
20
  3
SPECULARTILE
360
1D
  0
DICTIONARY
  5
12
330
11
100
AcDbDictionary
280
     1
281
     1
  3
BUMPTILE
360
14
  3
DIFFUSETILE
360
13
  3
OPACITYTILE
360
17
  3
REFLECTIONTILE
360
16
  3
REFRACTIONTILE
360
18
  3
SPECULARTILE
360
15
  0
DICTIONARY
  5
22
330
21
100
AcDbDictionary
280
     1
281
     1
  3
BUMPTILE
360
24
  3
DIFFUSETILE
360
23
  3
OPACITYTILE
360
27
  3
REFLECTIONTILE
360
26
  3
REFRACTIONTILE
360
28
  3
SPECULARTILE
360
25
  0
DICTIONARY
  5
AF
330
65
100
AcDbDictionary
280
     1
281
     1
  3
ACAD_ROUNDTRIP_2008_TABLESTYLE_CELLSTYLEMAP
360
B0
  0
XRECORD
  5
1C
102
{ACAD_REACTORS
330
1A
102
}
330
1A
100
AcDbXrecord
280
     1
270
     1
271
     1
  0
XRECORD
  5
1B
102
{ACAD_REACTORS
330
1A
102
}
330
1A
100
AcDbXrecord
280
     1
270
     1
271
     1
  0
XRECORD
  5
1F
102
{ACAD_REACTORS
330
1A
102
}
330
1A
100
AcDbXrecord
280
     1
270
     1
271
     1
  0
XRECORD
  5
1E
102
{ACAD_REACTORS
330
1A
102
}
330
1A
100
AcDbXrecord
280
     1
270
     1
271
     1
  0
XRECORD
  5
20
102
{ACAD_REACTORS
330
1A
102
}
330
1A
100
AcDbXrecord
280
     1
270
     1
271
     1
  0
XRECORD
  5
1D
102
{ACAD_REACTORS
330
1A
102
}
330
1A
100
AcDbXrecord
280
     1
270
     1
271
     1
  0
XRECORD
  5
14
102
{ACAD_REACTORS
330
12
102
}
330
12
100
AcDbXrecord
280
     1
270
     1
271
     1
  0
XRECORD
  5
13
102
{ACAD_REACTORS
330
12
102
}
330
12
100
AcDbXrecord
280
     1
270
     1
271
     1
  0
XRECORD
  5
17
102
{ACAD_REACTORS
330
12
102
}
330
12
100
AcDbXrecord
280
     1
270
     1
271
     1
  0
XRECORD
  5
16
102
{ACAD_REACTORS
330
12
102
}
330
12
100
AcDbXrecord
280
     1
270
     1
271
     1
  0
XRECORD
  5
18
102
{ACAD_REACTORS
330
12
102
}
330
12
100
AcDbXrecord
280
     1
270
     1
271
     1
  0
XRECORD
  5
15
102
{ACAD_REACTORS
330
12
102
}
330
12
100
AcDbXrecord
280
     1
270
     1
271
     1
  0
XRECORD
  5
24
102
{ACAD_REACTORS
330
22
102
}
330
22
100
AcDbXrecord
280
     1
270
     1
271
     1
  0
XRECORD
  5
23
102
{ACAD_REACTORS
330
22
102
}
330
22
100
AcDbXrecord
280
     1
270
     1
271
     1
  0
XRECORD
  5
27
102
{ACAD_REACTORS
330
22
102
}
330
22
100
AcDbXrecord
280
     1
270
     1
271
     1
  0
XRECORD
  5
26
102
{ACAD_REACTORS
330
22
102
}
330
22
100
AcDbXrecord
280
     1
270
     1
271
     1
  0
XRECORD
  5
28
102
{ACAD_REACTORS
330
22
102
}
330
22
100
AcDbXrecord
280
     1
270
     1
271
     1
  0
XRECORD
  5
25
102
{ACAD_REACTORS
330
22
102
}
330
22
100
AcDbXrecord
280
     1
270
     1
271
     1
  0
CELLSTYLEMAP
  5
B0
102
{ACAD_REACTORS
330
AF
102
}
330
AF
100
AcDbCellStyleMap
 90
        3
300
CELLSTYLE
  1
TABLEFORMAT_BEGIN
 90
        5
170
     1
 91
        0
 92
    32768
 62
   257
 93
        1
300
CONTENTFORMAT
  1
CONTENTFORMAT_BEGIN
 90
        0
 91
        0
 92
      512
 93
        0
300

 40
0.0
140
1.0
 94
        5
 62
     0
340
55
144
0.25
309
CONTENTFORMAT_END
171
     0
 94
        0
309
TABLEFORMAT_END
  1
CELLSTYLE_BEGIN
 90
        1
 91
        1
300
_TITLE
309
CELLSTYLE_END
300
CELLSTYLE
  1
TABLEFORMAT_BEGIN
 90
        5
170
     1
 91
        0
 92
        0
 62
   257
 93
        1
300
CONTENTFORMAT
  1
CONTENTFORMAT_BEGIN
 90
        0
 91
        0
 92
      512
 93
        0
300

 40
0.0
140
1.0
 94
        5
 62
     0
340
55
144
0.18
309
CONTENTFORMAT_END
171
     0
 94
        0
309
TABLEFORMAT_END
  1
CELLSTYLE_BEGIN
 90
        2
 91
        1
300
_HEADER
309
CELLSTYLE_END
300
CELLSTYLE
  1
TABLEFORMAT_BEGIN
 90
        5
170
     1
 91
        0
 92
        0
 62
   257
 93
        1
300
CONTENTFORMAT
  1
CONTENTFORMAT_BEGIN
 90
        0
 91
        0
 92
      512
 93
        0
300

 40
0.0
140
1.0
 94
        2
 62
     0
340
55
144
0.18
309
CONTENTFORMAT_END
171
     0
 94
        0
309
TABLEFORMAT_END
  1
CELLSTYLE_BEGIN
 90
        3
 91
        2
300
_DATA
309
CELLSTYLE_END
  0
ENDSEC
  0
EOF
