M48
INCH,TZ
T1C0.0197
%
G90
G05
T1
X15207Y-38483
X15207Y-39664
X15502Y-39664
X15507Y-38483
X15802Y-38483
X15802Y-39664
X16098Y-38483
X16098Y-39664
X16402Y-38483
X16402Y-39664
X21506Y-38483
X21506Y-39664
X21802Y-39664
X21806Y-38483
X22102Y-38483
X22102Y-39664
X22397Y-38483
X22397Y-39664
X22702Y-38483
X22702Y-39664
X27806Y-38483
X27806Y-39664
X28101Y-39664
X28106Y-38483
X28401Y-38483
X28401Y-39664
X28696Y-38483
X28696Y-39664
X29001Y-38483
X29001Y-39664
X34105Y-38483
X34105Y-39664
X34400Y-39664
X34405Y-38483
X34700Y-38483
X34700Y-39664
X34995Y-38483
X34995Y-39664
X35300Y-38483
X35300Y-39664
X40408Y-38483
X40408Y-39664
X40703Y-39664
X40708Y-38483
X41003Y-38483
X41003Y-39664
X41298Y-38483
X41298Y-39664
X41603Y-38483
X41603Y-39664
X46707Y-38483
X46707Y-39664
X47002Y-39664
X47007Y-38483
X47302Y-38483
X47302Y-39664
X47598Y-38483
X47598Y-39664
X47902Y-38483
X47902Y-39664
X53010Y-38483
X53010Y-39664
X53306Y-39664
X53310Y-38483
X53606Y-38483
X53606Y-39664
X53901Y-38483
X53901Y-39664
X54206Y-38483
X54206Y-39664
T0
M30
