M48
INCH,TZ
T1C0.0315
T2C0.0354
T3C0.0394
T4C0.0402
%
G90
G05
T1
X12522Y-67638
X15512Y-64094
X15522Y-67638
X17067Y-68189
X18051Y-68189
X18512Y-64094
X20856Y-64803
X20856Y-66693
X23856Y-64803
X23856Y-66693
X26683Y-65984
X29683Y-65984
X29823Y-48228
X30709Y-46752
X31083Y-67717
X31693Y-46752
X32067Y-67717
X32823Y-48228
X37480Y-67559
X39921Y-47953
X40480Y-67559
X40925Y-46693
X41909Y-46693
X42921Y-47953
X47541Y-57933
X47541Y-59409
X50541Y-57933
X50541Y-59409
X50848Y-66516
X52404Y-54941
X52994Y-62343
X53848Y-66516
X54549Y-59213
X55404Y-54941
X55994Y-62343
X57549Y-59213
T2
X11937Y-65827
X12937Y-65827
X13937Y-65827
X16593Y-66024
X17242Y-66024
X17892Y-66024
X18541Y-66024
X21386Y-68504
X22386Y-68504
X23386Y-68504
X27134Y-67795
X28134Y-67795
X29134Y-67795
X30203Y-44409
X30852Y-44409
X31502Y-44409
X32152Y-44409
X32681Y-66335
X33331Y-66335
X33980Y-66335
X34630Y-66335
X38189Y-65512
X39189Y-65512
X40189Y-65512
X40441Y-44449
X41091Y-44449
X41740Y-44449
X42390Y-44449
X47215Y-55433
X47817Y-64409
X48215Y-55433
X48817Y-64409
X50837Y-64567
X50846Y-61102
X51415Y-56693
X51837Y-64567
X51846Y-61102
X52415Y-56693
X54537Y-57480
X55537Y-57480
T3
X9252Y-19685
X9252Y-20685
X9252Y-21685
X9252Y-22685
X9252Y-52362
X9252Y-53362
X9252Y-54362
X9252Y-55362
X19669Y-41732
X20669Y-41732
X26929Y-41339
X27913Y-41339
X28898Y-41339
X33213Y-36972
X33213Y-69650
X34213Y-36972
X34213Y-69650
X35213Y-36972
X35213Y-69650
X36213Y-36972
X36213Y-69650
X60157Y-19685
X60157Y-20685
X60157Y-21685
X60157Y-22685
X60157Y-52362
X60157Y-53362
X60157Y-54362
X60157Y-55362
T4
X11340Y-46737
X11340Y-47737
X11340Y-48737
X11340Y-49737
X11340Y-50737
X11340Y-51737
X11340Y-52737
X11340Y-53737
X11340Y-54737
X11340Y-55737
X11340Y-56737
X11340Y-57737
X11340Y-58737
X11340Y-59737
X11340Y-60737
X21340Y-46737
X21340Y-47737
X21340Y-48737
X21340Y-49737
X21340Y-50737
X21340Y-51737
X21340Y-52737
X21340Y-53737
X21340Y-54737
X21340Y-55737
X21340Y-56737
X21340Y-57737
X21340Y-58737
X21340Y-59737
X21340Y-60737
T0
M30
