G04 #@! TF.GenerationSoftware,KiCad,Pcbnew,(6.0.11)*
G04 #@! TF.CreationDate,2023-06-05T19:46:25-05:00*
G04 #@! TF.ProjectId,future_badge,66757475-7265-45f6-9261-6467652e6b69,1*
G04 #@! TF.SameCoordinates,Original*
G04 #@! TF.FileFunction,Copper,L2,Bot*
G04 #@! TF.FilePolarity,Positive*
%FSLAX46Y46*%
G04 Gerber Fmt 4.6, Leading zero omitted, Abs format (unit mm)*
G04 Created by KiCad (PCBNEW (6.0.11)) date 2023-06-05 19:46:25*
%MOMM*%
%LPD*%
G01*
G04 APERTURE LIST*
G04 #@! TA.AperFunction,ComponentPad*
%ADD10C,1.600000*%
G04 #@! TD*
G04 #@! TA.AperFunction,ComponentPad*
%ADD11R,1.800000X1.800000*%
G04 #@! TD*
G04 #@! TA.AperFunction,ComponentPad*
%ADD12C,1.800000*%
G04 #@! TD*
G04 #@! TA.AperFunction,ComponentPad*
%ADD13R,1.700000X1.700000*%
G04 #@! TD*
G04 #@! TA.AperFunction,ComponentPad*
%ADD14O,1.700000X1.700000*%
G04 #@! TD*
G04 #@! TA.AperFunction,ComponentPad*
%ADD15O,1.600000X1.600000*%
G04 #@! TD*
G04 #@! TA.AperFunction,ComponentPad*
%ADD16R,1.200000X1.800000*%
G04 #@! TD*
G04 #@! TA.AperFunction,ComponentPad*
%ADD17O,1.200000X1.800000*%
G04 #@! TD*
G04 #@! TA.AperFunction,ComponentPad*
%ADD18R,2.000000X2.000000*%
G04 #@! TD*
G04 #@! TA.AperFunction,ComponentPad*
%ADD19C,2.000000*%
G04 #@! TD*
G04 #@! TA.AperFunction,Conductor*
%ADD20C,0.300000*%
G04 #@! TD*
G04 #@! TA.AperFunction,Conductor*
%ADD21C,0.500000*%
G04 #@! TD*
G04 APERTURE END LIST*
D10*
X43350000Y-173200000D03*
X45850000Y-173200000D03*
D11*
X131690000Y-155200000D03*
D12*
X129150000Y-155200000D03*
D13*
X84360000Y-176910000D03*
D14*
X86900000Y-176910000D03*
X89440000Y-176910000D03*
X91980000Y-176910000D03*
D10*
X39400000Y-162800000D03*
D15*
X47020000Y-162800000D03*
D13*
X152800000Y-133000000D03*
D14*
X152800000Y-135540000D03*
X152800000Y-138080000D03*
X152800000Y-140620000D03*
D10*
X78000000Y-118750000D03*
X80500000Y-118750000D03*
D13*
X52500000Y-106000000D03*
D14*
X49960000Y-106000000D03*
D11*
X74000000Y-172200000D03*
D12*
X71460000Y-172200000D03*
X68920000Y-172200000D03*
D10*
X136775000Y-168950000D03*
D15*
X129155000Y-168950000D03*
D11*
X121455000Y-163600000D03*
D12*
X123995000Y-163600000D03*
D10*
X128375000Y-147150000D03*
D15*
X120755000Y-147150000D03*
D10*
X95200000Y-171600000D03*
D15*
X102820000Y-171600000D03*
D10*
X128375000Y-150900000D03*
D15*
X120755000Y-150900000D03*
D10*
X39425000Y-171800000D03*
D15*
X31805000Y-171800000D03*
D10*
X140725000Y-139550000D03*
D15*
X133105000Y-139550000D03*
D10*
X52975000Y-169400000D03*
D15*
X60595000Y-169400000D03*
D10*
X67775000Y-167600000D03*
D15*
X75395000Y-167600000D03*
D16*
X83010000Y-168490000D03*
D17*
X84660000Y-168490000D03*
X86310000Y-168490000D03*
X87960000Y-168490000D03*
D10*
X75750000Y-122500000D03*
D15*
X83370000Y-122500000D03*
D10*
X52975000Y-164600000D03*
D15*
X60595000Y-164600000D03*
D16*
X42145000Y-167700000D03*
D17*
X43795000Y-167700000D03*
X45445000Y-167700000D03*
X47095000Y-167700000D03*
D11*
X35400000Y-167200000D03*
D12*
X32860000Y-167200000D03*
X30320000Y-167200000D03*
D18*
X28802500Y-118712500D03*
D19*
X28802500Y-121252500D03*
X28802500Y-123792500D03*
X28802500Y-126332500D03*
X28802500Y-128872500D03*
X28802500Y-131412500D03*
X28802500Y-133952500D03*
X28802500Y-136492500D03*
X28802500Y-139032500D03*
X28802500Y-141572500D03*
X28802500Y-144112500D03*
X28802500Y-146652500D03*
X28802500Y-149192500D03*
X28802500Y-151732500D03*
X28802500Y-154272500D03*
X54202500Y-154272500D03*
X54202500Y-151732500D03*
X54202500Y-149192500D03*
X54202500Y-146652500D03*
X54202500Y-144112500D03*
X54202500Y-141572500D03*
X54202500Y-139032500D03*
X54202500Y-136492500D03*
X54202500Y-133952500D03*
X54202500Y-131412500D03*
X54202500Y-128872500D03*
X54202500Y-126332500D03*
X54202500Y-123792500D03*
X54202500Y-121252500D03*
X54202500Y-118712500D03*
D10*
X78950000Y-172000000D03*
X81450000Y-172000000D03*
X101400000Y-121800000D03*
D15*
X109020000Y-121800000D03*
D11*
X138525000Y-146000000D03*
D12*
X141065000Y-146000000D03*
D11*
X59400000Y-174000000D03*
D12*
X56860000Y-174000000D03*
X54320000Y-174000000D03*
D11*
X129125000Y-164000000D03*
D12*
X131665000Y-164000000D03*
D11*
X119925000Y-140800000D03*
D12*
X122465000Y-140800000D03*
D13*
X23500000Y-133000000D03*
D14*
X23500000Y-135540000D03*
X23500000Y-138080000D03*
X23500000Y-140620000D03*
D10*
X142225000Y-158350000D03*
D15*
X134605000Y-158350000D03*
D11*
X97000000Y-166400000D03*
D12*
X99540000Y-166400000D03*
X102080000Y-166400000D03*
D10*
X68400000Y-105000000D03*
X70900000Y-105000000D03*
X73400000Y-105000000D03*
X103950000Y-118600000D03*
X106450000Y-118600000D03*
D13*
X152800000Y-50000000D03*
D14*
X152800000Y-52540000D03*
X152800000Y-55080000D03*
X152800000Y-57620000D03*
D10*
X146175000Y-150400000D03*
D15*
X138555000Y-150400000D03*
D16*
X76715000Y-112800000D03*
D17*
X78365000Y-112800000D03*
X80015000Y-112800000D03*
X81665000Y-112800000D03*
D11*
X133135000Y-144000000D03*
D12*
X130595000Y-144000000D03*
D16*
X102720000Y-112900080D03*
D17*
X104370000Y-112900080D03*
X106020000Y-112900080D03*
X107670000Y-112900080D03*
D13*
X84360000Y-93910000D03*
D14*
X86900000Y-93910000D03*
X89440000Y-93910000D03*
X91980000Y-93910000D03*
D13*
X23500000Y-50000000D03*
D14*
X23500000Y-52540000D03*
X23500000Y-55080000D03*
X23500000Y-57620000D03*
D20*
X54202500Y-118712500D02*
X60287500Y-118712500D01*
X68400000Y-110600000D02*
X68400000Y-105000000D01*
X60287500Y-118712500D02*
X68400000Y-110600000D01*
D21*
X92400000Y-120400000D02*
X79200000Y-120400000D01*
X136775000Y-168950000D02*
X139700000Y-168950000D01*
X40517500Y-158317500D02*
X33200000Y-151000000D01*
X127000000Y-134950000D02*
X125900000Y-133850000D01*
X45850000Y-171250000D02*
X45445000Y-170845000D01*
X45445000Y-170845000D02*
X45445000Y-167700000D01*
X33200000Y-123505000D02*
X35452500Y-121252500D01*
X103450000Y-123600000D02*
X104000000Y-123600000D01*
X50000000Y-171800000D02*
X50000000Y-167600000D01*
X139850000Y-134950000D02*
X128050000Y-134950000D01*
X67775000Y-167600000D02*
X51200000Y-167600000D01*
X52975000Y-169400000D02*
X51600000Y-169400000D01*
X45850000Y-173200000D02*
X45850000Y-171250000D01*
X115650000Y-123600000D02*
X103450000Y-123600000D01*
X140725000Y-139550000D02*
X140725000Y-135825000D01*
X68547500Y-121252500D02*
X54202500Y-121252500D01*
X126000000Y-133950000D02*
X125900000Y-133850000D01*
X80500000Y-118750000D02*
X80500000Y-115900000D01*
X50000000Y-159400000D02*
X48917500Y-158317500D01*
X80500000Y-118750000D02*
X80500000Y-119700000D01*
X149900000Y-154600000D02*
X149900000Y-148800000D01*
X49200000Y-173200000D02*
X50000000Y-172400000D01*
X126000000Y-148525000D02*
X126000000Y-133950000D01*
X50000000Y-167000000D02*
X50000000Y-166400000D01*
X48400000Y-175400000D02*
X50000000Y-173800000D01*
X128050000Y-134950000D02*
X127000000Y-134950000D01*
X148300000Y-150400000D02*
X149900000Y-148800000D01*
X106450000Y-116250000D02*
X106020000Y-115820000D01*
X140725000Y-135825000D02*
X140700000Y-135800000D01*
X149900000Y-159700000D02*
X149900000Y-154600000D01*
X48917500Y-121252500D02*
X35452500Y-121252500D01*
X49960000Y-120210000D02*
X51002500Y-121252500D01*
X49960000Y-120210000D02*
X48917500Y-121252500D01*
X106450000Y-121150000D02*
X106450000Y-118600000D01*
X139700000Y-168950000D02*
X140650000Y-168950000D01*
X80500000Y-119700000D02*
X79800000Y-120400000D01*
X140650000Y-168950000D02*
X149900000Y-159700000D01*
X51600000Y-169400000D02*
X50000000Y-167800000D01*
X35452500Y-121252500D02*
X28802500Y-121252500D01*
X50000000Y-167600000D02*
X50000000Y-167000000D01*
X106020000Y-115820000D02*
X106020000Y-112900080D01*
X128375000Y-150900000D02*
X126000000Y-148525000D01*
X77200000Y-176000000D02*
X50600000Y-176000000D01*
X51002500Y-121252500D02*
X54202500Y-121252500D01*
X80500000Y-115900000D02*
X80015000Y-115415000D01*
X95600000Y-123600000D02*
X103450000Y-123600000D01*
D20*
X50000000Y-172400000D02*
X50000000Y-171800000D01*
D21*
X149900000Y-148800000D02*
X149900000Y-145000000D01*
X140700000Y-135800000D02*
X139850000Y-134950000D01*
X95600000Y-123600000D02*
X92400000Y-120400000D01*
X142225000Y-158350000D02*
X146150000Y-158350000D01*
X79200000Y-120400000D02*
X69400000Y-120400000D01*
X50000000Y-175400000D02*
X50000000Y-173800000D01*
X85400000Y-170600000D02*
X86310000Y-169690000D01*
X51200000Y-167600000D02*
X50000000Y-166400000D01*
X125900000Y-133850000D02*
X115650000Y-123600000D01*
X106450000Y-118600000D02*
X106450000Y-116250000D01*
X81450000Y-172000000D02*
X82850000Y-170600000D01*
X50000000Y-166400000D02*
X50000000Y-159400000D01*
X41400000Y-175400000D02*
X39425000Y-173425000D01*
X50000000Y-167800000D02*
X50000000Y-167600000D01*
X50600000Y-176000000D02*
X50000000Y-175400000D01*
X39425000Y-173425000D02*
X39425000Y-171800000D01*
D20*
X77450000Y-176000000D02*
X77200000Y-176000000D01*
D21*
X41400000Y-175400000D02*
X48400000Y-175400000D01*
X79800000Y-120400000D02*
X79200000Y-120400000D01*
X45850000Y-173200000D02*
X49200000Y-173200000D01*
X33200000Y-151000000D02*
X33200000Y-123505000D01*
X128375000Y-135275000D02*
X128050000Y-134950000D01*
X50000000Y-173800000D02*
X50000000Y-171800000D01*
X82850000Y-170600000D02*
X85400000Y-170600000D01*
X84800000Y-171600000D02*
X95200000Y-171600000D01*
X149900000Y-145000000D02*
X140700000Y-135800000D01*
X48917500Y-158317500D02*
X40517500Y-158317500D01*
X146150000Y-158350000D02*
X149900000Y-154600000D01*
X69400000Y-120400000D02*
X68547500Y-121252500D01*
X80400000Y-176000000D02*
X84800000Y-171600000D01*
X81450000Y-172000000D02*
X77450000Y-176000000D01*
X128375000Y-147150000D02*
X128375000Y-135275000D01*
X80015000Y-115415000D02*
X80015000Y-112800000D01*
X86310000Y-169690000D02*
X86310000Y-168490000D01*
X104000000Y-123600000D02*
X106450000Y-121150000D01*
X146175000Y-150400000D02*
X148300000Y-150400000D01*
X80400000Y-176000000D02*
X77200000Y-176000000D01*
X49960000Y-106000000D02*
X49960000Y-120210000D01*
D20*
X26800000Y-156800000D02*
X32000000Y-162000000D01*
X28802500Y-139032500D02*
X27767500Y-139032500D01*
X26800000Y-140000000D02*
X26800000Y-156800000D01*
X27767500Y-139032500D02*
X26800000Y-140000000D01*
X32000000Y-162000000D02*
X38600001Y-162000001D01*
X38600001Y-162000001D02*
X39400000Y-162800000D01*
X77600000Y-166600000D02*
X76800000Y-165800000D01*
X87960000Y-168490000D02*
X87960000Y-167360000D01*
X87960000Y-167360000D02*
X87200000Y-166600000D01*
X61795000Y-165800000D02*
X60595000Y-164600000D01*
X87200000Y-166600000D02*
X77600000Y-166600000D01*
X76800000Y-165800000D02*
X61795000Y-165800000D01*
X76715000Y-112800000D02*
X76715000Y-110485000D01*
X76715000Y-110485000D02*
X78000000Y-109200000D01*
X88800000Y-109200000D02*
X101400000Y-121800000D01*
X78000000Y-109200000D02*
X88800000Y-109200000D01*
X32860000Y-170745000D02*
X32860000Y-167200000D01*
X31805000Y-171800000D02*
X32860000Y-170745000D01*
X58600000Y-169400000D02*
X60595000Y-169400000D01*
X56860000Y-174000000D02*
X56860000Y-171140000D01*
X56860000Y-171140000D02*
X58600000Y-169400000D01*
X74200000Y-167600000D02*
X75395000Y-167600000D01*
X71460000Y-170340000D02*
X74200000Y-167600000D01*
X71460000Y-172200000D02*
X71460000Y-170340000D01*
X99540000Y-170340000D02*
X99540000Y-166400000D01*
X102820000Y-171600000D02*
X100800000Y-171600000D01*
X100800000Y-171600000D02*
X99540000Y-170340000D01*
X43795000Y-170005000D02*
X43795000Y-167700000D01*
X43350000Y-170450000D02*
X43795000Y-170005000D01*
X29200000Y-163000000D02*
X36400000Y-163000000D01*
X41600000Y-171450000D02*
X43350000Y-173200000D01*
X27887500Y-118712500D02*
X26200000Y-120400000D01*
X26200000Y-120400000D02*
X26200000Y-160000000D01*
X38600000Y-165200000D02*
X38600000Y-167600000D01*
X28802500Y-118712500D02*
X27887500Y-118712500D01*
X36400000Y-163000000D02*
X38600000Y-165200000D01*
X38600000Y-167600000D02*
X41600000Y-170600000D01*
X26200000Y-160000000D02*
X29200000Y-163000000D01*
X43350000Y-173200000D02*
X43350000Y-170450000D01*
X41600000Y-170600000D02*
X41600000Y-171450000D01*
M02*
