G04 #@! TF.GenerationSoftware,KiCad,Pcbnew,(6.0.11)*
G04 #@! TF.CreationDate,2023-06-05T19:46:25-05:00*
G04 #@! TF.ProjectId,future_badge,66757475-7265-45f6-9261-6467652e6b69,1*
G04 #@! TF.SameCoordinates,Original*
G04 #@! TF.FileFunction,Copper,L1,Top*
G04 #@! TF.FilePolarity,Positive*
%FSLAX46Y46*%
G04 Gerber Fmt 4.6, Leading zero omitted, Abs format (unit mm)*
G04 Created by KiCad (PCBNEW (6.0.11)) date 2023-06-05 19:46:25*
%MOMM*%
%LPD*%
G01*
G04 APERTURE LIST*
G04 #@! TA.AperFunction,EtchedComponent*
%ADD10C,0.120000*%
G04 #@! TD*
G04 #@! TA.AperFunction,ComponentPad*
%ADD11C,1.600000*%
G04 #@! TD*
G04 #@! TA.AperFunction,ComponentPad*
%ADD12R,1.800000X1.800000*%
G04 #@! TD*
G04 #@! TA.AperFunction,ComponentPad*
%ADD13C,1.800000*%
G04 #@! TD*
G04 #@! TA.AperFunction,ComponentPad*
%ADD14R,1.700000X1.700000*%
G04 #@! TD*
G04 #@! TA.AperFunction,ComponentPad*
%ADD15O,1.700000X1.700000*%
G04 #@! TD*
G04 #@! TA.AperFunction,ComponentPad*
%ADD16O,1.600000X1.600000*%
G04 #@! TD*
G04 #@! TA.AperFunction,ComponentPad*
%ADD17R,1.200000X1.800000*%
G04 #@! TD*
G04 #@! TA.AperFunction,ComponentPad*
%ADD18O,1.200000X1.800000*%
G04 #@! TD*
G04 #@! TA.AperFunction,ComponentPad*
%ADD19R,2.000000X2.000000*%
G04 #@! TD*
G04 #@! TA.AperFunction,ComponentPad*
%ADD20C,2.000000*%
G04 #@! TD*
G04 #@! TA.AperFunction,Conductor*
%ADD21C,0.750000*%
G04 #@! TD*
G04 #@! TA.AperFunction,Conductor*
%ADD22C,0.300000*%
G04 #@! TD*
G04 APERTURE END LIST*
G36*
X71692000Y-45746000D02*
G01*
X73622000Y-45696000D01*
X74272000Y-45796000D01*
X74472000Y-46026000D01*
X74452000Y-46446000D01*
X74262000Y-46796000D01*
X73712000Y-47066000D01*
X73392000Y-47376000D01*
X73442000Y-47936000D01*
X73662000Y-48236000D01*
X73972000Y-48306000D01*
X75122000Y-48336000D01*
X79182000Y-48556000D01*
X81302000Y-48686000D01*
X82862000Y-48816000D01*
X84282000Y-49366000D01*
X86172000Y-50166000D01*
X87262000Y-50136000D01*
X88772000Y-50086000D01*
X89742000Y-50086000D01*
X91682000Y-50136000D01*
X94362000Y-50296000D01*
X96192000Y-50526000D01*
X98802000Y-51116000D01*
X100302000Y-51556000D01*
X100862000Y-51776000D01*
X102452000Y-52436000D01*
X103002000Y-52726000D01*
X105332000Y-53936000D01*
X109142000Y-56086000D01*
X111032000Y-57136000D01*
X112792000Y-57106000D01*
X113192000Y-57196000D01*
X113332000Y-57396000D01*
X113392000Y-57776000D01*
X113432000Y-58356000D01*
X113522000Y-58976000D01*
X114482000Y-59156000D01*
X115512000Y-59266000D01*
X115932000Y-59276000D01*
X116662000Y-59266000D01*
X117532000Y-59236000D01*
X118092000Y-59246000D01*
X118582000Y-59276000D01*
X122162000Y-59836000D01*
X126042000Y-60436000D01*
X127222000Y-60746000D01*
X128092000Y-61086000D01*
X128822000Y-61586000D01*
X129262000Y-62186000D01*
X129412000Y-62556000D01*
X129522000Y-62986000D01*
X129592000Y-63416000D01*
X129812000Y-63796000D01*
X130342000Y-64156000D01*
X130992000Y-64406000D01*
X131492000Y-64646000D01*
X131712000Y-64826000D01*
X131882000Y-65266000D01*
X131922000Y-65736000D01*
X131832000Y-65876000D01*
X131752000Y-65916000D01*
X131532000Y-65986000D01*
X131592000Y-66186000D01*
X131702000Y-66346000D01*
X131532000Y-67246000D01*
X131412000Y-67246000D01*
X131192000Y-67306000D01*
X131192000Y-67406000D01*
X131322000Y-67476000D01*
X131422000Y-67586000D01*
X131352000Y-67956000D01*
X131252000Y-68156000D01*
X131022000Y-68196000D01*
X130252000Y-68206000D01*
X129562000Y-68376000D01*
X128652000Y-68866000D01*
X128022000Y-69316000D01*
X127442000Y-69916000D01*
X126812000Y-70416000D01*
X126422000Y-70636000D01*
X126402000Y-69936000D01*
X126362000Y-68446000D01*
X126262000Y-66146000D01*
X126152000Y-65126000D01*
X125902000Y-64306000D01*
X125482000Y-63656000D01*
X124972000Y-63226000D01*
X124292000Y-63076000D01*
X123572000Y-63126000D01*
X122632000Y-63626000D01*
X121782000Y-64496000D01*
X120502000Y-66606000D01*
X119952000Y-67696000D01*
X119312000Y-69596000D01*
X118462000Y-71806000D01*
X117642000Y-73096000D01*
X117142000Y-73436000D01*
X115272000Y-73886000D01*
X112872000Y-74196000D01*
X108812000Y-74486000D01*
X101912000Y-74946000D01*
X98112000Y-75406000D01*
X94902000Y-75926000D01*
X93602000Y-76136000D01*
X93102000Y-76136000D01*
X93042000Y-75886000D01*
X93072000Y-75656000D01*
X93212000Y-75296000D01*
X93272000Y-74566000D01*
X93052000Y-72086000D01*
X92912000Y-70426000D01*
X92712000Y-68766000D01*
X92072000Y-66916000D01*
X91752000Y-66316000D01*
X91072000Y-65736000D01*
X90292000Y-65256000D01*
X89152000Y-65006000D01*
X87852000Y-64846000D01*
X86802000Y-64966000D01*
X85592000Y-65406000D01*
X84342000Y-66026000D01*
X83242000Y-66956000D01*
X82572000Y-68016000D01*
X81742000Y-69836000D01*
X81522000Y-70526000D01*
X80862000Y-72546000D01*
X80112000Y-75036000D01*
X79722000Y-77036000D01*
X78852000Y-77146000D01*
X77502000Y-76916000D01*
X74202000Y-76516000D01*
X73802000Y-77156000D01*
X72652000Y-78266000D01*
X71532000Y-78856000D01*
X69842000Y-79336000D01*
X63802000Y-79376000D01*
X58822000Y-79356000D01*
X53322000Y-79206000D01*
X51842000Y-79056000D01*
X47212000Y-78596000D01*
X42122000Y-78096000D01*
X34372000Y-77406000D01*
X32372000Y-76876000D01*
X30872000Y-75966000D01*
X30102000Y-75096000D01*
X30082000Y-72196000D01*
X29842000Y-71806000D01*
X29242000Y-71386000D01*
X28852000Y-70816000D01*
X28822000Y-69076000D01*
X28522000Y-67056000D01*
X29072000Y-65966000D01*
X29412000Y-64606000D01*
X29932000Y-63116000D01*
X31442000Y-60876000D01*
X32462000Y-59456000D01*
X33462000Y-58566000D01*
X33582000Y-56086000D01*
X33912000Y-53156000D01*
X34372000Y-50156000D01*
X34952000Y-48246000D01*
X36342000Y-48046000D01*
X37372000Y-48056000D01*
X39112000Y-48096000D01*
X42132000Y-48246000D01*
X44412000Y-49416000D01*
X45942000Y-50996000D01*
X47732000Y-52326000D01*
X48562000Y-53376000D01*
X49322000Y-53266000D01*
X50312000Y-53176000D01*
X51912000Y-52556000D01*
X52372000Y-50346000D01*
X52782000Y-48366000D01*
X56122000Y-48216000D01*
X58782000Y-48316000D01*
X60372000Y-48246000D01*
X60502000Y-47886000D01*
X62362000Y-46256000D01*
X62692000Y-46106000D01*
X63242000Y-46556000D01*
X63632000Y-46546000D01*
X64352000Y-46446000D01*
X66742000Y-46676000D01*
X68092000Y-46216000D01*
X68672000Y-45856000D01*
X69512000Y-45706000D01*
X70482000Y-45656000D01*
X71692000Y-45746000D01*
G37*
D10*
X71692000Y-45746000D02*
X73622000Y-45696000D01*
X74272000Y-45796000D01*
X74472000Y-46026000D01*
X74452000Y-46446000D01*
X74262000Y-46796000D01*
X73712000Y-47066000D01*
X73392000Y-47376000D01*
X73442000Y-47936000D01*
X73662000Y-48236000D01*
X73972000Y-48306000D01*
X75122000Y-48336000D01*
X79182000Y-48556000D01*
X81302000Y-48686000D01*
X82862000Y-48816000D01*
X84282000Y-49366000D01*
X86172000Y-50166000D01*
X87262000Y-50136000D01*
X88772000Y-50086000D01*
X89742000Y-50086000D01*
X91682000Y-50136000D01*
X94362000Y-50296000D01*
X96192000Y-50526000D01*
X98802000Y-51116000D01*
X100302000Y-51556000D01*
X100862000Y-51776000D01*
X102452000Y-52436000D01*
X103002000Y-52726000D01*
X105332000Y-53936000D01*
X109142000Y-56086000D01*
X111032000Y-57136000D01*
X112792000Y-57106000D01*
X113192000Y-57196000D01*
X113332000Y-57396000D01*
X113392000Y-57776000D01*
X113432000Y-58356000D01*
X113522000Y-58976000D01*
X114482000Y-59156000D01*
X115512000Y-59266000D01*
X115932000Y-59276000D01*
X116662000Y-59266000D01*
X117532000Y-59236000D01*
X118092000Y-59246000D01*
X118582000Y-59276000D01*
X122162000Y-59836000D01*
X126042000Y-60436000D01*
X127222000Y-60746000D01*
X128092000Y-61086000D01*
X128822000Y-61586000D01*
X129262000Y-62186000D01*
X129412000Y-62556000D01*
X129522000Y-62986000D01*
X129592000Y-63416000D01*
X129812000Y-63796000D01*
X130342000Y-64156000D01*
X130992000Y-64406000D01*
X131492000Y-64646000D01*
X131712000Y-64826000D01*
X131882000Y-65266000D01*
X131922000Y-65736000D01*
X131832000Y-65876000D01*
X131752000Y-65916000D01*
X131532000Y-65986000D01*
X131592000Y-66186000D01*
X131702000Y-66346000D01*
X131532000Y-67246000D01*
X131412000Y-67246000D01*
X131192000Y-67306000D01*
X131192000Y-67406000D01*
X131322000Y-67476000D01*
X131422000Y-67586000D01*
X131352000Y-67956000D01*
X131252000Y-68156000D01*
X131022000Y-68196000D01*
X130252000Y-68206000D01*
X129562000Y-68376000D01*
X128652000Y-68866000D01*
X128022000Y-69316000D01*
X127442000Y-69916000D01*
X126812000Y-70416000D01*
X126422000Y-70636000D01*
X126402000Y-69936000D01*
X126362000Y-68446000D01*
X126262000Y-66146000D01*
X126152000Y-65126000D01*
X125902000Y-64306000D01*
X125482000Y-63656000D01*
X124972000Y-63226000D01*
X124292000Y-63076000D01*
X123572000Y-63126000D01*
X122632000Y-63626000D01*
X121782000Y-64496000D01*
X120502000Y-66606000D01*
X119952000Y-67696000D01*
X119312000Y-69596000D01*
X118462000Y-71806000D01*
X117642000Y-73096000D01*
X117142000Y-73436000D01*
X115272000Y-73886000D01*
X112872000Y-74196000D01*
X108812000Y-74486000D01*
X101912000Y-74946000D01*
X98112000Y-75406000D01*
X94902000Y-75926000D01*
X93602000Y-76136000D01*
X93102000Y-76136000D01*
X93042000Y-75886000D01*
X93072000Y-75656000D01*
X93212000Y-75296000D01*
X93272000Y-74566000D01*
X93052000Y-72086000D01*
X92912000Y-70426000D01*
X92712000Y-68766000D01*
X92072000Y-66916000D01*
X91752000Y-66316000D01*
X91072000Y-65736000D01*
X90292000Y-65256000D01*
X89152000Y-65006000D01*
X87852000Y-64846000D01*
X86802000Y-64966000D01*
X85592000Y-65406000D01*
X84342000Y-66026000D01*
X83242000Y-66956000D01*
X82572000Y-68016000D01*
X81742000Y-69836000D01*
X81522000Y-70526000D01*
X80862000Y-72546000D01*
X80112000Y-75036000D01*
X79722000Y-77036000D01*
X78852000Y-77146000D01*
X77502000Y-76916000D01*
X74202000Y-76516000D01*
X73802000Y-77156000D01*
X72652000Y-78266000D01*
X71532000Y-78856000D01*
X69842000Y-79336000D01*
X63802000Y-79376000D01*
X58822000Y-79356000D01*
X53322000Y-79206000D01*
X51842000Y-79056000D01*
X47212000Y-78596000D01*
X42122000Y-78096000D01*
X34372000Y-77406000D01*
X32372000Y-76876000D01*
X30872000Y-75966000D01*
X30102000Y-75096000D01*
X30082000Y-72196000D01*
X29842000Y-71806000D01*
X29242000Y-71386000D01*
X28852000Y-70816000D01*
X28822000Y-69076000D01*
X28522000Y-67056000D01*
X29072000Y-65966000D01*
X29412000Y-64606000D01*
X29932000Y-63116000D01*
X31442000Y-60876000D01*
X32462000Y-59456000D01*
X33462000Y-58566000D01*
X33582000Y-56086000D01*
X33912000Y-53156000D01*
X34372000Y-50156000D01*
X34952000Y-48246000D01*
X36342000Y-48046000D01*
X37372000Y-48056000D01*
X39112000Y-48096000D01*
X42132000Y-48246000D01*
X44412000Y-49416000D01*
X45942000Y-50996000D01*
X47732000Y-52326000D01*
X48562000Y-53376000D01*
X49322000Y-53266000D01*
X50312000Y-53176000D01*
X51912000Y-52556000D01*
X52372000Y-50346000D01*
X52782000Y-48366000D01*
X56122000Y-48216000D01*
X58782000Y-48316000D01*
X60372000Y-48246000D01*
X60502000Y-47886000D01*
X62362000Y-46256000D01*
X62692000Y-46106000D01*
X63242000Y-46556000D01*
X63632000Y-46546000D01*
X64352000Y-46446000D01*
X66742000Y-46676000D01*
X68092000Y-46216000D01*
X68672000Y-45856000D01*
X69512000Y-45706000D01*
X70482000Y-45656000D01*
X71692000Y-45746000D01*
D11*
X43350000Y-173200000D03*
X45850000Y-173200000D03*
D12*
X131690000Y-155200000D03*
D13*
X129150000Y-155200000D03*
D14*
X84360000Y-176910000D03*
D15*
X86900000Y-176910000D03*
X89440000Y-176910000D03*
X91980000Y-176910000D03*
D11*
X39400000Y-162800000D03*
D16*
X47020000Y-162800000D03*
D14*
X152800000Y-133000000D03*
D15*
X152800000Y-135540000D03*
X152800000Y-138080000D03*
X152800000Y-140620000D03*
D11*
X78000000Y-118750000D03*
X80500000Y-118750000D03*
D14*
X52500000Y-106000000D03*
D15*
X49960000Y-106000000D03*
D12*
X74000000Y-172200000D03*
D13*
X71460000Y-172200000D03*
X68920000Y-172200000D03*
D11*
X136775000Y-168950000D03*
D16*
X129155000Y-168950000D03*
D12*
X121455000Y-163600000D03*
D13*
X123995000Y-163600000D03*
D11*
X128375000Y-147150000D03*
D16*
X120755000Y-147150000D03*
D11*
X95200000Y-171600000D03*
D16*
X102820000Y-171600000D03*
D11*
X128375000Y-150900000D03*
D16*
X120755000Y-150900000D03*
D11*
X39425000Y-171800000D03*
D16*
X31805000Y-171800000D03*
D11*
X140725000Y-139550000D03*
D16*
X133105000Y-139550000D03*
D11*
X52975000Y-169400000D03*
D16*
X60595000Y-169400000D03*
D11*
X67775000Y-167600000D03*
D16*
X75395000Y-167600000D03*
D17*
X83010000Y-168490000D03*
D18*
X84660000Y-168490000D03*
X86310000Y-168490000D03*
X87960000Y-168490000D03*
D11*
X75750000Y-122500000D03*
D16*
X83370000Y-122500000D03*
D11*
X52975000Y-164600000D03*
D16*
X60595000Y-164600000D03*
D17*
X42145000Y-167700000D03*
D18*
X43795000Y-167700000D03*
X45445000Y-167700000D03*
X47095000Y-167700000D03*
D12*
X35400000Y-167200000D03*
D13*
X32860000Y-167200000D03*
X30320000Y-167200000D03*
D19*
X28802500Y-118712500D03*
D20*
X28802500Y-121252500D03*
X28802500Y-123792500D03*
X28802500Y-126332500D03*
X28802500Y-128872500D03*
X28802500Y-131412500D03*
X28802500Y-133952500D03*
X28802500Y-136492500D03*
X28802500Y-139032500D03*
X28802500Y-141572500D03*
X28802500Y-144112500D03*
X28802500Y-146652500D03*
X28802500Y-149192500D03*
X28802500Y-151732500D03*
X28802500Y-154272500D03*
X54202500Y-154272500D03*
X54202500Y-151732500D03*
X54202500Y-149192500D03*
X54202500Y-146652500D03*
X54202500Y-144112500D03*
X54202500Y-141572500D03*
X54202500Y-139032500D03*
X54202500Y-136492500D03*
X54202500Y-133952500D03*
X54202500Y-131412500D03*
X54202500Y-128872500D03*
X54202500Y-126332500D03*
X54202500Y-123792500D03*
X54202500Y-121252500D03*
X54202500Y-118712500D03*
D11*
X78950000Y-172000000D03*
X81450000Y-172000000D03*
X101400000Y-121800000D03*
D16*
X109020000Y-121800000D03*
D12*
X138525000Y-146000000D03*
D13*
X141065000Y-146000000D03*
D12*
X59400000Y-174000000D03*
D13*
X56860000Y-174000000D03*
X54320000Y-174000000D03*
D12*
X129125000Y-164000000D03*
D13*
X131665000Y-164000000D03*
D12*
X119925000Y-140800000D03*
D13*
X122465000Y-140800000D03*
D14*
X23500000Y-133000000D03*
D15*
X23500000Y-135540000D03*
X23500000Y-138080000D03*
X23500000Y-140620000D03*
D11*
X142225000Y-158350000D03*
D16*
X134605000Y-158350000D03*
D12*
X97000000Y-166400000D03*
D13*
X99540000Y-166400000D03*
X102080000Y-166400000D03*
D11*
X68400000Y-105000000D03*
X70900000Y-105000000D03*
X73400000Y-105000000D03*
X103950000Y-118600000D03*
X106450000Y-118600000D03*
D14*
X152800000Y-50000000D03*
D15*
X152800000Y-52540000D03*
X152800000Y-55080000D03*
X152800000Y-57620000D03*
D11*
X146175000Y-150400000D03*
D16*
X138555000Y-150400000D03*
D17*
X76715000Y-112800000D03*
D18*
X78365000Y-112800000D03*
X80015000Y-112800000D03*
X81665000Y-112800000D03*
D12*
X133135000Y-144000000D03*
D13*
X130595000Y-144000000D03*
D17*
X102720000Y-112900080D03*
D18*
X104370000Y-112900080D03*
X106020000Y-112900080D03*
X107670000Y-112900080D03*
D14*
X84360000Y-93910000D03*
D15*
X86900000Y-93910000D03*
X89440000Y-93910000D03*
X91980000Y-93910000D03*
D14*
X23500000Y-50000000D03*
D15*
X23500000Y-52540000D03*
X23500000Y-55080000D03*
X23500000Y-57620000D03*
D21*
X23500000Y-50000000D02*
X23500000Y-52540000D01*
X23500000Y-50000000D02*
X34750000Y-50000000D01*
X23500000Y-55080000D02*
X23500000Y-57620000D01*
X23500000Y-52540000D02*
X23500000Y-55080000D01*
X23500000Y-57620000D02*
X33620000Y-57620000D01*
X23500000Y-52540000D02*
X34210000Y-52540000D01*
X23500000Y-55080000D02*
X34080000Y-55080000D01*
D22*
X54250000Y-111250000D02*
X66750000Y-111250000D01*
X52500000Y-109500000D02*
X54250000Y-111250000D01*
X52500000Y-106000000D02*
X52500000Y-109500000D01*
X70900000Y-107100000D02*
X70900000Y-105000000D01*
X66750000Y-111250000D02*
X70900000Y-107100000D01*
X133105000Y-143970000D02*
X133135000Y-144000000D01*
X133105000Y-139550000D02*
X133105000Y-143970000D01*
X133100000Y-158350000D02*
X131690000Y-156940000D01*
X131690000Y-156940000D02*
X131690000Y-155200000D01*
X134605000Y-158350000D02*
X133100000Y-158350000D01*
X120755000Y-155505000D02*
X121455000Y-156205000D01*
X121455000Y-156205000D02*
X121455000Y-163600000D01*
X120755000Y-150900000D02*
X120755000Y-155505000D01*
X120755000Y-144605000D02*
X119925000Y-143775000D01*
X119925000Y-143775000D02*
X119925000Y-140800000D01*
X120755000Y-147150000D02*
X120755000Y-144605000D01*
X138555000Y-146030000D02*
X138525000Y-146000000D01*
X138555000Y-150400000D02*
X138555000Y-146030000D01*
X129155000Y-164030000D02*
X129125000Y-164000000D01*
X129155000Y-168950000D02*
X129155000Y-164030000D01*
X47095000Y-167700000D02*
X47095000Y-165295000D01*
X47095000Y-165295000D02*
X47020000Y-165220000D01*
X47020000Y-165220000D02*
X47020000Y-162800000D01*
X49575000Y-161200000D02*
X52975000Y-164600000D01*
X45400000Y-161200000D02*
X49575000Y-161200000D01*
X42145000Y-167700000D02*
X42145000Y-164455000D01*
X42145000Y-164455000D02*
X45400000Y-161200000D01*
X56600000Y-114800000D02*
X64300000Y-122500000D01*
X40000000Y-138000000D02*
X40000000Y-125200000D01*
X40000000Y-125200000D02*
X50400000Y-114800000D01*
X50400000Y-114800000D02*
X56600000Y-114800000D01*
X36427500Y-141572500D02*
X40000000Y-138000000D01*
X28802500Y-141572500D02*
X36427500Y-141572500D01*
X64300000Y-122500000D02*
X75750000Y-122500000D01*
X83370000Y-122500000D02*
X83370000Y-117570000D01*
X81665000Y-115865000D02*
X81665000Y-112800000D01*
X83370000Y-117570000D02*
X81665000Y-115865000D01*
X109020000Y-121800000D02*
X109020000Y-117220000D01*
X107670000Y-115870000D02*
X107670000Y-112900080D01*
X109020000Y-117220000D02*
X107670000Y-115870000D01*
X43350000Y-173200000D02*
X43350000Y-175050000D01*
X78950000Y-173450000D02*
X78950000Y-172000000D01*
X71250000Y-112000000D02*
X78000000Y-118750000D01*
X84200000Y-170200000D02*
X84660000Y-169740000D01*
X78950000Y-172000000D02*
X78950000Y-171050000D01*
X82600000Y-124000000D02*
X86000000Y-124000000D01*
X86000000Y-124000000D02*
X91400000Y-118600000D01*
X76400000Y-176000000D02*
X78950000Y-173450000D01*
X79800000Y-170200000D02*
X84200000Y-170200000D01*
X44300000Y-176000000D02*
X76400000Y-176000000D01*
X84660000Y-169740000D02*
X84660000Y-168490000D01*
X78000000Y-116000000D02*
X78365000Y-115635000D01*
X78000000Y-118750000D02*
X82000000Y-122750000D01*
X103950000Y-116450000D02*
X104370000Y-116030000D01*
X78950000Y-171050000D02*
X79800000Y-170200000D01*
X82000000Y-123400000D02*
X82600000Y-124000000D01*
X78000000Y-118750000D02*
X78000000Y-116000000D01*
X43350000Y-175050000D02*
X44300000Y-176000000D01*
X91400000Y-118600000D02*
X103950000Y-118600000D01*
X104370000Y-116030000D02*
X104370000Y-112900080D01*
X28802500Y-118712500D02*
X28802500Y-115597500D01*
X103950000Y-118600000D02*
X103950000Y-116450000D01*
X78365000Y-115635000D02*
X78365000Y-112800000D01*
X32400000Y-112000000D02*
X71250000Y-112000000D01*
X28802500Y-115597500D02*
X32400000Y-112000000D01*
X104250000Y-113020080D02*
X104370000Y-112900080D01*
X82000000Y-122750000D02*
X82000000Y-123400000D01*
X58900000Y-165700000D02*
X58900000Y-163500000D01*
X88700000Y-166100000D02*
X78200000Y-166100000D01*
X95400000Y-169000000D02*
X91600000Y-169000000D01*
X97000000Y-167400000D02*
X95400000Y-169000000D01*
X97000000Y-166400000D02*
X97000000Y-167400000D01*
X64100000Y-165500000D02*
X63300000Y-166300000D01*
X51200000Y-155800000D02*
X51200000Y-142600000D01*
X52227500Y-141572500D02*
X54202500Y-141572500D01*
X63300000Y-166300000D02*
X59500000Y-166300000D01*
X91600000Y-169000000D02*
X88700000Y-166100000D01*
X59500000Y-166300000D02*
X58900000Y-165700000D01*
X58900000Y-163500000D02*
X51200000Y-155800000D01*
X51200000Y-142600000D02*
X52227500Y-141572500D01*
X78200000Y-166100000D02*
X77600000Y-165500000D01*
X77600000Y-165500000D02*
X64100000Y-165500000D01*
X77000000Y-166000000D02*
X64600000Y-166000000D01*
X64600000Y-166000000D02*
X63800000Y-166800000D01*
X50600000Y-140400000D02*
X51967500Y-139032500D01*
X102080000Y-167720000D02*
X100200000Y-169600000D01*
X51967500Y-139032500D02*
X54202500Y-139032500D01*
X50600000Y-156000000D02*
X50600000Y-140400000D01*
X77600000Y-166600000D02*
X77000000Y-166000000D01*
X58400000Y-163800000D02*
X50600000Y-156000000D01*
X91400000Y-169600000D02*
X88400000Y-166600000D01*
X102080000Y-166400000D02*
X102080000Y-167720000D01*
X58400000Y-166000000D02*
X58400000Y-163800000D01*
X88400000Y-166600000D02*
X77600000Y-166600000D01*
X100200000Y-169600000D02*
X91400000Y-169600000D01*
X63800000Y-166800000D02*
X59200000Y-166800000D01*
X59200000Y-166800000D02*
X58400000Y-166000000D01*
X35400000Y-167200000D02*
X35400000Y-158800000D01*
X35400000Y-158800000D02*
X45900000Y-148300000D01*
X45900000Y-128900000D02*
X48467500Y-126332500D01*
X45900000Y-148300000D02*
X45900000Y-128900000D01*
X48467500Y-126332500D02*
X54202500Y-126332500D01*
X30320000Y-167200000D02*
X30320000Y-163080000D01*
X45400000Y-148000000D02*
X45400000Y-126000000D01*
X47607500Y-123792500D02*
X54202500Y-123792500D01*
X30320000Y-163080000D02*
X45400000Y-148000000D01*
X45400000Y-126000000D02*
X47607500Y-123792500D01*
X49787500Y-131412500D02*
X54202500Y-131412500D01*
X59400000Y-174000000D02*
X59400000Y-171600000D01*
X47800000Y-133400000D02*
X49787500Y-131412500D01*
X56300000Y-164700000D02*
X47800000Y-156200000D01*
X56300000Y-168500000D02*
X56300000Y-164700000D01*
X59400000Y-171600000D02*
X56300000Y-168500000D01*
X47800000Y-156200000D02*
X47800000Y-133400000D01*
X55800000Y-169600000D02*
X55800000Y-164907106D01*
X55800000Y-164907106D02*
X47200000Y-156307106D01*
X47200000Y-131000000D02*
X49327500Y-128872500D01*
X54320000Y-171080000D02*
X55800000Y-169600000D01*
X54320000Y-174000000D02*
X54320000Y-171080000D01*
X47200000Y-156307106D02*
X47200000Y-131000000D01*
X49327500Y-128872500D02*
X54202500Y-128872500D01*
X74000000Y-170600000D02*
X72800000Y-169400000D01*
X58607106Y-167500000D02*
X57700000Y-166592894D01*
X61607106Y-167500000D02*
X58607106Y-167500000D01*
X57700000Y-166592894D02*
X57700000Y-164100000D01*
X49100000Y-155500000D02*
X49100000Y-139100000D01*
X74000000Y-172200000D02*
X74000000Y-170600000D01*
X49100000Y-139100000D02*
X51707500Y-136492500D01*
X57700000Y-164100000D02*
X49100000Y-155500000D01*
X63507106Y-169400000D02*
X61607106Y-167500000D01*
X51707500Y-136492500D02*
X54202500Y-136492500D01*
X72800000Y-169400000D02*
X63507106Y-169400000D01*
X48600000Y-155800000D02*
X48600000Y-137200000D01*
X57200000Y-166800000D02*
X57200000Y-164400000D01*
X66920000Y-170200000D02*
X63600000Y-170200000D01*
X57200000Y-164400000D02*
X48600000Y-155800000D01*
X68920000Y-172200000D02*
X66920000Y-170200000D01*
X58400000Y-168000000D02*
X57200000Y-166800000D01*
X61400000Y-168000000D02*
X58400000Y-168000000D01*
X51847500Y-133952500D02*
X54202500Y-133952500D01*
X63600000Y-170200000D02*
X61400000Y-168000000D01*
X48600000Y-137200000D02*
X51847500Y-133952500D01*
X43000000Y-143200000D02*
X43000000Y-126200000D01*
X52200000Y-117000000D02*
X55200000Y-117000000D01*
X113500000Y-126100000D02*
X122465000Y-135065000D01*
X64000000Y-125800000D02*
X78878682Y-125800000D01*
X80178682Y-127100000D02*
X88300000Y-127100000D01*
X31927500Y-154272500D02*
X43000000Y-143200000D01*
X28802500Y-154272500D02*
X31927500Y-154272500D01*
X89300000Y-126100000D02*
X113500000Y-126100000D01*
X78878682Y-125800000D02*
X80178682Y-127100000D01*
X55200000Y-117000000D02*
X64000000Y-125800000D01*
X88300000Y-127100000D02*
X89300000Y-126100000D01*
X43000000Y-126200000D02*
X52200000Y-117000000D01*
X122465000Y-135065000D02*
X122465000Y-140800000D01*
X88000000Y-126600000D02*
X89000000Y-125600000D01*
X114400000Y-125600000D02*
X124000000Y-135200000D01*
X55600000Y-116400000D02*
X64400000Y-125200000D01*
X42000000Y-126000000D02*
X51600000Y-116400000D01*
X78985788Y-125200000D02*
X80385788Y-126600000D01*
X123995000Y-135205000D02*
X123995000Y-163600000D01*
X124000000Y-135200000D02*
X123995000Y-135205000D01*
X28802500Y-151732500D02*
X32267500Y-151732500D01*
X64400000Y-125200000D02*
X78985788Y-125200000D01*
X80385788Y-126600000D02*
X88000000Y-126600000D01*
X51600000Y-116400000D02*
X55600000Y-116400000D01*
X32267500Y-151732500D02*
X42000000Y-142000000D01*
X42000000Y-142000000D02*
X42000000Y-126000000D01*
X89000000Y-125600000D02*
X114400000Y-125600000D01*
X56200000Y-115600000D02*
X65000000Y-124400000D01*
X88700000Y-125100000D02*
X114900000Y-125100000D01*
X80592894Y-126100000D02*
X87700000Y-126100000D01*
X127000000Y-153050000D02*
X129150000Y-155200000D01*
X127000000Y-137200000D02*
X127000000Y-153050000D01*
X35687500Y-144112500D02*
X40800000Y-139000000D01*
X87700000Y-126100000D02*
X88700000Y-125100000D01*
X28802500Y-144112500D02*
X35687500Y-144112500D01*
X40800000Y-139000000D02*
X40800000Y-125600000D01*
X65000000Y-124400000D02*
X78892894Y-124400000D01*
X78892894Y-124400000D02*
X80592894Y-126100000D01*
X114900000Y-125100000D02*
X127000000Y-137200000D01*
X50800000Y-115600000D02*
X56200000Y-115600000D01*
X40800000Y-125600000D02*
X50800000Y-115600000D01*
X69400000Y-114200000D02*
X80800000Y-125600000D01*
X38400000Y-129400000D02*
X38400000Y-125200000D01*
X130595000Y-139795000D02*
X130595000Y-144000000D01*
X80800000Y-125600000D02*
X87400000Y-125600000D01*
X88400000Y-124600000D02*
X115400000Y-124600000D01*
X115400000Y-124600000D02*
X130595000Y-139795000D01*
X31307500Y-136492500D02*
X38400000Y-129400000D01*
X38400000Y-125200000D02*
X49400000Y-114200000D01*
X49400000Y-114200000D02*
X69400000Y-114200000D01*
X28802500Y-136492500D02*
X31307500Y-136492500D01*
X87400000Y-125600000D02*
X88400000Y-124600000D01*
X37400000Y-128200000D02*
X37400000Y-122800000D01*
X37400000Y-122800000D02*
X46800000Y-113400000D01*
X87007106Y-125100000D02*
X88007106Y-124100000D01*
X46800000Y-113400000D02*
X69600000Y-113400000D01*
X127600000Y-134350000D02*
X139400000Y-134350000D01*
X28802500Y-133952500D02*
X31647500Y-133952500D01*
X143050000Y-144015000D02*
X141065000Y-146000000D01*
X88007106Y-124100000D02*
X117350000Y-124100000D01*
X139400000Y-134350000D02*
X143050000Y-138000000D01*
X31647500Y-133952500D02*
X37400000Y-128200000D01*
X81300000Y-125100000D02*
X87007106Y-125100000D01*
X143050000Y-138000000D02*
X143050000Y-144015000D01*
X69600000Y-113400000D02*
X81300000Y-125100000D01*
X117350000Y-124100000D02*
X127600000Y-134350000D01*
X81600000Y-124600000D02*
X86800000Y-124600000D01*
X28802500Y-131412500D02*
X32187500Y-131412500D01*
X87800000Y-123600000D02*
X117950000Y-123600000D01*
X128000000Y-133650000D02*
X140700000Y-133650000D01*
X32187500Y-131412500D02*
X36400000Y-127200000D01*
X86800000Y-124600000D02*
X87800000Y-123600000D01*
X36400000Y-121400000D02*
X45000000Y-112800000D01*
X117950000Y-123600000D02*
X128000000Y-133650000D01*
X36400000Y-127200000D02*
X36400000Y-121400000D01*
X144450000Y-159700000D02*
X140150000Y-164000000D01*
X69800000Y-112800000D02*
X81600000Y-124600000D01*
X45000000Y-112800000D02*
X69800000Y-112800000D01*
X144450000Y-137400000D02*
X144450000Y-159700000D01*
X140700000Y-133650000D02*
X144450000Y-137400000D01*
X140150000Y-164000000D02*
X131665000Y-164000000D01*
D21*
X23500000Y-133000000D02*
X23500000Y-135540000D01*
X25877500Y-128872500D02*
X23500000Y-131250000D01*
X23500000Y-138080000D02*
X23500000Y-140620000D01*
X23500000Y-135540000D02*
X23500000Y-138080000D01*
X23500000Y-131250000D02*
X23500000Y-133000000D01*
X28802500Y-128872500D02*
X25877500Y-128872500D01*
M02*
